G04 (created by PCBNEW (2013-jul-07)-stable) date Sat 15 Mar 2014 05:33:54 EET*
%MOIN*%
G04 Gerber Fmt 3.4, Leading zero omitted, Abs format*
%FSLAX34Y34*%
G01*
G70*
G90*
G04 APERTURE LIST*
%ADD10C,0.00590551*%
%ADD11C,0.00393701*%
%ADD12C,0.0001*%
%ADD13R,0.067874X0.067874*%
%ADD14C,0.067874*%
%ADD15R,0.0826772X0.0826772*%
%ADD16R,0.0669291X0.0669291*%
%ADD17C,0.0551181*%
%ADD18C,0.0452756*%
G04 APERTURE END LIST*
G54D10*
G54D11*
X7874Y-26771D02*
X8661Y-27559D01*
X8661Y-7874D02*
X7874Y-8661D01*
X26771Y-7874D02*
X27559Y-8661D01*
X26771Y-7874D02*
X8661Y-7874D01*
X27559Y-27559D02*
X27559Y-8661D01*
X8661Y-27559D02*
X27559Y-27559D01*
X7874Y-8661D02*
X7874Y-26771D01*
G54D12*
G36*
X24586Y-25345D02*
X24635Y-25345D01*
X24682Y-25345D01*
X24682Y-25020D01*
X24689Y-24904D01*
X24692Y-24858D01*
X24696Y-24820D01*
X24700Y-24793D01*
X24703Y-24782D01*
X24715Y-24777D01*
X24741Y-24772D01*
X24777Y-24766D01*
X24787Y-24764D01*
X24827Y-24759D01*
X24851Y-24758D01*
X24868Y-24760D01*
X24880Y-24768D01*
X24888Y-24775D01*
X24898Y-24786D01*
X24904Y-24798D01*
X24908Y-24817D01*
X24910Y-24845D01*
X24911Y-24887D01*
X24911Y-24908D01*
X24911Y-25020D01*
X24797Y-25020D01*
X24682Y-25020D01*
X24682Y-25345D01*
X24685Y-25345D01*
X24685Y-25216D01*
X24685Y-25089D01*
X24798Y-25089D01*
X24911Y-25089D01*
X24911Y-25216D01*
X24911Y-25345D01*
X24960Y-25345D01*
X25009Y-25345D01*
X25009Y-25062D01*
X25009Y-24779D01*
X24968Y-24737D01*
X24927Y-24695D01*
X24798Y-24695D01*
X24669Y-24695D01*
X24628Y-24737D01*
X24586Y-24779D01*
X24586Y-25062D01*
X24586Y-25345D01*
X24586Y-25345D01*
X24586Y-25345D01*
G37*
G36*
X24163Y-25345D02*
X24276Y-25345D01*
X24389Y-25345D01*
X24389Y-25310D01*
X24388Y-25287D01*
X24379Y-25277D01*
X24360Y-25275D01*
X24330Y-25275D01*
X24330Y-25020D01*
X24330Y-24764D01*
X24360Y-24764D01*
X24379Y-24762D01*
X24388Y-24752D01*
X24389Y-24729D01*
X24389Y-24695D01*
X24310Y-24695D01*
X24232Y-24695D01*
X24232Y-24985D01*
X24232Y-25275D01*
X24197Y-25275D01*
X24174Y-25277D01*
X24165Y-25285D01*
X24163Y-25307D01*
X24163Y-25310D01*
X24163Y-25345D01*
X24163Y-25345D01*
X24163Y-25345D01*
G37*
G36*
X23021Y-25345D02*
X23070Y-25345D01*
X23120Y-25345D01*
X23120Y-25305D01*
X23122Y-25282D01*
X23129Y-25262D01*
X23146Y-25238D01*
X23171Y-25209D01*
X23196Y-25182D01*
X23216Y-25163D01*
X23227Y-25154D01*
X23228Y-25154D01*
X23237Y-25160D01*
X23257Y-25176D01*
X23284Y-25199D01*
X23289Y-25203D01*
X23317Y-25228D01*
X23334Y-25247D01*
X23342Y-25264D01*
X23345Y-25285D01*
X23345Y-25298D01*
X23346Y-25345D01*
X23395Y-25345D01*
X23444Y-25345D01*
X23444Y-25308D01*
X23443Y-25289D01*
X23436Y-25270D01*
X23422Y-25249D01*
X23398Y-25220D01*
X23375Y-25194D01*
X23305Y-25118D01*
X23375Y-25041D01*
X23407Y-25004D01*
X23428Y-24978D01*
X23439Y-24957D01*
X23444Y-24939D01*
X23444Y-24928D01*
X23444Y-24892D01*
X23395Y-24892D01*
X23346Y-24892D01*
X23346Y-24931D01*
X23344Y-24954D01*
X23336Y-24975D01*
X23319Y-24999D01*
X23295Y-25027D01*
X23271Y-25054D01*
X23252Y-25075D01*
X23243Y-25086D01*
X23242Y-25086D01*
X23234Y-25082D01*
X23216Y-25066D01*
X23190Y-25043D01*
X23180Y-25034D01*
X23150Y-25006D01*
X23132Y-24985D01*
X23123Y-24968D01*
X23120Y-24949D01*
X23120Y-24935D01*
X23120Y-24892D01*
X23070Y-24892D01*
X23021Y-24892D01*
X23021Y-24928D01*
X23023Y-24946D01*
X23030Y-24965D01*
X23045Y-24987D01*
X23069Y-25017D01*
X23091Y-25041D01*
X23161Y-25118D01*
X23091Y-25194D01*
X23059Y-25230D01*
X23038Y-25256D01*
X23027Y-25276D01*
X23022Y-25294D01*
X23021Y-25308D01*
X23021Y-25345D01*
X23021Y-25345D01*
X23021Y-25345D01*
G37*
G36*
X22499Y-25345D02*
X22598Y-25345D01*
X22598Y-25275D01*
X22598Y-25197D01*
X22598Y-25118D01*
X22699Y-25118D01*
X22800Y-25118D01*
X22817Y-25164D01*
X22826Y-25193D01*
X22828Y-25211D01*
X22822Y-25228D01*
X22813Y-25243D01*
X22793Y-25275D01*
X22696Y-25275D01*
X22598Y-25275D01*
X22598Y-25345D01*
X22670Y-25345D01*
X22840Y-25345D01*
X22881Y-25302D01*
X22904Y-25278D01*
X22916Y-25259D01*
X22921Y-25237D01*
X22923Y-25205D01*
X22923Y-25196D01*
X22922Y-25161D01*
X22918Y-25138D01*
X22908Y-25119D01*
X22888Y-25098D01*
X22881Y-25091D01*
X22839Y-25050D01*
X22715Y-25047D01*
X22590Y-25044D01*
X22605Y-25008D01*
X22611Y-24994D01*
X22618Y-24983D01*
X22630Y-24975D01*
X22648Y-24970D01*
X22676Y-24965D01*
X22717Y-24961D01*
X22774Y-24957D01*
X22802Y-24955D01*
X22893Y-24949D01*
X22893Y-24920D01*
X22893Y-24892D01*
X22738Y-24892D01*
X22583Y-24892D01*
X22541Y-24930D01*
X22499Y-24968D01*
X22499Y-25156D01*
X22499Y-25345D01*
X22499Y-25345D01*
X22499Y-25345D01*
G37*
G36*
X21978Y-25345D02*
X22032Y-25345D01*
X22086Y-25345D01*
X22086Y-25158D01*
X22086Y-24972D01*
X22147Y-24966D01*
X22190Y-24962D01*
X22233Y-24957D01*
X22256Y-24954D01*
X22303Y-24949D01*
X22303Y-25147D01*
X22303Y-25345D01*
X22352Y-25345D01*
X22401Y-25345D01*
X22401Y-25118D01*
X22401Y-24892D01*
X22231Y-24892D01*
X22061Y-24892D01*
X22019Y-24934D01*
X21978Y-24976D01*
X21978Y-25160D01*
X21978Y-25345D01*
X21978Y-25345D01*
X21978Y-25345D01*
G37*
G36*
X21456Y-25345D02*
X21555Y-25345D01*
X21555Y-25216D01*
X21555Y-25166D01*
X21555Y-25123D01*
X21555Y-24960D01*
X21655Y-24963D01*
X21756Y-24965D01*
X21771Y-25006D01*
X21778Y-25029D01*
X21781Y-25055D01*
X21782Y-25088D01*
X21779Y-25133D01*
X21777Y-25156D01*
X21768Y-25265D01*
X21703Y-25270D01*
X21666Y-25274D01*
X21635Y-25278D01*
X21619Y-25280D01*
X21595Y-25283D01*
X21578Y-25285D01*
X21567Y-25281D01*
X21560Y-25270D01*
X21556Y-25249D01*
X21555Y-25216D01*
X21555Y-25345D01*
X21626Y-25345D01*
X21797Y-25345D01*
X21838Y-25302D01*
X21879Y-25260D01*
X21879Y-25117D01*
X21879Y-24975D01*
X21837Y-24933D01*
X21795Y-24892D01*
X21675Y-24892D01*
X21555Y-24892D01*
X21555Y-24793D01*
X21555Y-24695D01*
X21505Y-24695D01*
X21456Y-24695D01*
X21456Y-25020D01*
X21456Y-25345D01*
X21456Y-25345D01*
X21456Y-25345D01*
G37*
G36*
X20944Y-24961D02*
X21043Y-24961D01*
X21143Y-24961D01*
X21201Y-25012D01*
X21259Y-25063D01*
X21259Y-25204D01*
X21259Y-25345D01*
X21309Y-25345D01*
X21358Y-25345D01*
X21358Y-25118D01*
X21358Y-24892D01*
X21309Y-24892D01*
X21259Y-24892D01*
X21259Y-24933D01*
X21259Y-24975D01*
X21217Y-24933D01*
X21175Y-24892D01*
X21060Y-24892D01*
X20944Y-24892D01*
X20944Y-24926D01*
X20944Y-24961D01*
X20944Y-24961D01*
X20944Y-24961D01*
G37*
G36*
X19901Y-25272D02*
X19939Y-25308D01*
X19976Y-25345D01*
X20009Y-25345D01*
X20009Y-25263D01*
X20009Y-25148D01*
X20009Y-25032D01*
X20009Y-24939D01*
X20009Y-24857D01*
X20009Y-24776D01*
X20076Y-24769D01*
X20117Y-24765D01*
X20155Y-24761D01*
X20179Y-24758D01*
X20216Y-24752D01*
X20216Y-24857D01*
X20216Y-24962D01*
X20169Y-24957D01*
X20131Y-24952D01*
X20087Y-24947D01*
X20066Y-24945D01*
X20009Y-24939D01*
X20009Y-25032D01*
X20085Y-25026D01*
X20125Y-25023D01*
X20162Y-25021D01*
X20187Y-25020D01*
X20188Y-25020D01*
X20216Y-25020D01*
X20216Y-25153D01*
X20216Y-25287D01*
X20179Y-25282D01*
X20149Y-25278D01*
X20110Y-25273D01*
X20076Y-25270D01*
X20009Y-25263D01*
X20009Y-25345D01*
X20145Y-25345D01*
X20314Y-25345D01*
X20314Y-25020D01*
X20314Y-24695D01*
X20144Y-24695D01*
X19974Y-24695D01*
X19938Y-24732D01*
X19919Y-24752D01*
X19908Y-24769D01*
X19903Y-24790D01*
X19901Y-24820D01*
X19901Y-24843D01*
X19902Y-24880D01*
X19905Y-24905D01*
X19912Y-24923D01*
X19926Y-24941D01*
X19938Y-24953D01*
X19974Y-24990D01*
X19938Y-25027D01*
X19901Y-25065D01*
X19901Y-25168D01*
X19901Y-25272D01*
X19901Y-25272D01*
X19901Y-25272D01*
G37*
G36*
X19379Y-25272D02*
X19417Y-25308D01*
X19454Y-25345D01*
X19488Y-25345D01*
X19488Y-25266D01*
X19488Y-25119D01*
X19488Y-24972D01*
X19530Y-24966D01*
X19567Y-24962D01*
X19608Y-24959D01*
X19619Y-24958D01*
X19666Y-24956D01*
X19684Y-25001D01*
X19691Y-25024D01*
X19696Y-25046D01*
X19697Y-25073D01*
X19695Y-25111D01*
X19691Y-25156D01*
X19682Y-25266D01*
X19585Y-25266D01*
X19488Y-25266D01*
X19488Y-25345D01*
X19582Y-25345D01*
X19710Y-25345D01*
X19751Y-25302D01*
X19793Y-25260D01*
X19793Y-25117D01*
X19793Y-24975D01*
X19751Y-24933D01*
X19709Y-24892D01*
X19580Y-24892D01*
X19452Y-24892D01*
X19416Y-24929D01*
X19379Y-24966D01*
X19379Y-25119D01*
X19379Y-25272D01*
X19379Y-25272D01*
X19379Y-25272D01*
G37*
G36*
X18946Y-25345D02*
X19060Y-25345D01*
X19173Y-25345D01*
X19173Y-25310D01*
X19171Y-25287D01*
X19163Y-25277D01*
X19143Y-25275D01*
X19114Y-25275D01*
X19114Y-25020D01*
X19114Y-24764D01*
X19143Y-24764D01*
X19163Y-24762D01*
X19171Y-24752D01*
X19173Y-24729D01*
X19173Y-24695D01*
X19094Y-24695D01*
X19015Y-24695D01*
X19015Y-24985D01*
X19015Y-25275D01*
X18981Y-25275D01*
X18958Y-25277D01*
X18948Y-25285D01*
X18946Y-25307D01*
X18946Y-25310D01*
X18946Y-25345D01*
X18946Y-25345D01*
X18946Y-25345D01*
G37*
G36*
X18326Y-25345D02*
X18425Y-25345D01*
X18425Y-25216D01*
X18425Y-25166D01*
X18425Y-25123D01*
X18425Y-24960D01*
X18525Y-24963D01*
X18626Y-24965D01*
X18641Y-25006D01*
X18648Y-25029D01*
X18651Y-25055D01*
X18652Y-25088D01*
X18649Y-25133D01*
X18647Y-25156D01*
X18638Y-25265D01*
X18573Y-25270D01*
X18537Y-25274D01*
X18506Y-25278D01*
X18489Y-25280D01*
X18465Y-25283D01*
X18448Y-25285D01*
X18437Y-25281D01*
X18430Y-25270D01*
X18426Y-25249D01*
X18425Y-25216D01*
X18425Y-25345D01*
X18496Y-25345D01*
X18667Y-25345D01*
X18708Y-25302D01*
X18749Y-25260D01*
X18749Y-25117D01*
X18749Y-24975D01*
X18707Y-24933D01*
X18665Y-24892D01*
X18545Y-24892D01*
X18425Y-24892D01*
X18425Y-24793D01*
X18425Y-24695D01*
X18375Y-24695D01*
X18326Y-24695D01*
X18326Y-25020D01*
X18326Y-25345D01*
X18326Y-25345D01*
X18326Y-25345D01*
G37*
G36*
X17903Y-25345D02*
X18016Y-25345D01*
X18129Y-25345D01*
X18129Y-25310D01*
X18128Y-25287D01*
X18119Y-25277D01*
X18100Y-25275D01*
X18070Y-25275D01*
X18070Y-25118D01*
X18070Y-24961D01*
X18100Y-24961D01*
X18120Y-24959D01*
X18128Y-24949D01*
X18129Y-24926D01*
X18129Y-24892D01*
X18051Y-24892D01*
X17972Y-24892D01*
X17972Y-25084D01*
X17972Y-25275D01*
X17937Y-25275D01*
X17914Y-25277D01*
X17905Y-25285D01*
X17903Y-25307D01*
X17903Y-25310D01*
X17903Y-25345D01*
X17903Y-25345D01*
X17903Y-25345D01*
G37*
G36*
X17283Y-25345D02*
X17337Y-25345D01*
X17391Y-25345D01*
X17391Y-25158D01*
X17391Y-24972D01*
X17453Y-24966D01*
X17495Y-24962D01*
X17538Y-24957D01*
X17561Y-24954D01*
X17608Y-24949D01*
X17608Y-25147D01*
X17608Y-25345D01*
X17657Y-25345D01*
X17706Y-25345D01*
X17706Y-25118D01*
X17706Y-24892D01*
X17536Y-24892D01*
X17366Y-24892D01*
X17324Y-24934D01*
X17283Y-24976D01*
X17283Y-25160D01*
X17283Y-25345D01*
X17283Y-25345D01*
X17283Y-25345D01*
G37*
G36*
X23553Y-25275D02*
X23555Y-25290D01*
X23562Y-25309D01*
X23572Y-25335D01*
X23722Y-25335D01*
X23873Y-25335D01*
X23920Y-25303D01*
X23966Y-25271D01*
X23966Y-25117D01*
X23966Y-24963D01*
X23923Y-24927D01*
X23879Y-24892D01*
X23752Y-24892D01*
X23626Y-24892D01*
X23589Y-24929D01*
X23553Y-24966D01*
X23553Y-25057D01*
X23553Y-25148D01*
X23640Y-25148D01*
X23640Y-25079D01*
X23647Y-25032D01*
X23653Y-25002D01*
X23663Y-24980D01*
X23667Y-24974D01*
X23684Y-24968D01*
X23713Y-24961D01*
X23750Y-24956D01*
X23751Y-24956D01*
X23788Y-24953D01*
X23812Y-24954D01*
X23828Y-24959D01*
X23842Y-24969D01*
X23844Y-24971D01*
X23861Y-24994D01*
X23867Y-25024D01*
X23867Y-25036D01*
X23867Y-25079D01*
X23754Y-25079D01*
X23640Y-25079D01*
X23640Y-25148D01*
X23711Y-25148D01*
X23870Y-25148D01*
X23863Y-25194D01*
X23858Y-25223D01*
X23853Y-25244D01*
X23851Y-25249D01*
X23840Y-25251D01*
X23813Y-25253D01*
X23774Y-25255D01*
X23725Y-25256D01*
X23700Y-25256D01*
X23641Y-25256D01*
X23599Y-25257D01*
X23572Y-25260D01*
X23558Y-25266D01*
X23553Y-25275D01*
X23553Y-25275D01*
X23553Y-25275D01*
G37*
G36*
X17972Y-24823D02*
X18021Y-24823D01*
X18070Y-24823D01*
X18070Y-24759D01*
X18070Y-24695D01*
X18021Y-24695D01*
X17972Y-24695D01*
X17972Y-24759D01*
X17972Y-24823D01*
X17972Y-24823D01*
X17972Y-24823D01*
G37*
G36*
X24586Y-24311D02*
X24635Y-24311D01*
X24682Y-24311D01*
X24682Y-23986D01*
X24689Y-23871D01*
X24692Y-23825D01*
X24696Y-23786D01*
X24700Y-23759D01*
X24703Y-23748D01*
X24715Y-23744D01*
X24741Y-23738D01*
X24777Y-23732D01*
X24787Y-23731D01*
X24827Y-23726D01*
X24851Y-23724D01*
X24868Y-23727D01*
X24880Y-23734D01*
X24888Y-23742D01*
X24898Y-23752D01*
X24904Y-23765D01*
X24908Y-23783D01*
X24910Y-23811D01*
X24911Y-23854D01*
X24911Y-23875D01*
X24911Y-23986D01*
X24797Y-23986D01*
X24682Y-23986D01*
X24682Y-24311D01*
X24685Y-24311D01*
X24685Y-24183D01*
X24685Y-24055D01*
X24798Y-24055D01*
X24911Y-24055D01*
X24911Y-24183D01*
X24911Y-24311D01*
X24960Y-24311D01*
X25009Y-24311D01*
X25009Y-24028D01*
X25009Y-23746D01*
X24968Y-23703D01*
X24927Y-23661D01*
X24798Y-23661D01*
X24669Y-23661D01*
X24628Y-23703D01*
X24586Y-23746D01*
X24586Y-24028D01*
X24586Y-24311D01*
X24586Y-24311D01*
X24586Y-24311D01*
G37*
G36*
X24163Y-24311D02*
X24276Y-24311D01*
X24389Y-24311D01*
X24389Y-24277D01*
X24388Y-24253D01*
X24379Y-24244D01*
X24360Y-24242D01*
X24330Y-24242D01*
X24330Y-23986D01*
X24330Y-23730D01*
X24360Y-23730D01*
X24379Y-23728D01*
X24388Y-23718D01*
X24389Y-23696D01*
X24389Y-23661D01*
X24310Y-23661D01*
X24232Y-23661D01*
X24232Y-23952D01*
X24232Y-24242D01*
X24197Y-24242D01*
X24174Y-24243D01*
X24165Y-24252D01*
X24163Y-24274D01*
X24163Y-24277D01*
X24163Y-24311D01*
X24163Y-24311D01*
X24163Y-24311D01*
G37*
G36*
X23021Y-24311D02*
X23070Y-24311D01*
X23120Y-24311D01*
X23120Y-24272D01*
X23122Y-24249D01*
X23129Y-24228D01*
X23146Y-24204D01*
X23171Y-24176D01*
X23196Y-24149D01*
X23216Y-24129D01*
X23227Y-24120D01*
X23228Y-24120D01*
X23237Y-24127D01*
X23257Y-24143D01*
X23284Y-24165D01*
X23289Y-24169D01*
X23317Y-24195D01*
X23334Y-24214D01*
X23342Y-24231D01*
X23345Y-24252D01*
X23345Y-24264D01*
X23346Y-24311D01*
X23395Y-24311D01*
X23444Y-24311D01*
X23444Y-24274D01*
X23443Y-24255D01*
X23436Y-24237D01*
X23422Y-24215D01*
X23398Y-24187D01*
X23375Y-24161D01*
X23305Y-24085D01*
X23375Y-24007D01*
X23407Y-23971D01*
X23428Y-23944D01*
X23439Y-23924D01*
X23444Y-23906D01*
X23444Y-23894D01*
X23444Y-23858D01*
X23395Y-23858D01*
X23346Y-23858D01*
X23346Y-23897D01*
X23344Y-23920D01*
X23336Y-23941D01*
X23319Y-23966D01*
X23295Y-23993D01*
X23271Y-24021D01*
X23252Y-24041D01*
X23243Y-24052D01*
X23242Y-24053D01*
X23234Y-24048D01*
X23216Y-24033D01*
X23190Y-24010D01*
X23180Y-24000D01*
X23150Y-23972D01*
X23132Y-23952D01*
X23123Y-23934D01*
X23120Y-23915D01*
X23120Y-23902D01*
X23120Y-23858D01*
X23070Y-23858D01*
X23021Y-23858D01*
X23021Y-23894D01*
X23023Y-23913D01*
X23030Y-23931D01*
X23045Y-23954D01*
X23069Y-23983D01*
X23091Y-24007D01*
X23161Y-24085D01*
X23091Y-24161D01*
X23059Y-24197D01*
X23038Y-24223D01*
X23027Y-24243D01*
X23022Y-24261D01*
X23021Y-24274D01*
X23021Y-24311D01*
X23021Y-24311D01*
X23021Y-24311D01*
G37*
G36*
X21978Y-24179D02*
X22044Y-24245D01*
X22076Y-24276D01*
X22076Y-24169D01*
X22076Y-23987D01*
X22076Y-23805D01*
X22113Y-23767D01*
X22132Y-23749D01*
X22148Y-23738D01*
X22167Y-23732D01*
X22195Y-23730D01*
X22226Y-23730D01*
X22303Y-23730D01*
X22303Y-23986D01*
X22303Y-24242D01*
X22227Y-24242D01*
X22188Y-24242D01*
X22163Y-24239D01*
X22145Y-24232D01*
X22128Y-24219D01*
X22114Y-24206D01*
X22076Y-24169D01*
X22076Y-24276D01*
X22111Y-24311D01*
X22256Y-24311D01*
X22401Y-24311D01*
X22401Y-23986D01*
X22401Y-23661D01*
X22256Y-23661D01*
X22110Y-23661D01*
X22044Y-23728D01*
X21978Y-23795D01*
X21978Y-23987D01*
X21978Y-24179D01*
X21978Y-24179D01*
X21978Y-24179D01*
G37*
G36*
X21456Y-24311D02*
X21555Y-24311D01*
X21555Y-24242D01*
X21555Y-24163D01*
X21555Y-24085D01*
X21656Y-24085D01*
X21757Y-24085D01*
X21773Y-24131D01*
X21783Y-24159D01*
X21785Y-24178D01*
X21779Y-24194D01*
X21770Y-24210D01*
X21750Y-24242D01*
X21652Y-24242D01*
X21555Y-24242D01*
X21555Y-24311D01*
X21626Y-24311D01*
X21797Y-24311D01*
X21838Y-24269D01*
X21860Y-24245D01*
X21873Y-24226D01*
X21878Y-24204D01*
X21879Y-24172D01*
X21879Y-24163D01*
X21879Y-24127D01*
X21875Y-24104D01*
X21864Y-24086D01*
X21845Y-24064D01*
X21837Y-24057D01*
X21796Y-24016D01*
X21671Y-24013D01*
X21547Y-24011D01*
X21561Y-23975D01*
X21568Y-23960D01*
X21575Y-23950D01*
X21586Y-23942D01*
X21605Y-23936D01*
X21633Y-23932D01*
X21674Y-23928D01*
X21731Y-23923D01*
X21759Y-23921D01*
X21850Y-23915D01*
X21850Y-23887D01*
X21850Y-23858D01*
X21695Y-23859D01*
X21540Y-23859D01*
X21498Y-23897D01*
X21456Y-23935D01*
X21456Y-24123D01*
X21456Y-24311D01*
X21456Y-24311D01*
X21456Y-24311D01*
G37*
G36*
X20935Y-24311D02*
X20989Y-24311D01*
X21043Y-24311D01*
X21043Y-24125D01*
X21043Y-23939D01*
X21104Y-23933D01*
X21147Y-23928D01*
X21190Y-23923D01*
X21213Y-23921D01*
X21259Y-23915D01*
X21259Y-24113D01*
X21259Y-24311D01*
X21309Y-24311D01*
X21358Y-24311D01*
X21358Y-24085D01*
X21358Y-23858D01*
X21188Y-23858D01*
X21017Y-23858D01*
X20976Y-23900D01*
X20935Y-23943D01*
X20935Y-24127D01*
X20935Y-24311D01*
X20935Y-24311D01*
X20935Y-24311D01*
G37*
G36*
X20511Y-24311D02*
X20624Y-24311D01*
X20738Y-24311D01*
X20738Y-24277D01*
X20736Y-24253D01*
X20728Y-24244D01*
X20708Y-24242D01*
X20679Y-24242D01*
X20679Y-24085D01*
X20679Y-23927D01*
X20708Y-23927D01*
X20728Y-23925D01*
X20736Y-23915D01*
X20738Y-23893D01*
X20738Y-23858D01*
X20659Y-23858D01*
X20580Y-23858D01*
X20580Y-24050D01*
X20580Y-24242D01*
X20546Y-24242D01*
X20523Y-24243D01*
X20513Y-24252D01*
X20511Y-24274D01*
X20511Y-24277D01*
X20511Y-24311D01*
X20511Y-24311D01*
X20511Y-24311D01*
G37*
G36*
X19468Y-24311D02*
X19581Y-24311D01*
X19694Y-24311D01*
X19694Y-24277D01*
X19693Y-24253D01*
X19684Y-24244D01*
X19665Y-24242D01*
X19635Y-24242D01*
X19635Y-23986D01*
X19635Y-23730D01*
X19665Y-23730D01*
X19685Y-23728D01*
X19693Y-23718D01*
X19694Y-23696D01*
X19694Y-23661D01*
X19616Y-23661D01*
X19537Y-23661D01*
X19537Y-23952D01*
X19537Y-24242D01*
X19502Y-24242D01*
X19479Y-24243D01*
X19470Y-24252D01*
X19468Y-24274D01*
X19468Y-24277D01*
X19468Y-24311D01*
X19468Y-24311D01*
X19468Y-24311D01*
G37*
G36*
X18297Y-23696D02*
X18298Y-23719D01*
X18307Y-23729D01*
X18326Y-23730D01*
X18356Y-23730D01*
X18356Y-23979D01*
X18356Y-24228D01*
X18398Y-24269D01*
X18440Y-24311D01*
X18553Y-24311D01*
X18667Y-24311D01*
X18708Y-24269D01*
X18731Y-24243D01*
X18744Y-24223D01*
X18749Y-24200D01*
X18749Y-24170D01*
X18749Y-24114D01*
X18706Y-24114D01*
X18662Y-24114D01*
X18647Y-24167D01*
X18638Y-24198D01*
X18633Y-24222D01*
X18631Y-24231D01*
X18628Y-24242D01*
X18615Y-24247D01*
X18590Y-24247D01*
X18549Y-24242D01*
X18539Y-24241D01*
X18464Y-24230D01*
X18464Y-23980D01*
X18464Y-23730D01*
X18493Y-23730D01*
X18514Y-23728D01*
X18522Y-23718D01*
X18523Y-23696D01*
X18523Y-23661D01*
X18410Y-23661D01*
X18297Y-23661D01*
X18297Y-23696D01*
X18297Y-23696D01*
X18297Y-23696D01*
G37*
G36*
X17805Y-24311D02*
X17903Y-24311D01*
X17903Y-24242D01*
X17903Y-24163D01*
X17903Y-24085D01*
X18004Y-24085D01*
X18105Y-24085D01*
X18122Y-24131D01*
X18131Y-24159D01*
X18133Y-24178D01*
X18127Y-24194D01*
X18118Y-24210D01*
X18098Y-24242D01*
X18001Y-24242D01*
X17903Y-24242D01*
X17903Y-24311D01*
X17975Y-24311D01*
X18145Y-24311D01*
X18186Y-24269D01*
X18209Y-24245D01*
X18221Y-24226D01*
X18227Y-24204D01*
X18228Y-24172D01*
X18228Y-24163D01*
X18227Y-24127D01*
X18223Y-24104D01*
X18213Y-24086D01*
X18193Y-24064D01*
X18186Y-24057D01*
X18144Y-24016D01*
X18020Y-24013D01*
X17895Y-24011D01*
X17910Y-23975D01*
X17916Y-23960D01*
X17923Y-23950D01*
X17935Y-23942D01*
X17953Y-23936D01*
X17981Y-23932D01*
X18022Y-23928D01*
X18079Y-23923D01*
X18107Y-23921D01*
X18198Y-23915D01*
X18198Y-23887D01*
X18198Y-23858D01*
X18043Y-23859D01*
X17888Y-23859D01*
X17847Y-23897D01*
X17805Y-23935D01*
X17805Y-24123D01*
X17805Y-24311D01*
X17805Y-24311D01*
X17805Y-24311D01*
G37*
G36*
X17271Y-24311D02*
X17314Y-24311D01*
X17331Y-24310D01*
X17345Y-24307D01*
X17361Y-24299D01*
X17380Y-24285D01*
X17406Y-24261D01*
X17441Y-24227D01*
X17462Y-24205D01*
X17568Y-24100D01*
X17568Y-24205D01*
X17568Y-24311D01*
X17618Y-24311D01*
X17667Y-24311D01*
X17667Y-23986D01*
X17667Y-23661D01*
X17618Y-23661D01*
X17568Y-23661D01*
X17568Y-23866D01*
X17568Y-24070D01*
X17462Y-23964D01*
X17422Y-23923D01*
X17391Y-23895D01*
X17370Y-23876D01*
X17353Y-23865D01*
X17338Y-23860D01*
X17322Y-23858D01*
X17314Y-23858D01*
X17271Y-23858D01*
X17376Y-23972D01*
X17482Y-24085D01*
X17376Y-24198D01*
X17271Y-24311D01*
X17271Y-24311D01*
X17271Y-24311D01*
G37*
G36*
X16860Y-24311D02*
X16973Y-24311D01*
X17086Y-24311D01*
X17086Y-24277D01*
X17084Y-24253D01*
X17076Y-24244D01*
X17057Y-24242D01*
X17027Y-24242D01*
X17027Y-24085D01*
X17027Y-23927D01*
X17057Y-23927D01*
X17076Y-23925D01*
X17085Y-23915D01*
X17086Y-23893D01*
X17086Y-23858D01*
X17007Y-23858D01*
X16928Y-23858D01*
X16928Y-24050D01*
X16928Y-24242D01*
X16894Y-24242D01*
X16871Y-24243D01*
X16862Y-24252D01*
X16860Y-24274D01*
X16860Y-24277D01*
X16860Y-24311D01*
X16860Y-24311D01*
X16860Y-24311D01*
G37*
G36*
X16249Y-24311D02*
X16299Y-24311D01*
X16348Y-24311D01*
X16348Y-24135D01*
X16348Y-23959D01*
X16372Y-23943D01*
X16391Y-23932D01*
X16402Y-23927D01*
X16403Y-23936D01*
X16405Y-23962D01*
X16406Y-24002D01*
X16407Y-24053D01*
X16407Y-24111D01*
X16407Y-24119D01*
X16407Y-24311D01*
X16456Y-24311D01*
X16505Y-24311D01*
X16505Y-24119D01*
X16505Y-23927D01*
X16535Y-23927D01*
X16564Y-23927D01*
X16564Y-24119D01*
X16564Y-24311D01*
X16614Y-24311D01*
X16663Y-24311D01*
X16663Y-24085D01*
X16663Y-23858D01*
X16498Y-23858D01*
X16332Y-23858D01*
X16291Y-23900D01*
X16249Y-23943D01*
X16249Y-24127D01*
X16249Y-24311D01*
X16249Y-24311D01*
X16249Y-24311D01*
G37*
G36*
X15196Y-24311D02*
X15250Y-24311D01*
X15304Y-24311D01*
X15304Y-24125D01*
X15304Y-23939D01*
X15366Y-23933D01*
X15409Y-23928D01*
X15452Y-23923D01*
X15474Y-23921D01*
X15521Y-23915D01*
X15521Y-24113D01*
X15521Y-24311D01*
X15570Y-24311D01*
X15620Y-24311D01*
X15620Y-24085D01*
X15620Y-23858D01*
X15449Y-23858D01*
X15279Y-23858D01*
X15238Y-23900D01*
X15196Y-23943D01*
X15196Y-24127D01*
X15196Y-24311D01*
X15196Y-24311D01*
X15196Y-24311D01*
G37*
G36*
X14663Y-24311D02*
X14705Y-24311D01*
X14722Y-24310D01*
X14737Y-24307D01*
X14753Y-24299D01*
X14772Y-24285D01*
X14797Y-24261D01*
X14833Y-24227D01*
X14854Y-24205D01*
X14960Y-24100D01*
X14960Y-24205D01*
X14960Y-24311D01*
X15009Y-24311D01*
X15059Y-24311D01*
X15059Y-23986D01*
X15059Y-23661D01*
X15009Y-23661D01*
X14960Y-23661D01*
X14960Y-23866D01*
X14960Y-24070D01*
X14854Y-23964D01*
X14813Y-23923D01*
X14783Y-23895D01*
X14761Y-23876D01*
X14744Y-23865D01*
X14730Y-23860D01*
X14714Y-23858D01*
X14705Y-23858D01*
X14663Y-23858D01*
X14768Y-23972D01*
X14874Y-24085D01*
X14768Y-24198D01*
X14663Y-24311D01*
X14663Y-24311D01*
X14663Y-24311D01*
G37*
G36*
X14163Y-24238D02*
X14200Y-24274D01*
X14238Y-24311D01*
X14271Y-24311D01*
X14271Y-24232D01*
X14271Y-24085D01*
X14271Y-23938D01*
X14313Y-23933D01*
X14350Y-23928D01*
X14392Y-23925D01*
X14402Y-23925D01*
X14450Y-23922D01*
X14467Y-23967D01*
X14475Y-23990D01*
X14479Y-24013D01*
X14480Y-24040D01*
X14479Y-24077D01*
X14475Y-24122D01*
X14465Y-24232D01*
X14368Y-24232D01*
X14271Y-24232D01*
X14271Y-24311D01*
X14366Y-24311D01*
X14493Y-24311D01*
X14535Y-24269D01*
X14576Y-24227D01*
X14576Y-24084D01*
X14576Y-23941D01*
X14534Y-23899D01*
X14492Y-23858D01*
X14364Y-23858D01*
X14236Y-23858D01*
X14199Y-23896D01*
X14163Y-23933D01*
X14163Y-24085D01*
X14163Y-24238D01*
X14163Y-24238D01*
X14163Y-24238D01*
G37*
G36*
X23553Y-24242D02*
X23555Y-24256D01*
X23562Y-24276D01*
X23572Y-24301D01*
X23722Y-24301D01*
X23873Y-24301D01*
X23920Y-24269D01*
X23966Y-24237D01*
X23966Y-24083D01*
X23966Y-23930D01*
X23923Y-23894D01*
X23879Y-23858D01*
X23752Y-23858D01*
X23626Y-23858D01*
X23589Y-23896D01*
X23553Y-23933D01*
X23553Y-24023D01*
X23553Y-24114D01*
X23640Y-24114D01*
X23640Y-24045D01*
X23647Y-23998D01*
X23653Y-23968D01*
X23663Y-23946D01*
X23667Y-23941D01*
X23684Y-23934D01*
X23713Y-23928D01*
X23750Y-23923D01*
X23751Y-23923D01*
X23788Y-23920D01*
X23812Y-23920D01*
X23828Y-23925D01*
X23842Y-23936D01*
X23844Y-23938D01*
X23861Y-23961D01*
X23867Y-23991D01*
X23867Y-24003D01*
X23867Y-24045D01*
X23754Y-24045D01*
X23640Y-24045D01*
X23640Y-24114D01*
X23711Y-24114D01*
X23870Y-24114D01*
X23863Y-24161D01*
X23858Y-24190D01*
X23853Y-24210D01*
X23851Y-24215D01*
X23840Y-24217D01*
X23813Y-24220D01*
X23774Y-24221D01*
X23725Y-24222D01*
X23700Y-24223D01*
X23641Y-24223D01*
X23599Y-24224D01*
X23572Y-24226D01*
X23558Y-24232D01*
X23553Y-24242D01*
X23553Y-24242D01*
X23553Y-24242D01*
G37*
G36*
X19901Y-24242D02*
X19904Y-24256D01*
X19911Y-24276D01*
X19920Y-24301D01*
X20071Y-24301D01*
X20222Y-24301D01*
X20268Y-24269D01*
X20314Y-24237D01*
X20314Y-24083D01*
X20314Y-23930D01*
X20271Y-23894D01*
X20228Y-23858D01*
X20101Y-23858D01*
X19974Y-23858D01*
X19938Y-23896D01*
X19901Y-23933D01*
X19901Y-24023D01*
X19901Y-24114D01*
X19988Y-24114D01*
X19988Y-24045D01*
X19995Y-23998D01*
X20002Y-23968D01*
X20011Y-23946D01*
X20016Y-23941D01*
X20032Y-23934D01*
X20061Y-23928D01*
X20098Y-23923D01*
X20099Y-23923D01*
X20137Y-23920D01*
X20160Y-23920D01*
X20176Y-23925D01*
X20190Y-23936D01*
X20192Y-23938D01*
X20209Y-23961D01*
X20216Y-23991D01*
X20216Y-24003D01*
X20216Y-24045D01*
X20102Y-24045D01*
X19988Y-24045D01*
X19988Y-24114D01*
X20060Y-24114D01*
X20218Y-24114D01*
X20211Y-24161D01*
X20206Y-24190D01*
X20202Y-24210D01*
X20200Y-24215D01*
X20189Y-24217D01*
X20162Y-24220D01*
X20122Y-24221D01*
X20073Y-24222D01*
X20048Y-24223D01*
X19989Y-24223D01*
X19948Y-24224D01*
X19921Y-24226D01*
X19906Y-24232D01*
X19901Y-24242D01*
X19901Y-24242D01*
X19901Y-24242D01*
G37*
G36*
X15728Y-24242D02*
X15730Y-24256D01*
X15737Y-24276D01*
X15747Y-24301D01*
X15898Y-24301D01*
X16049Y-24301D01*
X16095Y-24269D01*
X16141Y-24237D01*
X16141Y-24083D01*
X16141Y-23930D01*
X16098Y-23894D01*
X16054Y-23858D01*
X15928Y-23858D01*
X15801Y-23858D01*
X15764Y-23896D01*
X15728Y-23933D01*
X15728Y-24023D01*
X15728Y-24114D01*
X15815Y-24114D01*
X15815Y-24045D01*
X15822Y-23998D01*
X15829Y-23968D01*
X15838Y-23946D01*
X15842Y-23941D01*
X15859Y-23934D01*
X15888Y-23928D01*
X15925Y-23923D01*
X15926Y-23923D01*
X15963Y-23920D01*
X15987Y-23920D01*
X16003Y-23925D01*
X16017Y-23936D01*
X16019Y-23938D01*
X16036Y-23961D01*
X16042Y-23991D01*
X16043Y-24003D01*
X16043Y-24045D01*
X15929Y-24045D01*
X15815Y-24045D01*
X15815Y-24114D01*
X15886Y-24114D01*
X16045Y-24114D01*
X16038Y-24161D01*
X16033Y-24190D01*
X16028Y-24210D01*
X16026Y-24215D01*
X16016Y-24217D01*
X15989Y-24220D01*
X15949Y-24221D01*
X15900Y-24222D01*
X15875Y-24223D01*
X15816Y-24223D01*
X15774Y-24224D01*
X15747Y-24226D01*
X15733Y-24232D01*
X15728Y-24242D01*
X15728Y-24242D01*
X15728Y-24242D01*
G37*
G36*
X22499Y-24016D02*
X22711Y-24016D01*
X22923Y-24016D01*
X22923Y-23981D01*
X22923Y-23947D01*
X22711Y-23947D01*
X22499Y-23947D01*
X22499Y-23981D01*
X22499Y-24016D01*
X22499Y-24016D01*
X22499Y-24016D01*
G37*
G36*
X20580Y-23789D02*
X20629Y-23789D01*
X20679Y-23789D01*
X20679Y-23725D01*
X20679Y-23661D01*
X20629Y-23661D01*
X20580Y-23661D01*
X20580Y-23725D01*
X20580Y-23789D01*
X20580Y-23789D01*
X20580Y-23789D01*
G37*
G36*
X16928Y-23789D02*
X16978Y-23789D01*
X17027Y-23789D01*
X17027Y-23725D01*
X17027Y-23661D01*
X16978Y-23661D01*
X16928Y-23661D01*
X16928Y-23725D01*
X16928Y-23789D01*
X16928Y-23789D01*
X16928Y-23789D01*
G37*
G36*
X24064Y-23175D02*
X24108Y-23211D01*
X24152Y-23248D01*
X24300Y-23248D01*
X24448Y-23248D01*
X24448Y-23214D01*
X24448Y-23179D01*
X24316Y-23179D01*
X24184Y-23179D01*
X24169Y-23135D01*
X24154Y-23090D01*
X24280Y-23090D01*
X24405Y-23090D01*
X24446Y-23048D01*
X24488Y-23006D01*
X24488Y-22822D01*
X24488Y-22638D01*
X24434Y-22638D01*
X24379Y-22638D01*
X24379Y-22824D01*
X24379Y-23010D01*
X24308Y-23016D01*
X24266Y-23020D01*
X24227Y-23024D01*
X24200Y-23028D01*
X24163Y-23033D01*
X24163Y-22835D01*
X24163Y-22638D01*
X24114Y-22638D01*
X24064Y-22638D01*
X24064Y-22906D01*
X24064Y-23175D01*
X24064Y-23175D01*
X24064Y-23175D01*
G37*
G36*
X24596Y-23017D02*
X24633Y-23054D01*
X24671Y-23090D01*
X24704Y-23090D01*
X24704Y-23010D01*
X24704Y-22894D01*
X24704Y-22778D01*
X24704Y-22685D01*
X24704Y-22603D01*
X24704Y-22522D01*
X24771Y-22516D01*
X24811Y-22511D01*
X24850Y-22507D01*
X24874Y-22504D01*
X24911Y-22498D01*
X24911Y-22603D01*
X24911Y-22708D01*
X24864Y-22703D01*
X24826Y-22698D01*
X24782Y-22693D01*
X24761Y-22691D01*
X24704Y-22685D01*
X24704Y-22778D01*
X24780Y-22772D01*
X24820Y-22769D01*
X24857Y-22766D01*
X24881Y-22766D01*
X24883Y-22766D01*
X24911Y-22766D01*
X24911Y-22899D01*
X24911Y-23033D01*
X24874Y-23028D01*
X24844Y-23024D01*
X24805Y-23019D01*
X24771Y-23016D01*
X24704Y-23010D01*
X24704Y-23090D01*
X24840Y-23090D01*
X25009Y-23090D01*
X25009Y-22766D01*
X25009Y-22441D01*
X24839Y-22441D01*
X24669Y-22441D01*
X24633Y-22478D01*
X24614Y-22498D01*
X24603Y-22516D01*
X24598Y-22536D01*
X24596Y-22566D01*
X24596Y-22588D01*
X24597Y-22627D01*
X24599Y-22651D01*
X24607Y-22669D01*
X24621Y-22687D01*
X24633Y-22699D01*
X24669Y-22736D01*
X24633Y-22774D01*
X24596Y-22811D01*
X24596Y-22914D01*
X24596Y-23017D01*
X24596Y-23017D01*
X24596Y-23017D01*
G37*
G36*
X23700Y-23090D02*
X23749Y-23090D01*
X23799Y-23090D01*
X23799Y-23027D01*
X23799Y-22963D01*
X23749Y-22963D01*
X23700Y-22963D01*
X23700Y-23027D01*
X23700Y-23090D01*
X23700Y-23090D01*
X23700Y-23090D01*
G37*
G36*
X23700Y-22766D02*
X23749Y-22766D01*
X23799Y-22766D01*
X23799Y-22702D01*
X23799Y-22638D01*
X23749Y-22638D01*
X23700Y-22638D01*
X23700Y-22702D01*
X23700Y-22766D01*
X23700Y-22766D01*
X23700Y-22766D01*
G37*
G36*
X24576Y-20990D02*
X24614Y-21026D01*
X24651Y-21063D01*
X24685Y-21063D01*
X24685Y-20983D01*
X24685Y-20837D01*
X24685Y-20690D01*
X24741Y-20684D01*
X24783Y-20680D01*
X24826Y-20675D01*
X24845Y-20673D01*
X24891Y-20667D01*
X24891Y-20837D01*
X24891Y-21005D01*
X24854Y-21000D01*
X24825Y-20997D01*
X24785Y-20992D01*
X24751Y-20989D01*
X24685Y-20983D01*
X24685Y-21063D01*
X24820Y-21063D01*
X24990Y-21063D01*
X24990Y-20738D01*
X24990Y-20413D01*
X24941Y-20413D01*
X24891Y-20413D01*
X24891Y-20512D01*
X24891Y-20610D01*
X24770Y-20610D01*
X24649Y-20610D01*
X24613Y-20648D01*
X24576Y-20685D01*
X24576Y-20837D01*
X24576Y-20990D01*
X24576Y-20990D01*
X24576Y-20990D01*
G37*
G36*
X24045Y-21063D02*
X24143Y-21063D01*
X24143Y-20994D01*
X24143Y-20915D01*
X24143Y-20837D01*
X24244Y-20837D01*
X24345Y-20837D01*
X24362Y-20883D01*
X24371Y-20911D01*
X24373Y-20930D01*
X24367Y-20946D01*
X24359Y-20962D01*
X24338Y-20994D01*
X24241Y-20994D01*
X24143Y-20994D01*
X24143Y-21063D01*
X24215Y-21063D01*
X24385Y-21063D01*
X24427Y-21021D01*
X24449Y-20997D01*
X24462Y-20978D01*
X24467Y-20956D01*
X24468Y-20924D01*
X24468Y-20915D01*
X24467Y-20879D01*
X24463Y-20856D01*
X24453Y-20838D01*
X24433Y-20816D01*
X24426Y-20809D01*
X24384Y-20768D01*
X24260Y-20765D01*
X24136Y-20763D01*
X24150Y-20727D01*
X24156Y-20712D01*
X24164Y-20702D01*
X24175Y-20694D01*
X24193Y-20688D01*
X24222Y-20684D01*
X24263Y-20679D01*
X24319Y-20675D01*
X24347Y-20673D01*
X24439Y-20667D01*
X24439Y-20639D01*
X24439Y-20610D01*
X24284Y-20611D01*
X24129Y-20611D01*
X24087Y-20649D01*
X24045Y-20687D01*
X24045Y-20875D01*
X24045Y-21063D01*
X24045Y-21063D01*
X24045Y-21063D01*
G37*
G36*
X22480Y-21063D02*
X22578Y-21063D01*
X22578Y-20934D01*
X22578Y-20885D01*
X22578Y-20841D01*
X22578Y-20678D01*
X22679Y-20681D01*
X22779Y-20684D01*
X22795Y-20725D01*
X22802Y-20748D01*
X22805Y-20773D01*
X22805Y-20806D01*
X22803Y-20852D01*
X22801Y-20874D01*
X22792Y-20983D01*
X22727Y-20989D01*
X22690Y-20992D01*
X22659Y-20996D01*
X22642Y-20998D01*
X22619Y-21002D01*
X22602Y-21003D01*
X22590Y-21000D01*
X22583Y-20989D01*
X22580Y-20968D01*
X22578Y-20934D01*
X22578Y-21063D01*
X22650Y-21063D01*
X22820Y-21063D01*
X22862Y-21021D01*
X22903Y-20979D01*
X22903Y-20836D01*
X22903Y-20693D01*
X22861Y-20651D01*
X22819Y-20610D01*
X22698Y-20610D01*
X22578Y-20610D01*
X22578Y-20512D01*
X22578Y-20413D01*
X22529Y-20413D01*
X22480Y-20413D01*
X22480Y-20738D01*
X22480Y-21063D01*
X22480Y-21063D01*
X22480Y-21063D01*
G37*
G36*
X21446Y-20990D02*
X21484Y-21026D01*
X21521Y-21063D01*
X21555Y-21063D01*
X21555Y-20984D01*
X21555Y-20837D01*
X21555Y-20690D01*
X21597Y-20685D01*
X21634Y-20680D01*
X21675Y-20677D01*
X21686Y-20677D01*
X21733Y-20674D01*
X21751Y-20719D01*
X21758Y-20742D01*
X21763Y-20765D01*
X21764Y-20792D01*
X21762Y-20829D01*
X21758Y-20874D01*
X21749Y-20984D01*
X21652Y-20984D01*
X21555Y-20984D01*
X21555Y-21063D01*
X21649Y-21063D01*
X21777Y-21063D01*
X21818Y-21021D01*
X21860Y-20979D01*
X21860Y-20836D01*
X21860Y-20693D01*
X21818Y-20651D01*
X21775Y-20610D01*
X21647Y-20610D01*
X21519Y-20610D01*
X21483Y-20648D01*
X21446Y-20685D01*
X21446Y-20837D01*
X21446Y-20990D01*
X21446Y-20990D01*
X21446Y-20990D01*
G37*
G36*
X20915Y-21063D02*
X20969Y-21063D01*
X21023Y-21063D01*
X21023Y-20877D01*
X21023Y-20691D01*
X21085Y-20685D01*
X21127Y-20680D01*
X21170Y-20675D01*
X21193Y-20673D01*
X21240Y-20667D01*
X21240Y-20865D01*
X21240Y-21063D01*
X21289Y-21063D01*
X21338Y-21063D01*
X21338Y-20837D01*
X21338Y-20610D01*
X21168Y-20610D01*
X20998Y-20610D01*
X20956Y-20652D01*
X20915Y-20695D01*
X20915Y-20879D01*
X20915Y-21063D01*
X20915Y-21063D01*
X20915Y-21063D01*
G37*
G36*
X19872Y-21063D02*
X19921Y-21063D01*
X19968Y-21063D01*
X19968Y-20738D01*
X19975Y-20623D01*
X19978Y-20577D01*
X19982Y-20538D01*
X19985Y-20511D01*
X19988Y-20500D01*
X20000Y-20496D01*
X20027Y-20490D01*
X20063Y-20484D01*
X20073Y-20483D01*
X20112Y-20478D01*
X20137Y-20476D01*
X20153Y-20479D01*
X20165Y-20486D01*
X20174Y-20494D01*
X20183Y-20504D01*
X20190Y-20517D01*
X20194Y-20535D01*
X20196Y-20563D01*
X20196Y-20606D01*
X20196Y-20627D01*
X20196Y-20738D01*
X20082Y-20738D01*
X19968Y-20738D01*
X19968Y-21063D01*
X19970Y-21063D01*
X19970Y-20935D01*
X19970Y-20807D01*
X20083Y-20807D01*
X20196Y-20807D01*
X20196Y-20935D01*
X20196Y-21063D01*
X20246Y-21063D01*
X20295Y-21063D01*
X20295Y-20780D01*
X20295Y-20498D01*
X20253Y-20455D01*
X20212Y-20413D01*
X20083Y-20413D01*
X19954Y-20413D01*
X19913Y-20455D01*
X19872Y-20498D01*
X19872Y-20780D01*
X19872Y-21063D01*
X19872Y-21063D01*
X19872Y-21063D01*
G37*
G36*
X19349Y-21058D02*
X19391Y-21061D01*
X19433Y-21064D01*
X19553Y-20938D01*
X19674Y-20812D01*
X19674Y-20938D01*
X19675Y-21063D01*
X19724Y-21063D01*
X19773Y-21063D01*
X19773Y-20738D01*
X19773Y-20413D01*
X19603Y-20413D01*
X19433Y-20413D01*
X19396Y-20451D01*
X19360Y-20488D01*
X19360Y-20606D01*
X19360Y-20724D01*
X19397Y-20760D01*
X19416Y-20778D01*
X19433Y-20789D01*
X19454Y-20795D01*
X19468Y-20796D01*
X19468Y-20717D01*
X19468Y-20605D01*
X19468Y-20493D01*
X19525Y-20487D01*
X19566Y-20483D01*
X19610Y-20478D01*
X19628Y-20476D01*
X19675Y-20470D01*
X19675Y-20605D01*
X19675Y-20739D01*
X19618Y-20734D01*
X19576Y-20729D01*
X19533Y-20724D01*
X19515Y-20722D01*
X19468Y-20717D01*
X19468Y-20796D01*
X19485Y-20798D01*
X19512Y-20799D01*
X19590Y-20802D01*
X19470Y-20930D01*
X19349Y-21058D01*
X19349Y-21058D01*
X19349Y-21058D01*
G37*
G36*
X18799Y-21063D02*
X18848Y-21063D01*
X18897Y-21063D01*
X18899Y-20815D01*
X18902Y-20567D01*
X18964Y-20624D01*
X19025Y-20681D01*
X19087Y-20624D01*
X19148Y-20567D01*
X19151Y-20815D01*
X19153Y-21063D01*
X19202Y-21063D01*
X19251Y-21063D01*
X19251Y-20738D01*
X19251Y-20413D01*
X19230Y-20413D01*
X19211Y-20421D01*
X19180Y-20444D01*
X19138Y-20483D01*
X19116Y-20504D01*
X19025Y-20595D01*
X18934Y-20504D01*
X18887Y-20459D01*
X18851Y-20429D01*
X18827Y-20415D01*
X18821Y-20413D01*
X18799Y-20413D01*
X18799Y-20738D01*
X18799Y-21063D01*
X18799Y-21063D01*
X18799Y-21063D01*
G37*
G36*
X17795Y-21063D02*
X17844Y-21063D01*
X17893Y-21063D01*
X17893Y-20887D01*
X17893Y-20711D01*
X17917Y-20695D01*
X17937Y-20684D01*
X17947Y-20679D01*
X17949Y-20688D01*
X17950Y-20714D01*
X17951Y-20754D01*
X17952Y-20805D01*
X17952Y-20863D01*
X17952Y-20871D01*
X17952Y-21063D01*
X18002Y-21063D01*
X18051Y-21063D01*
X18051Y-20871D01*
X18051Y-20679D01*
X18080Y-20679D01*
X18110Y-20679D01*
X18110Y-20871D01*
X18110Y-21063D01*
X18159Y-21063D01*
X18208Y-21063D01*
X18208Y-20837D01*
X18208Y-20610D01*
X18043Y-20610D01*
X17878Y-20610D01*
X17836Y-20652D01*
X17795Y-20695D01*
X17795Y-20879D01*
X17795Y-21063D01*
X17795Y-21063D01*
X17795Y-21063D01*
G37*
G36*
X17362Y-21063D02*
X17475Y-21063D01*
X17588Y-21063D01*
X17588Y-21029D01*
X17586Y-21005D01*
X17578Y-20996D01*
X17559Y-20994D01*
X17529Y-20994D01*
X17529Y-20837D01*
X17529Y-20679D01*
X17559Y-20679D01*
X17578Y-20677D01*
X17587Y-20667D01*
X17588Y-20645D01*
X17588Y-20610D01*
X17509Y-20610D01*
X17430Y-20610D01*
X17430Y-20802D01*
X17430Y-20994D01*
X17396Y-20994D01*
X17373Y-20995D01*
X17364Y-21004D01*
X17362Y-21026D01*
X17362Y-21029D01*
X17362Y-21063D01*
X17362Y-21063D01*
X17362Y-21063D01*
G37*
G36*
X16745Y-20965D02*
X16752Y-20980D01*
X16769Y-21003D01*
X16776Y-21013D01*
X16815Y-21063D01*
X16948Y-21063D01*
X17082Y-21063D01*
X17123Y-21021D01*
X17165Y-20979D01*
X17165Y-20836D01*
X17165Y-20693D01*
X17123Y-20651D01*
X17081Y-20610D01*
X16947Y-20610D01*
X16815Y-20610D01*
X16777Y-20660D01*
X16757Y-20687D01*
X16747Y-20704D01*
X16747Y-20715D01*
X16754Y-20726D01*
X16756Y-20728D01*
X16765Y-20737D01*
X16775Y-20740D01*
X16789Y-20737D01*
X16812Y-20727D01*
X16848Y-20709D01*
X16852Y-20707D01*
X16890Y-20689D01*
X16918Y-20677D01*
X16943Y-20673D01*
X16971Y-20674D01*
X17009Y-20681D01*
X17029Y-20685D01*
X17057Y-20690D01*
X17057Y-20836D01*
X17057Y-20982D01*
X16993Y-20994D01*
X16930Y-21006D01*
X16853Y-20966D01*
X16816Y-20946D01*
X16793Y-20936D01*
X16778Y-20932D01*
X16768Y-20935D01*
X16758Y-20943D01*
X16758Y-20944D01*
X16748Y-20955D01*
X16745Y-20965D01*
X16745Y-20965D01*
X16745Y-20965D01*
G37*
G36*
X16230Y-20679D02*
X16329Y-20679D01*
X16428Y-20679D01*
X16486Y-20731D01*
X16545Y-20782D01*
X16545Y-20923D01*
X16545Y-21063D01*
X16594Y-21063D01*
X16643Y-21063D01*
X16643Y-20837D01*
X16643Y-20610D01*
X16594Y-20610D01*
X16545Y-20610D01*
X16545Y-20651D01*
X16545Y-20693D01*
X16503Y-20651D01*
X16460Y-20610D01*
X16345Y-20610D01*
X16230Y-20610D01*
X16230Y-20645D01*
X16230Y-20679D01*
X16230Y-20679D01*
X16230Y-20679D01*
G37*
G36*
X15708Y-20990D02*
X15746Y-21026D01*
X15783Y-21063D01*
X15816Y-21063D01*
X15816Y-20984D01*
X15816Y-20837D01*
X15816Y-20690D01*
X15858Y-20685D01*
X15896Y-20680D01*
X15937Y-20677D01*
X15948Y-20677D01*
X15995Y-20674D01*
X16013Y-20719D01*
X16020Y-20742D01*
X16024Y-20765D01*
X16026Y-20792D01*
X16024Y-20829D01*
X16020Y-20874D01*
X16010Y-20984D01*
X15913Y-20984D01*
X15816Y-20984D01*
X15816Y-21063D01*
X15911Y-21063D01*
X16039Y-21063D01*
X16080Y-21021D01*
X16122Y-20979D01*
X16122Y-20836D01*
X16122Y-20693D01*
X16079Y-20651D01*
X16037Y-20610D01*
X15909Y-20610D01*
X15781Y-20610D01*
X15745Y-20648D01*
X15708Y-20685D01*
X15708Y-20837D01*
X15708Y-20990D01*
X15708Y-20990D01*
X15708Y-20990D01*
G37*
G36*
X15180Y-20965D02*
X15187Y-20980D01*
X15204Y-21003D01*
X15211Y-21013D01*
X15250Y-21063D01*
X15383Y-21063D01*
X15517Y-21063D01*
X15558Y-21021D01*
X15600Y-20979D01*
X15600Y-20836D01*
X15600Y-20693D01*
X15558Y-20651D01*
X15516Y-20610D01*
X15382Y-20610D01*
X15250Y-20610D01*
X15212Y-20660D01*
X15192Y-20687D01*
X15182Y-20704D01*
X15182Y-20715D01*
X15189Y-20726D01*
X15191Y-20728D01*
X15200Y-20737D01*
X15210Y-20740D01*
X15224Y-20737D01*
X15247Y-20727D01*
X15284Y-20709D01*
X15287Y-20707D01*
X15325Y-20689D01*
X15353Y-20677D01*
X15378Y-20673D01*
X15406Y-20674D01*
X15444Y-20681D01*
X15465Y-20685D01*
X15492Y-20690D01*
X15492Y-20836D01*
X15492Y-20982D01*
X15428Y-20994D01*
X15365Y-21006D01*
X15288Y-20966D01*
X15251Y-20946D01*
X15228Y-20936D01*
X15213Y-20932D01*
X15203Y-20935D01*
X15193Y-20943D01*
X15193Y-20944D01*
X15183Y-20955D01*
X15180Y-20965D01*
X15180Y-20965D01*
X15180Y-20965D01*
G37*
G36*
X14665Y-20990D02*
X14702Y-21026D01*
X14740Y-21063D01*
X14773Y-21063D01*
X14773Y-20984D01*
X14773Y-20837D01*
X14773Y-20690D01*
X14815Y-20685D01*
X14852Y-20680D01*
X14894Y-20677D01*
X14904Y-20677D01*
X14952Y-20674D01*
X14969Y-20719D01*
X14977Y-20742D01*
X14981Y-20765D01*
X14982Y-20792D01*
X14981Y-20829D01*
X14977Y-20874D01*
X14967Y-20984D01*
X14870Y-20984D01*
X14773Y-20984D01*
X14773Y-21063D01*
X14867Y-21063D01*
X14995Y-21063D01*
X15037Y-21021D01*
X15078Y-20979D01*
X15078Y-20836D01*
X15078Y-20693D01*
X15036Y-20651D01*
X14994Y-20610D01*
X14866Y-20610D01*
X14738Y-20610D01*
X14701Y-20648D01*
X14665Y-20685D01*
X14665Y-20837D01*
X14665Y-20990D01*
X14665Y-20990D01*
X14665Y-20990D01*
G37*
G36*
X14133Y-21063D02*
X14187Y-21063D01*
X14241Y-21063D01*
X14241Y-20877D01*
X14241Y-20691D01*
X14303Y-20685D01*
X14346Y-20680D01*
X14389Y-20675D01*
X14411Y-20673D01*
X14458Y-20667D01*
X14458Y-20865D01*
X14458Y-21063D01*
X14507Y-21063D01*
X14557Y-21063D01*
X14557Y-20837D01*
X14557Y-20610D01*
X14386Y-20610D01*
X14216Y-20610D01*
X14175Y-20652D01*
X14133Y-20695D01*
X14133Y-20879D01*
X14133Y-21063D01*
X14133Y-21063D01*
X14133Y-21063D01*
G37*
G36*
X13621Y-21063D02*
X13723Y-21063D01*
X13824Y-21063D01*
X13866Y-21021D01*
X13907Y-20979D01*
X13907Y-20829D01*
X13907Y-20679D01*
X13971Y-20679D01*
X14035Y-20679D01*
X14035Y-20645D01*
X14035Y-20610D01*
X13971Y-20610D01*
X13907Y-20610D01*
X13907Y-20512D01*
X13907Y-20413D01*
X13858Y-20413D01*
X13809Y-20413D01*
X13809Y-20512D01*
X13809Y-20610D01*
X13745Y-20610D01*
X13680Y-20610D01*
X13680Y-20645D01*
X13680Y-20679D01*
X13740Y-20679D01*
X13799Y-20679D01*
X13799Y-20831D01*
X13799Y-20982D01*
X13747Y-20989D01*
X13696Y-20995D01*
X13661Y-21000D01*
X13639Y-21005D01*
X13627Y-21010D01*
X13623Y-21018D01*
X13621Y-21029D01*
X13621Y-21034D01*
X13621Y-21063D01*
X13621Y-21063D01*
X13621Y-21063D01*
G37*
G36*
X13100Y-20679D02*
X13199Y-20679D01*
X13298Y-20679D01*
X13357Y-20731D01*
X13415Y-20782D01*
X13415Y-20923D01*
X13415Y-21063D01*
X13464Y-21063D01*
X13513Y-21063D01*
X13513Y-20837D01*
X13513Y-20610D01*
X13464Y-20610D01*
X13415Y-20610D01*
X13415Y-20651D01*
X13415Y-20693D01*
X13373Y-20651D01*
X13331Y-20610D01*
X13215Y-20610D01*
X13100Y-20610D01*
X13100Y-20645D01*
X13100Y-20679D01*
X13100Y-20679D01*
X13100Y-20679D01*
G37*
G36*
X12578Y-20990D02*
X12616Y-21026D01*
X12653Y-21063D01*
X12687Y-21063D01*
X12687Y-20984D01*
X12687Y-20837D01*
X12687Y-20690D01*
X12728Y-20685D01*
X12766Y-20680D01*
X12807Y-20677D01*
X12818Y-20677D01*
X12865Y-20674D01*
X12883Y-20719D01*
X12890Y-20742D01*
X12894Y-20765D01*
X12896Y-20792D01*
X12894Y-20829D01*
X12890Y-20874D01*
X12881Y-20984D01*
X12783Y-20984D01*
X12687Y-20984D01*
X12687Y-21063D01*
X12781Y-21063D01*
X12909Y-21063D01*
X12950Y-21021D01*
X12992Y-20979D01*
X12992Y-20836D01*
X12992Y-20693D01*
X12949Y-20651D01*
X12907Y-20610D01*
X12779Y-20610D01*
X12651Y-20610D01*
X12615Y-20648D01*
X12578Y-20685D01*
X12578Y-20837D01*
X12578Y-20990D01*
X12578Y-20990D01*
X12578Y-20990D01*
G37*
G36*
X12145Y-21063D02*
X12258Y-21063D01*
X12372Y-21063D01*
X12372Y-21029D01*
X12370Y-21005D01*
X12361Y-20996D01*
X12342Y-20994D01*
X12312Y-20994D01*
X12312Y-20738D01*
X12312Y-20482D01*
X12342Y-20482D01*
X12362Y-20480D01*
X12370Y-20470D01*
X12372Y-20448D01*
X12372Y-20413D01*
X12293Y-20413D01*
X12214Y-20413D01*
X12214Y-20704D01*
X12214Y-20994D01*
X12180Y-20994D01*
X12157Y-20995D01*
X12147Y-21004D01*
X12145Y-21026D01*
X12145Y-21029D01*
X12145Y-21063D01*
X12145Y-21063D01*
X12145Y-21063D01*
G37*
G36*
X11624Y-21063D02*
X11737Y-21063D01*
X11850Y-21063D01*
X11850Y-21029D01*
X11848Y-21005D01*
X11840Y-20996D01*
X11820Y-20994D01*
X11791Y-20994D01*
X11791Y-20738D01*
X11791Y-20482D01*
X11820Y-20482D01*
X11840Y-20480D01*
X11848Y-20470D01*
X11850Y-20448D01*
X11850Y-20413D01*
X11771Y-20413D01*
X11692Y-20413D01*
X11692Y-20704D01*
X11692Y-20994D01*
X11658Y-20994D01*
X11635Y-20995D01*
X11625Y-21004D01*
X11624Y-21026D01*
X11624Y-21029D01*
X11624Y-21063D01*
X11624Y-21063D01*
X11624Y-21063D01*
G37*
G36*
X10491Y-20679D02*
X10591Y-20679D01*
X10690Y-20679D01*
X10748Y-20731D01*
X10807Y-20782D01*
X10807Y-20923D01*
X10807Y-21063D01*
X10856Y-21063D01*
X10905Y-21063D01*
X10905Y-20837D01*
X10905Y-20610D01*
X10856Y-20610D01*
X10807Y-20610D01*
X10807Y-20651D01*
X10807Y-20693D01*
X10764Y-20651D01*
X10722Y-20610D01*
X10607Y-20610D01*
X10491Y-20610D01*
X10491Y-20645D01*
X10491Y-20679D01*
X10491Y-20679D01*
X10491Y-20679D01*
G37*
G36*
X23514Y-20934D02*
X23549Y-20994D01*
X23585Y-21053D01*
X23729Y-21053D01*
X23873Y-21053D01*
X23912Y-21014D01*
X23950Y-20974D01*
X23796Y-20974D01*
X23641Y-20974D01*
X23641Y-20931D01*
X23642Y-20911D01*
X23645Y-20897D01*
X23655Y-20887D01*
X23674Y-20881D01*
X23705Y-20876D01*
X23752Y-20872D01*
X23772Y-20870D01*
X23816Y-20866D01*
X23846Y-20860D01*
X23869Y-20852D01*
X23891Y-20838D01*
X23903Y-20830D01*
X23928Y-20809D01*
X23941Y-20793D01*
X23946Y-20772D01*
X23946Y-20745D01*
X23945Y-20714D01*
X23939Y-20693D01*
X23925Y-20673D01*
X23904Y-20651D01*
X23862Y-20610D01*
X23730Y-20611D01*
X23597Y-20612D01*
X23559Y-20655D01*
X23521Y-20699D01*
X23679Y-20699D01*
X23838Y-20699D01*
X23838Y-20742D01*
X23838Y-20761D01*
X23836Y-20774D01*
X23828Y-20784D01*
X23813Y-20791D01*
X23786Y-20796D01*
X23746Y-20801D01*
X23689Y-20808D01*
X23585Y-20820D01*
X23549Y-20877D01*
X23514Y-20934D01*
X23514Y-20934D01*
X23514Y-20934D01*
G37*
G36*
X23011Y-20866D02*
X23099Y-20866D01*
X23099Y-20797D01*
X23105Y-20750D01*
X23112Y-20720D01*
X23121Y-20698D01*
X23126Y-20692D01*
X23142Y-20686D01*
X23172Y-20680D01*
X23208Y-20675D01*
X23209Y-20675D01*
X23247Y-20672D01*
X23270Y-20672D01*
X23286Y-20677D01*
X23301Y-20688D01*
X23303Y-20690D01*
X23320Y-20713D01*
X23326Y-20743D01*
X23326Y-20754D01*
X23326Y-20797D01*
X23213Y-20797D01*
X23099Y-20797D01*
X23099Y-20866D01*
X23170Y-20866D01*
X23329Y-20866D01*
X23322Y-20913D01*
X23316Y-20942D01*
X23312Y-20962D01*
X23310Y-20967D01*
X23299Y-20969D01*
X23272Y-20972D01*
X23232Y-20973D01*
X23184Y-20974D01*
X23159Y-20974D01*
X23099Y-20974D01*
X23058Y-20976D01*
X23031Y-20978D01*
X23016Y-20984D01*
X23011Y-20994D01*
X23014Y-21008D01*
X23021Y-21028D01*
X23031Y-21053D01*
X23181Y-21053D01*
X23332Y-21053D01*
X23378Y-21021D01*
X23425Y-20989D01*
X23425Y-20835D01*
X23425Y-20682D01*
X23381Y-20646D01*
X23338Y-20610D01*
X23211Y-20610D01*
X23084Y-20610D01*
X23048Y-20648D01*
X23011Y-20685D01*
X23011Y-20775D01*
X23011Y-20866D01*
X23011Y-20866D01*
X23011Y-20866D01*
G37*
G36*
X11013Y-20994D02*
X11016Y-21008D01*
X11023Y-21028D01*
X11032Y-21053D01*
X11183Y-21053D01*
X11334Y-21053D01*
X11380Y-21021D01*
X11427Y-20989D01*
X11427Y-20835D01*
X11427Y-20682D01*
X11383Y-20646D01*
X11340Y-20610D01*
X11213Y-20610D01*
X11086Y-20610D01*
X11050Y-20648D01*
X11013Y-20685D01*
X11013Y-20775D01*
X11013Y-20866D01*
X11101Y-20866D01*
X11101Y-20797D01*
X11107Y-20750D01*
X11114Y-20720D01*
X11123Y-20698D01*
X11128Y-20692D01*
X11144Y-20686D01*
X11174Y-20680D01*
X11210Y-20675D01*
X11211Y-20675D01*
X11249Y-20672D01*
X11272Y-20672D01*
X11288Y-20677D01*
X11302Y-20688D01*
X11305Y-20690D01*
X11322Y-20713D01*
X11328Y-20743D01*
X11328Y-20754D01*
X11328Y-20797D01*
X11214Y-20797D01*
X11101Y-20797D01*
X11101Y-20866D01*
X11172Y-20866D01*
X11330Y-20866D01*
X11324Y-20913D01*
X11319Y-20942D01*
X11314Y-20962D01*
X11312Y-20967D01*
X11301Y-20969D01*
X11274Y-20972D01*
X11234Y-20973D01*
X11186Y-20974D01*
X11160Y-20974D01*
X11102Y-20974D01*
X11060Y-20976D01*
X11033Y-20978D01*
X11018Y-20984D01*
X11013Y-20994D01*
X11013Y-20994D01*
X11013Y-20994D01*
G37*
G36*
X17430Y-20541D02*
X17480Y-20541D01*
X17529Y-20541D01*
X17529Y-20477D01*
X17529Y-20413D01*
X17480Y-20413D01*
X17430Y-20413D01*
X17430Y-20477D01*
X17430Y-20541D01*
X17430Y-20541D01*
X17430Y-20541D01*
G37*
G36*
X23001Y-20104D02*
X23044Y-20146D01*
X23086Y-20187D01*
X23241Y-20187D01*
X23395Y-20187D01*
X23395Y-20152D01*
X23395Y-20118D01*
X23247Y-20118D01*
X23100Y-20118D01*
X23100Y-20074D01*
X23100Y-20030D01*
X23100Y-19851D01*
X23100Y-19808D01*
X23100Y-19645D01*
X23200Y-19648D01*
X23301Y-19650D01*
X23316Y-19691D01*
X23323Y-19714D01*
X23327Y-19740D01*
X23327Y-19773D01*
X23324Y-19818D01*
X23323Y-19841D01*
X23314Y-19950D01*
X23249Y-19955D01*
X23212Y-19959D01*
X23181Y-19963D01*
X23164Y-19965D01*
X23141Y-19968D01*
X23124Y-19970D01*
X23112Y-19966D01*
X23105Y-19955D01*
X23101Y-19934D01*
X23100Y-19901D01*
X23100Y-19851D01*
X23100Y-20030D01*
X23221Y-20030D01*
X23342Y-20030D01*
X23383Y-19987D01*
X23425Y-19945D01*
X23425Y-19802D01*
X23425Y-19660D01*
X23383Y-19618D01*
X23340Y-19577D01*
X23171Y-19577D01*
X23001Y-19577D01*
X23001Y-19840D01*
X23001Y-20104D01*
X23001Y-20104D01*
X23001Y-20104D01*
G37*
G36*
X17795Y-19957D02*
X17832Y-19993D01*
X17870Y-20030D01*
X17903Y-20030D01*
X17903Y-19949D01*
X17903Y-19803D01*
X17903Y-19657D01*
X17960Y-19651D01*
X18002Y-19646D01*
X18045Y-19641D01*
X18063Y-19639D01*
X18110Y-19634D01*
X18110Y-19803D01*
X18110Y-19972D01*
X18073Y-19967D01*
X18043Y-19963D01*
X18003Y-19959D01*
X17969Y-19955D01*
X17903Y-19949D01*
X17903Y-20030D01*
X17990Y-20030D01*
X18110Y-20030D01*
X18110Y-20108D01*
X18110Y-20187D01*
X18159Y-20187D01*
X18208Y-20187D01*
X18208Y-19882D01*
X18208Y-19577D01*
X18038Y-19577D01*
X17868Y-19577D01*
X17831Y-19614D01*
X17795Y-19651D01*
X17795Y-19804D01*
X17795Y-19957D01*
X17795Y-19957D01*
X17795Y-19957D01*
G37*
G36*
X16220Y-20104D02*
X16262Y-20146D01*
X16304Y-20187D01*
X16459Y-20187D01*
X16614Y-20187D01*
X16614Y-20152D01*
X16614Y-20118D01*
X16466Y-20118D01*
X16318Y-20118D01*
X16318Y-20074D01*
X16318Y-20030D01*
X16318Y-19901D01*
X16318Y-19851D01*
X16318Y-19808D01*
X16318Y-19645D01*
X16419Y-19648D01*
X16520Y-19650D01*
X16535Y-19691D01*
X16542Y-19714D01*
X16545Y-19740D01*
X16545Y-19773D01*
X16543Y-19818D01*
X16541Y-19841D01*
X16532Y-19950D01*
X16467Y-19955D01*
X16430Y-19959D01*
X16399Y-19963D01*
X16382Y-19965D01*
X16359Y-19968D01*
X16342Y-19970D01*
X16331Y-19966D01*
X16323Y-19955D01*
X16320Y-19934D01*
X16318Y-19901D01*
X16318Y-20030D01*
X16440Y-20030D01*
X16560Y-20030D01*
X16602Y-19987D01*
X16643Y-19945D01*
X16643Y-19802D01*
X16643Y-19660D01*
X16601Y-19618D01*
X16559Y-19577D01*
X16389Y-19577D01*
X16220Y-19577D01*
X16220Y-19840D01*
X16220Y-20104D01*
X16220Y-20104D01*
X16220Y-20104D01*
G37*
G36*
X24576Y-19691D02*
X24614Y-19727D01*
X24651Y-19764D01*
X24685Y-19764D01*
X24685Y-19683D01*
X24685Y-19572D01*
X24685Y-19460D01*
X24741Y-19454D01*
X24783Y-19449D01*
X24826Y-19445D01*
X24845Y-19443D01*
X24891Y-19437D01*
X24891Y-19572D01*
X24891Y-19706D01*
X24835Y-19700D01*
X24793Y-19695D01*
X24750Y-19691D01*
X24731Y-19689D01*
X24685Y-19683D01*
X24685Y-19764D01*
X24771Y-19764D01*
X24891Y-19764D01*
X24891Y-19897D01*
X24891Y-20030D01*
X24941Y-20030D01*
X24990Y-20030D01*
X24990Y-19705D01*
X24990Y-19380D01*
X24819Y-19380D01*
X24649Y-19380D01*
X24613Y-19417D01*
X24576Y-19454D01*
X24576Y-19572D01*
X24576Y-19691D01*
X24576Y-19691D01*
X24576Y-19691D01*
G37*
G36*
X24055Y-19646D02*
X24154Y-19646D01*
X24253Y-19646D01*
X24311Y-19697D01*
X24369Y-19748D01*
X24369Y-19889D01*
X24369Y-20030D01*
X24419Y-20030D01*
X24468Y-20030D01*
X24468Y-19803D01*
X24468Y-19577D01*
X24419Y-19577D01*
X24369Y-19577D01*
X24369Y-19618D01*
X24369Y-19660D01*
X24328Y-19618D01*
X24285Y-19577D01*
X24170Y-19577D01*
X24055Y-19577D01*
X24055Y-19611D01*
X24055Y-19646D01*
X24055Y-19646D01*
X24055Y-19646D01*
G37*
G36*
X23533Y-19957D02*
X23570Y-19993D01*
X23608Y-20030D01*
X23641Y-20030D01*
X23641Y-19951D01*
X23641Y-19804D01*
X23641Y-19657D01*
X23683Y-19651D01*
X23720Y-19647D01*
X23762Y-19644D01*
X23772Y-19643D01*
X23820Y-19641D01*
X23837Y-19686D01*
X23845Y-19709D01*
X23849Y-19731D01*
X23850Y-19758D01*
X23849Y-19796D01*
X23845Y-19841D01*
X23835Y-19951D01*
X23738Y-19951D01*
X23641Y-19951D01*
X23641Y-20030D01*
X23735Y-20030D01*
X23864Y-20030D01*
X23905Y-19987D01*
X23946Y-19945D01*
X23946Y-19802D01*
X23946Y-19660D01*
X23904Y-19618D01*
X23862Y-19577D01*
X23734Y-19577D01*
X23606Y-19577D01*
X23570Y-19614D01*
X23533Y-19651D01*
X23533Y-19804D01*
X23533Y-19957D01*
X23533Y-19957D01*
X23533Y-19957D01*
G37*
G36*
X22480Y-20030D02*
X22529Y-20030D01*
X22576Y-20030D01*
X22576Y-19705D01*
X22583Y-19589D01*
X22586Y-19543D01*
X22590Y-19505D01*
X22593Y-19478D01*
X22596Y-19467D01*
X22609Y-19462D01*
X22635Y-19457D01*
X22671Y-19451D01*
X22681Y-19449D01*
X22720Y-19444D01*
X22745Y-19443D01*
X22761Y-19446D01*
X22773Y-19453D01*
X22782Y-19460D01*
X22792Y-19471D01*
X22798Y-19483D01*
X22802Y-19502D01*
X22804Y-19530D01*
X22804Y-19572D01*
X22804Y-19593D01*
X22804Y-19705D01*
X22690Y-19705D01*
X22576Y-19705D01*
X22576Y-20030D01*
X22578Y-20030D01*
X22578Y-19901D01*
X22578Y-19774D01*
X22691Y-19774D01*
X22804Y-19774D01*
X22804Y-19901D01*
X22804Y-20030D01*
X22854Y-20030D01*
X22903Y-20030D01*
X22903Y-19747D01*
X22903Y-19464D01*
X22862Y-19422D01*
X22820Y-19380D01*
X22691Y-19380D01*
X22563Y-19380D01*
X22521Y-19422D01*
X22480Y-19464D01*
X22480Y-19747D01*
X22480Y-20030D01*
X22480Y-20030D01*
X22480Y-20030D01*
G37*
G36*
X21968Y-19646D02*
X22067Y-19646D01*
X22166Y-19646D01*
X22225Y-19697D01*
X22283Y-19748D01*
X22283Y-19889D01*
X22283Y-20030D01*
X22332Y-20030D01*
X22381Y-20030D01*
X22381Y-19803D01*
X22381Y-19577D01*
X22332Y-19577D01*
X22283Y-19577D01*
X22283Y-19618D01*
X22283Y-19660D01*
X22241Y-19618D01*
X22199Y-19577D01*
X22083Y-19577D01*
X21968Y-19577D01*
X21968Y-19611D01*
X21968Y-19646D01*
X21968Y-19646D01*
X21968Y-19646D01*
G37*
G36*
X21446Y-20030D02*
X21496Y-20030D01*
X21545Y-20030D01*
X21545Y-19853D01*
X21545Y-19677D01*
X21569Y-19661D01*
X21588Y-19650D01*
X21599Y-19646D01*
X21600Y-19655D01*
X21602Y-19681D01*
X21603Y-19721D01*
X21604Y-19771D01*
X21604Y-19829D01*
X21604Y-19838D01*
X21604Y-20030D01*
X21653Y-20030D01*
X21702Y-20030D01*
X21702Y-19838D01*
X21702Y-19646D01*
X21732Y-19646D01*
X21761Y-19646D01*
X21761Y-19838D01*
X21761Y-20030D01*
X21811Y-20030D01*
X21860Y-20030D01*
X21860Y-19803D01*
X21860Y-19577D01*
X21695Y-19577D01*
X21529Y-19577D01*
X21488Y-19619D01*
X21446Y-19661D01*
X21446Y-19845D01*
X21446Y-20030D01*
X21446Y-20030D01*
X21446Y-20030D01*
G37*
G36*
X20492Y-20030D02*
X20605Y-20030D01*
X20718Y-20030D01*
X20718Y-19995D01*
X20716Y-19972D01*
X20708Y-19962D01*
X20689Y-19960D01*
X20659Y-19960D01*
X20659Y-19803D01*
X20659Y-19646D01*
X20689Y-19646D01*
X20708Y-19644D01*
X20717Y-19634D01*
X20718Y-19611D01*
X20718Y-19577D01*
X20639Y-19577D01*
X20560Y-19577D01*
X20560Y-19769D01*
X20560Y-19960D01*
X20526Y-19960D01*
X20503Y-19962D01*
X20494Y-19971D01*
X20492Y-19992D01*
X20492Y-19995D01*
X20492Y-20030D01*
X20492Y-20030D01*
X20492Y-20030D01*
G37*
G36*
X18828Y-20030D02*
X18927Y-20030D01*
X18927Y-19960D01*
X18927Y-19882D01*
X18927Y-19803D01*
X19028Y-19803D01*
X19129Y-19803D01*
X19145Y-19849D01*
X19155Y-19878D01*
X19157Y-19896D01*
X19151Y-19913D01*
X19142Y-19928D01*
X19122Y-19960D01*
X19024Y-19960D01*
X18927Y-19960D01*
X18927Y-20030D01*
X18998Y-20030D01*
X19169Y-20030D01*
X19210Y-19987D01*
X19233Y-19963D01*
X19245Y-19944D01*
X19250Y-19922D01*
X19251Y-19891D01*
X19251Y-19881D01*
X19251Y-19846D01*
X19247Y-19823D01*
X19236Y-19804D01*
X19217Y-19783D01*
X19210Y-19776D01*
X19168Y-19735D01*
X19043Y-19732D01*
X18919Y-19729D01*
X18933Y-19693D01*
X18940Y-19679D01*
X18947Y-19668D01*
X18959Y-19660D01*
X18977Y-19655D01*
X19005Y-19650D01*
X19046Y-19646D01*
X19103Y-19642D01*
X19131Y-19640D01*
X19222Y-19634D01*
X19222Y-19605D01*
X19222Y-19577D01*
X19067Y-19577D01*
X18912Y-19578D01*
X18870Y-19615D01*
X18828Y-19653D01*
X18828Y-19841D01*
X18828Y-20030D01*
X18828Y-20030D01*
X18828Y-20030D01*
G37*
G36*
X17273Y-19646D02*
X17372Y-19646D01*
X17471Y-19646D01*
X17530Y-19697D01*
X17588Y-19748D01*
X17588Y-19889D01*
X17588Y-20030D01*
X17637Y-20030D01*
X17686Y-20030D01*
X17686Y-19803D01*
X17686Y-19577D01*
X17637Y-19577D01*
X17588Y-19577D01*
X17588Y-19618D01*
X17588Y-19660D01*
X17546Y-19618D01*
X17504Y-19577D01*
X17389Y-19577D01*
X17273Y-19577D01*
X17273Y-19611D01*
X17273Y-19646D01*
X17273Y-19646D01*
X17273Y-19646D01*
G37*
G36*
X16751Y-19957D02*
X16789Y-19993D01*
X16826Y-20030D01*
X16860Y-20030D01*
X16860Y-19951D01*
X16860Y-19804D01*
X16860Y-19657D01*
X16902Y-19651D01*
X16939Y-19647D01*
X16980Y-19644D01*
X16991Y-19643D01*
X17038Y-19641D01*
X17056Y-19686D01*
X17063Y-19709D01*
X17068Y-19731D01*
X17069Y-19758D01*
X17067Y-19796D01*
X17063Y-19841D01*
X17054Y-19951D01*
X16957Y-19951D01*
X16860Y-19951D01*
X16860Y-20030D01*
X16954Y-20030D01*
X17082Y-20030D01*
X17123Y-19987D01*
X17165Y-19945D01*
X17165Y-19802D01*
X17165Y-19660D01*
X17123Y-19618D01*
X17081Y-19577D01*
X16952Y-19577D01*
X16824Y-19577D01*
X16788Y-19614D01*
X16751Y-19651D01*
X16751Y-19804D01*
X16751Y-19957D01*
X16751Y-19957D01*
X16751Y-19957D01*
G37*
G36*
X15698Y-20030D02*
X15797Y-20030D01*
X15797Y-19960D01*
X15797Y-19882D01*
X15797Y-19803D01*
X15898Y-19803D01*
X15999Y-19803D01*
X16015Y-19849D01*
X16025Y-19878D01*
X16027Y-19896D01*
X16021Y-19913D01*
X16012Y-19928D01*
X15992Y-19960D01*
X15894Y-19960D01*
X15797Y-19960D01*
X15797Y-20030D01*
X15868Y-20030D01*
X16039Y-20030D01*
X16080Y-19987D01*
X16103Y-19963D01*
X16115Y-19944D01*
X16120Y-19922D01*
X16122Y-19891D01*
X16122Y-19881D01*
X16121Y-19846D01*
X16117Y-19823D01*
X16106Y-19804D01*
X16087Y-19783D01*
X16080Y-19776D01*
X16038Y-19735D01*
X15913Y-19732D01*
X15789Y-19729D01*
X15803Y-19693D01*
X15810Y-19679D01*
X15817Y-19668D01*
X15829Y-19660D01*
X15847Y-19655D01*
X15875Y-19650D01*
X15916Y-19646D01*
X15973Y-19642D01*
X16001Y-19640D01*
X16092Y-19634D01*
X16092Y-19605D01*
X16092Y-19577D01*
X15937Y-19577D01*
X15782Y-19578D01*
X15740Y-19615D01*
X15698Y-19653D01*
X15698Y-19841D01*
X15698Y-20030D01*
X15698Y-20030D01*
X15698Y-20030D01*
G37*
G36*
X15186Y-19646D02*
X15286Y-19646D01*
X15385Y-19646D01*
X15443Y-19697D01*
X15501Y-19748D01*
X15501Y-19889D01*
X15501Y-20030D01*
X15551Y-20030D01*
X15600Y-20030D01*
X15600Y-19803D01*
X15600Y-19577D01*
X15551Y-19577D01*
X15501Y-19577D01*
X15501Y-19618D01*
X15501Y-19660D01*
X15459Y-19618D01*
X15417Y-19577D01*
X15302Y-19577D01*
X15186Y-19577D01*
X15186Y-19611D01*
X15186Y-19646D01*
X15186Y-19646D01*
X15186Y-19646D01*
G37*
G36*
X14665Y-20030D02*
X14714Y-20030D01*
X14763Y-20030D01*
X14763Y-19853D01*
X14763Y-19677D01*
X14787Y-19661D01*
X14807Y-19650D01*
X14817Y-19646D01*
X14819Y-19655D01*
X14820Y-19681D01*
X14821Y-19721D01*
X14822Y-19771D01*
X14822Y-19829D01*
X14822Y-19838D01*
X14822Y-20030D01*
X14872Y-20030D01*
X14921Y-20030D01*
X14921Y-19838D01*
X14921Y-19646D01*
X14950Y-19646D01*
X14980Y-19646D01*
X14980Y-19838D01*
X14980Y-20030D01*
X15029Y-20030D01*
X15078Y-20030D01*
X15078Y-19803D01*
X15078Y-19577D01*
X14913Y-19577D01*
X14748Y-19577D01*
X14706Y-19619D01*
X14665Y-19661D01*
X14665Y-19845D01*
X14665Y-20030D01*
X14665Y-20030D01*
X14665Y-20030D01*
G37*
G36*
X14133Y-20030D02*
X14232Y-20030D01*
X14232Y-19960D01*
X14232Y-19882D01*
X14232Y-19803D01*
X14333Y-19803D01*
X14434Y-19803D01*
X14450Y-19849D01*
X14460Y-19878D01*
X14462Y-19896D01*
X14456Y-19913D01*
X14447Y-19928D01*
X14427Y-19960D01*
X14329Y-19960D01*
X14232Y-19960D01*
X14232Y-20030D01*
X14303Y-20030D01*
X14474Y-20030D01*
X14515Y-19987D01*
X14538Y-19963D01*
X14550Y-19944D01*
X14555Y-19922D01*
X14557Y-19891D01*
X14557Y-19881D01*
X14556Y-19846D01*
X14552Y-19823D01*
X14541Y-19804D01*
X14522Y-19783D01*
X14515Y-19776D01*
X14473Y-19735D01*
X14348Y-19732D01*
X14224Y-19729D01*
X14239Y-19693D01*
X14245Y-19679D01*
X14252Y-19668D01*
X14264Y-19660D01*
X14282Y-19655D01*
X14310Y-19650D01*
X14351Y-19646D01*
X14408Y-19642D01*
X14436Y-19640D01*
X14527Y-19634D01*
X14527Y-19605D01*
X14527Y-19577D01*
X14372Y-19577D01*
X14217Y-19578D01*
X14175Y-19615D01*
X14133Y-19653D01*
X14133Y-19841D01*
X14133Y-20030D01*
X14133Y-20030D01*
X14133Y-20030D01*
G37*
G36*
X13621Y-19957D02*
X13659Y-19993D01*
X13696Y-20030D01*
X13730Y-20030D01*
X13730Y-19949D01*
X13730Y-19803D01*
X13730Y-19657D01*
X13786Y-19651D01*
X13828Y-19646D01*
X13872Y-19641D01*
X13890Y-19639D01*
X13936Y-19634D01*
X13936Y-19803D01*
X13936Y-19972D01*
X13900Y-19967D01*
X13870Y-19963D01*
X13830Y-19959D01*
X13796Y-19955D01*
X13730Y-19949D01*
X13730Y-20030D01*
X13866Y-20030D01*
X14035Y-20030D01*
X14035Y-19705D01*
X14035Y-19380D01*
X13986Y-19380D01*
X13936Y-19380D01*
X13936Y-19478D01*
X13936Y-19577D01*
X13815Y-19577D01*
X13694Y-19577D01*
X13658Y-19614D01*
X13621Y-19651D01*
X13621Y-19804D01*
X13621Y-19957D01*
X13621Y-19957D01*
X13621Y-19957D01*
G37*
G36*
X13189Y-20030D02*
X13302Y-20030D01*
X13415Y-20030D01*
X13415Y-19995D01*
X13413Y-19972D01*
X13405Y-19962D01*
X13385Y-19960D01*
X13356Y-19960D01*
X13356Y-19705D01*
X13356Y-19449D01*
X13385Y-19449D01*
X13405Y-19447D01*
X13413Y-19437D01*
X13415Y-19414D01*
X13415Y-19380D01*
X13336Y-19380D01*
X13257Y-19380D01*
X13257Y-19670D01*
X13257Y-19960D01*
X13223Y-19960D01*
X13200Y-19962D01*
X13190Y-19971D01*
X13189Y-19992D01*
X13189Y-19995D01*
X13189Y-20030D01*
X13189Y-20030D01*
X13189Y-20030D01*
G37*
G36*
X11525Y-20030D02*
X11624Y-20030D01*
X11624Y-19960D01*
X11624Y-19882D01*
X11624Y-19803D01*
X11725Y-19803D01*
X11826Y-19803D01*
X11842Y-19849D01*
X11852Y-19878D01*
X11854Y-19896D01*
X11848Y-19913D01*
X11839Y-19928D01*
X11819Y-19960D01*
X11721Y-19960D01*
X11624Y-19960D01*
X11624Y-20030D01*
X11695Y-20030D01*
X11865Y-20030D01*
X11907Y-19987D01*
X11929Y-19963D01*
X11942Y-19944D01*
X11947Y-19922D01*
X11948Y-19891D01*
X11948Y-19881D01*
X11948Y-19846D01*
X11944Y-19823D01*
X11933Y-19804D01*
X11914Y-19783D01*
X11906Y-19776D01*
X11865Y-19735D01*
X11740Y-19732D01*
X11616Y-19729D01*
X11630Y-19693D01*
X11637Y-19679D01*
X11644Y-19668D01*
X11655Y-19660D01*
X11674Y-19655D01*
X11702Y-19650D01*
X11743Y-19646D01*
X11800Y-19642D01*
X11828Y-19640D01*
X11919Y-19634D01*
X11919Y-19605D01*
X11919Y-19577D01*
X11764Y-19577D01*
X11609Y-19578D01*
X11567Y-19615D01*
X11525Y-19653D01*
X11525Y-19841D01*
X11525Y-20030D01*
X11525Y-20030D01*
X11525Y-20030D01*
G37*
G36*
X11013Y-19646D02*
X11112Y-19646D01*
X11211Y-19646D01*
X11270Y-19697D01*
X11328Y-19748D01*
X11328Y-19889D01*
X11328Y-20030D01*
X11377Y-20030D01*
X11427Y-20030D01*
X11427Y-19803D01*
X11427Y-19577D01*
X11377Y-19577D01*
X11328Y-19577D01*
X11328Y-19618D01*
X11328Y-19660D01*
X11286Y-19618D01*
X11244Y-19577D01*
X11129Y-19577D01*
X11013Y-19577D01*
X11013Y-19611D01*
X11013Y-19646D01*
X11013Y-19646D01*
X11013Y-19646D01*
G37*
G36*
X10491Y-20030D02*
X10541Y-20030D01*
X10590Y-20030D01*
X10590Y-19853D01*
X10590Y-19677D01*
X10614Y-19661D01*
X10633Y-19650D01*
X10644Y-19646D01*
X10645Y-19655D01*
X10647Y-19681D01*
X10648Y-19721D01*
X10649Y-19771D01*
X10649Y-19829D01*
X10649Y-19838D01*
X10649Y-20030D01*
X10698Y-20030D01*
X10747Y-20030D01*
X10747Y-19838D01*
X10747Y-19646D01*
X10777Y-19646D01*
X10807Y-19646D01*
X10807Y-19838D01*
X10807Y-20030D01*
X10856Y-20030D01*
X10905Y-20030D01*
X10905Y-19803D01*
X10905Y-19577D01*
X10740Y-19577D01*
X10574Y-19577D01*
X10533Y-19619D01*
X10491Y-19661D01*
X10491Y-19845D01*
X10491Y-20030D01*
X10491Y-20030D01*
X10491Y-20030D01*
G37*
G36*
X19862Y-19901D02*
X19897Y-19960D01*
X19933Y-20020D01*
X20077Y-20020D01*
X20222Y-20020D01*
X20260Y-19980D01*
X20299Y-19941D01*
X20144Y-19941D01*
X19990Y-19941D01*
X19990Y-19898D01*
X19990Y-19877D01*
X19994Y-19863D01*
X20004Y-19853D01*
X20022Y-19847D01*
X20054Y-19842D01*
X20100Y-19838D01*
X20120Y-19837D01*
X20164Y-19833D01*
X20195Y-19827D01*
X20217Y-19818D01*
X20239Y-19805D01*
X20251Y-19796D01*
X20276Y-19776D01*
X20289Y-19759D01*
X20294Y-19739D01*
X20295Y-19711D01*
X20293Y-19681D01*
X20288Y-19659D01*
X20273Y-19639D01*
X20253Y-19618D01*
X20210Y-19577D01*
X20078Y-19578D01*
X19945Y-19578D01*
X19907Y-19622D01*
X19869Y-19665D01*
X20028Y-19665D01*
X20187Y-19665D01*
X20187Y-19709D01*
X20186Y-19727D01*
X20184Y-19741D01*
X20177Y-19750D01*
X20161Y-19757D01*
X20135Y-19763D01*
X20094Y-19768D01*
X20038Y-19774D01*
X19934Y-19787D01*
X19898Y-19844D01*
X19862Y-19901D01*
X19862Y-19901D01*
X19862Y-19901D01*
G37*
G36*
X12578Y-19960D02*
X12581Y-19975D01*
X12588Y-19994D01*
X12597Y-20020D01*
X12748Y-20020D01*
X12899Y-20020D01*
X12945Y-19988D01*
X12992Y-19956D01*
X12992Y-19802D01*
X12992Y-19648D01*
X12948Y-19612D01*
X12905Y-19577D01*
X12778Y-19577D01*
X12651Y-19577D01*
X12615Y-19614D01*
X12578Y-19651D01*
X12578Y-19742D01*
X12578Y-19833D01*
X12666Y-19833D01*
X12666Y-19764D01*
X12672Y-19717D01*
X12679Y-19687D01*
X12688Y-19665D01*
X12693Y-19659D01*
X12709Y-19653D01*
X12739Y-19646D01*
X12775Y-19641D01*
X12776Y-19641D01*
X12814Y-19638D01*
X12837Y-19639D01*
X12853Y-19644D01*
X12867Y-19654D01*
X12870Y-19656D01*
X12886Y-19679D01*
X12893Y-19710D01*
X12893Y-19721D01*
X12893Y-19764D01*
X12779Y-19764D01*
X12666Y-19764D01*
X12666Y-19833D01*
X12737Y-19833D01*
X12895Y-19833D01*
X12889Y-19879D01*
X12884Y-19908D01*
X12879Y-19929D01*
X12877Y-19934D01*
X12866Y-19936D01*
X12839Y-19938D01*
X12799Y-19940D01*
X12751Y-19941D01*
X12725Y-19941D01*
X12666Y-19941D01*
X12625Y-19942D01*
X12598Y-19945D01*
X12583Y-19951D01*
X12578Y-19960D01*
X12578Y-19960D01*
X12578Y-19960D01*
G37*
G36*
X20560Y-19508D02*
X20610Y-19508D01*
X20659Y-19508D01*
X20659Y-19444D01*
X20659Y-19380D01*
X20610Y-19380D01*
X20560Y-19380D01*
X20560Y-19444D01*
X20560Y-19508D01*
X20560Y-19508D01*
X20560Y-19508D01*
G37*
G36*
X17244Y-18214D02*
X17340Y-18310D01*
X17436Y-18406D01*
X17802Y-18406D01*
X18169Y-18406D01*
X18169Y-18327D01*
X18169Y-18248D01*
X17824Y-18248D01*
X17480Y-18248D01*
X17480Y-18135D01*
X17480Y-18022D01*
X17480Y-17874D01*
X17480Y-17485D01*
X17480Y-17096D01*
X17715Y-17096D01*
X17950Y-17096D01*
X17986Y-17197D01*
X18000Y-17243D01*
X18012Y-17286D01*
X18020Y-17320D01*
X18021Y-17335D01*
X18020Y-17355D01*
X18018Y-17389D01*
X18015Y-17435D01*
X18010Y-17490D01*
X18005Y-17549D01*
X17999Y-17610D01*
X17994Y-17669D01*
X17989Y-17723D01*
X17984Y-17768D01*
X17981Y-17801D01*
X17979Y-17818D01*
X17978Y-17820D01*
X17968Y-17823D01*
X17942Y-17828D01*
X17902Y-17833D01*
X17853Y-17840D01*
X17797Y-17846D01*
X17737Y-17853D01*
X17677Y-17859D01*
X17619Y-17865D01*
X17568Y-17869D01*
X17526Y-17872D01*
X17512Y-17873D01*
X17480Y-17874D01*
X17480Y-18022D01*
X17773Y-18021D01*
X18065Y-18021D01*
X18157Y-17924D01*
X18247Y-17827D01*
X18247Y-17479D01*
X18247Y-17131D01*
X18154Y-17035D01*
X18061Y-16939D01*
X17652Y-16939D01*
X17244Y-16939D01*
X17244Y-17576D01*
X17244Y-18214D01*
X17244Y-18214D01*
X17244Y-18214D01*
G37*
G36*
X20935Y-17210D02*
X21031Y-17306D01*
X21127Y-17402D01*
X21205Y-17402D01*
X21205Y-17209D01*
X21205Y-16939D01*
X21205Y-16668D01*
X21431Y-16647D01*
X21498Y-16640D01*
X21558Y-16635D01*
X21609Y-16630D01*
X21649Y-16627D01*
X21674Y-16625D01*
X21680Y-16624D01*
X21702Y-16624D01*
X21702Y-16939D01*
X21702Y-17254D01*
X21680Y-17253D01*
X21664Y-17252D01*
X21632Y-17249D01*
X21586Y-17245D01*
X21530Y-17240D01*
X21467Y-17234D01*
X21431Y-17231D01*
X21205Y-17209D01*
X21205Y-17402D01*
X21415Y-17402D01*
X21702Y-17402D01*
X21702Y-17712D01*
X21702Y-18022D01*
X21820Y-18022D01*
X21938Y-18022D01*
X21938Y-17249D01*
X21938Y-16476D01*
X21532Y-16476D01*
X21126Y-16476D01*
X21030Y-16572D01*
X20935Y-16668D01*
X20935Y-16939D01*
X20935Y-17210D01*
X20935Y-17210D01*
X20935Y-17210D01*
G37*
G36*
X19704Y-17096D02*
X19948Y-17097D01*
X20191Y-17097D01*
X20331Y-17222D01*
X20471Y-17347D01*
X20472Y-17685D01*
X20472Y-18022D01*
X20590Y-18022D01*
X20708Y-18022D01*
X20708Y-17480D01*
X20708Y-16939D01*
X20590Y-16939D01*
X20472Y-16939D01*
X20472Y-17035D01*
X20471Y-17131D01*
X20378Y-17035D01*
X20285Y-16939D01*
X19995Y-16939D01*
X19704Y-16939D01*
X19704Y-17018D01*
X19704Y-17096D01*
X19704Y-17096D01*
X19704Y-17096D01*
G37*
G36*
X18484Y-17840D02*
X18575Y-17931D01*
X18666Y-18022D01*
X18749Y-18021D01*
X18749Y-17825D01*
X18749Y-17477D01*
X18749Y-17129D01*
X18957Y-17107D01*
X19022Y-17100D01*
X19079Y-17095D01*
X19124Y-17092D01*
X19156Y-17091D01*
X19171Y-17092D01*
X19172Y-17093D01*
X19182Y-17110D01*
X19195Y-17141D01*
X19210Y-17181D01*
X19224Y-17226D01*
X19237Y-17269D01*
X19247Y-17306D01*
X19251Y-17333D01*
X19251Y-17337D01*
X19251Y-17359D01*
X19248Y-17396D01*
X19244Y-17447D01*
X19239Y-17505D01*
X19233Y-17569D01*
X19232Y-17584D01*
X19226Y-17646D01*
X19221Y-17703D01*
X19217Y-17750D01*
X19214Y-17785D01*
X19212Y-17805D01*
X19212Y-17808D01*
X19211Y-17813D01*
X19206Y-17817D01*
X19194Y-17820D01*
X19173Y-17822D01*
X19142Y-17824D01*
X19097Y-17824D01*
X19036Y-17825D01*
X18981Y-17825D01*
X18749Y-17825D01*
X18749Y-18021D01*
X18981Y-18021D01*
X19296Y-18021D01*
X19387Y-17924D01*
X19478Y-17827D01*
X19478Y-17480D01*
X19478Y-17134D01*
X19388Y-17036D01*
X19299Y-16939D01*
X18982Y-16939D01*
X18666Y-16939D01*
X18575Y-17030D01*
X18484Y-17121D01*
X18484Y-17480D01*
X18484Y-17840D01*
X18484Y-17840D01*
X18484Y-17840D01*
G37*
G36*
X16013Y-18022D02*
X16131Y-18022D01*
X16238Y-18022D01*
X16238Y-17244D01*
X16244Y-17192D01*
X16246Y-17166D01*
X16250Y-17125D01*
X16254Y-17072D01*
X16259Y-17011D01*
X16264Y-16947D01*
X16264Y-16944D01*
X16269Y-16881D01*
X16274Y-16822D01*
X16278Y-16771D01*
X16282Y-16732D01*
X16284Y-16708D01*
X16284Y-16707D01*
X16290Y-16667D01*
X16482Y-16645D01*
X16675Y-16622D01*
X16728Y-16674D01*
X16781Y-16727D01*
X16781Y-16985D01*
X16781Y-17244D01*
X16510Y-17244D01*
X16238Y-17244D01*
X16238Y-18022D01*
X16249Y-18022D01*
X16249Y-17712D01*
X16249Y-17402D01*
X16515Y-17402D01*
X16781Y-17402D01*
X16781Y-17712D01*
X16781Y-18022D01*
X16899Y-18022D01*
X17017Y-18022D01*
X17017Y-17345D01*
X17017Y-16668D01*
X16921Y-16572D01*
X16825Y-16476D01*
X16515Y-16476D01*
X16205Y-16476D01*
X16109Y-16572D01*
X16013Y-16668D01*
X16013Y-17345D01*
X16013Y-18022D01*
X16013Y-18022D01*
X16013Y-18022D01*
G37*
G36*
X14783Y-17096D02*
X15027Y-17097D01*
X15270Y-17097D01*
X15410Y-17222D01*
X15550Y-17347D01*
X15550Y-17685D01*
X15551Y-18022D01*
X15669Y-18022D01*
X15787Y-18022D01*
X15787Y-17480D01*
X15787Y-16939D01*
X15669Y-16939D01*
X15551Y-16939D01*
X15550Y-17035D01*
X15550Y-17131D01*
X15457Y-17035D01*
X15364Y-16939D01*
X15074Y-16939D01*
X14783Y-16939D01*
X14783Y-17018D01*
X14783Y-17096D01*
X14783Y-17096D01*
X14783Y-17096D01*
G37*
G36*
X13553Y-18022D02*
X13671Y-18022D01*
X13789Y-18022D01*
X13789Y-17600D01*
X13789Y-17179D01*
X13868Y-17133D01*
X13946Y-17087D01*
X13946Y-17554D01*
X13946Y-18022D01*
X14060Y-18022D01*
X14173Y-18022D01*
X14173Y-17559D01*
X14173Y-17096D01*
X14247Y-17096D01*
X14320Y-17096D01*
X14320Y-17559D01*
X14320Y-18022D01*
X14438Y-18022D01*
X14557Y-18022D01*
X14557Y-17480D01*
X14557Y-16939D01*
X14151Y-16939D01*
X13744Y-16939D01*
X13649Y-17035D01*
X13553Y-17131D01*
X13553Y-17576D01*
X13553Y-18022D01*
X13553Y-18022D01*
X13553Y-18022D01*
G37*
G36*
X14123Y-13519D02*
X14185Y-13580D01*
X14185Y-13371D01*
X14202Y-13336D01*
X14211Y-13326D01*
X14247Y-13302D01*
X14284Y-13297D01*
X14320Y-13311D01*
X14334Y-13321D01*
X14351Y-13340D01*
X14360Y-13354D01*
X14360Y-13356D01*
X14369Y-13359D01*
X14398Y-13362D01*
X14446Y-13364D01*
X14514Y-13366D01*
X14601Y-13366D01*
X14603Y-13366D01*
X14847Y-13366D01*
X14908Y-13305D01*
X14970Y-13244D01*
X14970Y-13142D01*
X14970Y-13041D01*
X15009Y-13041D01*
X15048Y-13041D01*
X15051Y-12926D01*
X15053Y-12810D01*
X15245Y-12810D01*
X15437Y-12810D01*
X15437Y-13061D01*
X15437Y-13312D01*
X15245Y-13312D01*
X15053Y-13312D01*
X15051Y-13196D01*
X15049Y-13146D01*
X15048Y-13113D01*
X15045Y-13094D01*
X15040Y-13084D01*
X15033Y-13082D01*
X15031Y-13083D01*
X15023Y-13087D01*
X15018Y-13099D01*
X15015Y-13122D01*
X15013Y-13159D01*
X15013Y-13173D01*
X15012Y-13260D01*
X14939Y-13333D01*
X14867Y-13405D01*
X14614Y-13405D01*
X14524Y-13406D01*
X14454Y-13407D01*
X14403Y-13409D01*
X14372Y-13412D01*
X14360Y-13415D01*
X14360Y-13416D01*
X14353Y-13429D01*
X14338Y-13448D01*
X14336Y-13450D01*
X14302Y-13471D01*
X14265Y-13475D01*
X14229Y-13462D01*
X14208Y-13444D01*
X14187Y-13407D01*
X14185Y-13371D01*
X14185Y-13580D01*
X14259Y-13654D01*
X14314Y-13708D01*
X14358Y-13748D01*
X14389Y-13774D01*
X14410Y-13787D01*
X14417Y-13789D01*
X14426Y-13788D01*
X14432Y-13784D01*
X14436Y-13772D01*
X14438Y-13750D01*
X14438Y-13714D01*
X14438Y-13676D01*
X14439Y-13632D01*
X14441Y-13595D01*
X14443Y-13571D01*
X14446Y-13563D01*
X14458Y-13563D01*
X14486Y-13562D01*
X14527Y-13562D01*
X14579Y-13562D01*
X14638Y-13562D01*
X14640Y-13562D01*
X14827Y-13561D01*
X14830Y-13675D01*
X14833Y-13789D01*
X14871Y-13789D01*
X14900Y-13793D01*
X14914Y-13804D01*
X14915Y-13806D01*
X14918Y-13822D01*
X14919Y-13853D01*
X14920Y-13895D01*
X14920Y-13940D01*
X14919Y-14058D01*
X15051Y-14190D01*
X15051Y-13744D01*
X15051Y-13683D01*
X15051Y-13632D01*
X15053Y-13593D01*
X15054Y-13570D01*
X15056Y-13563D01*
X15068Y-13563D01*
X15096Y-13562D01*
X15138Y-13562D01*
X15189Y-13562D01*
X15248Y-13562D01*
X15250Y-13562D01*
X15437Y-13561D01*
X15440Y-13813D01*
X15443Y-14065D01*
X15356Y-14065D01*
X15270Y-14065D01*
X15270Y-14109D01*
X15271Y-14137D01*
X15276Y-14150D01*
X15288Y-14153D01*
X15291Y-14154D01*
X15313Y-14160D01*
X15338Y-14175D01*
X15344Y-14180D01*
X15364Y-14199D01*
X15372Y-14219D01*
X15372Y-14248D01*
X15373Y-14280D01*
X15383Y-14303D01*
X15398Y-14321D01*
X15426Y-14350D01*
X15529Y-14350D01*
X15529Y-14198D01*
X15538Y-14162D01*
X15561Y-14132D01*
X15581Y-14118D01*
X15617Y-14110D01*
X15655Y-14117D01*
X15686Y-14139D01*
X15695Y-14149D01*
X15701Y-14158D01*
X15708Y-14164D01*
X15719Y-14168D01*
X15737Y-14171D01*
X15765Y-14172D01*
X15806Y-14173D01*
X15862Y-14173D01*
X15894Y-14173D01*
X16078Y-14173D01*
X16166Y-14262D01*
X16254Y-14350D01*
X16776Y-14350D01*
X17298Y-14350D01*
X17385Y-14437D01*
X17472Y-14525D01*
X17477Y-14663D01*
X17479Y-14714D01*
X17479Y-14759D01*
X17479Y-14794D01*
X17477Y-14814D01*
X17477Y-14817D01*
X17462Y-14829D01*
X17439Y-14833D01*
X17408Y-14833D01*
X17413Y-14686D01*
X17418Y-14539D01*
X17342Y-14464D01*
X17267Y-14389D01*
X16752Y-14390D01*
X16236Y-14390D01*
X16151Y-14306D01*
X16067Y-14222D01*
X15892Y-14222D01*
X15717Y-14222D01*
X15684Y-14257D01*
X15650Y-14284D01*
X15615Y-14291D01*
X15579Y-14279D01*
X15561Y-14266D01*
X15537Y-14234D01*
X15529Y-14198D01*
X15529Y-14350D01*
X15648Y-14350D01*
X15871Y-14350D01*
X16067Y-14547D01*
X16166Y-14646D01*
X16166Y-14525D01*
X16175Y-14487D01*
X16176Y-14484D01*
X16202Y-14451D01*
X16239Y-14432D01*
X16264Y-14429D01*
X16287Y-14435D01*
X16312Y-14450D01*
X16331Y-14468D01*
X16338Y-14484D01*
X16340Y-14487D01*
X16348Y-14490D01*
X16363Y-14492D01*
X16387Y-14494D01*
X16421Y-14495D01*
X16467Y-14496D01*
X16526Y-14497D01*
X16600Y-14498D01*
X16690Y-14498D01*
X16798Y-14498D01*
X16823Y-14498D01*
X17309Y-14498D01*
X17339Y-14530D01*
X17358Y-14553D01*
X17370Y-14572D01*
X17371Y-14577D01*
X17373Y-14601D01*
X17376Y-14636D01*
X17377Y-14679D01*
X17378Y-14723D01*
X17379Y-14763D01*
X17379Y-14796D01*
X17378Y-14816D01*
X17377Y-14819D01*
X17365Y-14829D01*
X17342Y-14833D01*
X17311Y-14833D01*
X17313Y-14701D01*
X17314Y-14652D01*
X17313Y-14609D01*
X17311Y-14577D01*
X17309Y-14560D01*
X17309Y-14558D01*
X17301Y-14556D01*
X17281Y-14553D01*
X17248Y-14551D01*
X17200Y-14550D01*
X17138Y-14549D01*
X17058Y-14548D01*
X16962Y-14547D01*
X16846Y-14547D01*
X16825Y-14547D01*
X16348Y-14547D01*
X16320Y-14579D01*
X16288Y-14602D01*
X16254Y-14610D01*
X16221Y-14604D01*
X16193Y-14586D01*
X16174Y-14559D01*
X16166Y-14525D01*
X16166Y-14646D01*
X16264Y-14744D01*
X16347Y-14744D01*
X16430Y-14744D01*
X16552Y-14865D01*
X16674Y-14985D01*
X16721Y-14984D01*
X16721Y-14747D01*
X16734Y-14712D01*
X16752Y-14691D01*
X16789Y-14669D01*
X16824Y-14667D01*
X16858Y-14684D01*
X16875Y-14700D01*
X16908Y-14734D01*
X17000Y-14734D01*
X17050Y-14733D01*
X17086Y-14729D01*
X17103Y-14723D01*
X17104Y-14722D01*
X17110Y-14706D01*
X17115Y-14677D01*
X17116Y-14648D01*
X17116Y-14586D01*
X17145Y-14586D01*
X17175Y-14586D01*
X17175Y-14710D01*
X17175Y-14833D01*
X17145Y-14833D01*
X17124Y-14830D01*
X17116Y-14819D01*
X17116Y-14808D01*
X17116Y-14783D01*
X17002Y-14783D01*
X16952Y-14784D01*
X16915Y-14786D01*
X16894Y-14790D01*
X16889Y-14793D01*
X16883Y-14807D01*
X16869Y-14823D01*
X16841Y-14839D01*
X16804Y-14843D01*
X16768Y-14834D01*
X16746Y-14818D01*
X16725Y-14785D01*
X16721Y-14747D01*
X16721Y-14984D01*
X16821Y-14982D01*
X16968Y-14978D01*
X16968Y-15010D01*
X16968Y-15042D01*
X16810Y-15037D01*
X16651Y-15032D01*
X16531Y-14912D01*
X16412Y-14793D01*
X16333Y-14793D01*
X16255Y-14793D01*
X16052Y-14591D01*
X15849Y-14389D01*
X15625Y-14390D01*
X15401Y-14392D01*
X15368Y-14359D01*
X15343Y-14339D01*
X15322Y-14330D01*
X15293Y-14329D01*
X15290Y-14329D01*
X15259Y-14329D01*
X15239Y-14321D01*
X15221Y-14305D01*
X15201Y-14272D01*
X15197Y-14235D01*
X15208Y-14202D01*
X15211Y-14197D01*
X15220Y-14174D01*
X15225Y-14138D01*
X15226Y-14122D01*
X15226Y-14066D01*
X15140Y-14063D01*
X15053Y-14060D01*
X15051Y-13811D01*
X15051Y-13744D01*
X15051Y-14190D01*
X15118Y-14258D01*
X15319Y-14458D01*
X15316Y-14532D01*
X15313Y-14605D01*
X15356Y-14608D01*
X15398Y-14611D01*
X15398Y-14808D01*
X15398Y-15005D01*
X15359Y-15010D01*
X15333Y-15014D01*
X15322Y-15023D01*
X15320Y-15040D01*
X15319Y-15046D01*
X15317Y-15070D01*
X15312Y-15084D01*
X15312Y-15084D01*
X15307Y-15099D01*
X15304Y-15120D01*
X15308Y-15140D01*
X15321Y-15147D01*
X15324Y-15147D01*
X15337Y-15144D01*
X15343Y-15131D01*
X15344Y-15108D01*
X15344Y-15069D01*
X15546Y-15069D01*
X15614Y-15069D01*
X15664Y-15069D01*
X15700Y-15070D01*
X15724Y-15072D01*
X15738Y-15075D01*
X15745Y-15079D01*
X15747Y-15084D01*
X15747Y-15090D01*
X15751Y-15105D01*
X15765Y-15106D01*
X15770Y-15104D01*
X15794Y-15099D01*
X15826Y-15093D01*
X15829Y-15092D01*
X15859Y-15083D01*
X15875Y-15065D01*
X15876Y-15062D01*
X15885Y-15048D01*
X15900Y-15041D01*
X15929Y-15039D01*
X15929Y-15039D01*
X15952Y-15038D01*
X15967Y-15034D01*
X15974Y-15026D01*
X15971Y-15012D01*
X15959Y-14991D01*
X15935Y-14962D01*
X15901Y-14924D01*
X15853Y-14875D01*
X15793Y-14814D01*
X15780Y-14801D01*
X15721Y-14743D01*
X15670Y-14694D01*
X15629Y-14656D01*
X15598Y-14629D01*
X15579Y-14615D01*
X15574Y-14613D01*
X15550Y-14613D01*
X15523Y-14601D01*
X15498Y-14582D01*
X15486Y-14566D01*
X15473Y-14524D01*
X15478Y-14487D01*
X15501Y-14457D01*
X15521Y-14444D01*
X15557Y-14431D01*
X15588Y-14434D01*
X15619Y-14455D01*
X15620Y-14457D01*
X15642Y-14481D01*
X15651Y-14508D01*
X15651Y-14521D01*
X15648Y-14549D01*
X15640Y-14571D01*
X15638Y-14573D01*
X15636Y-14579D01*
X15639Y-14588D01*
X15649Y-14602D01*
X15666Y-14623D01*
X15692Y-14652D01*
X15729Y-14690D01*
X15777Y-14739D01*
X15820Y-14782D01*
X15877Y-14840D01*
X15922Y-14886D01*
X15956Y-14921D01*
X15981Y-14948D01*
X15997Y-14969D01*
X16007Y-14984D01*
X16012Y-14997D01*
X16013Y-15007D01*
X16014Y-15027D01*
X16021Y-15036D01*
X16039Y-15039D01*
X16058Y-15039D01*
X16092Y-15043D01*
X16107Y-15052D01*
X16108Y-15053D01*
X16121Y-15064D01*
X16146Y-15072D01*
X16176Y-15077D01*
X16204Y-15075D01*
X16210Y-15074D01*
X16221Y-15068D01*
X16227Y-15056D01*
X16229Y-15032D01*
X16230Y-15004D01*
X16230Y-14941D01*
X16274Y-14941D01*
X16302Y-14940D01*
X16315Y-14934D01*
X16318Y-14923D01*
X16318Y-14921D01*
X16317Y-14911D01*
X16311Y-14906D01*
X16297Y-14903D01*
X16270Y-14902D01*
X16227Y-14902D01*
X16224Y-14902D01*
X16129Y-14904D01*
X15980Y-14756D01*
X15931Y-14707D01*
X15893Y-14670D01*
X15865Y-14644D01*
X15844Y-14627D01*
X15828Y-14616D01*
X15815Y-14611D01*
X15802Y-14609D01*
X15788Y-14610D01*
X15758Y-14608D01*
X15737Y-14598D01*
X15717Y-14579D01*
X15695Y-14548D01*
X15690Y-14519D01*
X15699Y-14485D01*
X15700Y-14483D01*
X15720Y-14458D01*
X15750Y-14438D01*
X15780Y-14429D01*
X15782Y-14429D01*
X15817Y-14438D01*
X15847Y-14462D01*
X15867Y-14494D01*
X15873Y-14532D01*
X15871Y-14544D01*
X15870Y-14554D01*
X15873Y-14566D01*
X15881Y-14579D01*
X15896Y-14599D01*
X15920Y-14625D01*
X15954Y-14660D01*
X16000Y-14706D01*
X16010Y-14717D01*
X16156Y-14862D01*
X16259Y-14864D01*
X16363Y-14867D01*
X16366Y-14904D01*
X16369Y-14927D01*
X16376Y-14938D01*
X16394Y-14941D01*
X16413Y-14941D01*
X16456Y-14941D01*
X16456Y-15004D01*
X16458Y-15042D01*
X16464Y-15064D01*
X16479Y-15075D01*
X16507Y-15078D01*
X16526Y-15079D01*
X16550Y-15080D01*
X16564Y-15085D01*
X16564Y-15086D01*
X16574Y-15089D01*
X16598Y-15090D01*
X16633Y-15089D01*
X16655Y-15087D01*
X16681Y-15086D01*
X16724Y-15086D01*
X16784Y-15085D01*
X16857Y-15085D01*
X16942Y-15085D01*
X17037Y-15086D01*
X17116Y-15086D01*
X17116Y-14961D01*
X17123Y-14931D01*
X17143Y-14902D01*
X17169Y-14881D01*
X17196Y-14872D01*
X17219Y-14872D01*
X17216Y-14729D01*
X17212Y-14586D01*
X17244Y-14586D01*
X17275Y-14586D01*
X17271Y-14737D01*
X17270Y-14795D01*
X17270Y-14838D01*
X17271Y-14868D01*
X17274Y-14889D01*
X17279Y-14905D01*
X17286Y-14919D01*
X17298Y-14955D01*
X17295Y-14989D01*
X17278Y-15017D01*
X17252Y-15038D01*
X17221Y-15048D01*
X17186Y-15045D01*
X17153Y-15028D01*
X17144Y-15020D01*
X17121Y-14987D01*
X17116Y-14961D01*
X17116Y-15086D01*
X17140Y-15086D01*
X17250Y-15087D01*
X17364Y-15088D01*
X17406Y-15089D01*
X17813Y-15094D01*
X17813Y-14833D01*
X17816Y-14695D01*
X17819Y-14558D01*
X17888Y-14488D01*
X17918Y-14459D01*
X17944Y-14436D01*
X17961Y-14422D01*
X17967Y-14419D01*
X17976Y-14413D01*
X17998Y-14394D01*
X18028Y-14366D01*
X18066Y-14330D01*
X18108Y-14288D01*
X18117Y-14279D01*
X18165Y-14230D01*
X18201Y-14193D01*
X18227Y-14165D01*
X18243Y-14144D01*
X18253Y-14129D01*
X18257Y-14115D01*
X18257Y-14107D01*
X18251Y-14078D01*
X18238Y-14065D01*
X18220Y-14049D01*
X18203Y-14025D01*
X18203Y-14025D01*
X18193Y-13998D01*
X18195Y-13973D01*
X18198Y-13961D01*
X18219Y-13924D01*
X18250Y-13903D01*
X18285Y-13897D01*
X18322Y-13908D01*
X18347Y-13926D01*
X18371Y-13960D01*
X18375Y-13995D01*
X18360Y-14029D01*
X18341Y-14051D01*
X18318Y-14076D01*
X18308Y-14099D01*
X18307Y-14121D01*
X18306Y-14134D01*
X18303Y-14147D01*
X18295Y-14161D01*
X18282Y-14179D01*
X18261Y-14202D01*
X18231Y-14234D01*
X18189Y-14275D01*
X18150Y-14314D01*
X18104Y-14359D01*
X18062Y-14398D01*
X18026Y-14431D01*
X17999Y-14454D01*
X17983Y-14467D01*
X17980Y-14468D01*
X17966Y-14475D01*
X17945Y-14492D01*
X17919Y-14516D01*
X17872Y-14565D01*
X17873Y-14699D01*
X17874Y-14833D01*
X17844Y-14833D01*
X17813Y-14833D01*
X17813Y-15094D01*
X17912Y-15095D01*
X17912Y-14586D01*
X17942Y-14586D01*
X17958Y-14589D01*
X17970Y-14596D01*
X17977Y-14612D01*
X17981Y-14638D01*
X17982Y-14679D01*
X17980Y-14735D01*
X17979Y-14760D01*
X17974Y-14882D01*
X18002Y-14882D01*
X18011Y-14884D01*
X18011Y-14833D01*
X18012Y-14722D01*
X18013Y-14671D01*
X18015Y-14622D01*
X18017Y-14582D01*
X18020Y-14562D01*
X18026Y-14513D01*
X18077Y-14510D01*
X18127Y-14507D01*
X18122Y-14468D01*
X18121Y-14441D01*
X18129Y-14421D01*
X18147Y-14400D01*
X18182Y-14377D01*
X18218Y-14370D01*
X18251Y-14379D01*
X18278Y-14402D01*
X18294Y-14436D01*
X18297Y-14460D01*
X18289Y-14501D01*
X18266Y-14530D01*
X18230Y-14545D01*
X18206Y-14547D01*
X18175Y-14547D01*
X18151Y-14550D01*
X18147Y-14552D01*
X18124Y-14556D01*
X18101Y-14555D01*
X18074Y-14551D01*
X18078Y-14677D01*
X18079Y-14725D01*
X18080Y-14768D01*
X18079Y-14800D01*
X18077Y-14816D01*
X18077Y-14817D01*
X18063Y-14829D01*
X18041Y-14833D01*
X18011Y-14833D01*
X18011Y-14884D01*
X18028Y-14888D01*
X18056Y-14904D01*
X18060Y-14907D01*
X18084Y-14939D01*
X18092Y-14976D01*
X18082Y-15013D01*
X18066Y-15035D01*
X18035Y-15054D01*
X17998Y-15060D01*
X17962Y-15052D01*
X17940Y-15036D01*
X17933Y-15027D01*
X17927Y-15016D01*
X17924Y-15001D01*
X17921Y-14978D01*
X17919Y-14946D01*
X17917Y-14901D01*
X17916Y-14840D01*
X17916Y-14799D01*
X17912Y-14586D01*
X17912Y-15095D01*
X18065Y-15097D01*
X18099Y-15065D01*
X18132Y-15034D01*
X18123Y-14931D01*
X18120Y-14876D01*
X18117Y-14810D01*
X18116Y-14745D01*
X18115Y-14710D01*
X18115Y-14591D01*
X18144Y-14591D01*
X18174Y-14591D01*
X18175Y-14818D01*
X18177Y-15044D01*
X18128Y-15095D01*
X18078Y-15145D01*
X17602Y-15140D01*
X17485Y-15139D01*
X17388Y-15138D01*
X17307Y-15138D01*
X17243Y-15138D01*
X17194Y-15139D01*
X17159Y-15140D01*
X17137Y-15142D01*
X17127Y-15145D01*
X17125Y-15146D01*
X17135Y-15153D01*
X17164Y-15157D01*
X17197Y-15158D01*
X17236Y-15159D01*
X17287Y-15161D01*
X17344Y-15164D01*
X17396Y-15168D01*
X17455Y-15171D01*
X17525Y-15174D01*
X17599Y-15176D01*
X17668Y-15177D01*
X17683Y-15177D01*
X17745Y-15178D01*
X17790Y-15179D01*
X17821Y-15181D01*
X17840Y-15184D01*
X17851Y-15189D01*
X17854Y-15192D01*
X17872Y-15202D01*
X17906Y-15206D01*
X17927Y-15207D01*
X17965Y-15208D01*
X18014Y-15212D01*
X18066Y-15218D01*
X18086Y-15221D01*
X18129Y-15228D01*
X18167Y-15233D01*
X18194Y-15235D01*
X18202Y-15236D01*
X18207Y-15235D01*
X18211Y-15232D01*
X18214Y-15224D01*
X18216Y-15209D01*
X18218Y-15186D01*
X18219Y-15152D01*
X18219Y-15105D01*
X18219Y-15044D01*
X18218Y-14966D01*
X18217Y-14914D01*
X18213Y-14591D01*
X18242Y-14591D01*
X18272Y-14591D01*
X18268Y-14914D01*
X18267Y-15002D01*
X18267Y-15073D01*
X18267Y-15128D01*
X18267Y-15169D01*
X18268Y-15199D01*
X18270Y-15218D01*
X18273Y-15229D01*
X18276Y-15235D01*
X18281Y-15236D01*
X18294Y-15241D01*
X18297Y-15246D01*
X18305Y-15254D01*
X18316Y-15256D01*
X18321Y-15255D01*
X18325Y-15253D01*
X18328Y-15247D01*
X18330Y-15237D01*
X18332Y-15219D01*
X18333Y-15194D01*
X18335Y-15158D01*
X18335Y-15111D01*
X18336Y-15051D01*
X18336Y-14976D01*
X18336Y-14885D01*
X18336Y-14777D01*
X18336Y-14758D01*
X18336Y-14259D01*
X18374Y-14221D01*
X18404Y-14196D01*
X18430Y-14184D01*
X18443Y-14183D01*
X18474Y-14183D01*
X18474Y-14065D01*
X18474Y-13946D01*
X18663Y-13949D01*
X18853Y-13952D01*
X18855Y-14210D01*
X18858Y-14468D01*
X18666Y-14468D01*
X18474Y-14468D01*
X18474Y-14350D01*
X18474Y-14232D01*
X18446Y-14232D01*
X18433Y-14232D01*
X18421Y-14233D01*
X18412Y-14237D01*
X18405Y-14245D01*
X18399Y-14258D01*
X18394Y-14279D01*
X18391Y-14308D01*
X18388Y-14348D01*
X18387Y-14400D01*
X18386Y-14465D01*
X18385Y-14545D01*
X18385Y-14641D01*
X18385Y-14756D01*
X18385Y-14761D01*
X18385Y-15254D01*
X18437Y-15260D01*
X18467Y-15262D01*
X18511Y-15266D01*
X18563Y-15270D01*
X18617Y-15274D01*
X18744Y-15284D01*
X18873Y-15157D01*
X19001Y-15029D01*
X19537Y-15032D01*
X20073Y-15034D01*
X20076Y-15071D01*
X20081Y-15096D01*
X20090Y-15107D01*
X20099Y-15108D01*
X20107Y-15109D01*
X20112Y-15116D01*
X20115Y-15130D01*
X20117Y-15156D01*
X20117Y-15197D01*
X20117Y-15221D01*
X20117Y-15270D01*
X20116Y-15302D01*
X20114Y-15321D01*
X20110Y-15331D01*
X20103Y-15334D01*
X20098Y-15335D01*
X20084Y-15338D01*
X20079Y-15353D01*
X20078Y-15369D01*
X20075Y-15396D01*
X20063Y-15409D01*
X20056Y-15412D01*
X20050Y-15417D01*
X20059Y-15421D01*
X20085Y-15425D01*
X20115Y-15428D01*
X20152Y-15432D01*
X20181Y-15437D01*
X20195Y-15442D01*
X20196Y-15444D01*
X20204Y-15452D01*
X20209Y-15453D01*
X20216Y-15446D01*
X20218Y-15425D01*
X20218Y-15394D01*
X20215Y-15360D01*
X20210Y-15342D01*
X20202Y-15335D01*
X20195Y-15335D01*
X20187Y-15333D01*
X20182Y-15327D01*
X20179Y-15312D01*
X20177Y-15286D01*
X20177Y-15244D01*
X20177Y-15221D01*
X20177Y-15173D01*
X20178Y-15140D01*
X20180Y-15121D01*
X20185Y-15112D01*
X20192Y-15109D01*
X20196Y-15108D01*
X20213Y-15102D01*
X20216Y-15085D01*
X20206Y-15061D01*
X20185Y-15033D01*
X20179Y-15026D01*
X20141Y-14990D01*
X19561Y-14990D01*
X18981Y-14990D01*
X18856Y-15114D01*
X18732Y-15239D01*
X18581Y-15240D01*
X18430Y-15241D01*
X18426Y-15208D01*
X18423Y-15174D01*
X18423Y-15174D01*
X18423Y-15077D01*
X18425Y-15077D01*
X18425Y-15039D01*
X18425Y-15010D01*
X18425Y-14980D01*
X18455Y-14980D01*
X18455Y-14738D01*
X18456Y-14701D01*
X18474Y-14665D01*
X18483Y-14655D01*
X18517Y-14630D01*
X18551Y-14626D01*
X18586Y-14641D01*
X18607Y-14660D01*
X18633Y-14682D01*
X18657Y-14694D01*
X18663Y-14695D01*
X18675Y-14690D01*
X18695Y-14675D01*
X18725Y-14650D01*
X18765Y-14613D01*
X18817Y-14563D01*
X18880Y-14501D01*
X19074Y-14306D01*
X19074Y-14192D01*
X19074Y-14078D01*
X19201Y-13953D01*
X19252Y-13904D01*
X19292Y-13868D01*
X19321Y-13844D01*
X19341Y-13832D01*
X19352Y-13829D01*
X19375Y-13822D01*
X19398Y-13805D01*
X19399Y-13804D01*
X19422Y-13779D01*
X19874Y-13779D01*
X20327Y-13779D01*
X20407Y-13858D01*
X20451Y-13899D01*
X20485Y-13925D01*
X20509Y-13936D01*
X20524Y-13933D01*
X20532Y-13916D01*
X20532Y-13915D01*
X20532Y-13507D01*
X20532Y-13474D01*
X20533Y-13458D01*
X20536Y-13381D01*
X20595Y-13381D01*
X20654Y-13381D01*
X20657Y-13462D01*
X20658Y-13502D01*
X20657Y-13526D01*
X20654Y-13538D01*
X20647Y-13543D01*
X20640Y-13543D01*
X20624Y-13549D01*
X20619Y-13557D01*
X20626Y-13567D01*
X20645Y-13590D01*
X20673Y-13620D01*
X20708Y-13657D01*
X20737Y-13686D01*
X20854Y-13801D01*
X20936Y-13803D01*
X21018Y-13804D01*
X21018Y-13853D01*
X21018Y-13903D01*
X20947Y-13905D01*
X20908Y-13906D01*
X20885Y-13904D01*
X20872Y-13898D01*
X20869Y-13893D01*
X20856Y-13881D01*
X20840Y-13878D01*
X20816Y-13878D01*
X20819Y-14053D01*
X20821Y-14227D01*
X20848Y-14230D01*
X20862Y-14233D01*
X20870Y-14238D01*
X20874Y-14252D01*
X20875Y-14277D01*
X20875Y-14312D01*
X20875Y-14390D01*
X20797Y-14390D01*
X20718Y-14390D01*
X20718Y-14312D01*
X20718Y-14273D01*
X20720Y-14249D01*
X20724Y-14237D01*
X20733Y-14232D01*
X20745Y-14230D01*
X20772Y-14227D01*
X20777Y-14031D01*
X20779Y-13964D01*
X20781Y-13914D01*
X20783Y-13878D01*
X20786Y-13854D01*
X20789Y-13840D01*
X20794Y-13833D01*
X20799Y-13829D01*
X20804Y-13824D01*
X20800Y-13814D01*
X20786Y-13796D01*
X20760Y-13769D01*
X20722Y-13730D01*
X20716Y-13724D01*
X20678Y-13687D01*
X20644Y-13657D01*
X20616Y-13634D01*
X20598Y-13622D01*
X20595Y-13620D01*
X20580Y-13612D01*
X20573Y-13591D01*
X20572Y-13581D01*
X20566Y-13554D01*
X20553Y-13541D01*
X20550Y-13540D01*
X20540Y-13536D01*
X20534Y-13526D01*
X20532Y-13507D01*
X20532Y-13915D01*
X20533Y-13910D01*
X20536Y-13895D01*
X20543Y-13887D01*
X20560Y-13883D01*
X20591Y-13880D01*
X20598Y-13880D01*
X20660Y-13877D01*
X20657Y-13959D01*
X20654Y-14040D01*
X20595Y-14040D01*
X20562Y-14040D01*
X20544Y-14037D01*
X20536Y-14029D01*
X20533Y-14015D01*
X20533Y-14013D01*
X20528Y-13994D01*
X20514Y-13987D01*
X20498Y-13986D01*
X20482Y-13984D01*
X20464Y-13976D01*
X20443Y-13959D01*
X20413Y-13932D01*
X20388Y-13907D01*
X20310Y-13829D01*
X19871Y-13829D01*
X19432Y-13829D01*
X19409Y-13853D01*
X19387Y-13870D01*
X19367Y-13878D01*
X19366Y-13878D01*
X19350Y-13885D01*
X19323Y-13906D01*
X19285Y-13940D01*
X19238Y-13984D01*
X19230Y-13993D01*
X19114Y-14109D01*
X19114Y-14217D01*
X19114Y-14325D01*
X18904Y-14535D01*
X18844Y-14595D01*
X18796Y-14643D01*
X18758Y-14679D01*
X18729Y-14705D01*
X18707Y-14724D01*
X18691Y-14736D01*
X18678Y-14742D01*
X18667Y-14744D01*
X18664Y-14744D01*
X18635Y-14750D01*
X18622Y-14764D01*
X18604Y-14783D01*
X18577Y-14801D01*
X18550Y-14812D01*
X18545Y-14812D01*
X18528Y-14809D01*
X18504Y-14798D01*
X18503Y-14798D01*
X18471Y-14772D01*
X18455Y-14738D01*
X18455Y-14980D01*
X18486Y-14980D01*
X18547Y-14980D01*
X18784Y-14744D01*
X19021Y-14508D01*
X19330Y-14508D01*
X19330Y-14468D01*
X19333Y-14210D01*
X19335Y-13952D01*
X19524Y-13949D01*
X19714Y-13946D01*
X19716Y-14067D01*
X19719Y-14188D01*
X19747Y-14185D01*
X19775Y-14174D01*
X19800Y-14153D01*
X19830Y-14131D01*
X19865Y-14124D01*
X19901Y-14131D01*
X19931Y-14150D01*
X19952Y-14181D01*
X19955Y-14192D01*
X19954Y-14227D01*
X19940Y-14260D01*
X19916Y-14286D01*
X19905Y-14292D01*
X19864Y-14301D01*
X19830Y-14293D01*
X19798Y-14268D01*
X19797Y-14267D01*
X19767Y-14241D01*
X19740Y-14232D01*
X19739Y-14232D01*
X19714Y-14232D01*
X19714Y-14350D01*
X19714Y-14468D01*
X19522Y-14468D01*
X19330Y-14468D01*
X19330Y-14508D01*
X19625Y-14508D01*
X19995Y-14508D01*
X19995Y-14346D01*
X19995Y-14109D01*
X19995Y-13873D01*
X20145Y-13870D01*
X20295Y-13867D01*
X20295Y-14109D01*
X20295Y-14351D01*
X20145Y-14348D01*
X19995Y-14346D01*
X19995Y-14508D01*
X20229Y-14508D01*
X20360Y-14378D01*
X20491Y-14249D01*
X20485Y-14206D01*
X20483Y-14178D01*
X20489Y-14157D01*
X20507Y-14136D01*
X20509Y-14134D01*
X20545Y-14110D01*
X20582Y-14103D01*
X20616Y-14113D01*
X20645Y-14140D01*
X20655Y-14159D01*
X20663Y-14185D01*
X20662Y-14207D01*
X20655Y-14227D01*
X20633Y-14260D01*
X20601Y-14278D01*
X20560Y-14279D01*
X20547Y-14277D01*
X20536Y-14279D01*
X20523Y-14284D01*
X20507Y-14295D01*
X20485Y-14314D01*
X20455Y-14343D01*
X20416Y-14382D01*
X20382Y-14416D01*
X20241Y-14557D01*
X19635Y-14557D01*
X19030Y-14557D01*
X18818Y-14769D01*
X18759Y-14829D01*
X18711Y-14876D01*
X18676Y-14913D01*
X18651Y-14940D01*
X18635Y-14959D01*
X18628Y-14971D01*
X18627Y-14977D01*
X18631Y-14980D01*
X18634Y-14980D01*
X18659Y-14987D01*
X18670Y-15006D01*
X18667Y-15025D01*
X18661Y-15031D01*
X18647Y-15035D01*
X18622Y-15038D01*
X18582Y-15039D01*
X18543Y-15039D01*
X18425Y-15039D01*
X18425Y-15077D01*
X18553Y-15080D01*
X18682Y-15082D01*
X18930Y-14834D01*
X19178Y-14586D01*
X19807Y-14586D01*
X20435Y-14586D01*
X20478Y-14547D01*
X20521Y-14507D01*
X20806Y-14508D01*
X21013Y-14509D01*
X21013Y-14390D01*
X21013Y-14311D01*
X21013Y-14232D01*
X21097Y-14232D01*
X21180Y-14232D01*
X21180Y-14262D01*
X21183Y-14283D01*
X21195Y-14291D01*
X21202Y-14291D01*
X21221Y-14285D01*
X21245Y-14268D01*
X21270Y-14246D01*
X21290Y-14224D01*
X21299Y-14207D01*
X21299Y-14206D01*
X21307Y-14194D01*
X21327Y-14186D01*
X21351Y-14184D01*
X21363Y-14187D01*
X21372Y-14186D01*
X21376Y-14174D01*
X21377Y-14147D01*
X21377Y-14143D01*
X21377Y-14093D01*
X21444Y-14096D01*
X21510Y-14099D01*
X21510Y-14213D01*
X21510Y-14326D01*
X21446Y-14326D01*
X21382Y-14326D01*
X21379Y-14279D01*
X21375Y-14249D01*
X21365Y-14235D01*
X21349Y-14236D01*
X21324Y-14254D01*
X21295Y-14281D01*
X21267Y-14309D01*
X21245Y-14324D01*
X21224Y-14330D01*
X21214Y-14331D01*
X21191Y-14332D01*
X21182Y-14341D01*
X21180Y-14360D01*
X21180Y-14390D01*
X21097Y-14390D01*
X21013Y-14390D01*
X21013Y-14509D01*
X21091Y-14509D01*
X21131Y-14548D01*
X21171Y-14586D01*
X21171Y-14690D01*
X21171Y-14793D01*
X21146Y-14793D01*
X21135Y-14793D01*
X21128Y-14788D01*
X21124Y-14777D01*
X21122Y-14754D01*
X21122Y-14717D01*
X21121Y-14698D01*
X21121Y-14653D01*
X21119Y-14622D01*
X21115Y-14602D01*
X21107Y-14588D01*
X21100Y-14580D01*
X21093Y-14573D01*
X21086Y-14568D01*
X21075Y-14564D01*
X21059Y-14561D01*
X21035Y-14559D01*
X21001Y-14558D01*
X20955Y-14557D01*
X20893Y-14557D01*
X20815Y-14557D01*
X20807Y-14557D01*
X20535Y-14557D01*
X20497Y-14597D01*
X20458Y-14636D01*
X19823Y-14636D01*
X19188Y-14636D01*
X18946Y-14878D01*
X18888Y-14935D01*
X18834Y-14988D01*
X18785Y-15036D01*
X18744Y-15075D01*
X18711Y-15106D01*
X18689Y-15126D01*
X18680Y-15133D01*
X18659Y-15140D01*
X18622Y-15143D01*
X18570Y-15145D01*
X18543Y-15144D01*
X18430Y-15143D01*
X18426Y-15110D01*
X18423Y-15077D01*
X18423Y-15174D01*
X18571Y-15179D01*
X18718Y-15184D01*
X18840Y-15062D01*
X18961Y-14941D01*
X19562Y-14941D01*
X20163Y-14941D01*
X20209Y-14988D01*
X20235Y-15016D01*
X20249Y-15039D01*
X20255Y-15060D01*
X20255Y-15072D01*
X20257Y-15096D01*
X20265Y-15107D01*
X20275Y-15108D01*
X20283Y-15109D01*
X20289Y-15115D01*
X20293Y-15129D01*
X20294Y-15154D01*
X20295Y-15194D01*
X20295Y-15221D01*
X20295Y-15270D01*
X20293Y-15302D01*
X20291Y-15321D01*
X20287Y-15331D01*
X20280Y-15334D01*
X20275Y-15335D01*
X20262Y-15338D01*
X20257Y-15352D01*
X20255Y-15373D01*
X20259Y-15404D01*
X20274Y-15426D01*
X20286Y-15437D01*
X20316Y-15463D01*
X20514Y-15463D01*
X20514Y-14945D01*
X20520Y-14911D01*
X20539Y-14883D01*
X20551Y-14873D01*
X20567Y-14863D01*
X20575Y-14851D01*
X20579Y-14832D01*
X20580Y-14798D01*
X20580Y-14793D01*
X20580Y-14730D01*
X20646Y-14663D01*
X20712Y-14597D01*
X20851Y-14597D01*
X20990Y-14597D01*
X21018Y-14626D01*
X21039Y-14644D01*
X21056Y-14655D01*
X21059Y-14656D01*
X21067Y-14661D01*
X21071Y-14682D01*
X21072Y-14719D01*
X21072Y-14724D01*
X21072Y-14760D01*
X21070Y-14781D01*
X21064Y-14791D01*
X21054Y-14793D01*
X21048Y-14793D01*
X21033Y-14791D01*
X21025Y-14783D01*
X21023Y-14762D01*
X21023Y-14747D01*
X21020Y-14714D01*
X21010Y-14690D01*
X20992Y-14668D01*
X20960Y-14636D01*
X20847Y-14636D01*
X20733Y-14636D01*
X20681Y-14687D01*
X20655Y-14714D01*
X20639Y-14734D01*
X20632Y-14752D01*
X20629Y-14776D01*
X20629Y-14796D01*
X20631Y-14829D01*
X20636Y-14851D01*
X20648Y-14868D01*
X20661Y-14881D01*
X20682Y-14904D01*
X20691Y-14928D01*
X20691Y-14945D01*
X20681Y-14986D01*
X20656Y-15017D01*
X20634Y-15030D01*
X20616Y-15037D01*
X20602Y-15037D01*
X20582Y-15032D01*
X20572Y-15029D01*
X20541Y-15009D01*
X20521Y-14979D01*
X20514Y-14945D01*
X20514Y-15463D01*
X20601Y-15463D01*
X20691Y-15463D01*
X20748Y-15463D01*
X20748Y-15344D01*
X20748Y-15010D01*
X20748Y-14675D01*
X20846Y-14675D01*
X20895Y-14676D01*
X20926Y-14678D01*
X20942Y-14683D01*
X20945Y-14687D01*
X20945Y-14703D01*
X20945Y-14732D01*
X20945Y-14768D01*
X20945Y-14771D01*
X20943Y-14842D01*
X21146Y-14842D01*
X21348Y-14842D01*
X21348Y-14759D01*
X21348Y-14675D01*
X21446Y-14675D01*
X21492Y-14676D01*
X21525Y-14679D01*
X21543Y-14683D01*
X21545Y-14685D01*
X21545Y-14697D01*
X21545Y-14726D01*
X21545Y-14770D01*
X21545Y-14827D01*
X21545Y-14893D01*
X21545Y-14967D01*
X21545Y-15010D01*
X21545Y-15087D01*
X21545Y-15158D01*
X21545Y-15220D01*
X21545Y-15271D01*
X21545Y-15309D01*
X21545Y-15330D01*
X21545Y-15335D01*
X21535Y-15339D01*
X21509Y-15342D01*
X21469Y-15344D01*
X21446Y-15344D01*
X21348Y-15344D01*
X21348Y-15261D01*
X21348Y-15177D01*
X21146Y-15177D01*
X20944Y-15177D01*
X20944Y-15261D01*
X20944Y-15344D01*
X20846Y-15344D01*
X20748Y-15344D01*
X20748Y-15463D01*
X20766Y-15464D01*
X20823Y-15466D01*
X20862Y-15468D01*
X20882Y-15471D01*
X20885Y-15472D01*
X20894Y-15479D01*
X20916Y-15482D01*
X20923Y-15482D01*
X20952Y-15478D01*
X20977Y-15463D01*
X20992Y-15450D01*
X21006Y-15434D01*
X21015Y-15420D01*
X21020Y-15402D01*
X21022Y-15376D01*
X21023Y-15337D01*
X21023Y-15322D01*
X21023Y-15278D01*
X21024Y-15250D01*
X21028Y-15235D01*
X21033Y-15228D01*
X21043Y-15226D01*
X21048Y-15226D01*
X21072Y-15226D01*
X21072Y-15329D01*
X21072Y-15375D01*
X21071Y-15406D01*
X21067Y-15427D01*
X21061Y-15440D01*
X21051Y-15452D01*
X21046Y-15457D01*
X21018Y-15482D01*
X21070Y-15482D01*
X21121Y-15482D01*
X21121Y-15354D01*
X21121Y-15226D01*
X21146Y-15226D01*
X21171Y-15226D01*
X21171Y-15344D01*
X21171Y-15463D01*
X21286Y-15460D01*
X21332Y-15460D01*
X21358Y-15459D01*
X21366Y-15458D01*
X21356Y-15457D01*
X21330Y-15455D01*
X21324Y-15455D01*
X21285Y-15452D01*
X21254Y-15448D01*
X21235Y-15442D01*
X21233Y-15441D01*
X21226Y-15428D01*
X21222Y-15399D01*
X21220Y-15353D01*
X21220Y-15328D01*
X21220Y-15225D01*
X21247Y-15228D01*
X21274Y-15231D01*
X21273Y-15317D01*
X21271Y-15404D01*
X21406Y-15404D01*
X21540Y-15404D01*
X21602Y-15342D01*
X21663Y-15280D01*
X21663Y-15208D01*
X21662Y-15171D01*
X21659Y-15146D01*
X21652Y-15129D01*
X21638Y-15113D01*
X21628Y-15104D01*
X21601Y-15069D01*
X21594Y-15035D01*
X21605Y-15000D01*
X21623Y-14979D01*
X21658Y-14956D01*
X21695Y-14950D01*
X21729Y-14960D01*
X21757Y-14987D01*
X21767Y-15006D01*
X21776Y-15032D01*
X21774Y-15054D01*
X21767Y-15073D01*
X21752Y-15098D01*
X21734Y-15116D01*
X21733Y-15118D01*
X21722Y-15125D01*
X21716Y-15137D01*
X21713Y-15159D01*
X21712Y-15194D01*
X21712Y-15209D01*
X21712Y-15290D01*
X21631Y-15371D01*
X21550Y-15453D01*
X21592Y-15453D01*
X21617Y-15451D01*
X21632Y-15447D01*
X21633Y-15444D01*
X21643Y-15440D01*
X21667Y-15435D01*
X21703Y-15431D01*
X21724Y-15429D01*
X21765Y-15426D01*
X21796Y-15421D01*
X21815Y-15416D01*
X21819Y-15413D01*
X21830Y-15405D01*
X21839Y-15404D01*
X21853Y-15397D01*
X21876Y-15379D01*
X21904Y-15354D01*
X21914Y-15344D01*
X21972Y-15285D01*
X22053Y-15285D01*
X22113Y-15283D01*
X22155Y-15276D01*
X22179Y-15265D01*
X22184Y-15254D01*
X22190Y-15239D01*
X22205Y-15216D01*
X22215Y-15204D01*
X22241Y-15178D01*
X22272Y-15161D01*
X22303Y-15151D01*
X22347Y-15135D01*
X22373Y-15116D01*
X22378Y-15110D01*
X22388Y-15091D01*
X22385Y-15079D01*
X22372Y-15067D01*
X22361Y-15060D01*
X22346Y-15055D01*
X22324Y-15052D01*
X22292Y-15050D01*
X22246Y-15049D01*
X22198Y-15049D01*
X22133Y-15050D01*
X22085Y-15052D01*
X22057Y-15055D01*
X22047Y-15060D01*
X22040Y-15073D01*
X22025Y-15092D01*
X22023Y-15094D01*
X21996Y-15112D01*
X21961Y-15118D01*
X21958Y-15118D01*
X21918Y-15110D01*
X21889Y-15089D01*
X21872Y-15059D01*
X21870Y-15024D01*
X21884Y-14988D01*
X21898Y-14970D01*
X21933Y-14946D01*
X21967Y-14941D01*
X22001Y-14956D01*
X22023Y-14975D01*
X22055Y-15010D01*
X22174Y-15010D01*
X22174Y-14951D01*
X22177Y-14796D01*
X22180Y-14641D01*
X22321Y-14638D01*
X22388Y-14638D01*
X22436Y-14639D01*
X22466Y-14643D01*
X22476Y-14646D01*
X22482Y-14656D01*
X22486Y-14676D01*
X22488Y-14708D01*
X22489Y-14755D01*
X22490Y-14798D01*
X22489Y-14848D01*
X22488Y-14892D01*
X22486Y-14924D01*
X22484Y-14942D01*
X22483Y-14944D01*
X22471Y-14946D01*
X22444Y-14948D01*
X22404Y-14950D01*
X22354Y-14951D01*
X22325Y-14951D01*
X22174Y-14951D01*
X22174Y-15010D01*
X22215Y-15010D01*
X22375Y-15010D01*
X22404Y-15037D01*
X22422Y-15053D01*
X22432Y-15057D01*
X22440Y-15049D01*
X22442Y-15046D01*
X22458Y-15023D01*
X22469Y-15010D01*
X22492Y-14980D01*
X22515Y-14940D01*
X22530Y-14909D01*
X22540Y-14890D01*
X22549Y-14882D01*
X22558Y-14873D01*
X22571Y-14852D01*
X22585Y-14822D01*
X22598Y-14790D01*
X22603Y-14774D01*
X22613Y-14752D01*
X22621Y-14742D01*
X22624Y-14731D01*
X22626Y-14702D01*
X22628Y-14659D01*
X22630Y-14602D01*
X22631Y-14536D01*
X22632Y-14461D01*
X22633Y-14381D01*
X22633Y-14297D01*
X22633Y-14212D01*
X22633Y-14128D01*
X22632Y-14048D01*
X22631Y-13973D01*
X22630Y-13907D01*
X22629Y-13852D01*
X22626Y-13809D01*
X22624Y-13782D01*
X22622Y-13772D01*
X22612Y-13759D01*
X22598Y-13735D01*
X22590Y-13720D01*
X22569Y-13676D01*
X22569Y-14035D01*
X22569Y-14394D01*
X22467Y-14495D01*
X22365Y-14597D01*
X21817Y-14597D01*
X21270Y-14597D01*
X21272Y-14692D01*
X21274Y-14788D01*
X21247Y-14791D01*
X21220Y-14795D01*
X21220Y-14692D01*
X21220Y-14646D01*
X21222Y-14615D01*
X21225Y-14594D01*
X21232Y-14581D01*
X21242Y-14569D01*
X21243Y-14568D01*
X21266Y-14547D01*
X21806Y-14547D01*
X22347Y-14547D01*
X22438Y-14456D01*
X22529Y-14365D01*
X22529Y-13989D01*
X22529Y-13898D01*
X22528Y-13815D01*
X22527Y-13742D01*
X22525Y-13681D01*
X22524Y-13633D01*
X22522Y-13602D01*
X22520Y-13588D01*
X22505Y-13562D01*
X22492Y-13546D01*
X22475Y-13526D01*
X22455Y-13500D01*
X22451Y-13494D01*
X22424Y-13458D01*
X22401Y-13436D01*
X22378Y-13425D01*
X22349Y-13423D01*
X22337Y-13423D01*
X22300Y-13423D01*
X22272Y-13414D01*
X22254Y-13404D01*
X22212Y-13366D01*
X22186Y-13324D01*
X22178Y-13292D01*
X22168Y-13257D01*
X22152Y-13240D01*
X22143Y-13238D01*
X22139Y-13247D01*
X22136Y-13271D01*
X22135Y-13303D01*
X22135Y-13368D01*
X22220Y-13455D01*
X22255Y-13489D01*
X22286Y-13517D01*
X22311Y-13537D01*
X22326Y-13545D01*
X22326Y-13545D01*
X22341Y-13552D01*
X22348Y-13570D01*
X22350Y-13585D01*
X22353Y-13621D01*
X22419Y-13624D01*
X22485Y-13627D01*
X22485Y-13779D01*
X22485Y-13932D01*
X22332Y-13932D01*
X22180Y-13932D01*
X22180Y-13779D01*
X22180Y-13627D01*
X22248Y-13622D01*
X22317Y-13617D01*
X22207Y-13503D01*
X22096Y-13390D01*
X22096Y-13299D01*
X22096Y-13257D01*
X22094Y-13230D01*
X22091Y-13216D01*
X22085Y-13210D01*
X22076Y-13209D01*
X22060Y-13205D01*
X22057Y-13200D01*
X22048Y-13192D01*
X22027Y-13184D01*
X22025Y-13184D01*
X22001Y-13176D01*
X21987Y-13169D01*
X21987Y-13168D01*
X21975Y-13162D01*
X21949Y-13156D01*
X21914Y-13148D01*
X21906Y-13147D01*
X21870Y-13141D01*
X21844Y-13134D01*
X21831Y-13129D01*
X21830Y-13128D01*
X21822Y-13122D01*
X21800Y-13120D01*
X21796Y-13120D01*
X21772Y-13122D01*
X21763Y-13130D01*
X21761Y-13150D01*
X21761Y-13179D01*
X21648Y-13179D01*
X21535Y-13179D01*
X21535Y-13150D01*
X21534Y-13133D01*
X21528Y-13124D01*
X21512Y-13120D01*
X21482Y-13120D01*
X21481Y-13120D01*
X21451Y-13122D01*
X21431Y-13126D01*
X21427Y-13130D01*
X21418Y-13135D01*
X21394Y-13139D01*
X21365Y-13140D01*
X21321Y-13141D01*
X21276Y-13144D01*
X21252Y-13146D01*
X21222Y-13151D01*
X21206Y-13156D01*
X21201Y-13167D01*
X21200Y-13180D01*
X21200Y-13209D01*
X21003Y-13209D01*
X20931Y-13208D01*
X20874Y-13207D01*
X20834Y-13204D01*
X20811Y-13201D01*
X20807Y-13199D01*
X20798Y-13191D01*
X20782Y-13189D01*
X20762Y-13194D01*
X20758Y-13209D01*
X20770Y-13233D01*
X20795Y-13261D01*
X20832Y-13297D01*
X21004Y-13297D01*
X21176Y-13297D01*
X21250Y-13371D01*
X21286Y-13407D01*
X21314Y-13430D01*
X21334Y-13441D01*
X21350Y-13445D01*
X21372Y-13440D01*
X21377Y-13430D01*
X21381Y-13422D01*
X21395Y-13418D01*
X21423Y-13416D01*
X21450Y-13415D01*
X21487Y-13417D01*
X21514Y-13420D01*
X21527Y-13425D01*
X21527Y-13425D01*
X21528Y-13441D01*
X21527Y-13467D01*
X21527Y-13479D01*
X21523Y-13523D01*
X21450Y-13523D01*
X21412Y-13523D01*
X21389Y-13520D01*
X21379Y-13514D01*
X21377Y-13509D01*
X21369Y-13497D01*
X21358Y-13494D01*
X21351Y-13495D01*
X21347Y-13498D01*
X21343Y-13508D01*
X21341Y-13525D01*
X21339Y-13552D01*
X21338Y-13592D01*
X21338Y-13647D01*
X21338Y-13713D01*
X21338Y-13933D01*
X21373Y-13967D01*
X21373Y-13804D01*
X21449Y-13801D01*
X21488Y-13800D01*
X21511Y-13802D01*
X21522Y-13806D01*
X21525Y-13813D01*
X21534Y-13824D01*
X21555Y-13829D01*
X21584Y-13830D01*
X21613Y-13826D01*
X21638Y-13817D01*
X21648Y-13809D01*
X21675Y-13793D01*
X21699Y-13789D01*
X21722Y-13787D01*
X21731Y-13777D01*
X21732Y-13769D01*
X21732Y-13573D01*
X21732Y-13508D01*
X21732Y-13444D01*
X21847Y-13447D01*
X21963Y-13450D01*
X21963Y-13509D01*
X21963Y-13568D01*
X21916Y-13571D01*
X21887Y-13574D01*
X21873Y-13580D01*
X21870Y-13592D01*
X21870Y-13593D01*
X21873Y-13605D01*
X21886Y-13611D01*
X21912Y-13612D01*
X21936Y-13614D01*
X21956Y-13621D01*
X21977Y-13637D01*
X22001Y-13660D01*
X22049Y-13708D01*
X22047Y-13839D01*
X22046Y-13970D01*
X22141Y-14066D01*
X22236Y-14161D01*
X22272Y-14147D01*
X22323Y-14135D01*
X22372Y-14140D01*
X22416Y-14161D01*
X22451Y-14195D01*
X22474Y-14239D01*
X22482Y-14286D01*
X22474Y-14337D01*
X22451Y-14380D01*
X22416Y-14412D01*
X22372Y-14433D01*
X22324Y-14439D01*
X22274Y-14430D01*
X22254Y-14421D01*
X22223Y-14396D01*
X22197Y-14359D01*
X22179Y-14318D01*
X22175Y-14289D01*
X22179Y-14260D01*
X22188Y-14229D01*
X22189Y-14228D01*
X22202Y-14195D01*
X22105Y-14098D01*
X22007Y-14001D01*
X22007Y-13867D01*
X22007Y-13733D01*
X21968Y-13694D01*
X21940Y-13671D01*
X21914Y-13658D01*
X21881Y-13652D01*
X21877Y-13652D01*
X21847Y-13648D01*
X21831Y-13642D01*
X21825Y-13631D01*
X21822Y-13610D01*
X21819Y-13587D01*
X21812Y-13576D01*
X21794Y-13573D01*
X21775Y-13573D01*
X21732Y-13573D01*
X21732Y-13769D01*
X21733Y-13761D01*
X21738Y-13755D01*
X21751Y-13752D01*
X21775Y-13751D01*
X21812Y-13751D01*
X21847Y-13752D01*
X21963Y-13755D01*
X21963Y-13814D01*
X21963Y-13873D01*
X21847Y-13876D01*
X21798Y-13877D01*
X21765Y-13877D01*
X21746Y-13875D01*
X21736Y-13871D01*
X21732Y-13865D01*
X21732Y-13859D01*
X21724Y-13844D01*
X21705Y-13838D01*
X21682Y-13842D01*
X21661Y-13856D01*
X21658Y-13858D01*
X21642Y-13870D01*
X21619Y-13876D01*
X21583Y-13878D01*
X21549Y-13879D01*
X21531Y-13883D01*
X21525Y-13891D01*
X21525Y-13893D01*
X21521Y-13901D01*
X21507Y-13905D01*
X21480Y-13907D01*
X21451Y-13907D01*
X21416Y-13906D01*
X21390Y-13904D01*
X21377Y-13901D01*
X21377Y-13900D01*
X21376Y-13886D01*
X21375Y-13861D01*
X21374Y-13848D01*
X21373Y-13804D01*
X21373Y-13967D01*
X21380Y-13974D01*
X21403Y-13996D01*
X21421Y-14008D01*
X21442Y-14014D01*
X21471Y-14016D01*
X21492Y-14016D01*
X21562Y-14016D01*
X21608Y-14065D01*
X21634Y-14095D01*
X21648Y-14116D01*
X21652Y-14136D01*
X21652Y-14147D01*
X21652Y-14169D01*
X21656Y-14180D01*
X21656Y-14180D01*
X21672Y-14182D01*
X21680Y-14170D01*
X21682Y-14142D01*
X21682Y-14138D01*
X21682Y-14093D01*
X21749Y-14096D01*
X21815Y-14099D01*
X21818Y-14193D01*
X21820Y-14247D01*
X21819Y-14286D01*
X21815Y-14310D01*
X21805Y-14323D01*
X21789Y-14329D01*
X21765Y-14329D01*
X21749Y-14329D01*
X21687Y-14326D01*
X21685Y-14279D01*
X21682Y-14251D01*
X21676Y-14237D01*
X21662Y-14232D01*
X21645Y-14230D01*
X21624Y-14228D01*
X21612Y-14221D01*
X21608Y-14204D01*
X21606Y-14178D01*
X21601Y-14144D01*
X21589Y-14118D01*
X21567Y-14092D01*
X21547Y-14072D01*
X21530Y-14061D01*
X21509Y-14056D01*
X21478Y-14055D01*
X21462Y-14055D01*
X21393Y-14055D01*
X21341Y-13999D01*
X21289Y-13942D01*
X21289Y-13710D01*
X21289Y-13479D01*
X21217Y-13408D01*
X21146Y-13337D01*
X20978Y-13337D01*
X20811Y-13337D01*
X20764Y-13289D01*
X20734Y-13255D01*
X20720Y-13228D01*
X20718Y-13216D01*
X20715Y-13196D01*
X20701Y-13189D01*
X20694Y-13189D01*
X20675Y-13192D01*
X20667Y-13198D01*
X20657Y-13203D01*
X20631Y-13208D01*
X20593Y-13212D01*
X20558Y-13215D01*
X20515Y-13218D01*
X20481Y-13222D01*
X20459Y-13226D01*
X20452Y-13230D01*
X20444Y-13236D01*
X20433Y-13238D01*
X20418Y-13243D01*
X20413Y-13260D01*
X20413Y-13268D01*
X20413Y-13297D01*
X20553Y-13297D01*
X20694Y-13297D01*
X20760Y-13364D01*
X20826Y-13430D01*
X20826Y-13536D01*
X20826Y-13583D01*
X20828Y-13613D01*
X20830Y-13631D01*
X20835Y-13639D01*
X20843Y-13642D01*
X20846Y-13642D01*
X20862Y-13635D01*
X20866Y-13627D01*
X20866Y-13523D01*
X20866Y-13469D01*
X20866Y-13415D01*
X20939Y-13415D01*
X20981Y-13417D01*
X21007Y-13421D01*
X21020Y-13429D01*
X21020Y-13429D01*
X21035Y-13440D01*
X21059Y-13446D01*
X21062Y-13446D01*
X21097Y-13450D01*
X21100Y-13681D01*
X21100Y-13754D01*
X21102Y-13810D01*
X21103Y-13852D01*
X21105Y-13882D01*
X21108Y-13903D01*
X21112Y-13916D01*
X21117Y-13926D01*
X21123Y-13933D01*
X21141Y-13948D01*
X21161Y-13948D01*
X21167Y-13946D01*
X21197Y-13944D01*
X21230Y-13953D01*
X21258Y-13972D01*
X21268Y-13985D01*
X21279Y-14024D01*
X21272Y-14064D01*
X21250Y-14095D01*
X21216Y-14119D01*
X21181Y-14123D01*
X21146Y-14108D01*
X21129Y-14094D01*
X21110Y-14072D01*
X21103Y-14052D01*
X21104Y-14023D01*
X21104Y-14021D01*
X21106Y-13991D01*
X21100Y-13972D01*
X21083Y-13954D01*
X21081Y-13952D01*
X21052Y-13926D01*
X21055Y-13710D01*
X21056Y-13639D01*
X21056Y-13585D01*
X21055Y-13547D01*
X21054Y-13521D01*
X21051Y-13505D01*
X21048Y-13497D01*
X21043Y-13494D01*
X21041Y-13494D01*
X21024Y-13502D01*
X21020Y-13509D01*
X21012Y-13517D01*
X20992Y-13521D01*
X20959Y-13523D01*
X20940Y-13523D01*
X20866Y-13523D01*
X20866Y-13627D01*
X20869Y-13619D01*
X20883Y-13615D01*
X20909Y-13613D01*
X20944Y-13612D01*
X21023Y-13612D01*
X21023Y-13661D01*
X21023Y-13711D01*
X20944Y-13711D01*
X20904Y-13710D01*
X20880Y-13707D01*
X20868Y-13702D01*
X20866Y-13696D01*
X20859Y-13686D01*
X20838Y-13681D01*
X20826Y-13681D01*
X20787Y-13681D01*
X20787Y-13570D01*
X20787Y-13460D01*
X20728Y-13401D01*
X20669Y-13342D01*
X20541Y-13345D01*
X20413Y-13347D01*
X20413Y-13399D01*
X20412Y-13423D01*
X20409Y-13442D01*
X20400Y-13459D01*
X20382Y-13480D01*
X20354Y-13508D01*
X20346Y-13516D01*
X20312Y-13549D01*
X20287Y-13569D01*
X20268Y-13580D01*
X20250Y-13583D01*
X20248Y-13583D01*
X20229Y-13584D01*
X20220Y-13591D01*
X20216Y-13609D01*
X20214Y-13629D01*
X20211Y-13676D01*
X20150Y-13679D01*
X20121Y-13680D01*
X20101Y-13677D01*
X20088Y-13668D01*
X20081Y-13650D01*
X20079Y-13619D01*
X20079Y-13573D01*
X20080Y-13543D01*
X20083Y-13450D01*
X20150Y-13447D01*
X20216Y-13444D01*
X20216Y-13489D01*
X20217Y-13516D01*
X20222Y-13529D01*
X20234Y-13533D01*
X20244Y-13534D01*
X20265Y-13528D01*
X20290Y-13511D01*
X20322Y-13482D01*
X20373Y-13430D01*
X20372Y-13338D01*
X20371Y-13246D01*
X20291Y-13253D01*
X20253Y-13257D01*
X20224Y-13262D01*
X20208Y-13266D01*
X20206Y-13267D01*
X20195Y-13271D01*
X20168Y-13275D01*
X20129Y-13279D01*
X20082Y-13282D01*
X20074Y-13283D01*
X20014Y-13287D01*
X19972Y-13292D01*
X19944Y-13299D01*
X19929Y-13308D01*
X19922Y-13321D01*
X19921Y-13329D01*
X19914Y-13344D01*
X19897Y-13365D01*
X19891Y-13371D01*
X19870Y-13397D01*
X19861Y-13421D01*
X19867Y-13438D01*
X19886Y-13445D01*
X19887Y-13445D01*
X19912Y-13445D01*
X19909Y-13560D01*
X19906Y-13676D01*
X19845Y-13679D01*
X19811Y-13680D01*
X19792Y-13678D01*
X19783Y-13672D01*
X19778Y-13659D01*
X19777Y-13657D01*
X19774Y-13627D01*
X19776Y-13607D01*
X19777Y-13591D01*
X19769Y-13584D01*
X19747Y-13583D01*
X19743Y-13583D01*
X19717Y-13580D01*
X19701Y-13574D01*
X19699Y-13573D01*
X19688Y-13571D01*
X19658Y-13569D01*
X19608Y-13567D01*
X19540Y-13566D01*
X19453Y-13565D01*
X19347Y-13564D01*
X19224Y-13563D01*
X19084Y-13563D01*
X18979Y-13563D01*
X18264Y-13563D01*
X18140Y-13686D01*
X18092Y-13733D01*
X18055Y-13766D01*
X18028Y-13790D01*
X18008Y-13803D01*
X17994Y-13808D01*
X17989Y-13809D01*
X17968Y-13812D01*
X17964Y-13819D01*
X17974Y-13828D01*
X17996Y-13836D01*
X18011Y-13839D01*
X18056Y-13844D01*
X18056Y-13907D01*
X18056Y-13971D01*
X17942Y-13971D01*
X17894Y-13971D01*
X17862Y-13970D01*
X17842Y-13968D01*
X17832Y-13963D01*
X17827Y-13956D01*
X17826Y-13949D01*
X17823Y-13936D01*
X17814Y-13930D01*
X17794Y-13928D01*
X17767Y-13929D01*
X17731Y-13933D01*
X17712Y-13940D01*
X17710Y-13944D01*
X17708Y-13964D01*
X17707Y-13966D01*
X17697Y-13971D01*
X17671Y-13974D01*
X17629Y-13976D01*
X17593Y-13976D01*
X17544Y-13976D01*
X17512Y-13975D01*
X17493Y-13973D01*
X17484Y-13969D01*
X17480Y-13962D01*
X17480Y-13954D01*
X17480Y-13932D01*
X17195Y-13935D01*
X16909Y-13939D01*
X16877Y-13967D01*
X16856Y-13986D01*
X16826Y-14014D01*
X16790Y-14047D01*
X16766Y-14070D01*
X16686Y-14144D01*
X16450Y-14144D01*
X16376Y-14144D01*
X16319Y-14143D01*
X16276Y-14143D01*
X16246Y-14141D01*
X16225Y-14139D01*
X16212Y-14135D01*
X16202Y-14130D01*
X16195Y-14124D01*
X16192Y-14121D01*
X16186Y-14114D01*
X16181Y-14105D01*
X16178Y-14094D01*
X16175Y-14077D01*
X16173Y-14051D01*
X16172Y-14016D01*
X16171Y-13968D01*
X16171Y-13906D01*
X16171Y-13826D01*
X16171Y-13808D01*
X16171Y-13518D01*
X16238Y-13452D01*
X16304Y-13386D01*
X16666Y-13386D01*
X17027Y-13386D01*
X17027Y-13410D01*
X17027Y-13435D01*
X16675Y-13435D01*
X16323Y-13435D01*
X16266Y-13492D01*
X16210Y-13549D01*
X16210Y-13810D01*
X16210Y-13896D01*
X16211Y-13964D01*
X16213Y-14015D01*
X16215Y-14051D01*
X16218Y-14073D01*
X16222Y-14082D01*
X16233Y-14087D01*
X16251Y-14089D01*
X16251Y-13744D01*
X16251Y-13683D01*
X16252Y-13632D01*
X16253Y-13593D01*
X16255Y-13570D01*
X16257Y-13563D01*
X16269Y-13563D01*
X16297Y-13562D01*
X16338Y-13562D01*
X16390Y-13562D01*
X16449Y-13562D01*
X16451Y-13562D01*
X16638Y-13561D01*
X16641Y-13675D01*
X16644Y-13789D01*
X16670Y-13789D01*
X16683Y-13786D01*
X16702Y-13774D01*
X16728Y-13754D01*
X16763Y-13722D01*
X16809Y-13677D01*
X16816Y-13671D01*
X16936Y-13552D01*
X17257Y-13553D01*
X17338Y-13553D01*
X17410Y-13552D01*
X17472Y-13551D01*
X17522Y-13550D01*
X17557Y-13548D01*
X17576Y-13546D01*
X17578Y-13545D01*
X17584Y-13533D01*
X17599Y-13513D01*
X17602Y-13510D01*
X17634Y-13489D01*
X17672Y-13483D01*
X17709Y-13492D01*
X17731Y-13508D01*
X17752Y-13542D01*
X17756Y-13579D01*
X17743Y-13615D01*
X17725Y-13636D01*
X17689Y-13658D01*
X17654Y-13660D01*
X17619Y-13642D01*
X17602Y-13627D01*
X17570Y-13593D01*
X17261Y-13593D01*
X16953Y-13593D01*
X16835Y-13710D01*
X16791Y-13754D01*
X16758Y-13786D01*
X16732Y-13808D01*
X16713Y-13821D01*
X16697Y-13828D01*
X16683Y-13831D01*
X16648Y-13834D01*
X16645Y-13950D01*
X16643Y-14065D01*
X16448Y-14063D01*
X16254Y-14060D01*
X16252Y-13811D01*
X16251Y-13744D01*
X16251Y-14089D01*
X16257Y-14090D01*
X16297Y-14092D01*
X16352Y-14094D01*
X16426Y-14094D01*
X16456Y-14095D01*
X16678Y-14095D01*
X16726Y-14046D01*
X16773Y-13998D01*
X16753Y-13978D01*
X16731Y-13944D01*
X16725Y-13906D01*
X16735Y-13870D01*
X16760Y-13841D01*
X16773Y-13832D01*
X16812Y-13823D01*
X16849Y-13831D01*
X16883Y-13858D01*
X16883Y-13859D01*
X16908Y-13888D01*
X17193Y-13888D01*
X17479Y-13888D01*
X17482Y-13866D01*
X17484Y-13856D01*
X17490Y-13849D01*
X17503Y-13845D01*
X17528Y-13843D01*
X17566Y-13841D01*
X17596Y-13841D01*
X17649Y-13840D01*
X17686Y-13842D01*
X17705Y-13846D01*
X17707Y-13848D01*
X17710Y-13867D01*
X17710Y-13870D01*
X17720Y-13879D01*
X17748Y-13884D01*
X17767Y-13886D01*
X17799Y-13887D01*
X17816Y-13884D01*
X17823Y-13877D01*
X17826Y-13866D01*
X17831Y-13852D01*
X17844Y-13844D01*
X17870Y-13841D01*
X17875Y-13840D01*
X17904Y-13838D01*
X17917Y-13832D01*
X17923Y-13818D01*
X17925Y-13801D01*
X17928Y-13778D01*
X17937Y-13766D01*
X17958Y-13762D01*
X17967Y-13762D01*
X17983Y-13759D01*
X17998Y-13754D01*
X18015Y-13743D01*
X18038Y-13725D01*
X18067Y-13697D01*
X18107Y-13658D01*
X18125Y-13641D01*
X18244Y-13523D01*
X19011Y-13526D01*
X19778Y-13529D01*
X19778Y-13489D01*
X19780Y-13463D01*
X19787Y-13451D01*
X19800Y-13447D01*
X19815Y-13441D01*
X19821Y-13426D01*
X19822Y-13407D01*
X19828Y-13371D01*
X19847Y-13346D01*
X19864Y-13328D01*
X19872Y-13316D01*
X19872Y-13315D01*
X19863Y-13312D01*
X19838Y-13311D01*
X19804Y-13311D01*
X19764Y-13313D01*
X19723Y-13315D01*
X19685Y-13319D01*
X19656Y-13322D01*
X19639Y-13327D01*
X19637Y-13328D01*
X19626Y-13333D01*
X19602Y-13336D01*
X19578Y-13337D01*
X19522Y-13337D01*
X19448Y-13410D01*
X19375Y-13484D01*
X18803Y-13484D01*
X18682Y-13484D01*
X18580Y-13484D01*
X18494Y-13485D01*
X18424Y-13485D01*
X18367Y-13485D01*
X18322Y-13486D01*
X18287Y-13487D01*
X18261Y-13489D01*
X18243Y-13491D01*
X18230Y-13493D01*
X18222Y-13497D01*
X18217Y-13500D01*
X18213Y-13504D01*
X18200Y-13514D01*
X18182Y-13520D01*
X18153Y-13523D01*
X18121Y-13523D01*
X18048Y-13523D01*
X17923Y-13647D01*
X17799Y-13770D01*
X17472Y-13770D01*
X17145Y-13770D01*
X17118Y-13800D01*
X17085Y-13824D01*
X17049Y-13831D01*
X17014Y-13823D01*
X16984Y-13801D01*
X16965Y-13767D01*
X16963Y-13759D01*
X16964Y-13722D01*
X16981Y-13689D01*
X17009Y-13664D01*
X17045Y-13652D01*
X17053Y-13652D01*
X17081Y-13657D01*
X17108Y-13671D01*
X17128Y-13690D01*
X17135Y-13706D01*
X17138Y-13710D01*
X17146Y-13713D01*
X17163Y-13716D01*
X17190Y-13717D01*
X17228Y-13719D01*
X17280Y-13720D01*
X17348Y-13720D01*
X17432Y-13720D01*
X17463Y-13720D01*
X17790Y-13720D01*
X17908Y-13602D01*
X18026Y-13484D01*
X18093Y-13484D01*
X18132Y-13483D01*
X18158Y-13479D01*
X18178Y-13469D01*
X18190Y-13460D01*
X18219Y-13435D01*
X18793Y-13435D01*
X19365Y-13435D01*
X19409Y-13390D01*
X19453Y-13345D01*
X19247Y-13353D01*
X19178Y-13355D01*
X19126Y-13357D01*
X19088Y-13359D01*
X19061Y-13362D01*
X19043Y-13366D01*
X19031Y-13371D01*
X19021Y-13378D01*
X19016Y-13382D01*
X18991Y-13405D01*
X18591Y-13405D01*
X18490Y-13405D01*
X18407Y-13406D01*
X18340Y-13406D01*
X18288Y-13407D01*
X18248Y-13409D01*
X18219Y-13410D01*
X18199Y-13412D01*
X18187Y-13415D01*
X18180Y-13419D01*
X18179Y-13420D01*
X18173Y-13424D01*
X18162Y-13427D01*
X18144Y-13430D01*
X18117Y-13432D01*
X18079Y-13433D01*
X18029Y-13434D01*
X17964Y-13435D01*
X17882Y-13435D01*
X17813Y-13435D01*
X17460Y-13435D01*
X17460Y-13410D01*
X17460Y-13386D01*
X17812Y-13384D01*
X17890Y-13383D01*
X17959Y-13383D01*
X18018Y-13382D01*
X18064Y-13381D01*
X18095Y-13380D01*
X18110Y-13379D01*
X18108Y-13379D01*
X18107Y-13379D01*
X18077Y-13375D01*
X18056Y-13371D01*
X18051Y-13367D01*
X18041Y-13365D01*
X18015Y-13362D01*
X17974Y-13359D01*
X17921Y-13357D01*
X17860Y-13354D01*
X17803Y-13353D01*
X17731Y-13350D01*
X17660Y-13348D01*
X17596Y-13346D01*
X17542Y-13343D01*
X17501Y-13341D01*
X17484Y-13340D01*
X17412Y-13334D01*
X17409Y-13416D01*
X17406Y-13499D01*
X17244Y-13499D01*
X17081Y-13499D01*
X17078Y-13393D01*
X17077Y-13347D01*
X17075Y-13316D01*
X17072Y-13298D01*
X17067Y-13290D01*
X17059Y-13288D01*
X17051Y-13287D01*
X17033Y-13291D01*
X17027Y-13307D01*
X17027Y-13312D01*
X17027Y-13337D01*
X16921Y-13335D01*
X16815Y-13332D01*
X16812Y-13285D01*
X16810Y-13238D01*
X16727Y-13238D01*
X16644Y-13238D01*
X16641Y-13275D01*
X16638Y-13312D01*
X16446Y-13312D01*
X16254Y-13312D01*
X16251Y-13253D01*
X16248Y-13218D01*
X16242Y-13194D01*
X16227Y-13172D01*
X16206Y-13150D01*
X16181Y-13121D01*
X16158Y-13095D01*
X16147Y-13081D01*
X16144Y-13076D01*
X16141Y-13076D01*
X16139Y-13081D01*
X16137Y-13092D01*
X16135Y-13112D01*
X16134Y-13142D01*
X16133Y-13182D01*
X16132Y-13236D01*
X16132Y-13303D01*
X16132Y-13386D01*
X16132Y-13486D01*
X16131Y-13583D01*
X16131Y-14110D01*
X16184Y-14161D01*
X16235Y-14213D01*
X16761Y-14213D01*
X17286Y-14212D01*
X17422Y-14347D01*
X17479Y-14403D01*
X17479Y-14281D01*
X17482Y-14215D01*
X17485Y-14149D01*
X17526Y-14146D01*
X17552Y-14142D01*
X17565Y-14135D01*
X17569Y-14118D01*
X17570Y-14106D01*
X17573Y-14070D01*
X17800Y-14067D01*
X18026Y-14064D01*
X18068Y-14023D01*
X18093Y-13996D01*
X18106Y-13973D01*
X18110Y-13950D01*
X18110Y-13947D01*
X18111Y-13933D01*
X18116Y-13919D01*
X18127Y-13902D01*
X18145Y-13879D01*
X18174Y-13849D01*
X18214Y-13808D01*
X18225Y-13797D01*
X18341Y-13681D01*
X18780Y-13681D01*
X19220Y-13681D01*
X19254Y-13647D01*
X19279Y-13626D01*
X19302Y-13614D01*
X19310Y-13612D01*
X19347Y-13621D01*
X19379Y-13643D01*
X19401Y-13675D01*
X19409Y-13707D01*
X19401Y-13737D01*
X19381Y-13766D01*
X19355Y-13787D01*
X19352Y-13788D01*
X19312Y-13795D01*
X19275Y-13783D01*
X19247Y-13759D01*
X19223Y-13730D01*
X18792Y-13730D01*
X18361Y-13730D01*
X18260Y-13831D01*
X18219Y-13872D01*
X18190Y-13904D01*
X18172Y-13926D01*
X18162Y-13944D01*
X18159Y-13958D01*
X18159Y-13961D01*
X18155Y-13980D01*
X18144Y-14001D01*
X18121Y-14029D01*
X18098Y-14052D01*
X18036Y-14114D01*
X17827Y-14114D01*
X17757Y-14114D01*
X17704Y-14115D01*
X17666Y-14116D01*
X17641Y-14118D01*
X17626Y-14121D01*
X17619Y-14125D01*
X17618Y-14129D01*
X17624Y-14139D01*
X17644Y-14143D01*
X17661Y-14144D01*
X17690Y-14146D01*
X17707Y-14155D01*
X17714Y-14176D01*
X17716Y-14212D01*
X17716Y-14213D01*
X17714Y-14249D01*
X17707Y-14270D01*
X17690Y-14279D01*
X17661Y-14281D01*
X17661Y-14281D01*
X17634Y-14283D01*
X17621Y-14288D01*
X17618Y-14300D01*
X17618Y-14305D01*
X17621Y-14326D01*
X17627Y-14335D01*
X17632Y-14348D01*
X17636Y-14374D01*
X17637Y-14408D01*
X17640Y-14458D01*
X17650Y-14491D01*
X17653Y-14496D01*
X17660Y-14510D01*
X17665Y-14532D01*
X17668Y-14566D01*
X17672Y-14614D01*
X17674Y-14677D01*
X17678Y-14784D01*
X17678Y-14416D01*
X17689Y-14385D01*
X17710Y-14359D01*
X17738Y-14343D01*
X17771Y-14338D01*
X17805Y-14347D01*
X17831Y-14366D01*
X17856Y-14391D01*
X17890Y-14359D01*
X17910Y-14335D01*
X17922Y-14312D01*
X17923Y-14304D01*
X17920Y-14291D01*
X17910Y-14284D01*
X17886Y-14280D01*
X17876Y-14279D01*
X17829Y-14276D01*
X17829Y-14213D01*
X17829Y-14149D01*
X17942Y-14149D01*
X18056Y-14149D01*
X18056Y-14213D01*
X18056Y-14276D01*
X18011Y-14279D01*
X17983Y-14282D01*
X17971Y-14287D01*
X17968Y-14299D01*
X17970Y-14312D01*
X17970Y-14327D01*
X17965Y-14343D01*
X17951Y-14363D01*
X17926Y-14390D01*
X17907Y-14410D01*
X17873Y-14445D01*
X17849Y-14469D01*
X17832Y-14485D01*
X17819Y-14497D01*
X17807Y-14508D01*
X17795Y-14517D01*
X17770Y-14536D01*
X17774Y-14684D01*
X17777Y-14833D01*
X17745Y-14833D01*
X17713Y-14833D01*
X17718Y-14673D01*
X17720Y-14613D01*
X17721Y-14570D01*
X17720Y-14540D01*
X17718Y-14519D01*
X17714Y-14506D01*
X17708Y-14494D01*
X17700Y-14485D01*
X17681Y-14450D01*
X17678Y-14416D01*
X17678Y-14784D01*
X17680Y-14834D01*
X17646Y-14831D01*
X17613Y-14828D01*
X17613Y-14674D01*
X17612Y-14620D01*
X17611Y-14574D01*
X17609Y-14538D01*
X17607Y-14516D01*
X17605Y-14512D01*
X17601Y-14499D01*
X17599Y-14472D01*
X17598Y-14439D01*
X17596Y-14396D01*
X17590Y-14370D01*
X17583Y-14360D01*
X17573Y-14342D01*
X17568Y-14316D01*
X17568Y-14315D01*
X17567Y-14294D01*
X17561Y-14285D01*
X17544Y-14282D01*
X17524Y-14281D01*
X17479Y-14281D01*
X17479Y-14403D01*
X17559Y-14482D01*
X17559Y-14532D01*
X17560Y-14563D01*
X17565Y-14586D01*
X17569Y-14593D01*
X17573Y-14607D01*
X17576Y-14638D01*
X17577Y-14684D01*
X17576Y-14715D01*
X17573Y-14828D01*
X17544Y-14828D01*
X17514Y-14828D01*
X17513Y-14666D01*
X17511Y-14505D01*
X17390Y-14383D01*
X17269Y-14262D01*
X16747Y-14262D01*
X16225Y-14261D01*
X16153Y-14191D01*
X16082Y-14121D01*
X16082Y-13550D01*
X16082Y-12980D01*
X16060Y-12944D01*
X16038Y-12908D01*
X16033Y-13110D01*
X16028Y-13312D01*
X15943Y-13315D01*
X15858Y-13318D01*
X15859Y-13438D01*
X15861Y-13558D01*
X15944Y-13559D01*
X16028Y-13559D01*
X16031Y-13812D01*
X16033Y-14065D01*
X15839Y-14063D01*
X15644Y-14060D01*
X15642Y-13811D01*
X15641Y-13732D01*
X15641Y-13670D01*
X15642Y-13624D01*
X15643Y-13593D01*
X15646Y-13573D01*
X15649Y-13564D01*
X15651Y-13562D01*
X15667Y-13562D01*
X15696Y-13562D01*
X15733Y-13563D01*
X15740Y-13563D01*
X15816Y-13564D01*
X15816Y-13441D01*
X15816Y-13318D01*
X15730Y-13315D01*
X15644Y-13312D01*
X15641Y-13196D01*
X15639Y-13081D01*
X15599Y-13081D01*
X15560Y-13081D01*
X15560Y-12970D01*
X15560Y-12858D01*
X15518Y-12817D01*
X15476Y-12776D01*
X15245Y-12776D01*
X15014Y-12776D01*
X14966Y-12823D01*
X14919Y-12872D01*
X14917Y-12974D01*
X14916Y-13076D01*
X14874Y-13079D01*
X14833Y-13082D01*
X14830Y-13197D01*
X14827Y-13312D01*
X14635Y-13312D01*
X14443Y-13312D01*
X14441Y-13196D01*
X14438Y-13081D01*
X14332Y-13081D01*
X14284Y-13081D01*
X14252Y-13082D01*
X14231Y-13086D01*
X14218Y-13091D01*
X14206Y-13101D01*
X14202Y-13105D01*
X14174Y-13125D01*
X14151Y-13130D01*
X14123Y-13130D01*
X14123Y-13324D01*
X14123Y-13519D01*
X14123Y-13519D01*
X14123Y-13519D01*
G37*
G36*
X18820Y-15287D02*
X18821Y-15294D01*
X18829Y-15295D01*
X18829Y-15295D01*
X18851Y-15288D01*
X18881Y-15265D01*
X18907Y-15241D01*
X18938Y-15212D01*
X18961Y-15195D01*
X18981Y-15188D01*
X18992Y-15187D01*
X19015Y-15184D01*
X19025Y-15173D01*
X19027Y-15165D01*
X19029Y-15155D01*
X19035Y-15149D01*
X19047Y-15145D01*
X19070Y-15143D01*
X19107Y-15143D01*
X19143Y-15143D01*
X19256Y-15143D01*
X19259Y-15210D01*
X19262Y-15276D01*
X19146Y-15273D01*
X19097Y-15272D01*
X19064Y-15270D01*
X19044Y-15267D01*
X19033Y-15263D01*
X19028Y-15256D01*
X19027Y-15248D01*
X19018Y-15230D01*
X18999Y-15228D01*
X18972Y-15242D01*
X18943Y-15265D01*
X18902Y-15305D01*
X18934Y-15305D01*
X18956Y-15308D01*
X18966Y-15316D01*
X18966Y-15317D01*
X18969Y-15324D01*
X18978Y-15317D01*
X18988Y-15313D01*
X19012Y-15310D01*
X19050Y-15308D01*
X19104Y-15306D01*
X19175Y-15305D01*
X19232Y-15305D01*
X19308Y-15305D01*
X19367Y-15304D01*
X19411Y-15303D01*
X19441Y-15302D01*
X19460Y-15299D01*
X19471Y-15296D01*
X19474Y-15292D01*
X19475Y-15290D01*
X19469Y-15281D01*
X19451Y-15276D01*
X19427Y-15276D01*
X19378Y-15276D01*
X19381Y-15209D01*
X19384Y-15143D01*
X19497Y-15143D01*
X19546Y-15143D01*
X19579Y-15144D01*
X19598Y-15146D01*
X19608Y-15150D01*
X19613Y-15158D01*
X19614Y-15165D01*
X19617Y-15176D01*
X19625Y-15183D01*
X19642Y-15186D01*
X19673Y-15187D01*
X19691Y-15187D01*
X19729Y-15186D01*
X19754Y-15184D01*
X19771Y-15177D01*
X19786Y-15163D01*
X19797Y-15153D01*
X19833Y-15126D01*
X19870Y-15117D01*
X19905Y-15125D01*
X19935Y-15151D01*
X19946Y-15168D01*
X19956Y-15207D01*
X19950Y-15242D01*
X19928Y-15271D01*
X19895Y-15290D01*
X19861Y-15295D01*
X19833Y-15292D01*
X19813Y-15280D01*
X19796Y-15261D01*
X19781Y-15243D01*
X19768Y-15233D01*
X19750Y-15228D01*
X19722Y-15226D01*
X19693Y-15226D01*
X19654Y-15227D01*
X19631Y-15229D01*
X19620Y-15233D01*
X19615Y-15242D01*
X19614Y-15248D01*
X19609Y-15262D01*
X19596Y-15270D01*
X19569Y-15273D01*
X19564Y-15274D01*
X19536Y-15276D01*
X19522Y-15282D01*
X19517Y-15296D01*
X19515Y-15313D01*
X19512Y-15349D01*
X19434Y-15355D01*
X19355Y-15360D01*
X19425Y-15362D01*
X19460Y-15364D01*
X19487Y-15368D01*
X19499Y-15373D01*
X19499Y-15373D01*
X19510Y-15378D01*
X19538Y-15384D01*
X19579Y-15389D01*
X19630Y-15393D01*
X19688Y-15398D01*
X19750Y-15401D01*
X19813Y-15403D01*
X19867Y-15403D01*
X19920Y-15403D01*
X19957Y-15402D01*
X19981Y-15400D01*
X19997Y-15396D01*
X20009Y-15389D01*
X20019Y-15379D01*
X20020Y-15378D01*
X20038Y-15357D01*
X20042Y-15345D01*
X20031Y-15338D01*
X20019Y-15335D01*
X20008Y-15331D01*
X20001Y-15325D01*
X19997Y-15312D01*
X19994Y-15289D01*
X19993Y-15251D01*
X19992Y-15223D01*
X19991Y-15176D01*
X19991Y-15145D01*
X19994Y-15126D01*
X19999Y-15116D01*
X20006Y-15111D01*
X20027Y-15098D01*
X20035Y-15083D01*
X20033Y-15077D01*
X20022Y-15075D01*
X19994Y-15074D01*
X19950Y-15072D01*
X19891Y-15071D01*
X19821Y-15070D01*
X19740Y-15070D01*
X19651Y-15069D01*
X19555Y-15069D01*
X19529Y-15069D01*
X19030Y-15069D01*
X18917Y-15182D01*
X18875Y-15224D01*
X18846Y-15255D01*
X18828Y-15275D01*
X18820Y-15287D01*
X18820Y-15287D01*
X18820Y-15287D01*
G37*
G36*
X21944Y-15383D02*
X21946Y-15384D01*
X21957Y-15378D01*
X21958Y-15375D01*
X21967Y-15368D01*
X21988Y-15362D01*
X21993Y-15361D01*
X22021Y-15353D01*
X22042Y-15341D01*
X22043Y-15340D01*
X22051Y-15330D01*
X22045Y-15326D01*
X22025Y-15325D01*
X21993Y-15331D01*
X21965Y-15353D01*
X21963Y-15354D01*
X21948Y-15372D01*
X21944Y-15383D01*
X21944Y-15383D01*
X21944Y-15383D01*
G37*
G36*
X13466Y-14377D02*
X13478Y-14388D01*
X13503Y-14406D01*
X13531Y-14425D01*
X13560Y-14444D01*
X13582Y-14459D01*
X13591Y-14465D01*
X13588Y-14474D01*
X13574Y-14491D01*
X13565Y-14501D01*
X13541Y-14530D01*
X13522Y-14562D01*
X13519Y-14569D01*
X13504Y-14605D01*
X13550Y-14608D01*
X13597Y-14611D01*
X13602Y-14768D01*
X13607Y-14925D01*
X13646Y-14948D01*
X13685Y-14970D01*
X13691Y-14791D01*
X13695Y-14611D01*
X13794Y-14611D01*
X13892Y-14611D01*
X13895Y-14811D01*
X13897Y-15010D01*
X13821Y-15010D01*
X13784Y-15010D01*
X13763Y-15012D01*
X13755Y-15016D01*
X13758Y-15022D01*
X13760Y-15024D01*
X13774Y-15034D01*
X13803Y-15049D01*
X13841Y-15068D01*
X13885Y-15088D01*
X13886Y-15088D01*
X13946Y-15116D01*
X13992Y-15142D01*
X13996Y-15145D01*
X13996Y-15010D01*
X13996Y-14808D01*
X13996Y-14606D01*
X14097Y-14608D01*
X14197Y-14611D01*
X14200Y-14798D01*
X14201Y-14857D01*
X14201Y-14910D01*
X14200Y-14953D01*
X14199Y-14983D01*
X14198Y-14997D01*
X14198Y-14997D01*
X14189Y-15003D01*
X14166Y-15008D01*
X14126Y-15009D01*
X14094Y-15010D01*
X13996Y-15010D01*
X13996Y-15145D01*
X14029Y-15168D01*
X14056Y-15191D01*
X14091Y-15221D01*
X14124Y-15241D01*
X14159Y-15251D01*
X14202Y-15253D01*
X14257Y-15249D01*
X14270Y-15248D01*
X14291Y-15246D01*
X14291Y-15010D01*
X14293Y-14811D01*
X14296Y-14611D01*
X14394Y-14611D01*
X14492Y-14611D01*
X14495Y-14811D01*
X14498Y-15010D01*
X14394Y-15010D01*
X14291Y-15010D01*
X14291Y-15246D01*
X14311Y-15245D01*
X14364Y-15245D01*
X14432Y-15248D01*
X14516Y-15254D01*
X14556Y-15257D01*
X14596Y-15260D01*
X14596Y-15010D01*
X14596Y-14808D01*
X14596Y-14606D01*
X14697Y-14608D01*
X14798Y-14611D01*
X14800Y-14798D01*
X14801Y-14857D01*
X14801Y-14910D01*
X14801Y-14953D01*
X14800Y-14983D01*
X14798Y-14997D01*
X14798Y-14997D01*
X14789Y-15003D01*
X14766Y-15008D01*
X14727Y-15009D01*
X14695Y-15010D01*
X14596Y-15010D01*
X14596Y-15260D01*
X14699Y-15267D01*
X14836Y-15272D01*
X14891Y-15272D01*
X14891Y-15010D01*
X14893Y-14811D01*
X14896Y-14611D01*
X14994Y-14611D01*
X15093Y-14611D01*
X15096Y-14811D01*
X15098Y-15010D01*
X14994Y-15010D01*
X14891Y-15010D01*
X14891Y-15272D01*
X14963Y-15273D01*
X15077Y-15269D01*
X15142Y-15264D01*
X15218Y-15256D01*
X15275Y-15246D01*
X15313Y-15235D01*
X15334Y-15222D01*
X15339Y-15211D01*
X15335Y-15198D01*
X15318Y-15190D01*
X15300Y-15187D01*
X15260Y-15182D01*
X15257Y-15134D01*
X15258Y-15104D01*
X15261Y-15081D01*
X15265Y-15075D01*
X15272Y-15058D01*
X15275Y-15037D01*
X15273Y-15020D01*
X15264Y-15012D01*
X15242Y-15010D01*
X15236Y-15010D01*
X15196Y-15010D01*
X15196Y-14808D01*
X15196Y-14606D01*
X15236Y-14606D01*
X15275Y-14606D01*
X15275Y-14545D01*
X15275Y-14483D01*
X15073Y-14281D01*
X14872Y-14080D01*
X14872Y-13953D01*
X14871Y-13901D01*
X14870Y-13866D01*
X14868Y-13845D01*
X14865Y-13834D01*
X14859Y-13830D01*
X14854Y-13831D01*
X14847Y-13834D01*
X14842Y-13844D01*
X14838Y-13863D01*
X14836Y-13895D01*
X14834Y-13942D01*
X14834Y-13950D01*
X14831Y-14065D01*
X14637Y-14063D01*
X14443Y-14060D01*
X14441Y-13944D01*
X14438Y-13829D01*
X14401Y-13829D01*
X14385Y-13827D01*
X14370Y-13822D01*
X14352Y-13811D01*
X14329Y-13792D01*
X14298Y-13762D01*
X14271Y-13735D01*
X14178Y-13642D01*
X13817Y-14003D01*
X13732Y-14088D01*
X13660Y-14160D01*
X13601Y-14221D01*
X13553Y-14270D01*
X13517Y-14308D01*
X13491Y-14338D01*
X13474Y-14358D01*
X13466Y-14371D01*
X13466Y-14377D01*
X13466Y-14377D01*
X13466Y-14377D01*
G37*
G36*
X22658Y-14321D02*
X22659Y-14391D01*
X22660Y-14454D01*
X22661Y-14507D01*
X22663Y-14549D01*
X22665Y-14576D01*
X22667Y-14588D01*
X22669Y-14586D01*
X22675Y-14558D01*
X22677Y-14541D01*
X22680Y-14522D01*
X22686Y-14516D01*
X22692Y-14504D01*
X22698Y-14476D01*
X22703Y-14436D01*
X22707Y-14385D01*
X22710Y-14329D01*
X22711Y-14270D01*
X22711Y-14212D01*
X22709Y-14158D01*
X22707Y-14137D01*
X22702Y-14090D01*
X22697Y-14049D01*
X22692Y-14020D01*
X22688Y-14007D01*
X22688Y-14006D01*
X22680Y-13994D01*
X22673Y-13970D01*
X22671Y-13962D01*
X22667Y-13952D01*
X22665Y-13956D01*
X22663Y-13975D01*
X22661Y-14012D01*
X22660Y-14066D01*
X22659Y-14091D01*
X22658Y-14169D01*
X22658Y-14246D01*
X22658Y-14321D01*
X22658Y-14321D01*
X22658Y-14321D01*
G37*
G36*
X13274Y-13505D02*
X13280Y-13571D01*
X13293Y-13648D01*
X13318Y-13721D01*
X13352Y-13784D01*
X13381Y-13820D01*
X13425Y-13865D01*
X13405Y-13891D01*
X13384Y-13917D01*
X13444Y-13917D01*
X13504Y-13917D01*
X13501Y-14008D01*
X13499Y-14099D01*
X13416Y-14102D01*
X13334Y-14105D01*
X13339Y-14149D01*
X13346Y-14183D01*
X13360Y-14222D01*
X13371Y-14247D01*
X13381Y-14268D01*
X13390Y-14286D01*
X13398Y-14299D01*
X13407Y-14308D01*
X13419Y-14311D01*
X13433Y-14307D01*
X13453Y-14296D01*
X13478Y-14276D01*
X13510Y-14247D01*
X13551Y-14209D01*
X13601Y-14160D01*
X13662Y-14099D01*
X13735Y-14025D01*
X13789Y-13971D01*
X14148Y-13613D01*
X14111Y-13575D01*
X14074Y-13537D01*
X14074Y-13384D01*
X14074Y-13229D01*
X14027Y-13226D01*
X13981Y-13223D01*
X13981Y-13110D01*
X13981Y-12997D01*
X14045Y-12997D01*
X14109Y-12997D01*
X14112Y-13044D01*
X14115Y-13072D01*
X14121Y-13086D01*
X14132Y-13090D01*
X14137Y-13091D01*
X14159Y-13084D01*
X14182Y-13067D01*
X14182Y-13066D01*
X14193Y-13055D01*
X14205Y-13048D01*
X14222Y-13044D01*
X14248Y-13042D01*
X14287Y-13041D01*
X14322Y-13041D01*
X14438Y-13041D01*
X14441Y-12926D01*
X14443Y-12810D01*
X14581Y-12810D01*
X14581Y-12525D01*
X14581Y-12411D01*
X14581Y-12298D01*
X14638Y-12295D01*
X14695Y-12292D01*
X14675Y-12267D01*
X14661Y-12240D01*
X14655Y-12214D01*
X14651Y-12193D01*
X14637Y-12184D01*
X14628Y-12183D01*
X14601Y-12180D01*
X14601Y-12082D01*
X14601Y-11983D01*
X14682Y-11980D01*
X14763Y-11977D01*
X14763Y-12081D01*
X14763Y-12185D01*
X14734Y-12185D01*
X14712Y-12188D01*
X14705Y-12199D01*
X14704Y-12207D01*
X14710Y-12225D01*
X14725Y-12247D01*
X14745Y-12270D01*
X14766Y-12290D01*
X14785Y-12303D01*
X14796Y-12305D01*
X14797Y-12304D01*
X14810Y-12297D01*
X14835Y-12293D01*
X14841Y-12293D01*
X14880Y-12301D01*
X14909Y-12322D01*
X14927Y-12352D01*
X14931Y-12386D01*
X14921Y-12420D01*
X14900Y-12445D01*
X14863Y-12466D01*
X14826Y-12468D01*
X14788Y-12451D01*
X14761Y-12437D01*
X14738Y-12431D01*
X14736Y-12431D01*
X14722Y-12433D01*
X14716Y-12444D01*
X14714Y-12468D01*
X14714Y-12474D01*
X14712Y-12502D01*
X14709Y-12520D01*
X14707Y-12523D01*
X14694Y-12527D01*
X14668Y-12528D01*
X14641Y-12528D01*
X14581Y-12525D01*
X14581Y-12810D01*
X14635Y-12810D01*
X14827Y-12810D01*
X14830Y-12926D01*
X14831Y-12975D01*
X14833Y-13008D01*
X14836Y-13028D01*
X14841Y-13037D01*
X14848Y-13041D01*
X14852Y-13041D01*
X14861Y-13040D01*
X14867Y-13033D01*
X14870Y-13016D01*
X14871Y-12988D01*
X14872Y-12950D01*
X14872Y-12859D01*
X14938Y-12792D01*
X15005Y-12726D01*
X15096Y-12726D01*
X15186Y-12726D01*
X15186Y-12375D01*
X15186Y-12023D01*
X15113Y-11976D01*
X15079Y-11955D01*
X15051Y-11939D01*
X15033Y-11930D01*
X15030Y-11929D01*
X15023Y-11937D01*
X15023Y-11951D01*
X15033Y-11970D01*
X15055Y-11978D01*
X15083Y-11983D01*
X15083Y-12082D01*
X15083Y-12180D01*
X15055Y-12183D01*
X15036Y-12186D01*
X15034Y-12193D01*
X15045Y-12206D01*
X15059Y-12234D01*
X15060Y-12259D01*
X15061Y-12282D01*
X15069Y-12292D01*
X15080Y-12295D01*
X15090Y-12297D01*
X15096Y-12303D01*
X15100Y-12315D01*
X15102Y-12338D01*
X15103Y-12375D01*
X15103Y-12411D01*
X15103Y-12525D01*
X15039Y-12525D01*
X14975Y-12525D01*
X14975Y-12411D01*
X14975Y-12363D01*
X14976Y-12330D01*
X14978Y-12311D01*
X14983Y-12301D01*
X14990Y-12296D01*
X14997Y-12295D01*
X15015Y-12285D01*
X15019Y-12266D01*
X15011Y-12243D01*
X14999Y-12229D01*
X14985Y-12211D01*
X14980Y-12198D01*
X14971Y-12188D01*
X14950Y-12185D01*
X14921Y-12185D01*
X14921Y-12082D01*
X14921Y-11978D01*
X14950Y-11978D01*
X14972Y-11975D01*
X14979Y-11964D01*
X14980Y-11959D01*
X14979Y-11952D01*
X14975Y-11947D01*
X14966Y-11943D01*
X14947Y-11941D01*
X14919Y-11940D01*
X14877Y-11939D01*
X14819Y-11939D01*
X14780Y-11939D01*
X14580Y-11939D01*
X14524Y-11996D01*
X14498Y-12024D01*
X14478Y-12049D01*
X14469Y-12065D01*
X14468Y-12067D01*
X14459Y-12091D01*
X14435Y-12104D01*
X14412Y-12106D01*
X14391Y-12108D01*
X14382Y-12115D01*
X14379Y-12135D01*
X14379Y-12146D01*
X14377Y-12173D01*
X14369Y-12184D01*
X14365Y-12185D01*
X14355Y-12185D01*
X14352Y-12189D01*
X14355Y-12200D01*
X14367Y-12220D01*
X14384Y-12250D01*
X14419Y-12315D01*
X14446Y-12381D01*
X14463Y-12442D01*
X14463Y-12443D01*
X14466Y-12462D01*
X14463Y-12475D01*
X14451Y-12488D01*
X14427Y-12504D01*
X14413Y-12513D01*
X14375Y-12535D01*
X14334Y-12554D01*
X14308Y-12565D01*
X14280Y-12574D01*
X14269Y-12582D01*
X14270Y-12590D01*
X14276Y-12598D01*
X14294Y-12610D01*
X14322Y-12612D01*
X14329Y-12611D01*
X14372Y-12612D01*
X14403Y-12630D01*
X14425Y-12659D01*
X14435Y-12696D01*
X14429Y-12729D01*
X14410Y-12757D01*
X14382Y-12776D01*
X14349Y-12785D01*
X14314Y-12779D01*
X14284Y-12762D01*
X14267Y-12743D01*
X14259Y-12723D01*
X14257Y-12691D01*
X14256Y-12688D01*
X14254Y-12652D01*
X14244Y-12627D01*
X14234Y-12616D01*
X14221Y-12603D01*
X14206Y-12596D01*
X14185Y-12594D01*
X14152Y-12595D01*
X14139Y-12596D01*
X14098Y-12597D01*
X14061Y-12595D01*
X14036Y-12590D01*
X14015Y-12586D01*
X13979Y-12581D01*
X13933Y-12577D01*
X13881Y-12573D01*
X13874Y-12573D01*
X13819Y-12570D01*
X13778Y-12570D01*
X13747Y-12571D01*
X13720Y-12575D01*
X13693Y-12582D01*
X13675Y-12588D01*
X13602Y-12617D01*
X13530Y-12656D01*
X13463Y-12702D01*
X13406Y-12752D01*
X13361Y-12803D01*
X13340Y-12837D01*
X13319Y-12895D01*
X13309Y-12954D01*
X13304Y-13022D01*
X13403Y-13022D01*
X13503Y-13022D01*
X13503Y-13056D01*
X13505Y-13079D01*
X13514Y-13089D01*
X13528Y-13091D01*
X13548Y-13087D01*
X13558Y-13081D01*
X13570Y-13075D01*
X13596Y-13071D01*
X13617Y-13071D01*
X13670Y-13071D01*
X13672Y-13034D01*
X13677Y-13008D01*
X13688Y-12996D01*
X13698Y-12994D01*
X13716Y-12985D01*
X13718Y-12969D01*
X13704Y-12947D01*
X13685Y-12930D01*
X13663Y-12909D01*
X13653Y-12887D01*
X13651Y-12865D01*
X13659Y-12824D01*
X13680Y-12792D01*
X13711Y-12773D01*
X13747Y-12770D01*
X13778Y-12780D01*
X13810Y-12805D01*
X13826Y-12838D01*
X13828Y-12862D01*
X13822Y-12889D01*
X13808Y-12916D01*
X13790Y-12936D01*
X13773Y-12943D01*
X13762Y-12951D01*
X13759Y-12967D01*
X13765Y-12987D01*
X13781Y-12994D01*
X13791Y-12996D01*
X13797Y-13002D01*
X13801Y-13014D01*
X13803Y-13037D01*
X13804Y-13074D01*
X13804Y-13110D01*
X13804Y-13223D01*
X13740Y-13223D01*
X13676Y-13223D01*
X13673Y-13172D01*
X13671Y-13147D01*
X13667Y-13131D01*
X13657Y-13122D01*
X13638Y-13120D01*
X13606Y-13122D01*
X13564Y-13126D01*
X13503Y-13133D01*
X13503Y-13166D01*
X13503Y-13199D01*
X13452Y-13199D01*
X13400Y-13199D01*
X13422Y-13218D01*
X13444Y-13236D01*
X13417Y-13253D01*
X13389Y-13273D01*
X13367Y-13291D01*
X13344Y-13312D01*
X13422Y-13317D01*
X13499Y-13322D01*
X13499Y-13410D01*
X13499Y-13499D01*
X13386Y-13502D01*
X13274Y-13505D01*
X13274Y-13505D01*
X13274Y-13505D01*
G37*
G36*
X16860Y-13267D02*
X16862Y-13278D01*
X16872Y-13283D01*
X16894Y-13285D01*
X16916Y-13285D01*
X16942Y-13284D01*
X16953Y-13282D01*
X16948Y-13280D01*
X16928Y-13274D01*
X16919Y-13268D01*
X16906Y-13261D01*
X16887Y-13254D01*
X16867Y-13252D01*
X16860Y-13260D01*
X16860Y-13267D01*
X16860Y-13267D01*
X16860Y-13267D01*
G37*
G36*
X15236Y-12726D02*
X15366Y-12727D01*
X15496Y-12727D01*
X15550Y-12780D01*
X15603Y-12833D01*
X15604Y-12934D01*
X15605Y-12981D01*
X15607Y-13011D01*
X15610Y-13029D01*
X15616Y-13037D01*
X15622Y-13039D01*
X15629Y-13039D01*
X15634Y-13032D01*
X15637Y-13016D01*
X15640Y-12987D01*
X15641Y-12942D01*
X15641Y-12926D01*
X15644Y-12810D01*
X15790Y-12807D01*
X15847Y-12806D01*
X15886Y-12804D01*
X15911Y-12802D01*
X15924Y-12799D01*
X15927Y-12795D01*
X15925Y-12790D01*
X15913Y-12783D01*
X15891Y-12778D01*
X15854Y-12776D01*
X15817Y-12776D01*
X15722Y-12776D01*
X15582Y-12634D01*
X15534Y-12585D01*
X15498Y-12548D01*
X15472Y-12520D01*
X15456Y-12498D01*
X15447Y-12482D01*
X15443Y-12469D01*
X15442Y-12462D01*
X15438Y-12438D01*
X15428Y-12431D01*
X15418Y-12439D01*
X15412Y-12463D01*
X15411Y-12478D01*
X15408Y-12525D01*
X15344Y-12525D01*
X15280Y-12525D01*
X15280Y-12411D01*
X15280Y-12363D01*
X15281Y-12330D01*
X15284Y-12311D01*
X15288Y-12301D01*
X15295Y-12296D01*
X15302Y-12295D01*
X15317Y-12289D01*
X15323Y-12274D01*
X15324Y-12256D01*
X15329Y-12227D01*
X15340Y-12204D01*
X15341Y-12203D01*
X15351Y-12190D01*
X15346Y-12185D01*
X15331Y-12185D01*
X15312Y-12182D01*
X15305Y-12169D01*
X15304Y-12156D01*
X15299Y-12133D01*
X15286Y-12107D01*
X15268Y-12083D01*
X15251Y-12069D01*
X15245Y-12067D01*
X15242Y-12076D01*
X15240Y-12104D01*
X15239Y-12147D01*
X15237Y-12204D01*
X15236Y-12274D01*
X15236Y-12354D01*
X15236Y-12397D01*
X15236Y-12726D01*
X15236Y-12726D01*
X15236Y-12726D01*
G37*
G36*
X15364Y-12269D02*
X15370Y-12288D01*
X15386Y-12295D01*
X15400Y-12300D01*
X15407Y-12313D01*
X15410Y-12339D01*
X15411Y-12346D01*
X15414Y-12374D01*
X15419Y-12388D01*
X15430Y-12392D01*
X15441Y-12391D01*
X15470Y-12391D01*
X15485Y-12396D01*
X15491Y-12412D01*
X15492Y-12434D01*
X15492Y-12449D01*
X15495Y-12463D01*
X15502Y-12478D01*
X15516Y-12496D01*
X15537Y-12520D01*
X15569Y-12552D01*
X15612Y-12596D01*
X15617Y-12601D01*
X15743Y-12726D01*
X15806Y-12726D01*
X15840Y-12726D01*
X15857Y-12724D01*
X15861Y-12720D01*
X15855Y-12711D01*
X15851Y-12707D01*
X15823Y-12690D01*
X15796Y-12687D01*
X15779Y-12686D01*
X15763Y-12680D01*
X15744Y-12669D01*
X15721Y-12649D01*
X15687Y-12618D01*
X15669Y-12600D01*
X15630Y-12561D01*
X15603Y-12532D01*
X15588Y-12510D01*
X15581Y-12494D01*
X15580Y-12487D01*
X15574Y-12465D01*
X15556Y-12436D01*
X15525Y-12396D01*
X15519Y-12388D01*
X15487Y-12351D01*
X15455Y-12314D01*
X15429Y-12282D01*
X15422Y-12274D01*
X15397Y-12248D01*
X15378Y-12238D01*
X15367Y-12247D01*
X15364Y-12269D01*
X15364Y-12269D01*
X15364Y-12269D01*
G37*
G36*
X15654Y-12516D02*
X15718Y-12582D01*
X15750Y-12615D01*
X15771Y-12636D01*
X15783Y-12645D01*
X15787Y-12645D01*
X15785Y-12636D01*
X15785Y-12636D01*
X15776Y-12625D01*
X15756Y-12605D01*
X15728Y-12579D01*
X15718Y-12570D01*
X15654Y-12516D01*
X15654Y-12516D01*
X15654Y-12516D01*
G37*
G36*
X13722Y-11176D02*
X13722Y-11214D01*
X13723Y-11245D01*
X13726Y-11263D01*
X13729Y-11266D01*
X13735Y-11252D01*
X13738Y-11222D01*
X13740Y-11180D01*
X13740Y-11101D01*
X13781Y-11104D01*
X13823Y-11107D01*
X13823Y-11240D01*
X13823Y-11373D01*
X13781Y-11376D01*
X13756Y-11379D01*
X13742Y-11388D01*
X13741Y-11406D01*
X13748Y-11437D01*
X13751Y-11447D01*
X13762Y-11484D01*
X13791Y-11451D01*
X13816Y-11427D01*
X13841Y-11418D01*
X13854Y-11417D01*
X13878Y-11415D01*
X13887Y-11405D01*
X13887Y-11400D01*
X13882Y-11379D01*
X13877Y-11372D01*
X13873Y-11357D01*
X13870Y-11326D01*
X13869Y-11279D01*
X13870Y-11234D01*
X13872Y-11107D01*
X13912Y-11107D01*
X13951Y-11107D01*
X13954Y-11230D01*
X13954Y-11280D01*
X13953Y-11323D01*
X13951Y-11356D01*
X13947Y-11373D01*
X13939Y-11397D01*
X13934Y-11422D01*
X13931Y-11441D01*
X13921Y-11450D01*
X13900Y-11454D01*
X13887Y-11455D01*
X13851Y-11460D01*
X13830Y-11471D01*
X13819Y-11491D01*
X13816Y-11506D01*
X13816Y-11526D01*
X13825Y-11535D01*
X13842Y-11537D01*
X13872Y-11540D01*
X13877Y-11625D01*
X13882Y-11709D01*
X13945Y-11780D01*
X13989Y-11828D01*
X14023Y-11862D01*
X14050Y-11884D01*
X14073Y-11896D01*
X14092Y-11899D01*
X14093Y-11899D01*
X14120Y-11908D01*
X14147Y-11928D01*
X14170Y-11955D01*
X14182Y-11983D01*
X14182Y-11989D01*
X14188Y-12015D01*
X14202Y-12033D01*
X14214Y-12037D01*
X14220Y-12029D01*
X14222Y-12008D01*
X14222Y-12008D01*
X14222Y-11978D01*
X14301Y-11978D01*
X14379Y-11978D01*
X14379Y-12018D01*
X14381Y-12043D01*
X14388Y-12055D01*
X14399Y-12057D01*
X14415Y-12052D01*
X14419Y-12044D01*
X14425Y-12032D01*
X14443Y-12010D01*
X14469Y-11982D01*
X14485Y-11966D01*
X14552Y-11899D01*
X14767Y-11899D01*
X14983Y-11899D01*
X14895Y-11845D01*
X14822Y-11797D01*
X14759Y-11752D01*
X14697Y-11704D01*
X14645Y-11661D01*
X14581Y-11606D01*
X14576Y-11671D01*
X14571Y-11737D01*
X14490Y-11740D01*
X14409Y-11743D01*
X14409Y-11703D01*
X14409Y-11663D01*
X14323Y-11663D01*
X14236Y-11663D01*
X14126Y-11553D01*
X14083Y-11509D01*
X14052Y-11476D01*
X14032Y-11452D01*
X14021Y-11434D01*
X14016Y-11419D01*
X14015Y-11412D01*
X14012Y-11387D01*
X14005Y-11372D01*
X14001Y-11357D01*
X13998Y-11326D01*
X13997Y-11279D01*
X13998Y-11234D01*
X14001Y-11107D01*
X14040Y-11107D01*
X14079Y-11107D01*
X14082Y-11242D01*
X14082Y-11303D01*
X14081Y-11346D01*
X14078Y-11372D01*
X14075Y-11378D01*
X14067Y-11386D01*
X14064Y-11405D01*
X14068Y-11420D01*
X14078Y-11439D01*
X14099Y-11465D01*
X14132Y-11499D01*
X14156Y-11523D01*
X14247Y-11614D01*
X14327Y-11614D01*
X14408Y-11614D01*
X14411Y-11577D01*
X14414Y-11555D01*
X14421Y-11543D01*
X14439Y-11538D01*
X14461Y-11535D01*
X14508Y-11530D01*
X14481Y-11493D01*
X14455Y-11457D01*
X14304Y-11457D01*
X14243Y-11456D01*
X14199Y-11455D01*
X14171Y-11452D01*
X14156Y-11449D01*
X14152Y-11444D01*
X14152Y-11426D01*
X14153Y-11405D01*
X14151Y-11385D01*
X14144Y-11378D01*
X14140Y-11369D01*
X14137Y-11344D01*
X14134Y-11309D01*
X14133Y-11266D01*
X14133Y-11221D01*
X14134Y-11178D01*
X14136Y-11141D01*
X14139Y-11113D01*
X14143Y-11101D01*
X14144Y-11100D01*
X14146Y-11090D01*
X14139Y-11066D01*
X14128Y-11041D01*
X14102Y-10984D01*
X13922Y-10984D01*
X13858Y-10984D01*
X13811Y-10985D01*
X13778Y-10986D01*
X13756Y-10989D01*
X13743Y-10992D01*
X13737Y-10997D01*
X13735Y-11002D01*
X13730Y-11020D01*
X13727Y-11051D01*
X13724Y-11090D01*
X13722Y-11133D01*
X13722Y-11176D01*
X13722Y-11176D01*
X13722Y-11176D01*
G37*
G36*
X14192Y-11397D02*
X14194Y-11406D01*
X14200Y-11412D01*
X14213Y-11415D01*
X14238Y-11417D01*
X14278Y-11417D01*
X14306Y-11417D01*
X14350Y-11417D01*
X14386Y-11415D01*
X14411Y-11412D01*
X14419Y-11409D01*
X14413Y-11396D01*
X14399Y-11375D01*
X14381Y-11351D01*
X14364Y-11331D01*
X14351Y-11320D01*
X14349Y-11319D01*
X14343Y-11327D01*
X14340Y-11348D01*
X14340Y-11348D01*
X14339Y-11367D01*
X14330Y-11376D01*
X14309Y-11378D01*
X14301Y-11378D01*
X14261Y-11378D01*
X14261Y-11301D01*
X14261Y-11261D01*
X14258Y-11235D01*
X14252Y-11218D01*
X14241Y-11204D01*
X14237Y-11201D01*
X14212Y-11178D01*
X14212Y-11278D01*
X14211Y-11324D01*
X14209Y-11358D01*
X14205Y-11376D01*
X14202Y-11378D01*
X14194Y-11386D01*
X14192Y-11397D01*
X14192Y-11397D01*
X14192Y-11397D01*
G37*
G36*
X13731Y-11346D02*
X13733Y-11356D01*
X13736Y-11359D01*
X13738Y-11346D01*
X13738Y-11343D01*
X13737Y-11327D01*
X13734Y-11325D01*
X13733Y-11326D01*
X13731Y-11346D01*
X13731Y-11346D01*
X13731Y-11346D01*
G37*
G36*
X13750Y-10935D02*
X13917Y-10935D01*
X13972Y-10935D01*
X14019Y-10934D01*
X14056Y-10932D01*
X14078Y-10930D01*
X14084Y-10928D01*
X14083Y-10916D01*
X14078Y-10890D01*
X14074Y-10862D01*
X14063Y-10801D01*
X14004Y-10773D01*
X13970Y-10759D01*
X13947Y-10752D01*
X13928Y-10752D01*
X13906Y-10757D01*
X13852Y-10783D01*
X13806Y-10826D01*
X13770Y-10885D01*
X13759Y-10910D01*
X13750Y-10935D01*
X13750Y-10935D01*
X13750Y-10935D01*
G37*
G36*
X14709Y-12304D02*
X14712Y-12348D01*
X14719Y-12378D01*
X14730Y-12392D01*
X14744Y-12387D01*
X14747Y-12385D01*
X14753Y-12366D01*
X14745Y-12342D01*
X14731Y-12325D01*
X14709Y-12304D01*
X14709Y-12304D01*
X14709Y-12304D01*
G37*
%LPC*%
G54D13*
X8500Y-14900D03*
G54D14*
X8500Y-13900D03*
G54D13*
X8500Y-18900D03*
G54D14*
X8500Y-17900D03*
G54D13*
X8500Y-16900D03*
G54D14*
X8500Y-15900D03*
G54D15*
X12185Y-8848D03*
X9074Y-8848D03*
G54D16*
X9370Y-9763D03*
X11889Y-9763D03*
G54D15*
X21633Y-8848D03*
X18523Y-8848D03*
G54D16*
X18818Y-9763D03*
X21338Y-9763D03*
G54D15*
X16909Y-8848D03*
X13799Y-8848D03*
G54D16*
X14094Y-9763D03*
X16614Y-9763D03*
G54D15*
X26358Y-8848D03*
X23248Y-8848D03*
G54D16*
X23543Y-9763D03*
X26062Y-9763D03*
G54D17*
X15964Y-26082D03*
X19114Y-26082D03*
G54D13*
X8500Y-20900D03*
G54D14*
X8500Y-19900D03*
G54D18*
X26771Y-15059D03*
X26771Y-13877D03*
X8661Y-22736D03*
X8661Y-23917D03*
M02*
