G04 (created by PCBNEW (2013-dec-23)-stable) date Tue 01 Jul 2014 06:11:27 EEST*
%MOIN*%
G04 Gerber Fmt 3.4, Leading zero omitted, Abs format*
%FSLAX34Y34*%
G01*
G70*
G90*
G04 APERTURE LIST*
%ADD10C,0.00590551*%
%ADD11C,0.00393701*%
%ADD12C,0.0001*%
%ADD13R,0.067874X0.067874*%
%ADD14C,0.067874*%
%ADD15O,0.067874X0.067874*%
%ADD16C,0.0433071*%
%ADD17R,0.0826772X0.0826772*%
%ADD18R,0.0669291X0.0669291*%
%ADD19C,0.0551181*%
G04 APERTURE END LIST*
G54D10*
G54D11*
X7874Y-35236D02*
X8070Y-35433D01*
X23622Y-34645D02*
X22834Y-35433D01*
X22834Y-7874D02*
X23622Y-8661D01*
X8661Y-7874D02*
X7874Y-8661D01*
X22834Y-35433D02*
X8070Y-35433D01*
X8661Y-7874D02*
X22834Y-7874D01*
X7874Y-35236D02*
X7874Y-8661D01*
X23622Y-8661D02*
X23622Y-34645D01*
G54D12*
G36*
X7874Y-7874D02*
X7874Y-10188D01*
X8877Y-10188D01*
X9016Y-10188D01*
X9155Y-10188D01*
X9196Y-10228D01*
X9238Y-10269D01*
X9238Y-10398D01*
X9238Y-10528D01*
X9202Y-10564D01*
X9166Y-10600D01*
X9017Y-10600D01*
X8869Y-10600D01*
X8832Y-10565D01*
X8796Y-10530D01*
X8796Y-10400D01*
X8796Y-10270D01*
X8836Y-10229D01*
X8877Y-10188D01*
X7874Y-10188D01*
X7874Y-10682D01*
X8801Y-10682D01*
X8909Y-10787D01*
X9017Y-10892D01*
X9125Y-10787D01*
X9233Y-10682D01*
X9236Y-10725D01*
X9237Y-10742D01*
X9235Y-10756D01*
X9229Y-10770D01*
X9216Y-10787D01*
X9195Y-10811D01*
X9163Y-10844D01*
X9142Y-10864D01*
X9108Y-10899D01*
X9079Y-10930D01*
X9057Y-10953D01*
X9047Y-10966D01*
X9045Y-10968D01*
X9055Y-10970D01*
X9080Y-10972D01*
X9119Y-10974D01*
X9168Y-10975D01*
X9226Y-10975D01*
X9238Y-10975D01*
X9430Y-10975D01*
X9430Y-11023D01*
X9430Y-11071D01*
X9113Y-11071D01*
X8796Y-11071D01*
X8796Y-11023D01*
X8796Y-10975D01*
X8892Y-10975D01*
X8932Y-10974D01*
X8964Y-10973D01*
X8984Y-10970D01*
X8988Y-10968D01*
X8981Y-10959D01*
X8964Y-10939D01*
X8937Y-10911D01*
X8905Y-10877D01*
X8891Y-10864D01*
X8853Y-10826D01*
X8827Y-10798D01*
X8810Y-10778D01*
X8801Y-10763D01*
X8797Y-10749D01*
X8797Y-10734D01*
X8798Y-10725D01*
X8801Y-10682D01*
X7874Y-10682D01*
X7874Y-11205D01*
X8796Y-11205D01*
X8981Y-11205D01*
X9166Y-11205D01*
X9202Y-11248D01*
X9238Y-11291D01*
X9238Y-11455D01*
X9238Y-11619D01*
X9017Y-11619D01*
X8796Y-11619D01*
X8796Y-11570D01*
X8796Y-11522D01*
X8989Y-11522D01*
X9181Y-11522D01*
X9176Y-11496D01*
X9173Y-11474D01*
X9170Y-11440D01*
X9166Y-11399D01*
X9165Y-11390D01*
X9159Y-11311D01*
X8977Y-11311D01*
X8796Y-11311D01*
X8796Y-11258D01*
X8796Y-11205D01*
X7874Y-11205D01*
X7874Y-11714D01*
X8988Y-11714D01*
X9072Y-11714D01*
X9155Y-11714D01*
X9196Y-11755D01*
X9238Y-11795D01*
X9238Y-11925D01*
X9238Y-12055D01*
X9202Y-12091D01*
X9166Y-12127D01*
X9017Y-12127D01*
X8866Y-12127D01*
X8836Y-12087D01*
X8806Y-12046D01*
X8808Y-11893D01*
X8810Y-11740D01*
X8846Y-11728D01*
X8882Y-11716D01*
X8882Y-11863D01*
X8882Y-11920D01*
X8883Y-11961D01*
X8885Y-11988D01*
X8891Y-12006D01*
X8901Y-12015D01*
X8917Y-12021D01*
X8940Y-12025D01*
X8952Y-12027D01*
X8988Y-12034D01*
X8988Y-11874D01*
X8988Y-11714D01*
X7874Y-11714D01*
X7874Y-12233D01*
X8796Y-12233D01*
X8976Y-12233D01*
X9155Y-12233D01*
X9196Y-12273D01*
X9238Y-12314D01*
X9238Y-12475D01*
X9238Y-12636D01*
X9017Y-12636D01*
X8796Y-12636D01*
X8796Y-12588D01*
X8796Y-12540D01*
X8983Y-12540D01*
X9170Y-12540D01*
X9170Y-12512D01*
X9170Y-12483D01*
X8983Y-12483D01*
X8796Y-12483D01*
X8796Y-12435D01*
X8796Y-12387D01*
X8984Y-12387D01*
X9172Y-12387D01*
X9155Y-12358D01*
X9137Y-12329D01*
X8967Y-12329D01*
X8796Y-12329D01*
X8796Y-12281D01*
X8796Y-12233D01*
X7874Y-12233D01*
X7874Y-12828D01*
X8796Y-12828D01*
X8829Y-12828D01*
X8852Y-12830D01*
X8861Y-12838D01*
X8863Y-12860D01*
X8863Y-12862D01*
X8863Y-12896D01*
X9050Y-12896D01*
X9238Y-12896D01*
X9305Y-12896D01*
X9367Y-12896D01*
X9430Y-12896D01*
X9430Y-12944D01*
X9430Y-12991D01*
X9367Y-12991D01*
X9305Y-12991D01*
X9305Y-12944D01*
X9305Y-12896D01*
X9238Y-12896D01*
X9238Y-12972D01*
X9238Y-13049D01*
X9204Y-13049D01*
X9181Y-13048D01*
X9172Y-13040D01*
X9170Y-13020D01*
X9170Y-12991D01*
X9017Y-12991D01*
X8863Y-12991D01*
X8863Y-13020D01*
X8861Y-13040D01*
X8852Y-13048D01*
X8829Y-13049D01*
X8796Y-13049D01*
X8796Y-12939D01*
X8796Y-12828D01*
X7874Y-12828D01*
X7874Y-13222D01*
X9804Y-13222D01*
X9989Y-13222D01*
X10175Y-13222D01*
X10210Y-13265D01*
X10246Y-13308D01*
X10246Y-13471D01*
X10246Y-13635D01*
X10025Y-13635D01*
X9804Y-13635D01*
X9804Y-13587D01*
X9804Y-13539D01*
X9997Y-13539D01*
X10190Y-13539D01*
X10185Y-13513D01*
X10182Y-13490D01*
X10178Y-13456D01*
X10174Y-13416D01*
X10173Y-13407D01*
X10167Y-13328D01*
X9986Y-13328D01*
X9804Y-13328D01*
X9804Y-13275D01*
X9804Y-13222D01*
X7874Y-13222D01*
X7874Y-13227D01*
X8801Y-13227D01*
X8909Y-13332D01*
X9017Y-13436D01*
X9125Y-13332D01*
X9233Y-13227D01*
X9236Y-13269D01*
X9237Y-13286D01*
X9235Y-13301D01*
X9229Y-13315D01*
X9216Y-13332D01*
X9195Y-13356D01*
X9163Y-13388D01*
X9142Y-13409D01*
X9108Y-13444D01*
X9079Y-13474D01*
X9057Y-13498D01*
X9047Y-13511D01*
X9045Y-13513D01*
X9055Y-13515D01*
X9080Y-13517D01*
X9119Y-13518D01*
X9168Y-13519D01*
X9226Y-13520D01*
X9238Y-13520D01*
X9430Y-13520D01*
X9430Y-13568D01*
X9430Y-13616D01*
X9113Y-13616D01*
X8796Y-13616D01*
X8796Y-13568D01*
X8796Y-13520D01*
X8892Y-13520D01*
X8932Y-13519D01*
X8964Y-13517D01*
X8984Y-13515D01*
X8988Y-13513D01*
X8981Y-13504D01*
X8964Y-13484D01*
X8937Y-13456D01*
X8905Y-13422D01*
X8891Y-13409D01*
X8853Y-13371D01*
X8827Y-13343D01*
X8810Y-13323D01*
X8801Y-13308D01*
X8797Y-13293D01*
X8797Y-13278D01*
X8798Y-13269D01*
X8801Y-13227D01*
X7874Y-13227D01*
X7874Y-13750D01*
X8796Y-13750D01*
X8982Y-13750D01*
X9168Y-13750D01*
X9203Y-13789D01*
X9238Y-13827D01*
X9804Y-13827D01*
X9838Y-13827D01*
X9860Y-13829D01*
X9870Y-13837D01*
X9871Y-13858D01*
X9871Y-13861D01*
X9871Y-13894D01*
X10059Y-13894D01*
X10246Y-13894D01*
X10313Y-13894D01*
X10375Y-13894D01*
X10438Y-13894D01*
X10438Y-13942D01*
X10438Y-13990D01*
X10375Y-13990D01*
X10313Y-13990D01*
X10313Y-13942D01*
X10313Y-13894D01*
X10246Y-13894D01*
X10246Y-13971D01*
X10246Y-14048D01*
X10212Y-14048D01*
X10190Y-14046D01*
X10180Y-14038D01*
X10179Y-14019D01*
X10179Y-13990D01*
X10025Y-13990D01*
X9871Y-13990D01*
X9871Y-14019D01*
X9870Y-14038D01*
X9860Y-14046D01*
X9838Y-14048D01*
X9804Y-14048D01*
X9804Y-13938D01*
X9804Y-13827D01*
X9238Y-13827D01*
X9238Y-13827D01*
X9238Y-13981D01*
X9238Y-14134D01*
X9210Y-14134D01*
X9199Y-14134D01*
X9191Y-14132D01*
X9186Y-14125D01*
X9181Y-14111D01*
X9177Y-14087D01*
X9173Y-14052D01*
X9169Y-14002D01*
X9165Y-13945D01*
X9161Y-13906D01*
X9158Y-13882D01*
X9152Y-13869D01*
X9142Y-13861D01*
X9130Y-13857D01*
X9107Y-13849D01*
X9092Y-13846D01*
X9092Y-13846D01*
X9089Y-13855D01*
X9087Y-13880D01*
X9085Y-13916D01*
X9084Y-13961D01*
X9084Y-13969D01*
X9084Y-14092D01*
X9041Y-14127D01*
X9015Y-14148D01*
X8994Y-14158D01*
X8968Y-14163D01*
X8940Y-14163D01*
X8905Y-14162D01*
X8881Y-14157D01*
X8860Y-14144D01*
X8839Y-14127D01*
X8796Y-14091D01*
X8796Y-13921D01*
X8796Y-13750D01*
X7874Y-13750D01*
X7874Y-14230D01*
X9396Y-14230D01*
X9430Y-14230D01*
X9430Y-14240D01*
X9804Y-14240D01*
X10121Y-14240D01*
X10438Y-14240D01*
X10438Y-14288D01*
X10438Y-14336D01*
X10342Y-14336D01*
X10246Y-14336D01*
X10246Y-14457D01*
X10246Y-14578D01*
X10205Y-14615D01*
X10164Y-14652D01*
X10021Y-14653D01*
X9877Y-14653D01*
X9840Y-14617D01*
X9804Y-14582D01*
X9804Y-14411D01*
X9804Y-14240D01*
X9430Y-14240D01*
X9430Y-14341D01*
X9430Y-14451D01*
X9396Y-14451D01*
X9374Y-14450D01*
X9364Y-14441D01*
X9362Y-14422D01*
X9362Y-14394D01*
X9118Y-14394D01*
X8874Y-14394D01*
X8866Y-14458D01*
X8862Y-14494D01*
X8860Y-14522D01*
X8858Y-14537D01*
X8868Y-14548D01*
X8896Y-14559D01*
X8921Y-14566D01*
X8983Y-14582D01*
X8986Y-14627D01*
X8989Y-14672D01*
X8932Y-14672D01*
X8898Y-14671D01*
X8874Y-14665D01*
X8852Y-14651D01*
X8836Y-14638D01*
X8796Y-14603D01*
X8796Y-14487D01*
X8796Y-14370D01*
X8836Y-14329D01*
X8877Y-14288D01*
X9119Y-14288D01*
X9362Y-14288D01*
X9362Y-14259D01*
X9364Y-14240D01*
X9374Y-14232D01*
X9396Y-14230D01*
X7874Y-14230D01*
X7874Y-14845D01*
X9804Y-14845D01*
X9838Y-14845D01*
X9860Y-14846D01*
X9870Y-14855D01*
X9871Y-14876D01*
X9871Y-14878D01*
X9871Y-14912D01*
X10154Y-14912D01*
X10438Y-14912D01*
X10438Y-14989D01*
X10438Y-15066D01*
X10404Y-15066D01*
X10382Y-15064D01*
X10373Y-15056D01*
X10371Y-15037D01*
X10371Y-15008D01*
X10121Y-15008D01*
X9871Y-15008D01*
X9871Y-15037D01*
X9870Y-15056D01*
X9860Y-15064D01*
X9838Y-15066D01*
X9804Y-15066D01*
X9804Y-14955D01*
X9804Y-14845D01*
X7874Y-14845D01*
X7874Y-15258D01*
X9885Y-15258D01*
X10024Y-15258D01*
X10163Y-15258D01*
X10205Y-15298D01*
X10246Y-15339D01*
X10246Y-15468D01*
X10246Y-15598D01*
X10210Y-15634D01*
X10175Y-15671D01*
X10026Y-15671D01*
X9877Y-15671D01*
X9840Y-15635D01*
X9804Y-15600D01*
X9804Y-15470D01*
X9804Y-15340D01*
X9845Y-15299D01*
X9885Y-15258D01*
X7874Y-15258D01*
X7874Y-15373D01*
X8796Y-15373D01*
X8829Y-15373D01*
X8852Y-15374D01*
X8861Y-15383D01*
X8863Y-15404D01*
X8863Y-15407D01*
X8863Y-15440D01*
X9146Y-15440D01*
X9430Y-15440D01*
X9430Y-15517D01*
X9430Y-15594D01*
X9396Y-15594D01*
X9374Y-15592D01*
X9364Y-15584D01*
X9362Y-15565D01*
X9362Y-15536D01*
X9113Y-15536D01*
X8863Y-15536D01*
X8863Y-15565D01*
X8861Y-15584D01*
X8852Y-15593D01*
X8829Y-15594D01*
X8796Y-15594D01*
X8796Y-15483D01*
X8796Y-15373D01*
X7874Y-15373D01*
X7874Y-15767D01*
X9885Y-15767D01*
X9976Y-15767D01*
X10067Y-15767D01*
X10109Y-15807D01*
X10150Y-15847D01*
X10191Y-15807D01*
X10215Y-15785D01*
X10233Y-15773D01*
X10255Y-15768D01*
X10286Y-15767D01*
X10294Y-15767D01*
X10328Y-15767D01*
X10351Y-15772D01*
X10370Y-15782D01*
X10392Y-15802D01*
X10397Y-15807D01*
X10438Y-15847D01*
X10438Y-16014D01*
X10438Y-16180D01*
X10121Y-16180D01*
X9804Y-16180D01*
X9804Y-16014D01*
X9804Y-15849D01*
X9845Y-15808D01*
X9885Y-15767D01*
X7874Y-15767D01*
X7874Y-15786D01*
X8988Y-15786D01*
X9072Y-15786D01*
X9155Y-15786D01*
X9196Y-15826D01*
X9238Y-15867D01*
X9238Y-15996D01*
X9238Y-16126D01*
X9202Y-16162D01*
X9166Y-16199D01*
X9017Y-16199D01*
X8866Y-16199D01*
X8836Y-16158D01*
X8806Y-16117D01*
X8808Y-15964D01*
X8810Y-15812D01*
X8846Y-15799D01*
X8882Y-15787D01*
X8882Y-15935D01*
X8882Y-15991D01*
X8883Y-16032D01*
X8885Y-16060D01*
X8891Y-16077D01*
X8901Y-16087D01*
X8917Y-16092D01*
X8940Y-16097D01*
X8952Y-16099D01*
X8988Y-16105D01*
X8988Y-15945D01*
X8988Y-15786D01*
X7874Y-15786D01*
X7874Y-16391D01*
X8796Y-16391D01*
X8829Y-16391D01*
X8852Y-16392D01*
X8861Y-16401D01*
X8863Y-16422D01*
X8863Y-16424D01*
X8863Y-16458D01*
X9050Y-16458D01*
X9238Y-16458D01*
X9305Y-16458D01*
X9367Y-16458D01*
X9430Y-16458D01*
X9430Y-16506D01*
X9430Y-16554D01*
X9367Y-16554D01*
X9305Y-16554D01*
X9305Y-16506D01*
X9305Y-16458D01*
X9238Y-16458D01*
X9238Y-16535D01*
X9238Y-16612D01*
X9204Y-16612D01*
X9181Y-16610D01*
X9172Y-16602D01*
X9170Y-16583D01*
X9170Y-16554D01*
X9017Y-16554D01*
X8863Y-16554D01*
X8863Y-16583D01*
X8861Y-16602D01*
X8852Y-16610D01*
X8829Y-16612D01*
X8796Y-16612D01*
X8796Y-16501D01*
X8796Y-16391D01*
X7874Y-16391D01*
X7874Y-16785D01*
X10179Y-16785D01*
X10212Y-16785D01*
X10246Y-16785D01*
X10246Y-16794D01*
X14634Y-16794D01*
X15160Y-16794D01*
X15685Y-16794D01*
X15794Y-16902D01*
X15902Y-17010D01*
X15902Y-17197D01*
X19291Y-17197D01*
X19293Y-17305D01*
X19296Y-17413D01*
X19383Y-17413D01*
X19469Y-17413D01*
X19474Y-17339D01*
X19479Y-17263D01*
X19504Y-17290D01*
X19524Y-17315D01*
X19540Y-17339D01*
X19541Y-17341D01*
X19553Y-17364D01*
X19569Y-17336D01*
X19584Y-17308D01*
X19587Y-17363D01*
X19590Y-17418D01*
X19622Y-17418D01*
X19640Y-17419D01*
X19651Y-17426D01*
X19656Y-17442D01*
X19660Y-17469D01*
X19663Y-17506D01*
X19666Y-17540D01*
X19666Y-17553D01*
X19666Y-17586D01*
X19615Y-17586D01*
X19565Y-17586D01*
X19562Y-17646D01*
X19559Y-17706D01*
X19671Y-17706D01*
X19719Y-17706D01*
X19751Y-17705D01*
X19771Y-17703D01*
X19782Y-17698D01*
X19787Y-17691D01*
X19788Y-17687D01*
X19800Y-17672D01*
X19818Y-17668D01*
X19836Y-17676D01*
X19844Y-17687D01*
X19858Y-17707D01*
X19883Y-17724D01*
X19912Y-17734D01*
X19924Y-17735D01*
X19943Y-17729D01*
X19967Y-17714D01*
X19972Y-17710D01*
X19996Y-17680D01*
X20003Y-17647D01*
X19997Y-17614D01*
X19979Y-17586D01*
X19949Y-17567D01*
X19920Y-17562D01*
X19893Y-17568D01*
X19865Y-17583D01*
X19846Y-17602D01*
X19839Y-17620D01*
X19831Y-17627D01*
X19815Y-17629D01*
X19796Y-17624D01*
X19789Y-17608D01*
X19783Y-17593D01*
X19768Y-17587D01*
X19752Y-17586D01*
X19733Y-17586D01*
X19722Y-17580D01*
X19717Y-17565D01*
X19712Y-17536D01*
X19712Y-17534D01*
X19707Y-17497D01*
X19702Y-17463D01*
X19699Y-17449D01*
X19696Y-17429D01*
X19701Y-17420D01*
X19720Y-17418D01*
X19727Y-17418D01*
X19762Y-17418D01*
X19762Y-17322D01*
X19762Y-17226D01*
X19814Y-17226D01*
X19881Y-17233D01*
X19942Y-17256D01*
X19999Y-17294D01*
X20054Y-17350D01*
X20073Y-17374D01*
X20116Y-17436D01*
X20149Y-17493D01*
X20176Y-17553D01*
X20185Y-17580D01*
X20196Y-17623D01*
X20196Y-17631D01*
X21573Y-17631D01*
X21616Y-17632D01*
X21659Y-17633D01*
X21697Y-17636D01*
X21727Y-17638D01*
X21745Y-17642D01*
X21748Y-17643D01*
X21752Y-17652D01*
X21753Y-17658D01*
X21802Y-17658D01*
X21813Y-17662D01*
X21836Y-17672D01*
X21851Y-17679D01*
X21901Y-17710D01*
X21941Y-17749D01*
X21968Y-17793D01*
X21980Y-17838D01*
X21980Y-17844D01*
X21976Y-17862D01*
X21966Y-17889D01*
X21952Y-17920D01*
X21939Y-17947D01*
X21928Y-17963D01*
X21919Y-17966D01*
X21895Y-17971D01*
X21863Y-17979D01*
X21862Y-17979D01*
X21798Y-17992D01*
X21798Y-17825D01*
X21798Y-17771D01*
X21799Y-17724D01*
X21800Y-17688D01*
X21801Y-17665D01*
X21802Y-17658D01*
X21753Y-17658D01*
X21755Y-17674D01*
X21758Y-17711D01*
X21759Y-17764D01*
X21759Y-17826D01*
X21759Y-18003D01*
X21699Y-18030D01*
X21665Y-18045D01*
X21645Y-18051D01*
X21637Y-18048D01*
X21636Y-18046D01*
X21630Y-18040D01*
X21615Y-18037D01*
X21587Y-18034D01*
X21544Y-18033D01*
X21499Y-18033D01*
X21443Y-18034D01*
X21401Y-18035D01*
X21375Y-18039D01*
X21365Y-18043D01*
X21357Y-18049D01*
X21336Y-18052D01*
X21327Y-18052D01*
X21289Y-18052D01*
X21289Y-18090D01*
X21346Y-18090D01*
X21364Y-18095D01*
X21370Y-18100D01*
X21382Y-18104D01*
X21408Y-18108D01*
X21445Y-18109D01*
X21469Y-18110D01*
X21561Y-18110D01*
X21539Y-18133D01*
X21524Y-18146D01*
X21507Y-18153D01*
X21482Y-18158D01*
X21444Y-18160D01*
X21370Y-18162D01*
X21367Y-18198D01*
X21366Y-18222D01*
X21372Y-18232D01*
X21391Y-18234D01*
X21400Y-18234D01*
X21422Y-18236D01*
X21429Y-18240D01*
X21422Y-18250D01*
X21407Y-18264D01*
X21383Y-18283D01*
X21368Y-18293D01*
X21327Y-18322D01*
X21327Y-18206D01*
X21327Y-18158D01*
X21328Y-18125D01*
X21330Y-18105D01*
X21334Y-18095D01*
X21341Y-18091D01*
X21346Y-18090D01*
X21289Y-18090D01*
X21289Y-18199D01*
X21289Y-18346D01*
X21251Y-18377D01*
X21213Y-18408D01*
X21210Y-18357D01*
X21207Y-18306D01*
X21166Y-18304D01*
X21125Y-18301D01*
X21125Y-18227D01*
X21125Y-18153D01*
X21219Y-18060D01*
X21264Y-18016D01*
X21299Y-17986D01*
X21326Y-17969D01*
X21346Y-17964D01*
X21363Y-17969D01*
X21371Y-17976D01*
X21386Y-17980D01*
X21416Y-17982D01*
X21461Y-17983D01*
X21505Y-17983D01*
X21630Y-17980D01*
X21632Y-17944D01*
X21636Y-17908D01*
X21501Y-17908D01*
X21442Y-17909D01*
X21399Y-17911D01*
X21373Y-17914D01*
X21365Y-17918D01*
X21357Y-17924D01*
X21336Y-17926D01*
X21332Y-17926D01*
X21318Y-17926D01*
X21304Y-17929D01*
X21289Y-17938D01*
X21269Y-17954D01*
X21241Y-17980D01*
X21204Y-18017D01*
X21192Y-18028D01*
X21087Y-18133D01*
X21087Y-18217D01*
X21087Y-18301D01*
X21051Y-18304D01*
X21015Y-18306D01*
X21015Y-18383D01*
X21015Y-18460D01*
X21081Y-18465D01*
X21147Y-18470D01*
X21099Y-18524D01*
X21021Y-18618D01*
X20953Y-18713D01*
X20913Y-18776D01*
X20861Y-18862D01*
X20859Y-18655D01*
X20856Y-18449D01*
X20781Y-18378D01*
X20741Y-18339D01*
X20716Y-18310D01*
X20706Y-18291D01*
X20709Y-18279D01*
X20725Y-18274D01*
X20741Y-18273D01*
X20780Y-18273D01*
X20780Y-18196D01*
X20780Y-18119D01*
X20745Y-18119D01*
X20722Y-18119D01*
X20716Y-18115D01*
X20723Y-18105D01*
X20727Y-18100D01*
X20748Y-18085D01*
X20766Y-18081D01*
X20791Y-18073D01*
X20818Y-18053D01*
X20841Y-18026D01*
X20855Y-17999D01*
X20856Y-17988D01*
X20860Y-17971D01*
X20871Y-17952D01*
X20893Y-17926D01*
X20921Y-17898D01*
X20965Y-17856D01*
X20998Y-17825D01*
X21023Y-17803D01*
X21043Y-17790D01*
X21062Y-17781D01*
X21081Y-17777D01*
X21105Y-17775D01*
X21128Y-17774D01*
X21167Y-17771D01*
X21190Y-17768D01*
X21202Y-17763D01*
X21207Y-17755D01*
X21207Y-17745D01*
X21212Y-17726D01*
X21230Y-17718D01*
X21232Y-17718D01*
X21259Y-17723D01*
X21279Y-17745D01*
X21289Y-17782D01*
X21291Y-17793D01*
X21293Y-17836D01*
X21328Y-17833D01*
X21356Y-17834D01*
X21368Y-17843D01*
X21374Y-17848D01*
X21391Y-17851D01*
X21419Y-17853D01*
X21463Y-17853D01*
X21504Y-17852D01*
X21635Y-17850D01*
X21632Y-17814D01*
X21630Y-17778D01*
X21505Y-17776D01*
X21451Y-17775D01*
X21408Y-17777D01*
X21381Y-17780D01*
X21371Y-17783D01*
X21354Y-17792D01*
X21344Y-17793D01*
X21332Y-17788D01*
X21327Y-17769D01*
X21327Y-17762D01*
X21320Y-17735D01*
X21304Y-17708D01*
X21282Y-17686D01*
X21261Y-17677D01*
X21254Y-17674D01*
X21263Y-17670D01*
X21282Y-17663D01*
X21309Y-17656D01*
X21338Y-17649D01*
X21366Y-17645D01*
X21375Y-17644D01*
X21400Y-17643D01*
X21408Y-17644D01*
X21399Y-17647D01*
X21380Y-17654D01*
X21370Y-17669D01*
X21367Y-17690D01*
X21364Y-17726D01*
X21500Y-17726D01*
X21636Y-17726D01*
X21632Y-17690D01*
X21630Y-17654D01*
X21558Y-17651D01*
X21522Y-17648D01*
X21493Y-17644D01*
X21477Y-17638D01*
X21476Y-17638D01*
X21481Y-17634D01*
X21502Y-17632D01*
X21534Y-17631D01*
X21573Y-17631D01*
X20196Y-17631D01*
X20202Y-17680D01*
X20204Y-17743D01*
X20202Y-17807D01*
X20195Y-17866D01*
X20192Y-17884D01*
X20186Y-17922D01*
X20182Y-17970D01*
X20180Y-18018D01*
X20180Y-18025D01*
X20179Y-18066D01*
X20177Y-18093D01*
X20172Y-18111D01*
X20162Y-18126D01*
X20152Y-18137D01*
X20132Y-18156D01*
X20117Y-18160D01*
X20106Y-18157D01*
X20077Y-18151D01*
X20047Y-18160D01*
X20021Y-18180D01*
X20002Y-18208D01*
X19994Y-18240D01*
X19996Y-18257D01*
X20013Y-18291D01*
X20041Y-18312D01*
X20076Y-18321D01*
X20111Y-18316D01*
X20143Y-18296D01*
X20159Y-18277D01*
X20164Y-18257D01*
X20163Y-18230D01*
X20162Y-18199D01*
X20168Y-18180D01*
X20176Y-18171D01*
X20189Y-18162D01*
X20196Y-18166D01*
X20204Y-18183D01*
X20232Y-18254D01*
X20261Y-18309D01*
X20270Y-18323D01*
X20287Y-18346D01*
X20302Y-18355D01*
X20320Y-18354D01*
X20323Y-18353D01*
X20372Y-18340D01*
X20427Y-18319D01*
X20482Y-18293D01*
X20524Y-18270D01*
X20552Y-18252D01*
X20569Y-18244D01*
X20577Y-18245D01*
X20581Y-18254D01*
X20592Y-18268D01*
X20617Y-18274D01*
X20622Y-18275D01*
X20647Y-18278D01*
X20657Y-18286D01*
X20660Y-18305D01*
X20660Y-18311D01*
X20663Y-18336D01*
X20674Y-18347D01*
X20680Y-18348D01*
X20695Y-18356D01*
X20719Y-18375D01*
X20747Y-18400D01*
X20758Y-18410D01*
X20818Y-18469D01*
X20818Y-18664D01*
X20818Y-18730D01*
X20818Y-18779D01*
X20817Y-18813D01*
X20815Y-18837D01*
X20812Y-18850D01*
X20808Y-18856D01*
X20803Y-18859D01*
X20800Y-18859D01*
X20784Y-18852D01*
X20778Y-18832D01*
X20775Y-18806D01*
X20679Y-18806D01*
X20635Y-18806D01*
X20607Y-18807D01*
X20591Y-18810D01*
X20583Y-18816D01*
X20580Y-18825D01*
X20580Y-18829D01*
X20571Y-18851D01*
X20552Y-18872D01*
X20530Y-18887D01*
X20506Y-18896D01*
X20487Y-18897D01*
X20474Y-18887D01*
X20472Y-18878D01*
X20472Y-18869D01*
X20466Y-18864D01*
X20454Y-18861D01*
X20431Y-18860D01*
X20394Y-18860D01*
X20359Y-18861D01*
X20247Y-18864D01*
X20247Y-18921D01*
X20247Y-18979D01*
X20357Y-18979D01*
X20405Y-18979D01*
X20436Y-18978D01*
X20455Y-18975D01*
X20465Y-18971D01*
X20470Y-18964D01*
X20471Y-18957D01*
X20477Y-18942D01*
X20493Y-18936D01*
X20505Y-18936D01*
X20539Y-18928D01*
X20555Y-18915D01*
X20573Y-18895D01*
X20578Y-18922D01*
X20583Y-18950D01*
X20681Y-18953D01*
X20780Y-18955D01*
X20780Y-18926D01*
X20782Y-18906D01*
X20793Y-18898D01*
X20804Y-18897D01*
X20822Y-18901D01*
X20828Y-18908D01*
X20823Y-18921D01*
X20810Y-18946D01*
X20792Y-18977D01*
X20784Y-18990D01*
X20740Y-19060D01*
X20395Y-19060D01*
X20050Y-19060D01*
X20050Y-18972D01*
X20050Y-18883D01*
X19985Y-18818D01*
X19921Y-18753D01*
X19832Y-18753D01*
X19790Y-18753D01*
X19764Y-18751D01*
X19749Y-18748D01*
X19744Y-18742D01*
X19743Y-18734D01*
X19744Y-18726D01*
X19750Y-18721D01*
X19764Y-18717D01*
X19789Y-18715D01*
X19829Y-18713D01*
X19855Y-18713D01*
X19968Y-18710D01*
X19971Y-18542D01*
X19972Y-18486D01*
X19972Y-18435D01*
X19971Y-18393D01*
X19970Y-18364D01*
X19969Y-18352D01*
X19965Y-18343D01*
X19959Y-18337D01*
X19946Y-18333D01*
X19922Y-18331D01*
X19886Y-18331D01*
X19853Y-18331D01*
X19743Y-18331D01*
X19743Y-18217D01*
X19742Y-18168D01*
X19741Y-18135D01*
X19739Y-18113D01*
X19734Y-18099D01*
X19726Y-18088D01*
X19719Y-18081D01*
X19700Y-18054D01*
X19695Y-18032D01*
X19696Y-18015D01*
X19704Y-18007D01*
X19724Y-18003D01*
X19740Y-18002D01*
X19786Y-17999D01*
X19786Y-17942D01*
X19786Y-17884D01*
X19675Y-17884D01*
X19565Y-17884D01*
X19562Y-17930D01*
X19559Y-17975D01*
X19413Y-17975D01*
X19267Y-17975D01*
X19230Y-18013D01*
X19279Y-18013D01*
X19465Y-18016D01*
X19651Y-18018D01*
X19654Y-18049D01*
X19663Y-18077D01*
X19681Y-18101D01*
X19691Y-18112D01*
X19698Y-18124D01*
X19702Y-18142D01*
X19704Y-18169D01*
X19704Y-18210D01*
X19704Y-18227D01*
X19704Y-18331D01*
X19594Y-18331D01*
X19483Y-18331D01*
X19483Y-18523D01*
X19483Y-18715D01*
X19594Y-18715D01*
X19704Y-18715D01*
X19704Y-18753D01*
X19704Y-18792D01*
X19803Y-18792D01*
X19902Y-18792D01*
X19956Y-18847D01*
X20011Y-18902D01*
X20011Y-19099D01*
X20050Y-19099D01*
X20376Y-19099D01*
X20453Y-19099D01*
X20524Y-19100D01*
X20586Y-19101D01*
X20637Y-19102D01*
X20675Y-19104D01*
X20697Y-19105D01*
X20703Y-19107D01*
X20695Y-19121D01*
X20676Y-19140D01*
X20651Y-19158D01*
X20625Y-19172D01*
X20615Y-19175D01*
X20590Y-19184D01*
X20580Y-19201D01*
X20580Y-19202D01*
X20573Y-19221D01*
X20561Y-19221D01*
X20549Y-19209D01*
X20532Y-19199D01*
X20506Y-19195D01*
X20505Y-19195D01*
X20482Y-19193D01*
X20473Y-19184D01*
X20472Y-19175D01*
X20472Y-19167D01*
X20466Y-19162D01*
X20454Y-19159D01*
X20431Y-19157D01*
X20394Y-19158D01*
X20359Y-19159D01*
X20247Y-19161D01*
X20247Y-19219D01*
X20247Y-19233D01*
X20500Y-19233D01*
X20522Y-19239D01*
X20527Y-19244D01*
X20528Y-19252D01*
X20516Y-19268D01*
X20492Y-19291D01*
X20454Y-19324D01*
X20450Y-19327D01*
X20414Y-19358D01*
X20381Y-19387D01*
X20357Y-19410D01*
X20345Y-19422D01*
X20318Y-19441D01*
X20297Y-19444D01*
X20282Y-19447D01*
X20266Y-19454D01*
X20245Y-19469D01*
X20217Y-19494D01*
X20198Y-19513D01*
X20259Y-19513D01*
X20255Y-19520D01*
X20241Y-19537D01*
X20226Y-19555D01*
X20190Y-19596D01*
X20161Y-19626D01*
X20140Y-19646D01*
X20128Y-19652D01*
X20127Y-19650D01*
X20133Y-19640D01*
X20151Y-19620D01*
X20177Y-19593D01*
X20200Y-19569D01*
X20233Y-19538D01*
X20252Y-19519D01*
X20259Y-19513D01*
X20198Y-19513D01*
X20179Y-19531D01*
X20177Y-19533D01*
X20141Y-19570D01*
X20115Y-19598D01*
X20100Y-19617D01*
X20092Y-19634D01*
X20089Y-19649D01*
X20088Y-19656D01*
X20081Y-19692D01*
X20069Y-19709D01*
X20059Y-19717D01*
X20053Y-19717D01*
X20051Y-19706D01*
X20050Y-19680D01*
X20050Y-19660D01*
X20050Y-19593D01*
X20168Y-19476D01*
X20211Y-19433D01*
X20243Y-19403D01*
X20267Y-19382D01*
X20285Y-19368D01*
X20300Y-19361D01*
X20315Y-19357D01*
X20328Y-19356D01*
X20355Y-19354D01*
X20368Y-19347D01*
X20374Y-19331D01*
X20376Y-19316D01*
X20380Y-19292D01*
X20388Y-19281D01*
X20405Y-19278D01*
X20424Y-19277D01*
X20452Y-19275D01*
X20465Y-19269D01*
X20470Y-19257D01*
X20471Y-19255D01*
X20481Y-19238D01*
X20500Y-19233D01*
X20247Y-19233D01*
X20247Y-19276D01*
X20290Y-19277D01*
X20317Y-19279D01*
X20331Y-19285D01*
X20336Y-19298D01*
X20336Y-19299D01*
X20336Y-19313D01*
X20325Y-19319D01*
X20306Y-19320D01*
X20294Y-19321D01*
X20281Y-19326D01*
X20265Y-19336D01*
X20243Y-19353D01*
X20215Y-19380D01*
X20177Y-19417D01*
X20141Y-19453D01*
X20009Y-19585D01*
X20011Y-19672D01*
X20011Y-19715D01*
X20009Y-19743D01*
X20005Y-19763D01*
X19997Y-19777D01*
X19993Y-19781D01*
X19974Y-19804D01*
X19973Y-19668D01*
X19973Y-19618D01*
X19972Y-19574D01*
X19970Y-19540D01*
X19968Y-19520D01*
X19967Y-19517D01*
X19962Y-19511D01*
X19949Y-19506D01*
X19926Y-19503D01*
X19889Y-19502D01*
X19852Y-19502D01*
X19805Y-19502D01*
X19774Y-19501D01*
X19755Y-19498D01*
X19746Y-19494D01*
X19743Y-19487D01*
X19743Y-19483D01*
X19744Y-19474D01*
X19750Y-19469D01*
X19765Y-19465D01*
X19791Y-19464D01*
X19832Y-19464D01*
X19841Y-19464D01*
X19939Y-19464D01*
X19994Y-19409D01*
X20050Y-19354D01*
X20050Y-19226D01*
X20050Y-19099D01*
X20011Y-19099D01*
X20011Y-19119D01*
X20011Y-19335D01*
X19966Y-19380D01*
X19920Y-19424D01*
X19815Y-19427D01*
X19709Y-19430D01*
X19706Y-19466D01*
X19703Y-19502D01*
X19593Y-19502D01*
X19483Y-19502D01*
X19483Y-19588D01*
X19483Y-19675D01*
X19359Y-19675D01*
X19235Y-19675D01*
X19232Y-19591D01*
X19229Y-19507D01*
X18991Y-19507D01*
X18752Y-19507D01*
X18753Y-19694D01*
X18753Y-19881D01*
X18993Y-19884D01*
X19234Y-19887D01*
X19234Y-19800D01*
X19234Y-19713D01*
X19356Y-19715D01*
X19479Y-19718D01*
X19481Y-19802D01*
X19484Y-19886D01*
X19678Y-19888D01*
X19872Y-19891D01*
X19834Y-19917D01*
X19796Y-19944D01*
X19239Y-19944D01*
X18682Y-19944D01*
X18617Y-20008D01*
X18552Y-20073D01*
X18552Y-20582D01*
X18552Y-21091D01*
X18433Y-21211D01*
X18315Y-21331D01*
X18157Y-21331D01*
X18000Y-21331D01*
X18000Y-21360D01*
X18000Y-21389D01*
X18109Y-21392D01*
X18160Y-21392D01*
X18199Y-21391D01*
X18223Y-21387D01*
X18229Y-21385D01*
X18244Y-21378D01*
X18270Y-21375D01*
X18282Y-21374D01*
X18298Y-21374D01*
X18311Y-21372D01*
X18325Y-21366D01*
X18342Y-21355D01*
X18363Y-21336D01*
X18392Y-21308D01*
X18431Y-21270D01*
X18458Y-21243D01*
X18590Y-21111D01*
X18590Y-20602D01*
X18590Y-20093D01*
X18645Y-20038D01*
X18700Y-19982D01*
X19213Y-19982D01*
X19725Y-19982D01*
X19679Y-20019D01*
X19651Y-20043D01*
X19626Y-20065D01*
X19614Y-20077D01*
X19599Y-20089D01*
X19578Y-20095D01*
X19545Y-20097D01*
X19540Y-20097D01*
X19483Y-20097D01*
X19483Y-20290D01*
X19483Y-20481D01*
X19527Y-20481D01*
X19570Y-20481D01*
X19570Y-20520D01*
X19568Y-20544D01*
X19562Y-20557D01*
X19560Y-20558D01*
X19555Y-20567D01*
X19551Y-20589D01*
X19551Y-20602D01*
X19551Y-20645D01*
X19513Y-20645D01*
X19487Y-20647D01*
X19471Y-20652D01*
X19470Y-20653D01*
X19467Y-20666D01*
X19465Y-20683D01*
X19523Y-20683D01*
X19536Y-20685D01*
X19540Y-20695D01*
X19537Y-20718D01*
X19536Y-20719D01*
X19530Y-20744D01*
X19523Y-20759D01*
X19522Y-20760D01*
X19515Y-20772D01*
X19510Y-20795D01*
X19510Y-20799D01*
X19508Y-20805D01*
X19506Y-20796D01*
X19504Y-20771D01*
X19504Y-20758D01*
X19504Y-20720D01*
X19505Y-20698D01*
X19509Y-20687D01*
X19517Y-20683D01*
X19523Y-20683D01*
X19465Y-20683D01*
X19464Y-20693D01*
X19460Y-20731D01*
X19458Y-20759D01*
X19452Y-20856D01*
X19477Y-20856D01*
X19496Y-20860D01*
X19502Y-20873D01*
X19502Y-20880D01*
X19502Y-20904D01*
X19402Y-20904D01*
X19301Y-20904D01*
X19301Y-21067D01*
X19301Y-21230D01*
X19379Y-21230D01*
X19458Y-21230D01*
X19451Y-21343D01*
X19449Y-21386D01*
X19447Y-21443D01*
X19444Y-21510D01*
X19442Y-21584D01*
X19440Y-21660D01*
X19439Y-21703D01*
X19436Y-21782D01*
X19434Y-21843D01*
X19432Y-21889D01*
X19429Y-21921D01*
X19426Y-21942D01*
X19422Y-21953D01*
X19419Y-21955D01*
X19416Y-21953D01*
X19413Y-21945D01*
X19411Y-21927D01*
X19409Y-21900D01*
X19408Y-21860D01*
X19407Y-21806D01*
X19407Y-21737D01*
X19407Y-21651D01*
X19407Y-21619D01*
X19407Y-21279D01*
X19383Y-21279D01*
X19358Y-21279D01*
X19358Y-21623D01*
X19359Y-21715D01*
X19359Y-21790D01*
X19360Y-21849D01*
X19361Y-21895D01*
X19362Y-21928D01*
X19364Y-21952D01*
X19367Y-21967D01*
X19370Y-21976D01*
X19373Y-21979D01*
X19377Y-21985D01*
X19379Y-21995D01*
X19382Y-22012D01*
X19384Y-22037D01*
X19385Y-22072D01*
X19386Y-22119D01*
X19387Y-22179D01*
X19387Y-22255D01*
X19387Y-22348D01*
X19387Y-22381D01*
X19387Y-22771D01*
X19411Y-22795D01*
X19418Y-22804D01*
X19424Y-22814D01*
X19429Y-22827D01*
X19432Y-22847D01*
X19435Y-22876D01*
X19437Y-22917D01*
X19439Y-22973D01*
X19441Y-23021D01*
X19447Y-23223D01*
X19398Y-23175D01*
X19349Y-23128D01*
X19349Y-22570D01*
X19349Y-22452D01*
X19349Y-22352D01*
X19349Y-22269D01*
X19348Y-22200D01*
X19348Y-22144D01*
X19347Y-22100D01*
X19346Y-22066D01*
X19344Y-22041D01*
X19342Y-22023D01*
X19340Y-22011D01*
X19337Y-22003D01*
X19333Y-21998D01*
X19330Y-21994D01*
X19320Y-21981D01*
X19314Y-21964D01*
X19311Y-21936D01*
X19311Y-21903D01*
X19311Y-21830D01*
X19195Y-21716D01*
X19080Y-21601D01*
X19080Y-21282D01*
X19080Y-21195D01*
X19080Y-21126D01*
X19081Y-21072D01*
X19082Y-21031D01*
X19083Y-21002D01*
X19085Y-20982D01*
X19088Y-20969D01*
X19091Y-20962D01*
X19095Y-20958D01*
X19099Y-20957D01*
X19119Y-20943D01*
X19136Y-20917D01*
X19146Y-20888D01*
X19147Y-20876D01*
X19142Y-20857D01*
X19127Y-20833D01*
X19122Y-20828D01*
X19093Y-20805D01*
X19059Y-20797D01*
X19026Y-20803D01*
X18998Y-20822D01*
X18979Y-20852D01*
X18974Y-20881D01*
X18978Y-20908D01*
X18992Y-20931D01*
X19008Y-20948D01*
X19042Y-20979D01*
X19042Y-21300D01*
X19042Y-21620D01*
X19157Y-21735D01*
X19272Y-21849D01*
X19272Y-21922D01*
X19273Y-21960D01*
X19276Y-21984D01*
X19282Y-21998D01*
X19291Y-22006D01*
X19295Y-22009D01*
X19299Y-22013D01*
X19302Y-22021D01*
X19304Y-22032D01*
X19306Y-22050D01*
X19307Y-22075D01*
X19309Y-22108D01*
X19309Y-22153D01*
X19310Y-22208D01*
X19310Y-22277D01*
X19311Y-22361D01*
X19311Y-22461D01*
X19311Y-22579D01*
X19311Y-22582D01*
X19311Y-23147D01*
X19383Y-23218D01*
X19415Y-23252D01*
X19436Y-23275D01*
X19448Y-23294D01*
X19453Y-23310D01*
X19455Y-23326D01*
X19457Y-23349D01*
X19462Y-23362D01*
X19463Y-23362D01*
X19466Y-23371D01*
X19470Y-23395D01*
X19474Y-23430D01*
X19477Y-23472D01*
X19479Y-23516D01*
X19481Y-23559D01*
X19482Y-23596D01*
X19482Y-23624D01*
X19480Y-23638D01*
X19480Y-23638D01*
X19470Y-23636D01*
X19452Y-23623D01*
X19442Y-23614D01*
X19411Y-23590D01*
X19380Y-23583D01*
X19358Y-23581D01*
X19349Y-23570D01*
X19349Y-23564D01*
X19346Y-23553D01*
X19333Y-23546D01*
X19305Y-23543D01*
X19303Y-23543D01*
X19275Y-23540D01*
X19261Y-23534D01*
X19255Y-23521D01*
X19254Y-23517D01*
X19256Y-23495D01*
X19262Y-23484D01*
X19264Y-23474D01*
X19266Y-23450D01*
X19267Y-23411D01*
X19269Y-23356D01*
X19270Y-23284D01*
X19271Y-23196D01*
X19271Y-23090D01*
X19272Y-22966D01*
X19272Y-22824D01*
X19272Y-22758D01*
X19272Y-22042D01*
X19157Y-21927D01*
X19115Y-21885D01*
X19084Y-21853D01*
X19063Y-21829D01*
X19050Y-21811D01*
X19044Y-21795D01*
X19040Y-21781D01*
X19040Y-21774D01*
X19037Y-21749D01*
X19029Y-21737D01*
X19012Y-21733D01*
X18996Y-21732D01*
X18955Y-21729D01*
X18955Y-21686D01*
X18954Y-21659D01*
X18948Y-21647D01*
X18937Y-21643D01*
X18936Y-21643D01*
X18926Y-21641D01*
X18920Y-21633D01*
X18917Y-21613D01*
X18917Y-21581D01*
X18917Y-21547D01*
X18920Y-21529D01*
X18926Y-21520D01*
X18936Y-21518D01*
X18944Y-21517D01*
X18950Y-21512D01*
X18953Y-21498D01*
X18955Y-21474D01*
X18955Y-21435D01*
X18955Y-21408D01*
X18955Y-21361D01*
X18954Y-21329D01*
X18952Y-21310D01*
X18947Y-21301D01*
X18941Y-21298D01*
X18936Y-21298D01*
X18923Y-21295D01*
X18918Y-21281D01*
X18917Y-21259D01*
X18917Y-21239D01*
X18917Y-21203D01*
X18917Y-21154D01*
X18917Y-21095D01*
X18916Y-21029D01*
X18916Y-20980D01*
X18916Y-20740D01*
X18945Y-20712D01*
X18966Y-20688D01*
X18974Y-20661D01*
X18974Y-20647D01*
X18966Y-20610D01*
X18945Y-20583D01*
X18915Y-20567D01*
X18881Y-20564D01*
X18847Y-20577D01*
X18835Y-20587D01*
X18811Y-20610D01*
X18758Y-20558D01*
X18706Y-20506D01*
X18706Y-20294D01*
X18706Y-20217D01*
X18707Y-20158D01*
X18709Y-20115D01*
X18712Y-20087D01*
X18716Y-20072D01*
X18717Y-20071D01*
X18727Y-20067D01*
X18749Y-20064D01*
X18785Y-20062D01*
X18835Y-20060D01*
X18902Y-20059D01*
X18987Y-20059D01*
X18990Y-20059D01*
X19252Y-20059D01*
X19305Y-20108D01*
X19358Y-20157D01*
X19358Y-20507D01*
X19358Y-20856D01*
X19383Y-20856D01*
X19407Y-20856D01*
X19407Y-20508D01*
X19407Y-20160D01*
X19337Y-20090D01*
X19268Y-20020D01*
X18989Y-20020D01*
X18711Y-20020D01*
X18689Y-20046D01*
X18682Y-20055D01*
X18677Y-20064D01*
X18673Y-20077D01*
X18670Y-20096D01*
X18669Y-20122D01*
X18668Y-20160D01*
X18667Y-20212D01*
X18667Y-20280D01*
X18667Y-20298D01*
X18667Y-20525D01*
X18739Y-20597D01*
X18769Y-20627D01*
X18793Y-20654D01*
X18808Y-20673D01*
X18811Y-20680D01*
X18818Y-20693D01*
X18835Y-20710D01*
X18839Y-20714D01*
X18867Y-20736D01*
X18870Y-21017D01*
X18871Y-21097D01*
X18872Y-21161D01*
X18872Y-21209D01*
X18871Y-21245D01*
X18870Y-21269D01*
X18868Y-21285D01*
X18865Y-21294D01*
X18861Y-21298D01*
X18855Y-21300D01*
X18854Y-21300D01*
X18846Y-21302D01*
X18840Y-21309D01*
X18837Y-21324D01*
X18836Y-21350D01*
X18835Y-21391D01*
X18835Y-21408D01*
X18835Y-21455D01*
X18836Y-21485D01*
X18839Y-21503D01*
X18844Y-21512D01*
X18851Y-21516D01*
X18857Y-21517D01*
X18869Y-21520D01*
X18875Y-21530D01*
X18878Y-21550D01*
X18878Y-21577D01*
X18878Y-21610D01*
X18874Y-21628D01*
X18866Y-21638D01*
X18854Y-21643D01*
X18843Y-21648D01*
X18836Y-21655D01*
X18833Y-21667D01*
X18831Y-21689D01*
X18832Y-21724D01*
X18832Y-21756D01*
X18835Y-21860D01*
X18895Y-21862D01*
X18954Y-21865D01*
X18957Y-21819D01*
X18960Y-21791D01*
X18966Y-21777D01*
X18977Y-21773D01*
X18979Y-21773D01*
X18994Y-21778D01*
X18998Y-21796D01*
X18998Y-21799D01*
X19001Y-21812D01*
X19011Y-21829D01*
X19029Y-21852D01*
X19057Y-21883D01*
X19097Y-21925D01*
X19116Y-21943D01*
X19234Y-22061D01*
X19234Y-22759D01*
X19234Y-22908D01*
X19233Y-23040D01*
X19233Y-23154D01*
X19232Y-23252D01*
X19231Y-23330D01*
X19229Y-23392D01*
X19227Y-23434D01*
X19226Y-23458D01*
X19224Y-23463D01*
X19218Y-23476D01*
X19215Y-23500D01*
X19214Y-23507D01*
X19214Y-23545D01*
X19171Y-23545D01*
X19128Y-23545D01*
X19128Y-23608D01*
X19128Y-23670D01*
X19236Y-23667D01*
X19283Y-23666D01*
X19314Y-23664D01*
X19333Y-23661D01*
X19342Y-23657D01*
X19346Y-23649D01*
X19347Y-23643D01*
X19356Y-23626D01*
X19375Y-23622D01*
X19399Y-23632D01*
X19421Y-23650D01*
X19449Y-23672D01*
X19474Y-23679D01*
X19486Y-23680D01*
X19494Y-23684D01*
X19499Y-23696D01*
X19502Y-23719D01*
X19505Y-23757D01*
X19506Y-23767D01*
X19509Y-23813D01*
X19511Y-23858D01*
X19512Y-23894D01*
X19512Y-23901D01*
X19514Y-23928D01*
X19518Y-23945D01*
X19521Y-23948D01*
X19526Y-23957D01*
X19531Y-23980D01*
X19536Y-24012D01*
X19536Y-24013D01*
X19540Y-24049D01*
X19544Y-24081D01*
X19548Y-24099D01*
X19549Y-24109D01*
X19546Y-24115D01*
X19535Y-24119D01*
X19513Y-24120D01*
X19475Y-24121D01*
X19458Y-24121D01*
X19364Y-24121D01*
X19308Y-24066D01*
X19277Y-24032D01*
X19258Y-24005D01*
X19253Y-23990D01*
X19255Y-23977D01*
X19266Y-23969D01*
X19290Y-23966D01*
X19299Y-23965D01*
X19344Y-23962D01*
X19347Y-23902D01*
X19350Y-23842D01*
X19239Y-23842D01*
X19127Y-23842D01*
X19130Y-23902D01*
X19133Y-23962D01*
X19174Y-23965D01*
X19199Y-23968D01*
X19211Y-23975D01*
X19214Y-23990D01*
X19214Y-23999D01*
X19217Y-24016D01*
X19226Y-24035D01*
X19246Y-24059D01*
X19276Y-24091D01*
X19279Y-24094D01*
X19344Y-24159D01*
X19399Y-24159D01*
X19455Y-24159D01*
X19455Y-24287D01*
X19455Y-24414D01*
X19399Y-24469D01*
X19344Y-24524D01*
X19234Y-24526D01*
X19123Y-24529D01*
X19120Y-24565D01*
X19114Y-24592D01*
X19103Y-24601D01*
X19096Y-24604D01*
X19092Y-24617D01*
X19091Y-24642D01*
X19092Y-24675D01*
X19095Y-24750D01*
X19138Y-24750D01*
X19181Y-24750D01*
X19184Y-24675D01*
X19184Y-24637D01*
X19183Y-24614D01*
X19179Y-24604D01*
X19172Y-24601D01*
X19160Y-24593D01*
X19157Y-24582D01*
X19158Y-24573D01*
X19164Y-24568D01*
X19178Y-24565D01*
X19204Y-24563D01*
X19244Y-24563D01*
X19260Y-24563D01*
X19363Y-24563D01*
X19428Y-24498D01*
X19493Y-24433D01*
X19493Y-24296D01*
X19493Y-24159D01*
X19522Y-24159D01*
X19545Y-24164D01*
X19551Y-24174D01*
X19555Y-24187D01*
X19559Y-24188D01*
X19564Y-24197D01*
X19568Y-24221D01*
X19572Y-24256D01*
X19574Y-24284D01*
X19578Y-24324D01*
X19583Y-24356D01*
X19587Y-24376D01*
X19590Y-24380D01*
X19596Y-24389D01*
X19598Y-24410D01*
X19599Y-24419D01*
X19598Y-24443D01*
X19591Y-24454D01*
X19577Y-24457D01*
X19572Y-24457D01*
X19549Y-24464D01*
X19519Y-24484D01*
X19500Y-24502D01*
X19455Y-24548D01*
X19455Y-24715D01*
X19455Y-24882D01*
X19390Y-24949D01*
X19324Y-25015D01*
X19095Y-25014D01*
X18865Y-25013D01*
X18809Y-25068D01*
X18753Y-25124D01*
X18753Y-25189D01*
X18753Y-25224D01*
X18749Y-25246D01*
X18741Y-25263D01*
X18725Y-25280D01*
X18719Y-25285D01*
X18690Y-25307D01*
X18658Y-25318D01*
X18635Y-25321D01*
X18606Y-25324D01*
X18591Y-25330D01*
X18585Y-25342D01*
X18583Y-25362D01*
X18580Y-25384D01*
X18573Y-25395D01*
X18555Y-25398D01*
X18537Y-25398D01*
X18494Y-25398D01*
X18494Y-25460D01*
X18494Y-25523D01*
X18605Y-25523D01*
X18716Y-25523D01*
X18713Y-25463D01*
X18710Y-25403D01*
X18664Y-25400D01*
X18636Y-25397D01*
X18623Y-25391D01*
X18621Y-25381D01*
X18621Y-25381D01*
X18631Y-25368D01*
X18657Y-25362D01*
X18662Y-25361D01*
X18688Y-25356D01*
X18712Y-25344D01*
X18740Y-25320D01*
X18746Y-25314D01*
X18771Y-25289D01*
X18784Y-25271D01*
X18790Y-25251D01*
X18792Y-25222D01*
X18792Y-25207D01*
X18793Y-25172D01*
X18797Y-25149D01*
X18807Y-25131D01*
X18827Y-25109D01*
X18832Y-25103D01*
X18873Y-25062D01*
X19087Y-25062D01*
X19156Y-25062D01*
X19209Y-25062D01*
X19247Y-25063D01*
X19273Y-25065D01*
X19288Y-25067D01*
X19297Y-25070D01*
X19300Y-25075D01*
X19301Y-25081D01*
X19295Y-25097D01*
X19286Y-25100D01*
X19279Y-25104D01*
X19275Y-25118D01*
X19273Y-25144D01*
X19272Y-25173D01*
X19272Y-25245D01*
X19322Y-25242D01*
X19373Y-25240D01*
X19376Y-25175D01*
X19377Y-25138D01*
X19374Y-25117D01*
X19368Y-25106D01*
X19364Y-25104D01*
X19352Y-25090D01*
X19349Y-25068D01*
X19351Y-25051D01*
X19360Y-25034D01*
X19377Y-25012D01*
X19405Y-24981D01*
X19421Y-24966D01*
X19493Y-24894D01*
X19493Y-24730D01*
X19493Y-24567D01*
X19530Y-24530D01*
X19557Y-24508D01*
X19579Y-24497D01*
X19585Y-24497D01*
X19600Y-24506D01*
X19606Y-24522D01*
X19605Y-24537D01*
X19595Y-24543D01*
X19594Y-24543D01*
X19589Y-24545D01*
X19585Y-24552D01*
X19583Y-24567D01*
X19581Y-24592D01*
X19581Y-24629D01*
X19581Y-24682D01*
X19582Y-24733D01*
X19584Y-24923D01*
X19610Y-24926D01*
X19625Y-24930D01*
X19636Y-24940D01*
X19642Y-24961D01*
X19646Y-24994D01*
X19647Y-25043D01*
X19647Y-25045D01*
X19648Y-25082D01*
X19651Y-25108D01*
X19655Y-25119D01*
X19656Y-25119D01*
X19661Y-25128D01*
X19665Y-25152D01*
X19666Y-25187D01*
X19666Y-25254D01*
X19637Y-25254D01*
X19608Y-25254D01*
X19610Y-25362D01*
X19613Y-25470D01*
X19639Y-25473D01*
X19656Y-25477D01*
X19663Y-25486D01*
X19666Y-25507D01*
X19666Y-25519D01*
X19664Y-25544D01*
X19660Y-25559D01*
X19658Y-25561D01*
X19653Y-25570D01*
X19647Y-25593D01*
X19640Y-25627D01*
X19638Y-25638D01*
X19631Y-25674D01*
X19624Y-25700D01*
X19619Y-25714D01*
X19617Y-25715D01*
X19610Y-25723D01*
X19604Y-25743D01*
X19603Y-25746D01*
X19596Y-25770D01*
X19585Y-25786D01*
X19566Y-25796D01*
X19535Y-25800D01*
X19489Y-25801D01*
X19485Y-25801D01*
X19400Y-25801D01*
X19296Y-25908D01*
X19255Y-25949D01*
X19221Y-25981D01*
X19196Y-26001D01*
X19181Y-26009D01*
X19180Y-26009D01*
X19172Y-25998D01*
X19167Y-25973D01*
X19167Y-25941D01*
X19167Y-25878D01*
X19023Y-25878D01*
X18878Y-25878D01*
X18878Y-26027D01*
X18878Y-26176D01*
X19023Y-26176D01*
X19167Y-26176D01*
X19167Y-26114D01*
X19167Y-26052D01*
X19207Y-26049D01*
X19235Y-26045D01*
X19248Y-26036D01*
X19251Y-26027D01*
X19259Y-26013D01*
X19278Y-25989D01*
X19305Y-25958D01*
X19337Y-25924D01*
X19338Y-25924D01*
X19421Y-25840D01*
X19486Y-25840D01*
X19521Y-25840D01*
X19541Y-25843D01*
X19549Y-25848D01*
X19549Y-25856D01*
X19536Y-25870D01*
X19505Y-25880D01*
X19502Y-25881D01*
X19451Y-25899D01*
X19411Y-25929D01*
X19383Y-25969D01*
X19370Y-26016D01*
X19371Y-26044D01*
X19371Y-26071D01*
X19362Y-26094D01*
X19341Y-26117D01*
X19305Y-26145D01*
X19303Y-26146D01*
X19274Y-26168D01*
X19244Y-26193D01*
X19241Y-26196D01*
X19210Y-26224D01*
X18830Y-26224D01*
X18449Y-26224D01*
X18361Y-26137D01*
X18274Y-26050D01*
X18274Y-25519D01*
X18274Y-25404D01*
X18273Y-25307D01*
X18273Y-25227D01*
X18273Y-25160D01*
X18272Y-25107D01*
X18271Y-25066D01*
X18270Y-25034D01*
X18268Y-25011D01*
X18266Y-24995D01*
X18263Y-24984D01*
X18260Y-24977D01*
X18257Y-24973D01*
X18256Y-24972D01*
X18241Y-24964D01*
X18214Y-24957D01*
X18173Y-24953D01*
X18136Y-24950D01*
X18033Y-24944D01*
X18033Y-24969D01*
X18033Y-24994D01*
X18132Y-24997D01*
X18230Y-25000D01*
X18233Y-25532D01*
X18235Y-26065D01*
X18333Y-26164D01*
X18432Y-26262D01*
X18782Y-26262D01*
X19133Y-26263D01*
X19095Y-26281D01*
X19069Y-26293D01*
X19049Y-26300D01*
X19045Y-26300D01*
X19032Y-26308D01*
X19030Y-26313D01*
X19019Y-26316D01*
X18992Y-26318D01*
X18950Y-26321D01*
X18896Y-26323D01*
X18831Y-26325D01*
X18759Y-26326D01*
X18680Y-26328D01*
X18599Y-26328D01*
X18516Y-26329D01*
X18434Y-26329D01*
X18355Y-26328D01*
X18282Y-26328D01*
X18217Y-26326D01*
X18162Y-26325D01*
X18119Y-26323D01*
X18091Y-26320D01*
X18080Y-26317D01*
X18064Y-26307D01*
X18037Y-26293D01*
X18012Y-26282D01*
X17981Y-26269D01*
X17958Y-26256D01*
X17949Y-26249D01*
X17937Y-26239D01*
X17914Y-26225D01*
X17898Y-26217D01*
X17866Y-26199D01*
X17837Y-26179D01*
X17828Y-26171D01*
X17806Y-26153D01*
X17787Y-26139D01*
X17786Y-26139D01*
X17777Y-26131D01*
X17778Y-26122D01*
X17792Y-26105D01*
X17796Y-26101D01*
X17822Y-26074D01*
X17822Y-25917D01*
X17822Y-25759D01*
X17853Y-25734D01*
X17874Y-25713D01*
X17883Y-25690D01*
X17884Y-25667D01*
X17876Y-25628D01*
X17856Y-25600D01*
X17827Y-25584D01*
X17793Y-25582D01*
X17759Y-25596D01*
X17745Y-25609D01*
X17721Y-25642D01*
X17717Y-25675D01*
X17731Y-25709D01*
X17750Y-25730D01*
X17784Y-25762D01*
X17784Y-25908D01*
X17784Y-25966D01*
X17782Y-26008D01*
X17780Y-26037D01*
X17777Y-26056D01*
X17771Y-26068D01*
X17768Y-26072D01*
X17753Y-26085D01*
X17744Y-26089D01*
X17726Y-26081D01*
X17706Y-26061D01*
X17690Y-26035D01*
X17683Y-26013D01*
X17666Y-25961D01*
X17634Y-25920D01*
X17603Y-25898D01*
X17578Y-25883D01*
X17562Y-25868D01*
X17559Y-25863D01*
X17557Y-25847D01*
X17555Y-25817D01*
X17553Y-25779D01*
X17553Y-25764D01*
X17553Y-25681D01*
X17496Y-25624D01*
X17469Y-25596D01*
X17449Y-25573D01*
X17439Y-25557D01*
X17438Y-25554D01*
X17433Y-25543D01*
X17429Y-25542D01*
X17424Y-25533D01*
X17419Y-25510D01*
X17415Y-25477D01*
X17414Y-25468D01*
X17409Y-25432D01*
X17405Y-25404D01*
X17400Y-25389D01*
X17399Y-25388D01*
X17397Y-25378D01*
X17394Y-25351D01*
X17391Y-25310D01*
X17389Y-25258D01*
X17386Y-25197D01*
X17385Y-25151D01*
X17382Y-25086D01*
X17380Y-25028D01*
X17377Y-24980D01*
X17374Y-24944D01*
X17371Y-24923D01*
X17370Y-24918D01*
X17362Y-24911D01*
X17361Y-24908D01*
X17370Y-24904D01*
X17397Y-24901D01*
X17439Y-24899D01*
X17486Y-24899D01*
X17611Y-24899D01*
X17611Y-24873D01*
X17611Y-24848D01*
X17502Y-24854D01*
X17457Y-24856D01*
X17418Y-24857D01*
X17389Y-24856D01*
X17377Y-24855D01*
X17367Y-24845D01*
X17362Y-24824D01*
X17361Y-24800D01*
X17361Y-24751D01*
X17385Y-24774D01*
X17398Y-24784D01*
X17414Y-24791D01*
X17436Y-24796D01*
X17469Y-24798D01*
X17510Y-24800D01*
X17611Y-24804D01*
X17611Y-24779D01*
X17611Y-24755D01*
X17518Y-24755D01*
X17475Y-24754D01*
X17446Y-24753D01*
X17427Y-24749D01*
X17412Y-24741D01*
X17398Y-24729D01*
X17393Y-24724D01*
X17377Y-24708D01*
X17368Y-24693D01*
X17363Y-24675D01*
X17362Y-24647D01*
X17361Y-24614D01*
X17362Y-24574D01*
X17365Y-24547D01*
X17370Y-24534D01*
X17371Y-24534D01*
X17375Y-24525D01*
X17378Y-24498D01*
X17380Y-24457D01*
X17381Y-24414D01*
X17380Y-24362D01*
X17378Y-24323D01*
X17374Y-24300D01*
X17371Y-24294D01*
X17365Y-24285D01*
X17362Y-24264D01*
X17361Y-24251D01*
X17363Y-24225D01*
X17368Y-24209D01*
X17371Y-24207D01*
X17376Y-24198D01*
X17379Y-24174D01*
X17381Y-24138D01*
X17381Y-24132D01*
X17383Y-24079D01*
X17392Y-24042D01*
X17410Y-24019D01*
X17436Y-24008D01*
X17462Y-24006D01*
X17489Y-24007D01*
X17503Y-24015D01*
X17508Y-24025D01*
X17512Y-24033D01*
X17520Y-24039D01*
X17535Y-24042D01*
X17562Y-24043D01*
X17604Y-24044D01*
X17620Y-24044D01*
X17666Y-24044D01*
X17697Y-24043D01*
X17715Y-24040D01*
X17723Y-24036D01*
X17726Y-24029D01*
X17726Y-24025D01*
X17730Y-24011D01*
X17745Y-24006D01*
X17759Y-24006D01*
X17779Y-24003D01*
X17799Y-23993D01*
X17822Y-23974D01*
X17841Y-23955D01*
X17889Y-23905D01*
X17889Y-23329D01*
X17889Y-22753D01*
X17772Y-22635D01*
X17654Y-22517D01*
X17654Y-22371D01*
X17654Y-22224D01*
X17627Y-22221D01*
X17599Y-22218D01*
X17603Y-22368D01*
X17608Y-22519D01*
X17724Y-22636D01*
X17841Y-22753D01*
X17841Y-23328D01*
X17841Y-23904D01*
X17811Y-23936D01*
X17785Y-23956D01*
X17760Y-23967D01*
X17739Y-23967D01*
X17727Y-23956D01*
X17726Y-23948D01*
X17725Y-23940D01*
X17719Y-23934D01*
X17705Y-23931D01*
X17680Y-23929D01*
X17641Y-23929D01*
X17620Y-23929D01*
X17573Y-23929D01*
X17542Y-23930D01*
X17523Y-23933D01*
X17514Y-23938D01*
X17509Y-23945D01*
X17508Y-23948D01*
X17502Y-23960D01*
X17486Y-23966D01*
X17458Y-23967D01*
X17429Y-23970D01*
X17407Y-23975D01*
X17402Y-23979D01*
X17394Y-23983D01*
X17390Y-23971D01*
X17390Y-23960D01*
X17392Y-23939D01*
X17398Y-23929D01*
X17398Y-23929D01*
X17403Y-23920D01*
X17409Y-23897D01*
X17413Y-23864D01*
X17414Y-23859D01*
X17418Y-23824D01*
X17422Y-23807D01*
X17426Y-23805D01*
X17429Y-23811D01*
X17440Y-23827D01*
X17462Y-23833D01*
X17470Y-23833D01*
X17495Y-23836D01*
X17507Y-23848D01*
X17508Y-23852D01*
X17512Y-23861D01*
X17520Y-23866D01*
X17536Y-23869D01*
X17563Y-23871D01*
X17606Y-23871D01*
X17616Y-23871D01*
X17661Y-23871D01*
X17692Y-23870D01*
X17709Y-23867D01*
X17719Y-23862D01*
X17723Y-23854D01*
X17723Y-23852D01*
X17734Y-23838D01*
X17759Y-23831D01*
X17763Y-23831D01*
X17798Y-23828D01*
X17801Y-23305D01*
X17803Y-22782D01*
X17678Y-22657D01*
X17553Y-22531D01*
X17563Y-22378D01*
X17567Y-22324D01*
X17571Y-22276D01*
X17574Y-22236D01*
X17577Y-22210D01*
X17578Y-22203D01*
X17582Y-22181D01*
X18064Y-22181D01*
X18177Y-22181D01*
X18272Y-22181D01*
X18350Y-22182D01*
X18415Y-22182D01*
X18466Y-22184D01*
X18505Y-22187D01*
X18534Y-22190D01*
X18555Y-22194D01*
X18568Y-22200D01*
X18576Y-22207D01*
X18580Y-22216D01*
X18581Y-22227D01*
X18581Y-22240D01*
X18581Y-22240D01*
X18581Y-22267D01*
X18465Y-22267D01*
X18350Y-22267D01*
X18350Y-22455D01*
X18350Y-22643D01*
X18602Y-22640D01*
X18854Y-22637D01*
X18854Y-22455D01*
X18854Y-22272D01*
X18737Y-22270D01*
X18619Y-22267D01*
X18619Y-22232D01*
X18612Y-22196D01*
X18593Y-22170D01*
X18568Y-22143D01*
X18075Y-22143D01*
X17582Y-22143D01*
X17582Y-22103D01*
X17582Y-22063D01*
X17906Y-22067D01*
X18230Y-22071D01*
X18234Y-22044D01*
X18236Y-22017D01*
X17917Y-22024D01*
X17598Y-22031D01*
X17606Y-21955D01*
X17610Y-21912D01*
X17613Y-21871D01*
X17615Y-21840D01*
X17615Y-21838D01*
X17617Y-21813D01*
X17621Y-21798D01*
X17623Y-21797D01*
X17626Y-21788D01*
X17629Y-21765D01*
X17630Y-21733D01*
X17630Y-21731D01*
X17632Y-21690D01*
X17637Y-21665D01*
X17645Y-21652D01*
X17652Y-21644D01*
X17656Y-21630D01*
X17658Y-21607D01*
X17658Y-21570D01*
X17657Y-21518D01*
X17657Y-21514D01*
X17657Y-21468D01*
X17658Y-21412D01*
X17659Y-21350D01*
X17662Y-21283D01*
X17665Y-21215D01*
X17669Y-21148D01*
X17673Y-21085D01*
X17677Y-21029D01*
X17681Y-20982D01*
X17685Y-20947D01*
X17689Y-20927D01*
X17691Y-20923D01*
X17693Y-20933D01*
X17695Y-20961D01*
X17696Y-21007D01*
X17697Y-21071D01*
X17697Y-21151D01*
X17697Y-21248D01*
X17696Y-21360D01*
X17695Y-21403D01*
X17690Y-21882D01*
X17735Y-21925D01*
X17779Y-21968D01*
X18004Y-21972D01*
X18230Y-21975D01*
X18233Y-21948D01*
X18233Y-21929D01*
X18229Y-21921D01*
X18184Y-21921D01*
X18127Y-21921D01*
X18063Y-21922D01*
X17999Y-21923D01*
X17941Y-21925D01*
X17901Y-21928D01*
X17802Y-21934D01*
X17769Y-21902D01*
X17736Y-21870D01*
X17736Y-21390D01*
X17736Y-21265D01*
X17737Y-21151D01*
X17738Y-21051D01*
X17740Y-20965D01*
X17742Y-20895D01*
X17744Y-20842D01*
X17747Y-20808D01*
X17752Y-20747D01*
X17753Y-20680D01*
X17752Y-20603D01*
X17749Y-20549D01*
X17746Y-20496D01*
X17745Y-20450D01*
X17744Y-20415D01*
X17746Y-20393D01*
X17747Y-20387D01*
X17752Y-20377D01*
X17755Y-20353D01*
X17755Y-20342D01*
X17755Y-20300D01*
X17820Y-20297D01*
X17885Y-20294D01*
X17888Y-20254D01*
X17890Y-20228D01*
X17898Y-20216D01*
X17915Y-20212D01*
X17926Y-20211D01*
X17961Y-20208D01*
X17964Y-20107D01*
X17967Y-20006D01*
X18112Y-19861D01*
X18161Y-19811D01*
X18200Y-19774D01*
X18228Y-19749D01*
X18248Y-19732D01*
X18263Y-19723D01*
X18273Y-19721D01*
X18276Y-19722D01*
X18311Y-19726D01*
X18340Y-19716D01*
X18364Y-19694D01*
X18378Y-19664D01*
X18381Y-19631D01*
X18371Y-19599D01*
X18357Y-19581D01*
X18325Y-19562D01*
X18288Y-19558D01*
X18253Y-19570D01*
X18238Y-19580D01*
X18223Y-19598D01*
X18217Y-19617D01*
X18218Y-19646D01*
X18218Y-19648D01*
X18223Y-19693D01*
X18075Y-19840D01*
X17928Y-19987D01*
X17928Y-20075D01*
X17927Y-20114D01*
X17925Y-20146D01*
X17922Y-20165D01*
X17920Y-20168D01*
X17906Y-20169D01*
X17894Y-20153D01*
X17888Y-20123D01*
X17888Y-20121D01*
X17885Y-20083D01*
X17827Y-20080D01*
X17795Y-20077D01*
X17772Y-20071D01*
X17762Y-20066D01*
X17756Y-20042D01*
X17756Y-20012D01*
X17762Y-19983D01*
X17771Y-19968D01*
X17782Y-19947D01*
X17787Y-19916D01*
X17788Y-19912D01*
X17789Y-19887D01*
X17796Y-19874D01*
X17812Y-19870D01*
X17822Y-19869D01*
X17834Y-19867D01*
X17847Y-19861D01*
X17863Y-19850D01*
X17885Y-19832D01*
X17913Y-19807D01*
X17950Y-19772D01*
X17997Y-19725D01*
X18044Y-19678D01*
X18100Y-19623D01*
X18144Y-19579D01*
X18178Y-19547D01*
X18204Y-19524D01*
X18222Y-19509D01*
X18235Y-19501D01*
X18244Y-19499D01*
X18251Y-19501D01*
X18253Y-19501D01*
X18290Y-19511D01*
X18327Y-19506D01*
X18356Y-19488D01*
X18376Y-19456D01*
X18381Y-19421D01*
X18371Y-19388D01*
X18350Y-19360D01*
X18318Y-19342D01*
X18293Y-19339D01*
X18266Y-19347D01*
X18241Y-19368D01*
X18222Y-19395D01*
X18216Y-19419D01*
X18214Y-19429D01*
X18210Y-19441D01*
X18200Y-19457D01*
X18183Y-19477D01*
X18158Y-19505D01*
X18124Y-19540D01*
X18079Y-19586D01*
X18025Y-19640D01*
X17967Y-19698D01*
X17921Y-19742D01*
X17886Y-19776D01*
X17858Y-19800D01*
X17838Y-19816D01*
X17824Y-19825D01*
X17814Y-19827D01*
X17812Y-19827D01*
X17797Y-19823D01*
X17790Y-19811D01*
X17786Y-19787D01*
X17786Y-19778D01*
X17782Y-19749D01*
X17776Y-19736D01*
X17766Y-19732D01*
X17755Y-19728D01*
X17747Y-19711D01*
X17738Y-19679D01*
X17737Y-19672D01*
X17730Y-19637D01*
X17728Y-19616D01*
X17731Y-19606D01*
X17740Y-19603D01*
X17745Y-19603D01*
X17750Y-19600D01*
X17754Y-19592D01*
X17757Y-19574D01*
X17759Y-19545D01*
X17761Y-19503D01*
X17762Y-19445D01*
X17762Y-19408D01*
X17765Y-19214D01*
X17726Y-19214D01*
X17701Y-19212D01*
X17690Y-19206D01*
X17688Y-19193D01*
X17689Y-19181D01*
X17698Y-19176D01*
X17718Y-19177D01*
X17732Y-19179D01*
X17765Y-19183D01*
X17792Y-19185D01*
X17799Y-19185D01*
X17814Y-19188D01*
X17821Y-19198D01*
X17822Y-19222D01*
X17822Y-19224D01*
X17822Y-19263D01*
X18017Y-19260D01*
X18211Y-19257D01*
X18214Y-19221D01*
X18217Y-19185D01*
X18289Y-19185D01*
X18361Y-19185D01*
X18554Y-18991D01*
X18747Y-18796D01*
X18877Y-18792D01*
X19008Y-18787D01*
X19011Y-18751D01*
X19014Y-18715D01*
X19124Y-18715D01*
X19234Y-18715D01*
X19232Y-18525D01*
X19229Y-18335D01*
X19121Y-18333D01*
X19013Y-18330D01*
X19013Y-18304D01*
X19015Y-18291D01*
X19024Y-18276D01*
X19040Y-18255D01*
X19066Y-18226D01*
X19103Y-18188D01*
X19146Y-18145D01*
X19279Y-18013D01*
X19230Y-18013D01*
X19229Y-18014D01*
X19191Y-18053D01*
X18838Y-17699D01*
X18770Y-17631D01*
X18707Y-17568D01*
X18648Y-17509D01*
X18597Y-17457D01*
X18554Y-17414D01*
X18520Y-17379D01*
X18497Y-17355D01*
X18486Y-17343D01*
X18485Y-17342D01*
X18492Y-17334D01*
X18510Y-17320D01*
X18516Y-17315D01*
X18562Y-17289D01*
X18614Y-17267D01*
X18662Y-17252D01*
X18669Y-17251D01*
X18705Y-17245D01*
X18708Y-17329D01*
X18710Y-17413D01*
X18797Y-17413D01*
X18883Y-17413D01*
X18888Y-17358D01*
X18893Y-17301D01*
X18918Y-17321D01*
X18943Y-17341D01*
X18980Y-17301D01*
X19029Y-17262D01*
X19090Y-17231D01*
X19158Y-17209D01*
X19227Y-17198D01*
X19246Y-17198D01*
X19291Y-17197D01*
X15902Y-17197D01*
X15902Y-17390D01*
X18439Y-17390D01*
X18453Y-17393D01*
X18472Y-17403D01*
X18496Y-17421D01*
X18526Y-17448D01*
X18564Y-17484D01*
X18612Y-17531D01*
X18670Y-17589D01*
X18739Y-17658D01*
X18807Y-17726D01*
X19161Y-18081D01*
X19068Y-18175D01*
X19029Y-18214D01*
X19003Y-18243D01*
X18987Y-18264D01*
X18978Y-18281D01*
X18975Y-18295D01*
X18974Y-18299D01*
X18974Y-18330D01*
X18863Y-18333D01*
X18752Y-18335D01*
X18753Y-18523D01*
X18753Y-18710D01*
X18864Y-18713D01*
X18911Y-18714D01*
X18943Y-18716D01*
X18962Y-18719D01*
X18971Y-18723D01*
X18974Y-18730D01*
X18974Y-18734D01*
X18973Y-18742D01*
X18968Y-18747D01*
X18955Y-18751D01*
X18931Y-18752D01*
X18893Y-18753D01*
X18857Y-18753D01*
X18739Y-18753D01*
X18542Y-18950D01*
X18346Y-19147D01*
X18281Y-19147D01*
X18217Y-19147D01*
X18214Y-19111D01*
X18211Y-19075D01*
X18017Y-19072D01*
X17822Y-19070D01*
X17822Y-19108D01*
X17821Y-19133D01*
X17815Y-19144D01*
X17800Y-19147D01*
X17794Y-19147D01*
X17772Y-19144D01*
X17761Y-19140D01*
X17750Y-19136D01*
X17726Y-19133D01*
X17705Y-19133D01*
X17654Y-19134D01*
X17651Y-19174D01*
X17648Y-19199D01*
X17641Y-19211D01*
X17627Y-19214D01*
X17626Y-19214D01*
X17615Y-19212D01*
X17607Y-19206D01*
X17601Y-19191D01*
X17594Y-19163D01*
X17587Y-19125D01*
X17580Y-19078D01*
X17573Y-19018D01*
X17567Y-18951D01*
X17563Y-18882D01*
X17559Y-18817D01*
X17558Y-18759D01*
X17559Y-18715D01*
X17559Y-18710D01*
X17561Y-18685D01*
X17564Y-18646D01*
X17568Y-18594D01*
X17573Y-18536D01*
X17578Y-18474D01*
X17578Y-18470D01*
X17585Y-18365D01*
X17589Y-18271D01*
X17589Y-18192D01*
X17587Y-18167D01*
X17585Y-18111D01*
X17586Y-18068D01*
X17591Y-18036D01*
X17603Y-18009D01*
X17622Y-17981D01*
X17650Y-17949D01*
X17652Y-17946D01*
X17686Y-17905D01*
X17714Y-17857D01*
X17739Y-17802D01*
X17757Y-17760D01*
X17776Y-17720D01*
X17792Y-17689D01*
X17799Y-17678D01*
X17822Y-17644D01*
X17822Y-17724D01*
X17822Y-17803D01*
X18017Y-17800D01*
X18211Y-17798D01*
X18211Y-17701D01*
X18211Y-17606D01*
X18036Y-17603D01*
X17980Y-17602D01*
X17932Y-17600D01*
X17894Y-17599D01*
X17869Y-17597D01*
X17860Y-17595D01*
X17865Y-17585D01*
X17877Y-17563D01*
X17886Y-17548D01*
X17910Y-17505D01*
X18061Y-17503D01*
X18211Y-17500D01*
X18214Y-17459D01*
X18217Y-17434D01*
X18220Y-17420D01*
X18222Y-17418D01*
X18237Y-17424D01*
X18262Y-17436D01*
X18290Y-17453D01*
X18315Y-17471D01*
X18329Y-17482D01*
X18345Y-17497D01*
X18354Y-17503D01*
X18354Y-17503D01*
X18360Y-17494D01*
X18373Y-17473D01*
X18387Y-17451D01*
X18399Y-17431D01*
X18409Y-17414D01*
X18418Y-17401D01*
X18428Y-17393D01*
X18439Y-17390D01*
X15902Y-17390D01*
X15902Y-17488D01*
X15902Y-17966D01*
X15268Y-17966D01*
X14634Y-17966D01*
X14634Y-17831D01*
X14634Y-17697D01*
X15177Y-17697D01*
X15719Y-17697D01*
X15719Y-17606D01*
X15719Y-17514D01*
X15177Y-17514D01*
X14634Y-17514D01*
X14634Y-17380D01*
X14634Y-17245D01*
X15181Y-17245D01*
X15728Y-17245D01*
X15673Y-17154D01*
X15618Y-17063D01*
X15126Y-17063D01*
X14634Y-17063D01*
X14634Y-16929D01*
X14634Y-16794D01*
X10246Y-16794D01*
X10246Y-16907D01*
X10246Y-17029D01*
X10205Y-17065D01*
X10164Y-17101D01*
X10205Y-17101D01*
X10246Y-17101D01*
X10246Y-17150D01*
X10246Y-17197D01*
X10025Y-17197D01*
X9804Y-17197D01*
X9804Y-17150D01*
X9804Y-17101D01*
X9941Y-17101D01*
X10078Y-17101D01*
X10128Y-17043D01*
X10179Y-16985D01*
X10179Y-16885D01*
X10179Y-16785D01*
X7874Y-16785D01*
X7874Y-16804D01*
X8796Y-16804D01*
X8981Y-16804D01*
X9166Y-16804D01*
X9202Y-16846D01*
X9238Y-16889D01*
X9238Y-17053D01*
X9238Y-17217D01*
X9017Y-17217D01*
X8796Y-17217D01*
X8796Y-17169D01*
X8796Y-17121D01*
X8989Y-17121D01*
X9181Y-17121D01*
X9176Y-17094D01*
X9173Y-17072D01*
X9170Y-17038D01*
X9166Y-16997D01*
X9165Y-16989D01*
X9159Y-16909D01*
X8977Y-16909D01*
X8796Y-16909D01*
X8796Y-16857D01*
X8796Y-16804D01*
X7874Y-16804D01*
X7874Y-17294D01*
X9804Y-17294D01*
X10121Y-17294D01*
X10438Y-17294D01*
X10438Y-17341D01*
X10438Y-17390D01*
X10342Y-17390D01*
X10246Y-17390D01*
X10246Y-17511D01*
X10246Y-17632D01*
X10205Y-17669D01*
X10164Y-17706D01*
X10021Y-17706D01*
X9877Y-17706D01*
X9840Y-17671D01*
X9804Y-17635D01*
X9804Y-17464D01*
X9804Y-17294D01*
X7874Y-17294D01*
X7874Y-17313D01*
X8796Y-17313D01*
X8982Y-17313D01*
X9168Y-17313D01*
X9203Y-17351D01*
X9238Y-17390D01*
X9238Y-17543D01*
X9238Y-17697D01*
X9210Y-17697D01*
X9199Y-17697D01*
X9191Y-17694D01*
X9186Y-17687D01*
X9181Y-17674D01*
X9177Y-17650D01*
X9173Y-17614D01*
X9169Y-17564D01*
X9165Y-17508D01*
X9161Y-17469D01*
X9158Y-17445D01*
X9152Y-17432D01*
X9142Y-17424D01*
X9130Y-17419D01*
X9107Y-17412D01*
X9092Y-17409D01*
X9092Y-17409D01*
X9089Y-17418D01*
X9087Y-17443D01*
X9085Y-17479D01*
X9084Y-17524D01*
X9084Y-17532D01*
X9084Y-17654D01*
X9041Y-17690D01*
X9015Y-17710D01*
X8994Y-17721D01*
X8968Y-17725D01*
X8940Y-17726D01*
X8905Y-17725D01*
X8881Y-17719D01*
X8860Y-17707D01*
X8839Y-17690D01*
X8796Y-17654D01*
X8796Y-17483D01*
X8796Y-17313D01*
X7874Y-17313D01*
X7874Y-17802D01*
X9804Y-17802D01*
X9989Y-17802D01*
X10175Y-17802D01*
X10210Y-17845D01*
X10246Y-17888D01*
X10246Y-18052D01*
X10246Y-18215D01*
X10025Y-18215D01*
X9804Y-18215D01*
X9804Y-18167D01*
X9804Y-18119D01*
X9997Y-18119D01*
X10190Y-18119D01*
X10185Y-18093D01*
X10182Y-18071D01*
X10178Y-18037D01*
X10174Y-17996D01*
X10173Y-17987D01*
X10167Y-17908D01*
X9986Y-17908D01*
X9804Y-17908D01*
X9804Y-17855D01*
X9804Y-17802D01*
X7874Y-17802D01*
X7874Y-17822D01*
X8925Y-17822D01*
X9112Y-17822D01*
X9299Y-17822D01*
X9365Y-17886D01*
X9430Y-17951D01*
X9430Y-18093D01*
X9430Y-18234D01*
X15719Y-18234D01*
X15811Y-18234D01*
X15902Y-18234D01*
X15902Y-18578D01*
X15902Y-18921D01*
X15794Y-19029D01*
X15686Y-19137D01*
X15794Y-19137D01*
X15902Y-19137D01*
X15902Y-19271D01*
X15902Y-19406D01*
X15268Y-19406D01*
X14634Y-19406D01*
X14634Y-19271D01*
X14634Y-19137D01*
X15027Y-19137D01*
X15419Y-19137D01*
X15569Y-18970D01*
X15719Y-18802D01*
X15719Y-18518D01*
X15719Y-18234D01*
X9430Y-18234D01*
X9113Y-18234D01*
X8796Y-18234D01*
X8796Y-18093D01*
X8796Y-17952D01*
X8860Y-17887D01*
X8925Y-17822D01*
X7874Y-17822D01*
X7874Y-18311D01*
X9804Y-18311D01*
X9990Y-18311D01*
X10176Y-18311D01*
X10211Y-18350D01*
X10246Y-18388D01*
X10246Y-18542D01*
X10246Y-18695D01*
X10218Y-18695D01*
X10207Y-18695D01*
X10200Y-18693D01*
X10194Y-18686D01*
X10189Y-18672D01*
X10185Y-18649D01*
X10182Y-18613D01*
X10178Y-18563D01*
X10173Y-18506D01*
X10170Y-18468D01*
X10166Y-18444D01*
X10160Y-18430D01*
X10150Y-18423D01*
X10138Y-18418D01*
X10115Y-18410D01*
X10101Y-18408D01*
X10100Y-18407D01*
X10097Y-18416D01*
X10095Y-18441D01*
X10093Y-18478D01*
X10092Y-18523D01*
X10092Y-18530D01*
X10092Y-18653D01*
X10050Y-18689D01*
X10023Y-18709D01*
X10002Y-18720D01*
X9976Y-18724D01*
X9948Y-18724D01*
X9913Y-18723D01*
X9889Y-18718D01*
X9868Y-18705D01*
X9847Y-18688D01*
X9805Y-18652D01*
X9804Y-18482D01*
X9804Y-18311D01*
X7874Y-18311D01*
X7874Y-18331D01*
X9084Y-18331D01*
X9117Y-18331D01*
X9151Y-18331D01*
X9151Y-18537D01*
X9151Y-18743D01*
X9117Y-18743D01*
X9084Y-18743D01*
X9084Y-18537D01*
X9084Y-18331D01*
X7874Y-18331D01*
X7874Y-18820D01*
X9804Y-18820D01*
X9845Y-18820D01*
X9864Y-18821D01*
X9881Y-18826D01*
X9899Y-18837D01*
X9922Y-18857D01*
X9954Y-18888D01*
X9955Y-18889D01*
X10024Y-18958D01*
X10097Y-18889D01*
X10130Y-18858D01*
X10155Y-18838D01*
X10173Y-18826D01*
X10190Y-18821D01*
X10207Y-18820D01*
X10246Y-18820D01*
X10246Y-18868D01*
X10246Y-18916D01*
X10205Y-18916D01*
X10183Y-18918D01*
X10163Y-18925D01*
X10143Y-18939D01*
X10118Y-18964D01*
X10086Y-19000D01*
X10078Y-19011D01*
X10059Y-19034D01*
X10116Y-19085D01*
X10148Y-19112D01*
X10171Y-19128D01*
X10192Y-19136D01*
X10210Y-19137D01*
X10246Y-19137D01*
X10246Y-19185D01*
X10246Y-19233D01*
X10207Y-19233D01*
X10188Y-19232D01*
X10171Y-19227D01*
X10152Y-19214D01*
X10127Y-19193D01*
X10097Y-19164D01*
X10024Y-19095D01*
X9955Y-19164D01*
X9922Y-19196D01*
X9899Y-19216D01*
X9881Y-19227D01*
X9865Y-19232D01*
X9845Y-19233D01*
X9845Y-19233D01*
X9804Y-19233D01*
X9804Y-19185D01*
X9804Y-19137D01*
X9845Y-19137D01*
X9867Y-19136D01*
X9887Y-19129D01*
X9907Y-19114D01*
X9932Y-19090D01*
X9963Y-19053D01*
X9972Y-19042D01*
X9991Y-19020D01*
X9934Y-18968D01*
X9902Y-18941D01*
X9878Y-18925D01*
X9858Y-18918D01*
X9840Y-18916D01*
X9804Y-18916D01*
X9804Y-18868D01*
X9804Y-18820D01*
X7874Y-18820D01*
X7874Y-18839D01*
X8796Y-18839D01*
X8837Y-18839D01*
X8856Y-18841D01*
X8873Y-18845D01*
X8891Y-18856D01*
X8913Y-18876D01*
X8945Y-18908D01*
X8946Y-18909D01*
X9016Y-18977D01*
X9088Y-18909D01*
X9122Y-18877D01*
X9147Y-18857D01*
X9165Y-18845D01*
X9182Y-18841D01*
X9199Y-18839D01*
X9238Y-18839D01*
X9238Y-18887D01*
X9238Y-18936D01*
X9196Y-18936D01*
X9174Y-18937D01*
X9155Y-18944D01*
X9135Y-18958D01*
X9110Y-18983D01*
X9078Y-19019D01*
X9069Y-19030D01*
X9050Y-19053D01*
X9108Y-19105D01*
X9140Y-19132D01*
X9163Y-19148D01*
X9183Y-19155D01*
X9202Y-19156D01*
X9238Y-19156D01*
X9238Y-19204D01*
X9238Y-19252D01*
X9199Y-19252D01*
X9180Y-19251D01*
X9163Y-19246D01*
X9144Y-19233D01*
X9119Y-19212D01*
X9088Y-19184D01*
X9016Y-19115D01*
X8946Y-19184D01*
X8914Y-19215D01*
X8891Y-19235D01*
X8873Y-19246D01*
X8856Y-19251D01*
X8837Y-19252D01*
X8837Y-19252D01*
X8796Y-19252D01*
X8796Y-19204D01*
X8796Y-19156D01*
X8837Y-19156D01*
X8859Y-19155D01*
X8879Y-19148D01*
X8899Y-19134D01*
X8923Y-19109D01*
X8955Y-19072D01*
X8964Y-19062D01*
X8983Y-19039D01*
X8926Y-18987D01*
X8894Y-18960D01*
X8870Y-18944D01*
X8850Y-18937D01*
X8832Y-18936D01*
X8796Y-18936D01*
X8796Y-18887D01*
X8796Y-18839D01*
X7874Y-18839D01*
X7874Y-19329D01*
X9996Y-19329D01*
X10080Y-19329D01*
X10163Y-19329D01*
X10205Y-19370D01*
X10246Y-19410D01*
X10246Y-19540D01*
X10246Y-19669D01*
X10241Y-19675D01*
X14634Y-19675D01*
X15432Y-19675D01*
X16230Y-19675D01*
X16339Y-19782D01*
X16449Y-19889D01*
X16449Y-20260D01*
X16449Y-20631D01*
X16340Y-20739D01*
X16271Y-20808D01*
X17701Y-20808D01*
X17703Y-20809D01*
X17704Y-20811D01*
X17705Y-20831D01*
X17704Y-20839D01*
X17701Y-20840D01*
X17699Y-20825D01*
X17699Y-20822D01*
X17701Y-20808D01*
X16271Y-20808D01*
X16231Y-20846D01*
X15433Y-20846D01*
X14634Y-20846D01*
X14634Y-20712D01*
X14634Y-20578D01*
X14994Y-20578D01*
X15354Y-20578D01*
X15354Y-20261D01*
X15354Y-19944D01*
X14994Y-19944D01*
X14634Y-19944D01*
X14634Y-19809D01*
X14634Y-19675D01*
X10241Y-19675D01*
X10210Y-19706D01*
X10175Y-19742D01*
X10025Y-19742D01*
X9875Y-19742D01*
X9845Y-19701D01*
X9814Y-19660D01*
X9816Y-19508D01*
X9819Y-19355D01*
X9855Y-19343D01*
X9891Y-19330D01*
X9891Y-19478D01*
X9891Y-19535D01*
X9891Y-19576D01*
X9893Y-19603D01*
X9899Y-19620D01*
X9909Y-19630D01*
X9925Y-19636D01*
X9948Y-19640D01*
X9960Y-19642D01*
X9996Y-19648D01*
X9996Y-19489D01*
X9996Y-19329D01*
X7874Y-19329D01*
X7874Y-19348D01*
X8988Y-19348D01*
X9072Y-19348D01*
X9155Y-19348D01*
X9196Y-19389D01*
X9238Y-19429D01*
X9238Y-19559D01*
X9238Y-19689D01*
X9202Y-19725D01*
X9166Y-19761D01*
X9017Y-19761D01*
X8866Y-19761D01*
X8836Y-19721D01*
X8806Y-19680D01*
X8808Y-19527D01*
X8810Y-19374D01*
X8846Y-19362D01*
X8882Y-19350D01*
X8882Y-19497D01*
X8882Y-19554D01*
X8883Y-19595D01*
X8885Y-19622D01*
X8891Y-19640D01*
X8901Y-19649D01*
X8917Y-19655D01*
X8940Y-19659D01*
X8952Y-19661D01*
X8988Y-19668D01*
X8988Y-19508D01*
X8988Y-19348D01*
X7874Y-19348D01*
X7874Y-19934D01*
X9804Y-19934D01*
X9838Y-19934D01*
X9860Y-19936D01*
X9870Y-19944D01*
X9871Y-19965D01*
X9871Y-19968D01*
X9871Y-20001D01*
X10154Y-20001D01*
X10438Y-20001D01*
X10438Y-20078D01*
X10438Y-20155D01*
X10404Y-20155D01*
X10382Y-20154D01*
X10373Y-20145D01*
X10371Y-20126D01*
X10371Y-20097D01*
X10121Y-20097D01*
X9871Y-20097D01*
X9871Y-20126D01*
X9870Y-20146D01*
X9860Y-20154D01*
X9838Y-20155D01*
X9804Y-20155D01*
X9804Y-20045D01*
X9804Y-19934D01*
X7874Y-19934D01*
X7874Y-19953D01*
X8796Y-19953D01*
X8829Y-19953D01*
X8852Y-19955D01*
X8861Y-19963D01*
X8863Y-19984D01*
X8863Y-19987D01*
X8863Y-20020D01*
X9146Y-20020D01*
X9430Y-20020D01*
X9430Y-20097D01*
X9430Y-20174D01*
X9396Y-20174D01*
X9374Y-20173D01*
X9364Y-20165D01*
X9362Y-20146D01*
X9362Y-20117D01*
X9113Y-20117D01*
X8863Y-20117D01*
X8863Y-20146D01*
X8861Y-20165D01*
X8852Y-20173D01*
X8829Y-20174D01*
X8796Y-20174D01*
X8796Y-20064D01*
X8796Y-19953D01*
X7874Y-19953D01*
X7874Y-20347D01*
X9804Y-20347D01*
X10084Y-20347D01*
X10363Y-20347D01*
X10400Y-20388D01*
X10437Y-20429D01*
X10437Y-20558D01*
X10438Y-20687D01*
X10402Y-20724D01*
X10367Y-20760D01*
X10085Y-20760D01*
X9804Y-20760D01*
X9804Y-20712D01*
X9804Y-20664D01*
X9929Y-20664D01*
X10054Y-20664D01*
X10054Y-20553D01*
X10054Y-20443D01*
X9929Y-20443D01*
X9804Y-20443D01*
X9804Y-20395D01*
X9804Y-20347D01*
X7874Y-20347D01*
X7874Y-20366D01*
X8796Y-20366D01*
X9075Y-20366D01*
X9355Y-20366D01*
X9392Y-20407D01*
X9429Y-20448D01*
X9429Y-20577D01*
X9430Y-20706D01*
X9394Y-20743D01*
X9359Y-20779D01*
X9077Y-20779D01*
X8796Y-20779D01*
X8796Y-20731D01*
X8796Y-20683D01*
X8921Y-20683D01*
X9045Y-20683D01*
X9045Y-20573D01*
X9045Y-20462D01*
X8921Y-20462D01*
X8796Y-20462D01*
X8796Y-20414D01*
X8796Y-20366D01*
X7874Y-20366D01*
X7874Y-21115D01*
X14399Y-21115D01*
X15150Y-21115D01*
X15902Y-21115D01*
X15902Y-21593D01*
X15902Y-22070D01*
X15794Y-22179D01*
X15686Y-22287D01*
X15268Y-22287D01*
X14851Y-22287D01*
X14742Y-22179D01*
X14634Y-22071D01*
X14634Y-21728D01*
X14634Y-21384D01*
X14500Y-21384D01*
X14365Y-21384D01*
X14365Y-21792D01*
X14365Y-22200D01*
X14274Y-22200D01*
X14183Y-22200D01*
X14183Y-21766D01*
X14183Y-21332D01*
X14291Y-21223D01*
X14399Y-21115D01*
X7874Y-21115D01*
X7874Y-21518D01*
X9804Y-21518D01*
X9866Y-21518D01*
X9929Y-21518D01*
X10121Y-21518D01*
X10183Y-21518D01*
X10246Y-21518D01*
X10246Y-21567D01*
X10246Y-21615D01*
X10183Y-21615D01*
X10121Y-21615D01*
X10121Y-21567D01*
X10121Y-21518D01*
X9929Y-21518D01*
X9929Y-21567D01*
X9929Y-21615D01*
X9866Y-21615D01*
X9804Y-21615D01*
X9804Y-21567D01*
X9804Y-21518D01*
X7874Y-21518D01*
X7874Y-21653D01*
X7874Y-21874D01*
X9720Y-21874D01*
X9983Y-21874D01*
X10246Y-21874D01*
X10246Y-21922D01*
X10246Y-21970D01*
X10053Y-21970D01*
X9988Y-21970D01*
X9939Y-21970D01*
X9905Y-21972D01*
X9883Y-21973D01*
X9870Y-21976D01*
X9865Y-21980D01*
X9865Y-21985D01*
X9865Y-21987D01*
X9868Y-22003D01*
X9872Y-22034D01*
X9875Y-22073D01*
X9876Y-22092D01*
X9883Y-22181D01*
X10064Y-22181D01*
X10246Y-22181D01*
X10246Y-22234D01*
X10246Y-22287D01*
X10062Y-22287D01*
X9879Y-22287D01*
X9842Y-22246D01*
X9805Y-22205D01*
X9804Y-22087D01*
X9804Y-22042D01*
X9802Y-22006D01*
X9800Y-21980D01*
X9797Y-21970D01*
X9797Y-21970D01*
X9784Y-21972D01*
X9760Y-21978D01*
X9754Y-21980D01*
X9718Y-21990D01*
X9718Y-22124D01*
X9718Y-22258D01*
X9684Y-22258D01*
X9650Y-22258D01*
X9650Y-22104D01*
X9650Y-21951D01*
X9685Y-21912D01*
X9720Y-21874D01*
X7874Y-21874D01*
X7874Y-22383D01*
X9885Y-22383D01*
X9976Y-22383D01*
X10067Y-22383D01*
X10109Y-22423D01*
X10150Y-22464D01*
X10191Y-22423D01*
X10215Y-22401D01*
X10233Y-22389D01*
X10255Y-22384D01*
X10286Y-22383D01*
X10294Y-22383D01*
X10328Y-22384D01*
X10351Y-22388D01*
X10370Y-22398D01*
X10392Y-22418D01*
X10397Y-22423D01*
X10438Y-22464D01*
X10438Y-22556D01*
X14850Y-22556D01*
X15267Y-22556D01*
X15685Y-22556D01*
X15721Y-22591D01*
X17541Y-22591D01*
X17550Y-22595D01*
X17569Y-22611D01*
X17597Y-22636D01*
X17632Y-22668D01*
X17656Y-22692D01*
X17765Y-22800D01*
X17765Y-23297D01*
X17765Y-23408D01*
X17765Y-23500D01*
X17764Y-23577D01*
X17764Y-23639D01*
X17763Y-23688D01*
X17762Y-23725D01*
X17761Y-23752D01*
X17759Y-23771D01*
X17757Y-23784D01*
X17754Y-23791D01*
X17751Y-23794D01*
X17747Y-23794D01*
X17745Y-23794D01*
X17729Y-23788D01*
X17726Y-23775D01*
X17725Y-23767D01*
X17719Y-23761D01*
X17706Y-23758D01*
X17682Y-23757D01*
X17643Y-23756D01*
X17616Y-23756D01*
X17568Y-23756D01*
X17537Y-23757D01*
X17518Y-23759D01*
X17509Y-23764D01*
X17506Y-23771D01*
X17505Y-23775D01*
X17500Y-23791D01*
X17486Y-23791D01*
X17462Y-23774D01*
X17451Y-23764D01*
X17432Y-23741D01*
X17421Y-23718D01*
X17418Y-23699D01*
X17425Y-23689D01*
X17428Y-23689D01*
X17433Y-23680D01*
X17436Y-23653D01*
X17438Y-23612D01*
X17438Y-23576D01*
X17439Y-23525D01*
X17441Y-23469D01*
X17444Y-23413D01*
X17448Y-23358D01*
X17453Y-23310D01*
X17458Y-23270D01*
X17463Y-23241D01*
X17468Y-23228D01*
X17468Y-23228D01*
X17473Y-23219D01*
X17476Y-23196D01*
X17478Y-23168D01*
X17479Y-23142D01*
X17480Y-23132D01*
X17482Y-23138D01*
X17483Y-23162D01*
X17485Y-23194D01*
X17491Y-23281D01*
X17527Y-23284D01*
X17549Y-23286D01*
X17560Y-23294D01*
X17563Y-23311D01*
X17563Y-23329D01*
X17564Y-23355D01*
X17570Y-23368D01*
X17583Y-23373D01*
X17584Y-23374D01*
X17595Y-23376D01*
X17601Y-23384D01*
X17605Y-23399D01*
X17608Y-23427D01*
X17609Y-23461D01*
X17609Y-23507D01*
X17607Y-23535D01*
X17601Y-23545D01*
X17582Y-23553D01*
X17563Y-23574D01*
X17548Y-23602D01*
X17544Y-23626D01*
X17552Y-23663D01*
X17573Y-23690D01*
X17602Y-23706D01*
X17636Y-23709D01*
X17669Y-23698D01*
X17692Y-23678D01*
X17708Y-23655D01*
X17716Y-23634D01*
X17716Y-23630D01*
X17711Y-23602D01*
X17696Y-23574D01*
X17677Y-23554D01*
X17669Y-23550D01*
X17659Y-23545D01*
X17654Y-23535D01*
X17651Y-23517D01*
X17650Y-23486D01*
X17649Y-23458D01*
X17650Y-23417D01*
X17651Y-23392D01*
X17655Y-23378D01*
X17661Y-23373D01*
X17669Y-23372D01*
X17677Y-23371D01*
X17682Y-23365D01*
X17686Y-23352D01*
X17687Y-23327D01*
X17688Y-23289D01*
X17688Y-23261D01*
X17688Y-23150D01*
X17628Y-23153D01*
X17568Y-23156D01*
X17565Y-23202D01*
X17562Y-23230D01*
X17556Y-23243D01*
X17546Y-23245D01*
X17546Y-23245D01*
X17541Y-23243D01*
X17537Y-23236D01*
X17533Y-23223D01*
X17531Y-23201D01*
X17529Y-23168D01*
X17527Y-23123D01*
X17526Y-23063D01*
X17525Y-22988D01*
X17523Y-22920D01*
X17523Y-22859D01*
X17523Y-22806D01*
X17524Y-22766D01*
X17525Y-22740D01*
X17527Y-22730D01*
X17533Y-22719D01*
X17534Y-22706D01*
X17536Y-22697D01*
X17542Y-22697D01*
X17557Y-22709D01*
X17573Y-22724D01*
X17598Y-22755D01*
X17610Y-22781D01*
X17606Y-22801D01*
X17589Y-22812D01*
X17584Y-22813D01*
X17575Y-22815D01*
X17569Y-22821D01*
X17565Y-22833D01*
X17564Y-22855D01*
X17564Y-22890D01*
X17565Y-22924D01*
X17568Y-23031D01*
X17628Y-23034D01*
X17688Y-23037D01*
X17688Y-22926D01*
X17688Y-22878D01*
X17686Y-22847D01*
X17684Y-22828D01*
X17680Y-22818D01*
X17673Y-22815D01*
X17669Y-22815D01*
X17656Y-22812D01*
X17650Y-22798D01*
X17649Y-22779D01*
X17648Y-22759D01*
X17641Y-22741D01*
X17625Y-22720D01*
X17599Y-22693D01*
X17592Y-22685D01*
X17558Y-22650D01*
X17540Y-22623D01*
X17534Y-22604D01*
X17541Y-22591D01*
X15721Y-22591D01*
X15794Y-22664D01*
X15902Y-22771D01*
X15902Y-23141D01*
X15902Y-23511D01*
X15794Y-23619D01*
X15686Y-23727D01*
X15268Y-23727D01*
X14851Y-23727D01*
X14742Y-23619D01*
X14634Y-23511D01*
X14634Y-23142D01*
X14634Y-22772D01*
X14742Y-22664D01*
X14850Y-22556D01*
X10438Y-22556D01*
X10438Y-22630D01*
X10438Y-22796D01*
X10121Y-22796D01*
X9804Y-22796D01*
X9804Y-22630D01*
X9804Y-22465D01*
X9845Y-22424D01*
X9885Y-22383D01*
X7874Y-22383D01*
X7874Y-23996D01*
X15719Y-23996D01*
X15811Y-23996D01*
X15902Y-23996D01*
X15902Y-24339D01*
X15902Y-24682D01*
X15794Y-24790D01*
X15686Y-24899D01*
X15794Y-24899D01*
X15902Y-24899D01*
X15902Y-25033D01*
X15902Y-25167D01*
X15268Y-25167D01*
X14634Y-25167D01*
X14634Y-25033D01*
X14634Y-24899D01*
X15027Y-24899D01*
X15419Y-24899D01*
X15569Y-24731D01*
X15719Y-24564D01*
X15719Y-24280D01*
X15719Y-23996D01*
X7874Y-23996D01*
X7874Y-25436D01*
X15580Y-25436D01*
X15906Y-25436D01*
X16233Y-25436D01*
X16341Y-25544D01*
X16435Y-25639D01*
X17449Y-25639D01*
X17454Y-25642D01*
X17470Y-25655D01*
X17481Y-25667D01*
X17502Y-25690D01*
X17512Y-25711D01*
X17514Y-25739D01*
X17514Y-25743D01*
X17512Y-25765D01*
X17510Y-25772D01*
X17508Y-25768D01*
X17497Y-25745D01*
X17490Y-25736D01*
X17479Y-25717D01*
X17476Y-25700D01*
X17473Y-25682D01*
X17468Y-25677D01*
X17458Y-25668D01*
X17454Y-25660D01*
X17450Y-25643D01*
X17449Y-25639D01*
X16435Y-25639D01*
X16449Y-25652D01*
X16449Y-26130D01*
X16449Y-26349D01*
X18475Y-26349D01*
X18554Y-26349D01*
X18639Y-26350D01*
X18714Y-26351D01*
X18778Y-26351D01*
X18828Y-26353D01*
X18863Y-26355D01*
X18881Y-26357D01*
X18883Y-26358D01*
X18858Y-26365D01*
X18838Y-26367D01*
X18818Y-26370D01*
X18810Y-26377D01*
X18799Y-26382D01*
X18773Y-26387D01*
X18736Y-26393D01*
X18690Y-26398D01*
X18642Y-26402D01*
X18593Y-26405D01*
X18549Y-26406D01*
X18547Y-26406D01*
X18507Y-26405D01*
X18462Y-26402D01*
X18416Y-26398D01*
X18371Y-26394D01*
X18334Y-26388D01*
X18306Y-26383D01*
X18293Y-26378D01*
X18293Y-26377D01*
X18284Y-26372D01*
X18263Y-26366D01*
X18249Y-26364D01*
X18224Y-26359D01*
X18208Y-26354D01*
X18206Y-26353D01*
X18216Y-26352D01*
X18242Y-26351D01*
X18283Y-26350D01*
X18337Y-26350D01*
X18402Y-26349D01*
X18475Y-26349D01*
X16449Y-26349D01*
X16449Y-26608D01*
X15541Y-26608D01*
X14634Y-26608D01*
X14634Y-26473D01*
X14634Y-26339D01*
X14999Y-26339D01*
X15364Y-26339D01*
X15364Y-25996D01*
X15364Y-25653D01*
X15472Y-25545D01*
X15580Y-25436D01*
X7874Y-25436D01*
X7874Y-30910D01*
X8969Y-30910D01*
X9007Y-30910D01*
X9045Y-30910D01*
X9045Y-31100D01*
X9045Y-31289D01*
X9235Y-31100D01*
X9425Y-30910D01*
X9516Y-30910D01*
X9607Y-30910D01*
X9653Y-30955D01*
X9698Y-31000D01*
X9698Y-31144D01*
X9698Y-31288D01*
X9653Y-31334D01*
X9608Y-31380D01*
X9528Y-31380D01*
X9449Y-31380D01*
X9449Y-31328D01*
X9449Y-31304D01*
X9452Y-31288D01*
X9460Y-31277D01*
X9477Y-31271D01*
X9508Y-31265D01*
X9552Y-31260D01*
X9603Y-31254D01*
X9603Y-31145D01*
X9603Y-31037D01*
X9514Y-31025D01*
X9425Y-31014D01*
X9247Y-31197D01*
X9070Y-31381D01*
X9019Y-31381D01*
X8969Y-31380D01*
X8969Y-31145D01*
X8969Y-30910D01*
X7874Y-30910D01*
X7874Y-31668D01*
X8969Y-31668D01*
X9041Y-31668D01*
X9113Y-31668D01*
X9113Y-31721D01*
X9113Y-31774D01*
X9041Y-31774D01*
X8969Y-31774D01*
X8969Y-31721D01*
X8969Y-31668D01*
X7874Y-31668D01*
X7874Y-32062D01*
X9059Y-32062D01*
X9333Y-32062D01*
X9607Y-32062D01*
X9653Y-32107D01*
X9698Y-32153D01*
X9698Y-32302D01*
X9698Y-32451D01*
X9651Y-32492D01*
X9604Y-32533D01*
X9333Y-32533D01*
X9064Y-32533D01*
X9016Y-32492D01*
X8969Y-32451D01*
X8969Y-32303D01*
X8969Y-32154D01*
X9014Y-32108D01*
X9059Y-32062D01*
X7874Y-32062D01*
X7874Y-32638D01*
X9446Y-32638D01*
X9465Y-32639D01*
X9474Y-32645D01*
X9477Y-32661D01*
X9477Y-32686D01*
X9477Y-32733D01*
X9264Y-32801D01*
X9203Y-32821D01*
X9148Y-32839D01*
X9102Y-32854D01*
X9066Y-32865D01*
X9045Y-32872D01*
X9041Y-32873D01*
X9037Y-32875D01*
X9036Y-32876D01*
X9040Y-32879D01*
X9050Y-32882D01*
X9068Y-32888D01*
X9096Y-32897D01*
X9137Y-32909D01*
X9192Y-32926D01*
X9264Y-32947D01*
X9271Y-32949D01*
X9473Y-33009D01*
X9476Y-33059D01*
X9479Y-33109D01*
X9446Y-33109D01*
X9428Y-33106D01*
X9394Y-33096D01*
X9346Y-33082D01*
X9286Y-33064D01*
X9216Y-33041D01*
X9139Y-33015D01*
X9056Y-32986D01*
X8980Y-32960D01*
X8974Y-32952D01*
X8971Y-32931D01*
X8970Y-32895D01*
X8971Y-32873D01*
X8973Y-32790D01*
X9194Y-32714D01*
X9258Y-32693D01*
X9316Y-32674D01*
X9368Y-32658D01*
X9409Y-32647D01*
X9437Y-32640D01*
X9446Y-32638D01*
X7874Y-32638D01*
X7874Y-35432D01*
X15748Y-35432D01*
X23622Y-35432D01*
X23622Y-21653D01*
X23622Y-7874D01*
X15748Y-7874D01*
X7874Y-7874D01*
X7874Y-7874D01*
X7874Y-7874D01*
G37*
G36*
X9113Y-20460D02*
X9113Y-20572D01*
X9113Y-20683D01*
X9219Y-20683D01*
X9266Y-20683D01*
X9298Y-20682D01*
X9319Y-20678D01*
X9333Y-20673D01*
X9344Y-20664D01*
X9347Y-20661D01*
X9357Y-20650D01*
X9363Y-20637D01*
X9365Y-20619D01*
X9363Y-20591D01*
X9359Y-20561D01*
X9356Y-20528D01*
X9352Y-20505D01*
X9344Y-20490D01*
X9330Y-20480D01*
X9306Y-20474D01*
X9270Y-20471D01*
X9218Y-20467D01*
X9206Y-20466D01*
X9113Y-20460D01*
X9113Y-20460D01*
X9113Y-20460D01*
G37*
G36*
X8934Y-17918D02*
X8899Y-17954D01*
X8881Y-17973D01*
X8870Y-17990D01*
X8865Y-18009D01*
X8863Y-18037D01*
X8863Y-18064D01*
X8863Y-18139D01*
X9113Y-18139D01*
X9362Y-18139D01*
X9362Y-18064D01*
X9362Y-18026D01*
X9360Y-18001D01*
X9353Y-17984D01*
X9341Y-17968D01*
X9326Y-17953D01*
X9290Y-17918D01*
X9112Y-17918D01*
X8934Y-17918D01*
X8934Y-17918D01*
X8934Y-17918D01*
G37*
G36*
X8863Y-17409D02*
X8863Y-17502D01*
X8863Y-17596D01*
X8895Y-17616D01*
X8915Y-17628D01*
X8930Y-17632D01*
X8949Y-17627D01*
X8969Y-17620D01*
X9012Y-17603D01*
X9015Y-17506D01*
X9017Y-17409D01*
X8940Y-17409D01*
X8863Y-17409D01*
X8863Y-17409D01*
X8863Y-17409D01*
G37*
G36*
X8863Y-13846D02*
X8863Y-13940D01*
X8863Y-14033D01*
X8895Y-14054D01*
X8915Y-14066D01*
X8930Y-14069D01*
X8949Y-14065D01*
X8969Y-14057D01*
X9012Y-14041D01*
X9015Y-13944D01*
X9017Y-13846D01*
X8940Y-13846D01*
X8863Y-13846D01*
X8863Y-13846D01*
X8863Y-13846D01*
G37*
G36*
X8873Y-10303D02*
X8873Y-10394D01*
X8873Y-10433D01*
X8875Y-10465D01*
X8878Y-10485D01*
X8880Y-10489D01*
X8892Y-10491D01*
X8919Y-10494D01*
X8957Y-10498D01*
X8991Y-10500D01*
X9040Y-10503D01*
X9076Y-10503D01*
X9104Y-10500D01*
X9127Y-10494D01*
X9137Y-10491D01*
X9163Y-10479D01*
X9175Y-10468D01*
X9176Y-10455D01*
X9176Y-10453D01*
X9172Y-10433D01*
X9169Y-10401D01*
X9165Y-10368D01*
X9159Y-10303D01*
X9016Y-10303D01*
X8873Y-10303D01*
X8873Y-10303D01*
X8873Y-10303D01*
G37*
G36*
X9068Y-19446D02*
X9062Y-19448D01*
X9058Y-19458D01*
X9056Y-19478D01*
X9055Y-19511D01*
X9055Y-19554D01*
X9055Y-19665D01*
X9097Y-19665D01*
X9130Y-19662D01*
X9154Y-19649D01*
X9159Y-19643D01*
X9170Y-19630D01*
X9176Y-19617D01*
X9177Y-19598D01*
X9174Y-19568D01*
X9172Y-19545D01*
X9165Y-19502D01*
X9156Y-19475D01*
X9144Y-19460D01*
X9125Y-19454D01*
X9117Y-19454D01*
X9092Y-19451D01*
X9077Y-19448D01*
X9068Y-19446D01*
X9068Y-19446D01*
X9068Y-19446D01*
G37*
G36*
X9068Y-15884D02*
X9062Y-15886D01*
X9058Y-15896D01*
X9056Y-15915D01*
X9055Y-15949D01*
X9055Y-15991D01*
X9055Y-16103D01*
X9097Y-16103D01*
X9130Y-16099D01*
X9154Y-16086D01*
X9159Y-16080D01*
X9170Y-16068D01*
X9176Y-16054D01*
X9177Y-16035D01*
X9174Y-16005D01*
X9172Y-15983D01*
X9165Y-15940D01*
X9156Y-15912D01*
X9144Y-15898D01*
X9125Y-15892D01*
X9117Y-15892D01*
X9092Y-15889D01*
X9077Y-15885D01*
X9068Y-15884D01*
X9068Y-15884D01*
X9068Y-15884D01*
G37*
G36*
X9068Y-11812D02*
X9062Y-11814D01*
X9058Y-11824D01*
X9056Y-11844D01*
X9055Y-11877D01*
X9055Y-11920D01*
X9055Y-12031D01*
X9097Y-12031D01*
X9130Y-12028D01*
X9154Y-12015D01*
X9159Y-12009D01*
X9170Y-11996D01*
X9176Y-11983D01*
X9177Y-11964D01*
X9174Y-11934D01*
X9172Y-11911D01*
X9165Y-11868D01*
X9156Y-11841D01*
X9144Y-11826D01*
X9125Y-11820D01*
X9117Y-11820D01*
X9092Y-11817D01*
X9077Y-11814D01*
X9068Y-11812D01*
X9068Y-11812D01*
X9068Y-11812D01*
G37*
G36*
X9153Y-32172D02*
X9132Y-32175D01*
X9113Y-32180D01*
X9097Y-32186D01*
X9050Y-32204D01*
X9048Y-32300D01*
X9045Y-32395D01*
X9100Y-32415D01*
X9154Y-32435D01*
X9277Y-32319D01*
X9317Y-32281D01*
X9352Y-32247D01*
X9379Y-32221D01*
X9396Y-32203D01*
X9401Y-32196D01*
X9392Y-32193D01*
X9367Y-32189D01*
X9330Y-32185D01*
X9285Y-32180D01*
X9272Y-32179D01*
X9219Y-32174D01*
X9181Y-32172D01*
X9153Y-32172D01*
X9153Y-32172D01*
X9153Y-32172D01*
G37*
G36*
X9547Y-32168D02*
X9539Y-32174D01*
X9518Y-32192D01*
X9489Y-32220D01*
X9453Y-32255D01*
X9413Y-32295D01*
X9410Y-32297D01*
X9281Y-32427D01*
X9431Y-32427D01*
X9582Y-32427D01*
X9602Y-32402D01*
X9612Y-32386D01*
X9618Y-32366D01*
X9621Y-32337D01*
X9622Y-32295D01*
X9622Y-32294D01*
X9622Y-32211D01*
X9588Y-32189D01*
X9566Y-32176D01*
X9550Y-32168D01*
X9547Y-32168D01*
X9547Y-32168D01*
X9547Y-32168D01*
G37*
G36*
X9883Y-22498D02*
X9877Y-22582D01*
X9873Y-22622D01*
X9870Y-22656D01*
X9866Y-22679D01*
X9865Y-22683D01*
X9865Y-22690D01*
X9870Y-22694D01*
X9883Y-22697D01*
X9907Y-22699D01*
X9945Y-22700D01*
X9992Y-22700D01*
X10123Y-22700D01*
X10116Y-22616D01*
X10113Y-22566D01*
X10109Y-22533D01*
X10101Y-22513D01*
X10086Y-22502D01*
X10061Y-22498D01*
X10023Y-22498D01*
X9992Y-22498D01*
X9883Y-22498D01*
X9883Y-22498D01*
X9883Y-22498D01*
G37*
G36*
X10200Y-22498D02*
X10194Y-22573D01*
X10190Y-22612D01*
X10186Y-22648D01*
X10182Y-22672D01*
X10182Y-22673D01*
X10177Y-22700D01*
X10277Y-22700D01*
X10376Y-22700D01*
X10369Y-22630D01*
X10366Y-22590D01*
X10363Y-22554D01*
X10362Y-22529D01*
X10361Y-22498D01*
X10281Y-22498D01*
X10200Y-22498D01*
X10200Y-22498D01*
X10200Y-22498D01*
G37*
G36*
X10121Y-20441D02*
X10121Y-20553D01*
X10121Y-20664D01*
X10227Y-20664D01*
X10274Y-20664D01*
X10306Y-20662D01*
X10327Y-20659D01*
X10341Y-20653D01*
X10352Y-20645D01*
X10355Y-20642D01*
X10366Y-20630D01*
X10371Y-20618D01*
X10373Y-20600D01*
X10371Y-20571D01*
X10368Y-20542D01*
X10364Y-20509D01*
X10360Y-20486D01*
X10352Y-20471D01*
X10338Y-20461D01*
X10314Y-20455D01*
X10278Y-20451D01*
X10226Y-20448D01*
X10215Y-20447D01*
X10121Y-20441D01*
X10121Y-20441D01*
X10121Y-20441D01*
G37*
G36*
X9871Y-18407D02*
X9872Y-18501D01*
X9872Y-18595D01*
X9903Y-18615D01*
X9923Y-18627D01*
X9938Y-18630D01*
X9958Y-18626D01*
X9977Y-18618D01*
X10020Y-18602D01*
X10023Y-18505D01*
X10026Y-18407D01*
X9948Y-18407D01*
X9871Y-18407D01*
X9871Y-18407D01*
X9871Y-18407D01*
G37*
G36*
X10021Y-17390D02*
X9959Y-17390D01*
X9914Y-17391D01*
X9885Y-17393D01*
X9868Y-17396D01*
X9863Y-17401D01*
X9863Y-17402D01*
X9865Y-17416D01*
X9868Y-17445D01*
X9871Y-17482D01*
X9873Y-17500D01*
X9878Y-17539D01*
X9884Y-17570D01*
X9890Y-17589D01*
X9893Y-17593D01*
X9906Y-17596D01*
X9935Y-17600D01*
X9973Y-17604D01*
X10000Y-17606D01*
X10054Y-17608D01*
X10093Y-17607D01*
X10123Y-17602D01*
X10135Y-17598D01*
X10174Y-17585D01*
X10177Y-17487D01*
X10179Y-17390D01*
X10021Y-17390D01*
X10021Y-17390D01*
X10021Y-17390D01*
G37*
G36*
X10023Y-15882D02*
X9992Y-15882D01*
X9883Y-15882D01*
X9877Y-15966D01*
X9873Y-16006D01*
X9870Y-16040D01*
X9866Y-16063D01*
X9865Y-16067D01*
X9865Y-16074D01*
X9870Y-16078D01*
X9883Y-16081D01*
X9907Y-16083D01*
X9945Y-16083D01*
X9992Y-16084D01*
X10123Y-16084D01*
X10116Y-16000D01*
X10113Y-15951D01*
X10109Y-15917D01*
X10101Y-15897D01*
X10086Y-15886D01*
X10061Y-15882D01*
X10023Y-15882D01*
X10023Y-15882D01*
X10023Y-15882D01*
G37*
G36*
X10200Y-15882D02*
X10194Y-15956D01*
X10190Y-15996D01*
X10186Y-16032D01*
X10182Y-16055D01*
X10182Y-16057D01*
X10177Y-16084D01*
X10277Y-16084D01*
X10376Y-16084D01*
X10369Y-16014D01*
X10366Y-15974D01*
X10363Y-15938D01*
X10362Y-15913D01*
X10361Y-15882D01*
X10281Y-15882D01*
X10200Y-15882D01*
X10200Y-15882D01*
X10200Y-15882D01*
G37*
G36*
X9881Y-15373D02*
X9881Y-15464D01*
X9882Y-15503D01*
X9884Y-15535D01*
X9887Y-15555D01*
X9888Y-15559D01*
X9900Y-15561D01*
X9927Y-15565D01*
X9965Y-15568D01*
X9999Y-15570D01*
X10049Y-15573D01*
X10084Y-15573D01*
X10112Y-15570D01*
X10135Y-15564D01*
X10145Y-15561D01*
X10171Y-15549D01*
X10183Y-15538D01*
X10184Y-15525D01*
X10184Y-15523D01*
X10181Y-15503D01*
X10177Y-15471D01*
X10173Y-15438D01*
X10167Y-15373D01*
X10024Y-15373D01*
X9881Y-15373D01*
X9881Y-15373D01*
X9881Y-15373D01*
G37*
G36*
X10021Y-14336D02*
X9959Y-14336D01*
X9914Y-14337D01*
X9885Y-14340D01*
X9868Y-14343D01*
X9863Y-14347D01*
X9863Y-14348D01*
X9865Y-14362D01*
X9868Y-14391D01*
X9871Y-14428D01*
X9873Y-14446D01*
X9878Y-14485D01*
X9884Y-14517D01*
X9890Y-14536D01*
X9893Y-14539D01*
X9906Y-14542D01*
X9935Y-14546D01*
X9973Y-14550D01*
X10000Y-14552D01*
X10054Y-14554D01*
X10093Y-14553D01*
X10123Y-14548D01*
X10135Y-14544D01*
X10174Y-14531D01*
X10177Y-14434D01*
X10179Y-14336D01*
X10021Y-14336D01*
X10021Y-14336D01*
X10021Y-14336D01*
G37*
G36*
X10076Y-19427D02*
X10070Y-19429D01*
X10066Y-19439D01*
X10064Y-19459D01*
X10063Y-19492D01*
X10063Y-19535D01*
X10063Y-19646D01*
X10105Y-19646D01*
X10138Y-19643D01*
X10162Y-19629D01*
X10168Y-19624D01*
X10178Y-19611D01*
X10184Y-19598D01*
X10185Y-19579D01*
X10182Y-19549D01*
X10180Y-19526D01*
X10173Y-19483D01*
X10165Y-19456D01*
X10152Y-19441D01*
X10134Y-19435D01*
X10126Y-19435D01*
X10100Y-19432D01*
X10085Y-19429D01*
X10076Y-19427D01*
X10076Y-19427D01*
X10076Y-19427D01*
G37*
G36*
X14807Y-21384D02*
X14808Y-21406D01*
X14809Y-21421D01*
X14812Y-21452D01*
X14817Y-21497D01*
X14822Y-21553D01*
X14828Y-21618D01*
X14835Y-21688D01*
X14836Y-21694D01*
X14843Y-21763D01*
X14849Y-21826D01*
X14855Y-21881D01*
X14860Y-21924D01*
X14864Y-21952D01*
X14866Y-21965D01*
X14866Y-21965D01*
X14877Y-21967D01*
X14904Y-21971D01*
X14945Y-21975D01*
X14999Y-21981D01*
X15062Y-21987D01*
X15133Y-21994D01*
X15168Y-21997D01*
X15465Y-22024D01*
X15592Y-21980D01*
X15719Y-21936D01*
X15719Y-21660D01*
X15719Y-21384D01*
X15263Y-21384D01*
X14807Y-21384D01*
X14807Y-21384D01*
X14807Y-21384D01*
G37*
G36*
X15595Y-25753D02*
X15590Y-25785D01*
X15588Y-25803D01*
X15584Y-25837D01*
X15579Y-25884D01*
X15574Y-25941D01*
X15568Y-26004D01*
X15565Y-26037D01*
X15560Y-26102D01*
X15554Y-26164D01*
X15549Y-26218D01*
X15544Y-26261D01*
X15541Y-26290D01*
X15540Y-26298D01*
X15535Y-26339D01*
X15906Y-26339D01*
X16278Y-26339D01*
X16273Y-26298D01*
X16270Y-26277D01*
X16267Y-26240D01*
X16262Y-26190D01*
X16256Y-26132D01*
X16250Y-26067D01*
X16248Y-26037D01*
X16241Y-25972D01*
X16236Y-25911D01*
X16231Y-25859D01*
X16227Y-25818D01*
X16224Y-25791D01*
X16223Y-25785D01*
X16218Y-25753D01*
X15906Y-25753D01*
X15595Y-25753D01*
X15595Y-25753D01*
X15595Y-25753D01*
G37*
G36*
X14864Y-22872D02*
X14864Y-23141D01*
X14865Y-23211D01*
X14866Y-23274D01*
X14867Y-23328D01*
X14868Y-23370D01*
X14870Y-23398D01*
X14872Y-23411D01*
X14872Y-23411D01*
X14883Y-23412D01*
X14911Y-23414D01*
X14953Y-23418D01*
X15007Y-23423D01*
X15070Y-23429D01*
X15141Y-23435D01*
X15172Y-23438D01*
X15465Y-23466D01*
X15597Y-23417D01*
X15648Y-23398D01*
X15684Y-23384D01*
X15707Y-23374D01*
X15721Y-23365D01*
X15727Y-23356D01*
X15728Y-23347D01*
X15728Y-23344D01*
X15727Y-23328D01*
X15724Y-23295D01*
X15719Y-23250D01*
X15713Y-23194D01*
X15706Y-23132D01*
X15702Y-23098D01*
X15676Y-22877D01*
X15270Y-22875D01*
X14864Y-22872D01*
X14864Y-22872D01*
X14864Y-22872D01*
G37*
G36*
X15537Y-19933D02*
X15537Y-20256D01*
X15537Y-20578D01*
X15842Y-20578D01*
X16147Y-20578D01*
X16211Y-20513D01*
X16274Y-20448D01*
X16247Y-20224D01*
X16239Y-20160D01*
X16232Y-20103D01*
X16225Y-20056D01*
X16220Y-20020D01*
X16216Y-19999D01*
X16215Y-19995D01*
X16205Y-19993D01*
X16178Y-19989D01*
X16136Y-19985D01*
X16083Y-19980D01*
X16020Y-19975D01*
X15950Y-19969D01*
X15929Y-19967D01*
X15854Y-19961D01*
X15783Y-19956D01*
X15719Y-19950D01*
X15664Y-19946D01*
X15621Y-19942D01*
X15595Y-19939D01*
X15592Y-19939D01*
X15537Y-19933D01*
X15537Y-19933D01*
X15537Y-19933D01*
G37*
G36*
X17564Y-24947D02*
X17527Y-24948D01*
X17484Y-24951D01*
X17459Y-24953D01*
X17400Y-24959D01*
X17400Y-25119D01*
X17400Y-25278D01*
X17470Y-25348D01*
X17539Y-25417D01*
X17623Y-25417D01*
X17663Y-25418D01*
X17689Y-25420D01*
X17704Y-25424D01*
X17713Y-25432D01*
X17718Y-25439D01*
X17741Y-25468D01*
X17772Y-25482D01*
X17794Y-25484D01*
X17831Y-25477D01*
X17858Y-25456D01*
X17874Y-25428D01*
X17878Y-25395D01*
X17869Y-25363D01*
X17845Y-25335D01*
X17834Y-25328D01*
X17798Y-25315D01*
X17764Y-25321D01*
X17731Y-25345D01*
X17726Y-25350D01*
X17710Y-25365D01*
X17695Y-25374D01*
X17674Y-25378D01*
X17642Y-25379D01*
X17628Y-25379D01*
X17558Y-25379D01*
X17498Y-25318D01*
X17438Y-25258D01*
X17438Y-25127D01*
X17438Y-24995D01*
X17525Y-24995D01*
X17565Y-24995D01*
X17591Y-24993D01*
X17604Y-24990D01*
X17610Y-24983D01*
X17611Y-24973D01*
X17611Y-24971D01*
X17609Y-24956D01*
X17601Y-24949D01*
X17581Y-24947D01*
X17564Y-24947D01*
X17564Y-24947D01*
X17564Y-24947D01*
G37*
G36*
X17500Y-24491D02*
X17500Y-24582D01*
X17500Y-24673D01*
X17580Y-24676D01*
X17659Y-24679D01*
X17659Y-24875D01*
X17659Y-25071D01*
X17580Y-25074D01*
X17500Y-25076D01*
X17498Y-25165D01*
X17497Y-25211D01*
X17499Y-25240D01*
X17503Y-25255D01*
X17508Y-25259D01*
X17520Y-25260D01*
X17549Y-25261D01*
X17593Y-25262D01*
X17648Y-25262D01*
X17714Y-25262D01*
X17786Y-25262D01*
X17832Y-25261D01*
X18144Y-25259D01*
X18144Y-25167D01*
X18144Y-25076D01*
X18065Y-25074D01*
X17985Y-25071D01*
X17985Y-24875D01*
X17985Y-24679D01*
X18065Y-24676D01*
X18144Y-24673D01*
X18144Y-24582D01*
X18144Y-24491D01*
X17822Y-24491D01*
X17500Y-24491D01*
X17500Y-24491D01*
X17500Y-24491D01*
G37*
G36*
X17697Y-22220D02*
X17699Y-22332D01*
X17699Y-22379D01*
X17701Y-22420D01*
X17702Y-22450D01*
X17704Y-22465D01*
X17712Y-22476D01*
X17731Y-22499D01*
X17761Y-22532D01*
X17800Y-22574D01*
X17847Y-22622D01*
X17899Y-22675D01*
X17947Y-22724D01*
X18187Y-22964D01*
X18187Y-23579D01*
X18187Y-24194D01*
X18225Y-24231D01*
X18264Y-24269D01*
X18264Y-24537D01*
X18264Y-24807D01*
X18239Y-24832D01*
X18227Y-24845D01*
X18214Y-24852D01*
X18198Y-24856D01*
X18173Y-24856D01*
X18134Y-24854D01*
X18124Y-24853D01*
X18033Y-24848D01*
X18033Y-24873D01*
X18033Y-24899D01*
X18132Y-24899D01*
X18231Y-24899D01*
X18267Y-24862D01*
X18302Y-24826D01*
X18302Y-24538D01*
X18302Y-24251D01*
X18263Y-24213D01*
X18225Y-24175D01*
X18226Y-23560D01*
X18226Y-22945D01*
X17989Y-22708D01*
X17752Y-22471D01*
X17754Y-22345D01*
X17756Y-22220D01*
X17727Y-22220D01*
X17697Y-22220D01*
X17697Y-22220D01*
X17697Y-22220D01*
G37*
G36*
X17827Y-21725D02*
X17801Y-21751D01*
X17781Y-21781D01*
X17774Y-21815D01*
X17781Y-21847D01*
X17786Y-21856D01*
X17818Y-21882D01*
X17854Y-21892D01*
X17891Y-21885D01*
X17920Y-21864D01*
X17939Y-21841D01*
X17946Y-21822D01*
X17944Y-21803D01*
X17939Y-21771D01*
X18088Y-21776D01*
X18237Y-21781D01*
X18234Y-21753D01*
X18230Y-21725D01*
X18029Y-21725D01*
X17827Y-21725D01*
X17827Y-21725D01*
X17827Y-21725D01*
G37*
G36*
X17860Y-20947D02*
X17841Y-20952D01*
X17807Y-20975D01*
X17788Y-21007D01*
X17785Y-21043D01*
X17795Y-21072D01*
X17818Y-21101D01*
X17850Y-21114D01*
X17870Y-21115D01*
X17897Y-21112D01*
X17915Y-21105D01*
X17917Y-21103D01*
X17929Y-21098D01*
X17954Y-21095D01*
X17995Y-21092D01*
X18053Y-21091D01*
X18080Y-21091D01*
X18230Y-21091D01*
X18230Y-21067D01*
X18230Y-21043D01*
X18093Y-21043D01*
X18040Y-21043D01*
X18002Y-21043D01*
X17978Y-21041D01*
X17964Y-21038D01*
X17958Y-21033D01*
X17957Y-21026D01*
X17957Y-21024D01*
X17948Y-20992D01*
X17926Y-20967D01*
X17894Y-20951D01*
X17860Y-20947D01*
X17860Y-20947D01*
X17860Y-20947D01*
G37*
G36*
X17793Y-22220D02*
X17793Y-22335D01*
X17793Y-22450D01*
X17822Y-22450D01*
X17843Y-22448D01*
X17850Y-22437D01*
X17851Y-22424D01*
X17852Y-22418D01*
X17857Y-22417D01*
X17867Y-22422D01*
X17883Y-22434D01*
X17906Y-22455D01*
X17938Y-22486D01*
X17981Y-22527D01*
X18035Y-22581D01*
X18062Y-22609D01*
X18274Y-22820D01*
X18273Y-23410D01*
X18273Y-24000D01*
X18407Y-24135D01*
X18454Y-24182D01*
X18489Y-24219D01*
X18513Y-24246D01*
X18528Y-24265D01*
X18535Y-24279D01*
X18537Y-24289D01*
X18536Y-24291D01*
X18534Y-24329D01*
X18547Y-24361D01*
X18570Y-24384D01*
X18600Y-24397D01*
X18632Y-24399D01*
X18664Y-24385D01*
X18681Y-24370D01*
X18701Y-24334D01*
X18703Y-24297D01*
X18686Y-24262D01*
X18683Y-24258D01*
X18665Y-24242D01*
X18645Y-24234D01*
X18615Y-24232D01*
X18611Y-24232D01*
X18562Y-24231D01*
X18437Y-24107D01*
X18312Y-23982D01*
X18312Y-23391D01*
X18312Y-22800D01*
X18081Y-22570D01*
X17851Y-22340D01*
X17851Y-22280D01*
X17851Y-22220D01*
X17822Y-22220D01*
X17793Y-22220D01*
X17793Y-22220D01*
X17793Y-22220D01*
G37*
G36*
X19234Y-18926D02*
X18992Y-18928D01*
X18750Y-18931D01*
X18749Y-19012D01*
X18749Y-19094D01*
X18694Y-19097D01*
X18650Y-19096D01*
X18622Y-19088D01*
X18617Y-19085D01*
X18582Y-19071D01*
X18547Y-19075D01*
X18513Y-19098D01*
X18511Y-19099D01*
X18493Y-19120D01*
X18486Y-19139D01*
X18487Y-19166D01*
X18488Y-19171D01*
X18490Y-19198D01*
X18485Y-19216D01*
X18470Y-19233D01*
X18461Y-19242D01*
X18427Y-19271D01*
X18427Y-19490D01*
X18427Y-19709D01*
X18230Y-19905D01*
X18033Y-20102D01*
X18033Y-20183D01*
X18033Y-20263D01*
X17917Y-20378D01*
X17801Y-20492D01*
X17796Y-20640D01*
X17794Y-20697D01*
X17793Y-20738D01*
X17794Y-20765D01*
X17796Y-20782D01*
X17801Y-20791D01*
X17806Y-20795D01*
X17829Y-20797D01*
X17838Y-20795D01*
X17844Y-20790D01*
X17848Y-20781D01*
X17850Y-20763D01*
X17851Y-20735D01*
X17850Y-20693D01*
X17849Y-20645D01*
X17844Y-20502D01*
X17958Y-20389D01*
X18072Y-20275D01*
X18072Y-20198D01*
X18072Y-20121D01*
X18269Y-19925D01*
X18465Y-19728D01*
X18465Y-19507D01*
X18465Y-19287D01*
X18491Y-19261D01*
X18510Y-19244D01*
X18529Y-19238D01*
X18557Y-19240D01*
X18558Y-19240D01*
X18586Y-19242D01*
X18605Y-19235D01*
X18626Y-19218D01*
X18628Y-19216D01*
X18649Y-19188D01*
X18658Y-19162D01*
X18658Y-19161D01*
X18659Y-19146D01*
X18666Y-19139D01*
X18684Y-19138D01*
X18703Y-19139D01*
X18749Y-19142D01*
X18749Y-19224D01*
X18750Y-19305D01*
X18992Y-19308D01*
X19234Y-19310D01*
X19234Y-19118D01*
X19234Y-18926D01*
X19234Y-18926D01*
X19234Y-18926D01*
G37*
G36*
X17872Y-24259D02*
X17869Y-24260D01*
X17833Y-24279D01*
X17811Y-24308D01*
X17802Y-24342D01*
X17808Y-24377D01*
X17826Y-24405D01*
X17859Y-24425D01*
X17895Y-24428D01*
X17930Y-24413D01*
X17952Y-24395D01*
X17975Y-24373D01*
X17996Y-24363D01*
X18026Y-24361D01*
X18031Y-24361D01*
X18055Y-24362D01*
X18073Y-24366D01*
X18091Y-24378D01*
X18114Y-24398D01*
X18132Y-24416D01*
X18187Y-24472D01*
X18187Y-24583D01*
X18187Y-24693D01*
X18155Y-24724D01*
X18131Y-24744D01*
X18106Y-24753D01*
X18079Y-24755D01*
X18051Y-24756D01*
X18038Y-24760D01*
X18034Y-24771D01*
X18033Y-24779D01*
X18034Y-24791D01*
X18040Y-24798D01*
X18055Y-24802D01*
X18083Y-24803D01*
X18101Y-24803D01*
X18136Y-24802D01*
X18157Y-24800D01*
X18166Y-24794D01*
X18168Y-24785D01*
X18174Y-24768D01*
X18191Y-24746D01*
X18197Y-24740D01*
X18225Y-24713D01*
X18225Y-24582D01*
X18225Y-24452D01*
X18160Y-24387D01*
X18095Y-24323D01*
X18032Y-24323D01*
X17998Y-24322D01*
X17977Y-24319D01*
X17965Y-24311D01*
X17957Y-24299D01*
X17935Y-24275D01*
X17904Y-24261D01*
X17872Y-24259D01*
X17872Y-24259D01*
X17872Y-24259D01*
G37*
G36*
X18177Y-25878D02*
X18031Y-25880D01*
X17885Y-25883D01*
X17882Y-26029D01*
X17879Y-26176D01*
X18028Y-26176D01*
X18177Y-26176D01*
X18177Y-26027D01*
X18177Y-25878D01*
X18177Y-25878D01*
X18177Y-25878D01*
G37*
G36*
X18074Y-20558D02*
X18042Y-20563D01*
X18011Y-20584D01*
X17988Y-20617D01*
X17984Y-20653D01*
X17998Y-20687D01*
X18019Y-20709D01*
X18053Y-20736D01*
X18053Y-20839D01*
X18053Y-20942D01*
X18023Y-20942D01*
X18003Y-20944D01*
X17996Y-20954D01*
X17997Y-20969D01*
X18000Y-20995D01*
X18115Y-20995D01*
X18230Y-20995D01*
X18230Y-20971D01*
X18229Y-20958D01*
X18222Y-20950D01*
X18204Y-20946D01*
X18173Y-20944D01*
X18140Y-20941D01*
X18114Y-20936D01*
X18103Y-20931D01*
X18097Y-20918D01*
X18093Y-20888D01*
X18091Y-20842D01*
X18091Y-20822D01*
X18091Y-20778D01*
X18093Y-20748D01*
X18096Y-20731D01*
X18101Y-20723D01*
X18109Y-20719D01*
X18126Y-20708D01*
X18142Y-20686D01*
X18144Y-20684D01*
X18154Y-20647D01*
X18149Y-20614D01*
X18132Y-20586D01*
X18106Y-20567D01*
X18074Y-20558D01*
X18074Y-20558D01*
X18074Y-20558D01*
G37*
G36*
X18116Y-21818D02*
X18096Y-21819D01*
X18000Y-21821D01*
X17997Y-21848D01*
X17994Y-21876D01*
X18128Y-21873D01*
X18177Y-21872D01*
X18219Y-21873D01*
X18250Y-21873D01*
X18267Y-21875D01*
X18269Y-21876D01*
X18272Y-21887D01*
X18274Y-21913D01*
X18275Y-21949D01*
X18275Y-21961D01*
X18276Y-22001D01*
X18278Y-22027D01*
X18284Y-22044D01*
X18294Y-22059D01*
X18303Y-22068D01*
X18336Y-22091D01*
X18370Y-22094D01*
X18404Y-22079D01*
X18420Y-22066D01*
X18438Y-22044D01*
X18445Y-22025D01*
X18443Y-22001D01*
X18430Y-21962D01*
X18404Y-21937D01*
X18366Y-21927D01*
X18355Y-21927D01*
X18313Y-21927D01*
X18310Y-21879D01*
X18307Y-21831D01*
X18249Y-21823D01*
X18213Y-21820D01*
X18166Y-21819D01*
X18116Y-21818D01*
X18116Y-21818D01*
X18116Y-21818D01*
G37*
G36*
X18000Y-21629D02*
X17997Y-21656D01*
X17994Y-21684D01*
X18124Y-21681D01*
X18255Y-21678D01*
X18302Y-21725D01*
X18326Y-21750D01*
X18344Y-21771D01*
X18350Y-21782D01*
X18357Y-21792D01*
X18375Y-21813D01*
X18403Y-21843D01*
X18439Y-21880D01*
X18482Y-21923D01*
X18507Y-21949D01*
X18557Y-21999D01*
X18596Y-22037D01*
X18626Y-22065D01*
X18648Y-22084D01*
X18665Y-22095D01*
X18678Y-22102D01*
X18690Y-22104D01*
X18697Y-22104D01*
X18726Y-22109D01*
X18747Y-22126D01*
X18751Y-22132D01*
X18780Y-22157D01*
X18815Y-22167D01*
X18849Y-22163D01*
X18879Y-22143D01*
X18893Y-22123D01*
X18906Y-22088D01*
X18902Y-22058D01*
X18883Y-22028D01*
X18851Y-22004D01*
X18816Y-21997D01*
X18781Y-22006D01*
X18758Y-22024D01*
X18742Y-22043D01*
X18734Y-22057D01*
X18734Y-22058D01*
X18726Y-22064D01*
X18708Y-22066D01*
X18696Y-22064D01*
X18681Y-22055D01*
X18660Y-22039D01*
X18631Y-22014D01*
X18594Y-21978D01*
X18545Y-21930D01*
X18540Y-21924D01*
X18498Y-21881D01*
X18460Y-21843D01*
X18430Y-21811D01*
X18409Y-21787D01*
X18399Y-21774D01*
X18398Y-21773D01*
X18392Y-21762D01*
X18375Y-21742D01*
X18349Y-21715D01*
X18331Y-21696D01*
X18263Y-21629D01*
X18132Y-21629D01*
X18000Y-21629D01*
X18000Y-21629D01*
X18000Y-21629D01*
G37*
G36*
X18399Y-21490D02*
X18373Y-21495D01*
X18346Y-21507D01*
X18325Y-21523D01*
X18319Y-21531D01*
X18311Y-21539D01*
X18293Y-21540D01*
X18267Y-21537D01*
X18238Y-21534D01*
X18197Y-21531D01*
X18148Y-21529D01*
X18108Y-21529D01*
X17995Y-21528D01*
X17995Y-21552D01*
X18000Y-21573D01*
X18010Y-21583D01*
X18025Y-21584D01*
X18055Y-21585D01*
X18096Y-21585D01*
X18143Y-21584D01*
X18151Y-21584D01*
X18277Y-21579D01*
X18371Y-21671D01*
X18412Y-21710D01*
X18442Y-21737D01*
X18465Y-21754D01*
X18484Y-21764D01*
X18502Y-21768D01*
X18523Y-21772D01*
X18534Y-21780D01*
X18539Y-21798D01*
X18541Y-21819D01*
X18543Y-21864D01*
X18601Y-21864D01*
X18658Y-21864D01*
X18658Y-21754D01*
X18658Y-21643D01*
X18600Y-21643D01*
X18542Y-21643D01*
X18542Y-21687D01*
X18541Y-21713D01*
X18537Y-21726D01*
X18525Y-21730D01*
X18517Y-21730D01*
X18492Y-21723D01*
X18463Y-21703D01*
X18456Y-21698D01*
X18421Y-21666D01*
X18448Y-21641D01*
X18471Y-21610D01*
X18476Y-21574D01*
X18463Y-21538D01*
X18447Y-21518D01*
X18424Y-21500D01*
X18403Y-21490D01*
X18399Y-21490D01*
X18399Y-21490D01*
X18399Y-21490D01*
G37*
G36*
X18543Y-21298D02*
X18541Y-21343D01*
X18537Y-21389D01*
X18500Y-21390D01*
X18475Y-21393D01*
X18460Y-21400D01*
X18458Y-21402D01*
X18446Y-21408D01*
X18418Y-21412D01*
X18384Y-21413D01*
X18338Y-21415D01*
X18311Y-21421D01*
X18304Y-21426D01*
X18295Y-21431D01*
X18278Y-21434D01*
X18250Y-21436D01*
X18208Y-21436D01*
X18150Y-21434D01*
X18144Y-21434D01*
X17995Y-21430D01*
X17995Y-21455D01*
X18000Y-21477D01*
X18011Y-21487D01*
X18025Y-21489D01*
X18055Y-21489D01*
X18097Y-21489D01*
X18146Y-21488D01*
X18165Y-21487D01*
X18224Y-21484D01*
X18267Y-21481D01*
X18296Y-21476D01*
X18314Y-21471D01*
X18321Y-21466D01*
X18341Y-21457D01*
X18377Y-21452D01*
X18401Y-21451D01*
X18434Y-21450D01*
X18459Y-21446D01*
X18470Y-21442D01*
X18483Y-21435D01*
X18506Y-21432D01*
X18509Y-21432D01*
X18530Y-21433D01*
X18539Y-21440D01*
X18542Y-21457D01*
X18542Y-21475D01*
X18542Y-21518D01*
X18600Y-21518D01*
X18658Y-21518D01*
X18658Y-21475D01*
X18659Y-21449D01*
X18664Y-21436D01*
X18675Y-21432D01*
X18681Y-21432D01*
X18706Y-21432D01*
X18706Y-21642D01*
X18706Y-21852D01*
X18762Y-21905D01*
X18793Y-21934D01*
X18815Y-21949D01*
X18831Y-21955D01*
X18840Y-21954D01*
X18850Y-21954D01*
X18864Y-21960D01*
X18883Y-21974D01*
X18909Y-21998D01*
X18946Y-22033D01*
X18971Y-22057D01*
X19080Y-22166D01*
X19080Y-22587D01*
X19080Y-22702D01*
X19079Y-22798D01*
X19078Y-22876D01*
X19077Y-22935D01*
X19075Y-22976D01*
X19072Y-23000D01*
X19070Y-23007D01*
X19050Y-23016D01*
X19031Y-23037D01*
X19017Y-23065D01*
X19013Y-23091D01*
X19021Y-23129D01*
X19042Y-23156D01*
X19072Y-23172D01*
X19105Y-23174D01*
X19139Y-23161D01*
X19154Y-23148D01*
X19176Y-23115D01*
X19181Y-23079D01*
X19167Y-23045D01*
X19149Y-23027D01*
X19118Y-23001D01*
X19118Y-22574D01*
X19118Y-22147D01*
X19001Y-22030D01*
X18956Y-21986D01*
X18923Y-21954D01*
X18898Y-21933D01*
X18879Y-21920D01*
X18865Y-21914D01*
X18854Y-21912D01*
X18831Y-21907D01*
X18805Y-21891D01*
X18784Y-21871D01*
X18744Y-21830D01*
X18744Y-21617D01*
X18744Y-21546D01*
X18743Y-21491D01*
X18742Y-21451D01*
X18739Y-21423D01*
X18734Y-21406D01*
X18726Y-21396D01*
X18715Y-21391D01*
X18701Y-21390D01*
X18692Y-21390D01*
X18674Y-21388D01*
X18665Y-21380D01*
X18661Y-21362D01*
X18660Y-21343D01*
X18657Y-21298D01*
X18600Y-21298D01*
X18543Y-21298D01*
X18543Y-21298D01*
X18543Y-21298D01*
G37*
G36*
X18607Y-19397D02*
X18573Y-19407D01*
X18545Y-19429D01*
X18528Y-19462D01*
X18528Y-19463D01*
X18528Y-19494D01*
X18540Y-19525D01*
X18558Y-19548D01*
X18571Y-19555D01*
X18578Y-19558D01*
X18583Y-19564D01*
X18586Y-19575D01*
X18588Y-19595D01*
X18590Y-19626D01*
X18590Y-19670D01*
X18590Y-19731D01*
X18590Y-19740D01*
X18590Y-19920D01*
X18509Y-20001D01*
X18427Y-20083D01*
X18427Y-20592D01*
X18427Y-21101D01*
X18360Y-21168D01*
X18292Y-21235D01*
X18146Y-21235D01*
X18000Y-21235D01*
X17997Y-21263D01*
X17994Y-21291D01*
X18149Y-21286D01*
X18304Y-21281D01*
X18385Y-21201D01*
X18465Y-21121D01*
X18465Y-20611D01*
X18465Y-20102D01*
X18547Y-20020D01*
X18629Y-19940D01*
X18629Y-19757D01*
X18629Y-19574D01*
X18662Y-19547D01*
X18684Y-19527D01*
X18694Y-19506D01*
X18696Y-19482D01*
X18691Y-19447D01*
X18673Y-19420D01*
X18642Y-19401D01*
X18607Y-19397D01*
X18607Y-19397D01*
X18607Y-19397D01*
G37*
G36*
X18306Y-20020D02*
X18271Y-20024D01*
X18240Y-20044D01*
X18219Y-20077D01*
X18216Y-20112D01*
X18231Y-20148D01*
X18249Y-20170D01*
X18283Y-20202D01*
X18283Y-20657D01*
X18283Y-20764D01*
X18283Y-20853D01*
X18282Y-20926D01*
X18282Y-20984D01*
X18281Y-21030D01*
X18280Y-21065D01*
X18278Y-21090D01*
X18276Y-21107D01*
X18273Y-21118D01*
X18270Y-21124D01*
X18268Y-21126D01*
X18253Y-21131D01*
X18223Y-21135D01*
X18178Y-21138D01*
X18126Y-21139D01*
X18000Y-21139D01*
X17997Y-21167D01*
X17994Y-21194D01*
X18128Y-21191D01*
X18181Y-21189D01*
X18219Y-21187D01*
X18245Y-21185D01*
X18262Y-21181D01*
X18275Y-21174D01*
X18286Y-21164D01*
X18292Y-21159D01*
X18321Y-21131D01*
X18321Y-20658D01*
X18322Y-20551D01*
X18322Y-20461D01*
X18322Y-20387D01*
X18322Y-20328D01*
X18323Y-20281D01*
X18324Y-20246D01*
X18325Y-20220D01*
X18327Y-20202D01*
X18330Y-20191D01*
X18333Y-20184D01*
X18337Y-20181D01*
X18341Y-20179D01*
X18362Y-20164D01*
X18378Y-20137D01*
X18385Y-20106D01*
X18384Y-20089D01*
X18367Y-20054D01*
X18340Y-20030D01*
X18306Y-20020D01*
X18306Y-20020D01*
X18306Y-20020D01*
G37*
G36*
X18095Y-22250D02*
X18064Y-22260D01*
X18040Y-22281D01*
X18026Y-22313D01*
X18025Y-22332D01*
X18026Y-22359D01*
X18030Y-22379D01*
X18030Y-22381D01*
X18042Y-22393D01*
X18062Y-22407D01*
X18063Y-22407D01*
X18082Y-22421D01*
X18090Y-22440D01*
X18091Y-22458D01*
X18092Y-22469D01*
X18095Y-22480D01*
X18102Y-22493D01*
X18113Y-22509D01*
X18132Y-22531D01*
X18159Y-22560D01*
X18195Y-22597D01*
X18242Y-22645D01*
X18290Y-22693D01*
X18490Y-22892D01*
X18595Y-22892D01*
X18701Y-22892D01*
X18814Y-23005D01*
X18859Y-23052D01*
X18894Y-23090D01*
X18917Y-23119D01*
X18926Y-23136D01*
X18926Y-23137D01*
X18933Y-23157D01*
X18949Y-23179D01*
X18951Y-23180D01*
X18974Y-23202D01*
X18974Y-23635D01*
X18974Y-24068D01*
X18901Y-24142D01*
X18867Y-24177D01*
X18845Y-24203D01*
X18832Y-24222D01*
X18827Y-24239D01*
X18826Y-24248D01*
X18823Y-24270D01*
X18813Y-24280D01*
X18799Y-24282D01*
X18785Y-24285D01*
X18777Y-24292D01*
X18773Y-24309D01*
X18773Y-24339D01*
X18773Y-24343D01*
X18773Y-24400D01*
X18847Y-24397D01*
X18922Y-24395D01*
X18925Y-24339D01*
X18927Y-24284D01*
X18898Y-24284D01*
X18878Y-24282D01*
X18870Y-24272D01*
X18869Y-24253D01*
X18871Y-24236D01*
X18879Y-24219D01*
X18895Y-24198D01*
X18922Y-24169D01*
X18941Y-24150D01*
X19013Y-24078D01*
X19013Y-23631D01*
X19013Y-23183D01*
X18989Y-23160D01*
X18973Y-23140D01*
X18967Y-23122D01*
X18967Y-23120D01*
X18961Y-23107D01*
X18941Y-23081D01*
X18908Y-23044D01*
X18862Y-22995D01*
X18845Y-22978D01*
X18720Y-22853D01*
X18614Y-22853D01*
X18509Y-22853D01*
X18319Y-22664D01*
X18261Y-22605D01*
X18216Y-22559D01*
X18181Y-22522D01*
X18157Y-22495D01*
X18141Y-22474D01*
X18132Y-22459D01*
X18130Y-22449D01*
X18130Y-22448D01*
X18137Y-22422D01*
X18149Y-22411D01*
X18166Y-22395D01*
X18182Y-22371D01*
X18184Y-22367D01*
X18192Y-22343D01*
X18191Y-22324D01*
X18181Y-22299D01*
X18180Y-22298D01*
X18157Y-22268D01*
X18127Y-22252D01*
X18095Y-22250D01*
X18095Y-22250D01*
X18095Y-22250D01*
G37*
G36*
X18362Y-23110D02*
X18360Y-23118D01*
X18358Y-23143D01*
X18356Y-23181D01*
X18354Y-23230D01*
X18352Y-23286D01*
X18352Y-23293D01*
X18350Y-23477D01*
X18465Y-23477D01*
X18581Y-23477D01*
X18581Y-23510D01*
X18577Y-23536D01*
X18565Y-23548D01*
X18561Y-23550D01*
X18542Y-23564D01*
X18525Y-23589D01*
X18515Y-23618D01*
X18514Y-23630D01*
X18520Y-23649D01*
X18534Y-23673D01*
X18538Y-23678D01*
X18569Y-23702D01*
X18602Y-23710D01*
X18635Y-23703D01*
X18663Y-23684D01*
X18681Y-23655D01*
X18686Y-23625D01*
X18683Y-23598D01*
X18669Y-23575D01*
X18653Y-23559D01*
X18628Y-23530D01*
X18619Y-23504D01*
X18619Y-23502D01*
X18619Y-23478D01*
X18737Y-23475D01*
X18854Y-23473D01*
X18857Y-23293D01*
X18860Y-23113D01*
X18615Y-23113D01*
X18548Y-23113D01*
X18487Y-23112D01*
X18436Y-23112D01*
X18396Y-23112D01*
X18371Y-23111D01*
X18362Y-23110D01*
X18362Y-23110D01*
X18362Y-23110D01*
G37*
G36*
X19349Y-25445D02*
X19289Y-25448D01*
X19229Y-25451D01*
X19226Y-25496D01*
X19223Y-25542D01*
X19185Y-25542D01*
X19147Y-25542D01*
X19147Y-25593D01*
X19146Y-25625D01*
X19139Y-25647D01*
X19123Y-25667D01*
X19111Y-25679D01*
X19074Y-25715D01*
X18945Y-25715D01*
X18816Y-25715D01*
X18719Y-25812D01*
X18621Y-25910D01*
X18580Y-25893D01*
X18531Y-25882D01*
X18485Y-25888D01*
X18444Y-25908D01*
X18411Y-25938D01*
X18389Y-25978D01*
X18379Y-26023D01*
X18385Y-26071D01*
X18395Y-26097D01*
X18425Y-26136D01*
X18467Y-26163D01*
X18509Y-26173D01*
X18560Y-26171D01*
X18604Y-26152D01*
X18638Y-26122D01*
X18666Y-26078D01*
X18674Y-26031D01*
X18664Y-25982D01*
X18664Y-25981D01*
X18648Y-25941D01*
X18741Y-25847D01*
X18835Y-25753D01*
X18965Y-25753D01*
X19095Y-25753D01*
X19140Y-25707D01*
X19165Y-25680D01*
X19179Y-25660D01*
X19185Y-25639D01*
X19186Y-25621D01*
X19187Y-25595D01*
X19193Y-25583D01*
X19205Y-25580D01*
X19217Y-25583D01*
X19223Y-25595D01*
X19224Y-25621D01*
X19224Y-25624D01*
X19224Y-25667D01*
X19286Y-25667D01*
X19349Y-25667D01*
X19349Y-25556D01*
X19349Y-25445D01*
X19349Y-25445D01*
X19349Y-25445D01*
G37*
G36*
X18432Y-24750D02*
X18429Y-24822D01*
X18429Y-24858D01*
X18430Y-24886D01*
X18433Y-24901D01*
X18433Y-24902D01*
X18447Y-24907D01*
X18462Y-24908D01*
X18478Y-24911D01*
X18484Y-24924D01*
X18485Y-24940D01*
X18488Y-24961D01*
X18499Y-24982D01*
X18522Y-25008D01*
X18533Y-25019D01*
X18564Y-25052D01*
X18579Y-25076D01*
X18578Y-25091D01*
X18561Y-25099D01*
X18537Y-25100D01*
X18494Y-25100D01*
X18494Y-25163D01*
X18494Y-25225D01*
X18605Y-25225D01*
X18716Y-25225D01*
X18713Y-25165D01*
X18710Y-25105D01*
X18665Y-25102D01*
X18637Y-25100D01*
X18624Y-25094D01*
X18620Y-25082D01*
X18619Y-25070D01*
X18615Y-25050D01*
X18603Y-25030D01*
X18578Y-25004D01*
X18571Y-24998D01*
X18540Y-24965D01*
X18524Y-24939D01*
X18524Y-24919D01*
X18541Y-24908D01*
X18550Y-24907D01*
X18563Y-24904D01*
X18571Y-24899D01*
X18574Y-24886D01*
X18576Y-24861D01*
X18576Y-24827D01*
X18576Y-24750D01*
X18504Y-24750D01*
X18432Y-24750D01*
X18432Y-24750D01*
X18432Y-24750D01*
G37*
G36*
X19335Y-24284D02*
X19295Y-24285D01*
X19271Y-24286D01*
X19258Y-24290D01*
X19254Y-24297D01*
X19253Y-24303D01*
X19250Y-24316D01*
X19237Y-24321D01*
X19214Y-24323D01*
X19189Y-24324D01*
X19178Y-24331D01*
X19176Y-24340D01*
X19170Y-24352D01*
X19152Y-24375D01*
X19125Y-24406D01*
X19091Y-24441D01*
X19078Y-24455D01*
X19039Y-24493D01*
X19012Y-24519D01*
X18993Y-24535D01*
X18981Y-24542D01*
X18974Y-24541D01*
X18968Y-24535D01*
X18967Y-24534D01*
X18962Y-24527D01*
X18954Y-24522D01*
X18941Y-24519D01*
X18920Y-24517D01*
X18888Y-24515D01*
X18843Y-24515D01*
X18781Y-24515D01*
X18768Y-24514D01*
X18581Y-24514D01*
X18581Y-24486D01*
X18581Y-24457D01*
X18504Y-24457D01*
X18427Y-24457D01*
X18427Y-24534D01*
X18427Y-24611D01*
X18504Y-24611D01*
X18581Y-24611D01*
X18581Y-24582D01*
X18581Y-24553D01*
X18758Y-24553D01*
X18936Y-24553D01*
X18936Y-24577D01*
X18931Y-24596D01*
X18922Y-24601D01*
X18914Y-24605D01*
X18910Y-24618D01*
X18908Y-24643D01*
X18907Y-24678D01*
X18907Y-24756D01*
X18953Y-24753D01*
X18998Y-24750D01*
X18999Y-24671D01*
X19000Y-24591D01*
X19114Y-24476D01*
X19152Y-24438D01*
X19186Y-24405D01*
X19214Y-24380D01*
X19232Y-24365D01*
X19239Y-24361D01*
X19250Y-24369D01*
X19256Y-24380D01*
X19260Y-24390D01*
X19269Y-24396D01*
X19287Y-24398D01*
X19318Y-24398D01*
X19336Y-24397D01*
X19411Y-24395D01*
X19414Y-24339D01*
X19417Y-24284D01*
X19335Y-24284D01*
X19335Y-24284D01*
X19335Y-24284D01*
G37*
G36*
X18465Y-23756D02*
X18465Y-23900D01*
X18465Y-24044D01*
X18701Y-24044D01*
X18936Y-24044D01*
X18936Y-23900D01*
X18936Y-23756D01*
X18701Y-23756D01*
X18465Y-23756D01*
X18465Y-23756D01*
X18465Y-23756D01*
G37*
G36*
X19277Y-24606D02*
X19274Y-24675D01*
X19273Y-24713D01*
X19275Y-24736D01*
X19281Y-24748D01*
X19286Y-24751D01*
X19299Y-24764D01*
X19301Y-24775D01*
X19300Y-24781D01*
X19296Y-24785D01*
X19286Y-24788D01*
X19268Y-24791D01*
X19239Y-24792D01*
X19198Y-24793D01*
X19142Y-24793D01*
X19086Y-24793D01*
X18872Y-24793D01*
X18850Y-24817D01*
X18832Y-24832D01*
X18813Y-24837D01*
X18788Y-24835D01*
X18758Y-24833D01*
X18737Y-24841D01*
X18722Y-24852D01*
X18698Y-24884D01*
X18691Y-24921D01*
X18700Y-24957D01*
X18701Y-24958D01*
X18727Y-24989D01*
X18760Y-25003D01*
X18796Y-24999D01*
X18830Y-24979D01*
X18850Y-24960D01*
X18858Y-24940D01*
X18858Y-24912D01*
X18860Y-24877D01*
X18872Y-24852D01*
X18873Y-24851D01*
X18880Y-24845D01*
X18888Y-24840D01*
X18901Y-24837D01*
X18921Y-24834D01*
X18951Y-24833D01*
X18992Y-24832D01*
X19047Y-24832D01*
X19114Y-24831D01*
X19187Y-24831D01*
X19243Y-24831D01*
X19285Y-24830D01*
X19313Y-24827D01*
X19332Y-24822D01*
X19343Y-24815D01*
X19347Y-24806D01*
X19349Y-24792D01*
X19349Y-24779D01*
X19355Y-24759D01*
X19364Y-24751D01*
X19372Y-24744D01*
X19376Y-24728D01*
X19377Y-24700D01*
X19376Y-24675D01*
X19373Y-24606D01*
X19325Y-24606D01*
X19277Y-24606D01*
X19277Y-24606D01*
X19277Y-24606D01*
G37*
G36*
X19234Y-20097D02*
X18993Y-20100D01*
X18752Y-20102D01*
X18750Y-20288D01*
X18750Y-20345D01*
X18750Y-20396D01*
X18751Y-20437D01*
X18751Y-20465D01*
X18753Y-20477D01*
X18753Y-20478D01*
X18764Y-20479D01*
X18789Y-20481D01*
X18826Y-20481D01*
X18866Y-20481D01*
X18974Y-20481D01*
X18974Y-20518D01*
X18975Y-20532D01*
X18980Y-20546D01*
X18989Y-20561D01*
X19005Y-20581D01*
X19030Y-20608D01*
X19066Y-20645D01*
X19090Y-20669D01*
X19205Y-20784D01*
X19205Y-21085D01*
X19205Y-21385D01*
X19171Y-21417D01*
X19148Y-21444D01*
X19138Y-21470D01*
X19138Y-21480D01*
X19146Y-21513D01*
X19169Y-21542D01*
X19199Y-21561D01*
X19224Y-21567D01*
X19257Y-21558D01*
X19286Y-21535D01*
X19305Y-21505D01*
X19311Y-21480D01*
X19305Y-21453D01*
X19287Y-21427D01*
X19277Y-21417D01*
X19243Y-21385D01*
X19243Y-21075D01*
X19243Y-20765D01*
X19128Y-20650D01*
X19084Y-20605D01*
X19052Y-20571D01*
X19031Y-20545D01*
X19018Y-20527D01*
X19013Y-20513D01*
X19013Y-20508D01*
X19013Y-20481D01*
X19123Y-20481D01*
X19234Y-20481D01*
X19234Y-20289D01*
X19234Y-20097D01*
X19234Y-20097D01*
X19234Y-20097D01*
G37*
G36*
X18907Y-25100D02*
X18907Y-25172D01*
X18908Y-25210D01*
X18911Y-25233D01*
X18916Y-25243D01*
X18922Y-25244D01*
X18930Y-25249D01*
X18934Y-25264D01*
X18936Y-25293D01*
X18936Y-25305D01*
X18937Y-25342D01*
X18942Y-25365D01*
X18952Y-25381D01*
X18955Y-25384D01*
X18971Y-25405D01*
X18974Y-25427D01*
X18965Y-25443D01*
X18953Y-25448D01*
X18944Y-25450D01*
X18937Y-25456D01*
X18933Y-25469D01*
X18931Y-25492D01*
X18929Y-25530D01*
X18929Y-25559D01*
X18926Y-25667D01*
X18989Y-25667D01*
X19051Y-25667D01*
X19051Y-25556D01*
X19051Y-25509D01*
X19050Y-25477D01*
X19048Y-25459D01*
X19044Y-25450D01*
X19037Y-25446D01*
X19032Y-25446D01*
X19019Y-25442D01*
X19013Y-25427D01*
X19013Y-25414D01*
X19006Y-25381D01*
X18994Y-25364D01*
X18982Y-25346D01*
X18976Y-25320D01*
X18973Y-25291D01*
X18975Y-25265D01*
X18982Y-25248D01*
X18989Y-25244D01*
X18997Y-25241D01*
X19001Y-25227D01*
X19003Y-25200D01*
X19003Y-25172D01*
X19003Y-25100D01*
X18955Y-25100D01*
X18907Y-25100D01*
X18907Y-25100D01*
X18907Y-25100D01*
G37*
G36*
X19397Y-18084D02*
X19384Y-18086D01*
X19352Y-18103D01*
X19330Y-18131D01*
X19321Y-18166D01*
X19325Y-18201D01*
X19344Y-18230D01*
X19362Y-18246D01*
X19376Y-18254D01*
X19377Y-18254D01*
X19381Y-18263D01*
X19384Y-18291D01*
X19386Y-18338D01*
X19387Y-18404D01*
X19387Y-18489D01*
X19387Y-18501D01*
X19387Y-18749D01*
X19457Y-18818D01*
X19527Y-18887D01*
X19616Y-18887D01*
X19657Y-18888D01*
X19683Y-18889D01*
X19697Y-18893D01*
X19703Y-18899D01*
X19704Y-18907D01*
X19703Y-18915D01*
X19697Y-18920D01*
X19684Y-18924D01*
X19659Y-18925D01*
X19621Y-18926D01*
X19594Y-18926D01*
X19483Y-18926D01*
X19483Y-19118D01*
X19483Y-19310D01*
X19726Y-19308D01*
X19968Y-19305D01*
X19971Y-19137D01*
X19972Y-19081D01*
X19972Y-19030D01*
X19971Y-18988D01*
X19970Y-18959D01*
X19969Y-18947D01*
X19965Y-18938D01*
X19959Y-18932D01*
X19946Y-18928D01*
X19922Y-18927D01*
X19886Y-18926D01*
X19854Y-18926D01*
X19744Y-18926D01*
X19741Y-18890D01*
X19738Y-18854D01*
X19642Y-18851D01*
X19546Y-18848D01*
X19486Y-18789D01*
X19426Y-18730D01*
X19426Y-18497D01*
X19426Y-18265D01*
X19459Y-18232D01*
X19479Y-18208D01*
X19491Y-18186D01*
X19493Y-18177D01*
X19485Y-18141D01*
X19463Y-18110D01*
X19432Y-18090D01*
X19397Y-18084D01*
X19397Y-18084D01*
X19397Y-18084D01*
G37*
G36*
X17827Y-18777D02*
X17824Y-18876D01*
X17822Y-18974D01*
X18016Y-18972D01*
X18211Y-18969D01*
X18211Y-18873D01*
X18211Y-18777D01*
X18019Y-18777D01*
X17827Y-18777D01*
X17827Y-18777D01*
X17827Y-18777D01*
G37*
G36*
X17822Y-18484D02*
X17822Y-18580D01*
X17822Y-18677D01*
X18017Y-18674D01*
X18211Y-18671D01*
X18211Y-18580D01*
X18211Y-18489D01*
X18017Y-18486D01*
X17822Y-18484D01*
X17822Y-18484D01*
X17822Y-18484D01*
G37*
G36*
X17827Y-18191D02*
X17824Y-18290D01*
X17822Y-18389D01*
X18016Y-18386D01*
X18211Y-18383D01*
X18211Y-18287D01*
X18211Y-18191D01*
X18019Y-18191D01*
X17827Y-18191D01*
X17827Y-18191D01*
X17827Y-18191D01*
G37*
G36*
X17822Y-17898D02*
X17822Y-17994D01*
X17822Y-18091D01*
X18017Y-18088D01*
X18211Y-18086D01*
X18211Y-17994D01*
X18211Y-17903D01*
X18017Y-17901D01*
X17822Y-17898D01*
X17822Y-17898D01*
X17822Y-17898D01*
G37*
G36*
X20247Y-18470D02*
X20244Y-18523D01*
X20244Y-18554D01*
X20245Y-18576D01*
X20248Y-18583D01*
X20261Y-18587D01*
X20286Y-18590D01*
X20296Y-18590D01*
X20322Y-18591D01*
X20334Y-18596D01*
X20338Y-18609D01*
X20338Y-18620D01*
X20332Y-18649D01*
X20319Y-18674D01*
X20305Y-18700D01*
X20300Y-18726D01*
X20308Y-18758D01*
X20330Y-18786D01*
X20360Y-18805D01*
X20386Y-18811D01*
X20421Y-18802D01*
X20449Y-18780D01*
X20466Y-18749D01*
X20471Y-18713D01*
X20462Y-18684D01*
X20458Y-18671D01*
X20463Y-18656D01*
X20479Y-18637D01*
X20488Y-18627D01*
X20519Y-18601D01*
X20546Y-18589D01*
X20567Y-18592D01*
X20578Y-18609D01*
X20580Y-18616D01*
X20583Y-18643D01*
X20679Y-18643D01*
X20775Y-18643D01*
X20778Y-18568D01*
X20781Y-18493D01*
X20682Y-18496D01*
X20583Y-18499D01*
X20580Y-18525D01*
X20575Y-18544D01*
X20561Y-18551D01*
X20546Y-18551D01*
X20523Y-18555D01*
X20501Y-18569D01*
X20473Y-18595D01*
X20472Y-18595D01*
X20441Y-18623D01*
X20416Y-18636D01*
X20403Y-18638D01*
X20384Y-18635D01*
X20377Y-18622D01*
X20376Y-18614D01*
X20378Y-18600D01*
X20388Y-18593D01*
X20409Y-18589D01*
X20422Y-18588D01*
X20468Y-18585D01*
X20468Y-18527D01*
X20468Y-18470D01*
X20357Y-18470D01*
X20247Y-18470D01*
X20247Y-18470D01*
X20247Y-18470D01*
G37*
%LPC*%
G54D13*
X19881Y-23948D03*
G54D14*
X19881Y-22948D03*
X19881Y-21948D03*
X19881Y-20948D03*
X19881Y-19948D03*
G54D15*
X23039Y-23350D03*
G54D14*
X22039Y-23350D03*
X23039Y-22350D03*
X22039Y-22350D03*
X23039Y-21350D03*
X22039Y-21350D03*
X23039Y-20350D03*
G54D13*
X22039Y-20350D03*
G54D15*
X21961Y-30738D03*
G54D14*
X22961Y-30738D03*
X21961Y-31738D03*
X22961Y-31738D03*
X21961Y-32738D03*
G54D13*
X22961Y-32738D03*
X21961Y-28738D03*
G54D14*
X22961Y-28738D03*
X21961Y-29738D03*
X22961Y-29738D03*
G54D13*
X8461Y-23588D03*
G54D14*
X8461Y-22588D03*
G54D13*
X8461Y-25588D03*
G54D14*
X8461Y-24588D03*
X8461Y-26588D03*
G54D13*
X8461Y-27588D03*
G54D15*
X18405Y-20562D03*
G54D13*
X18405Y-21562D03*
G54D16*
X22933Y-26574D03*
X22933Y-25393D03*
X8562Y-14566D03*
X8562Y-15748D03*
G54D17*
X9074Y-34645D03*
X12185Y-34645D03*
G54D18*
X11889Y-33730D03*
X9370Y-33730D03*
G54D17*
X19311Y-34645D03*
X22421Y-34645D03*
G54D18*
X22125Y-33730D03*
X19606Y-33730D03*
G54D17*
X22421Y-8661D03*
X19311Y-8661D03*
G54D18*
X19606Y-9576D03*
X22125Y-9576D03*
G54D17*
X12185Y-8661D03*
X9074Y-8661D03*
G54D18*
X9370Y-9576D03*
X11889Y-9576D03*
G54D19*
X22342Y-18385D03*
X22342Y-15236D03*
M02*
