G04 (created by PCBNEW (2013-dec-23)-stable) date Tue 01 Jul 2014 06:11:27 EEST*
%MOIN*%
G04 Gerber Fmt 3.4, Leading zero omitted, Abs format*
%FSLAX34Y34*%
G01*
G70*
G90*
G04 APERTURE LIST*
%ADD10C,0.00590551*%
%ADD11C,0.00393701*%
%ADD12R,0.06X0.06*%
%ADD13C,0.06*%
%ADD14O,0.06X0.06*%
%ADD15C,0.0354331*%
%ADD16R,0.0748031X0.0748031*%
%ADD17R,0.0590551X0.0590551*%
%ADD18C,0.0472441*%
%ADD19C,0.035*%
%ADD20C,0.0114961*%
%ADD21C,0.00799213*%
G04 APERTURE END LIST*
G54D10*
G54D11*
X7874Y-35236D02*
X8070Y-35433D01*
X23622Y-34645D02*
X22834Y-35433D01*
X22834Y-7874D02*
X23622Y-8661D01*
X8661Y-7874D02*
X7874Y-8661D01*
X22834Y-35433D02*
X8070Y-35433D01*
X8661Y-7874D02*
X22834Y-7874D01*
X7874Y-35236D02*
X7874Y-8661D01*
X23622Y-8661D02*
X23622Y-34645D01*
G54D12*
X19881Y-23948D03*
G54D13*
X19881Y-22948D03*
X19881Y-21948D03*
X19881Y-20948D03*
X19881Y-19948D03*
G54D14*
X23039Y-23350D03*
G54D13*
X22039Y-23350D03*
X23039Y-22350D03*
X22039Y-22350D03*
X23039Y-21350D03*
X22039Y-21350D03*
X23039Y-20350D03*
G54D12*
X22039Y-20350D03*
G54D14*
X21961Y-30738D03*
G54D13*
X22961Y-30738D03*
X21961Y-31738D03*
X22961Y-31738D03*
X21961Y-32738D03*
G54D12*
X22961Y-32738D03*
X21961Y-28738D03*
G54D13*
X22961Y-28738D03*
X21961Y-29738D03*
X22961Y-29738D03*
G54D12*
X8461Y-23588D03*
G54D13*
X8461Y-22588D03*
G54D12*
X8461Y-25588D03*
G54D13*
X8461Y-24588D03*
X8461Y-26588D03*
G54D12*
X8461Y-27588D03*
G54D14*
X18405Y-20562D03*
G54D12*
X18405Y-21562D03*
G54D15*
X22933Y-26574D03*
X22933Y-25393D03*
X8562Y-14566D03*
X8562Y-15748D03*
G54D16*
X9074Y-34645D03*
X12185Y-34645D03*
G54D17*
X11889Y-33730D03*
X9370Y-33730D03*
G54D16*
X19311Y-34645D03*
X22421Y-34645D03*
G54D17*
X22125Y-33730D03*
X19606Y-33730D03*
G54D16*
X22421Y-8661D03*
X19311Y-8661D03*
G54D17*
X19606Y-9576D03*
X22125Y-9576D03*
G54D16*
X12185Y-8661D03*
X9074Y-8661D03*
G54D17*
X9370Y-9576D03*
X11889Y-9576D03*
G54D18*
X22342Y-18385D03*
X22342Y-15236D03*
G54D19*
X9066Y-18291D03*
X16357Y-20958D03*
X14605Y-10739D03*
X12396Y-14065D03*
X18486Y-26768D03*
X19863Y-28849D03*
X14414Y-14092D03*
X13325Y-12361D03*
X10830Y-13174D03*
X14207Y-26085D03*
X12466Y-21717D03*
X10566Y-22956D03*
X13248Y-26519D03*
X13648Y-26079D03*
X12150Y-22010D03*
X16117Y-22388D03*
X11028Y-32444D03*
X11522Y-33179D03*
X14338Y-21222D03*
X12744Y-20724D03*
X10753Y-32775D03*
X10502Y-32420D03*
X12186Y-20798D03*
X17715Y-19533D03*
X13190Y-19594D03*
X18784Y-18143D03*
X12864Y-19312D03*
X17086Y-16331D03*
X11798Y-17833D03*
X12819Y-18581D03*
X17633Y-16207D03*
X17633Y-17249D03*
X13270Y-18725D03*
X21554Y-25600D03*
X11602Y-21045D03*
X10263Y-21649D03*
X13946Y-27569D03*
X16754Y-32049D03*
X14473Y-27261D03*
X17404Y-31432D03*
X20610Y-32795D03*
X9900Y-21163D03*
X16855Y-31135D03*
X13967Y-27140D03*
X12759Y-21397D03*
X19464Y-13413D03*
X12790Y-17618D03*
X19904Y-13413D03*
X13219Y-17749D03*
X18943Y-13749D03*
X13958Y-17110D03*
X13064Y-15782D03*
X11781Y-27355D03*
X14700Y-31480D03*
X19455Y-29522D03*
X10615Y-18299D03*
X12594Y-19890D03*
X9376Y-13262D03*
X8347Y-17143D03*
X17734Y-21529D03*
X22873Y-24006D03*
X11001Y-17898D03*
X17593Y-27059D03*
X10162Y-28885D03*
X21451Y-21610D03*
X15294Y-14222D03*
X10702Y-16075D03*
X16709Y-23403D03*
X15897Y-20637D03*
X11149Y-22457D03*
X13846Y-19888D03*
X16965Y-24782D03*
X21416Y-28143D03*
X10118Y-34175D03*
X14272Y-16593D03*
X16839Y-11118D03*
X11238Y-29385D03*
X11816Y-26082D03*
X14112Y-21817D03*
X15304Y-23021D03*
X10483Y-26334D03*
X10301Y-30501D03*
X10067Y-29493D03*
X15718Y-14877D03*
X10182Y-31037D03*
X8661Y-18920D03*
X15465Y-13711D03*
X15082Y-11288D03*
X14017Y-14420D03*
X13958Y-18868D03*
X9764Y-25579D03*
X10348Y-18785D03*
X10575Y-21952D03*
X13836Y-26497D03*
X17698Y-31999D03*
X19788Y-32672D03*
X10531Y-24799D03*
X11532Y-19676D03*
X13013Y-15353D03*
X14895Y-16777D03*
X9862Y-31889D03*
X13474Y-22031D03*
X12820Y-26770D03*
X14503Y-23812D03*
X11683Y-21535D03*
X12974Y-23588D03*
X16905Y-26397D03*
X19061Y-28933D03*
X11752Y-16047D03*
X15355Y-11632D03*
X20463Y-25011D03*
X20515Y-23668D03*
X17792Y-24267D03*
X9597Y-10125D03*
X15244Y-18614D03*
X20083Y-10614D03*
X15309Y-16585D03*
X12741Y-24625D03*
X12125Y-19893D03*
G54D20*
X12796Y-10739D02*
X14605Y-10739D01*
X10501Y-13034D02*
X12796Y-10739D01*
X10501Y-13612D02*
X10501Y-13034D01*
X10960Y-14072D02*
X10501Y-13612D01*
X12389Y-14072D02*
X10960Y-14072D01*
X12396Y-14065D02*
X12389Y-14072D01*
X10060Y-17297D02*
X9066Y-18291D01*
X10060Y-14972D02*
X10060Y-17297D01*
X10960Y-14072D02*
X10060Y-14972D01*
X23039Y-23350D02*
X22603Y-23350D01*
X17899Y-22499D02*
X16357Y-20958D01*
X20565Y-22499D02*
X17899Y-22499D01*
X21872Y-23806D02*
X20565Y-22499D01*
X22201Y-23806D02*
X21872Y-23806D01*
X22603Y-23404D02*
X22201Y-23806D01*
X22603Y-23350D02*
X22603Y-23404D01*
X18486Y-27473D02*
X19863Y-28849D01*
X18486Y-26768D02*
X18486Y-27473D01*
X10866Y-13138D02*
X10830Y-13174D01*
X13325Y-13138D02*
X10866Y-13138D01*
X13460Y-13138D02*
X13325Y-13138D01*
X14414Y-14092D02*
X13460Y-13138D01*
X13325Y-13138D02*
X13325Y-12361D01*
G54D21*
X14207Y-23459D02*
X14207Y-26085D01*
X12466Y-21717D02*
X14207Y-23459D01*
X10566Y-23748D02*
X10566Y-22956D01*
X13248Y-26431D02*
X10566Y-23748D01*
X13248Y-26519D02*
X13248Y-26431D01*
X13648Y-23508D02*
X13648Y-26079D01*
X12150Y-22010D02*
X13648Y-23508D01*
X16117Y-28990D02*
X16117Y-22388D01*
X12691Y-32415D02*
X16117Y-28990D01*
X11056Y-32415D02*
X12691Y-32415D01*
X11028Y-32444D02*
X11056Y-32415D01*
X14338Y-21259D02*
X14338Y-21222D01*
X15764Y-22686D02*
X14338Y-21259D01*
X15764Y-28894D02*
X15764Y-22686D01*
X12560Y-32098D02*
X15764Y-28894D01*
X12338Y-32098D02*
X12560Y-32098D01*
X12222Y-31982D02*
X12338Y-32098D01*
X10512Y-31982D02*
X12222Y-31982D01*
X10198Y-32297D02*
X10512Y-31982D01*
X10198Y-32860D02*
X10198Y-32297D01*
X10566Y-33228D02*
X10198Y-32860D01*
X11473Y-33228D02*
X10566Y-33228D01*
X11522Y-33179D02*
X11473Y-33228D01*
X22961Y-28693D02*
X22961Y-28738D01*
X20367Y-26100D02*
X22961Y-28693D01*
X16594Y-26100D02*
X20367Y-26100D01*
X16415Y-25921D02*
X16594Y-26100D01*
X16415Y-22240D02*
X16415Y-25921D01*
X14899Y-20724D02*
X16415Y-22240D01*
X12744Y-20724D02*
X14899Y-20724D01*
X16594Y-28738D02*
X16594Y-26100D01*
X12757Y-32574D02*
X16594Y-28738D01*
X11399Y-32574D02*
X12757Y-32574D01*
X11198Y-32775D02*
X11399Y-32574D01*
X10753Y-32775D02*
X11198Y-32775D01*
X12406Y-21018D02*
X12186Y-20798D01*
X13914Y-21018D02*
X12406Y-21018D01*
X14028Y-20904D02*
X13914Y-21018D01*
X14457Y-20904D02*
X14028Y-20904D01*
X15823Y-22271D02*
X14457Y-20904D01*
X15823Y-22520D02*
X15823Y-22271D01*
X15926Y-22623D02*
X15823Y-22520D01*
X15926Y-28956D02*
X15926Y-22623D01*
X12626Y-32257D02*
X15926Y-28956D01*
X12272Y-32257D02*
X12626Y-32257D01*
X12157Y-32141D02*
X12272Y-32257D01*
X10781Y-32141D02*
X12157Y-32141D01*
X10502Y-32420D02*
X10781Y-32141D01*
X10459Y-32463D02*
X10502Y-32420D01*
X10459Y-32897D02*
X10459Y-32463D01*
X10631Y-33069D02*
X10459Y-32897D01*
X11139Y-33069D02*
X10631Y-33069D01*
X11475Y-32733D02*
X11139Y-33069D01*
X13865Y-32733D02*
X11475Y-32733D01*
X16279Y-30320D02*
X13865Y-32733D01*
X21380Y-30320D02*
X16279Y-30320D01*
X21961Y-29738D02*
X21380Y-30320D01*
X17654Y-19594D02*
X17715Y-19533D01*
X13190Y-19594D02*
X17654Y-19594D01*
X12877Y-19300D02*
X12864Y-19312D01*
X13982Y-19300D02*
X12877Y-19300D01*
X14963Y-18319D02*
X13982Y-19300D01*
X18608Y-18319D02*
X14963Y-18319D01*
X18784Y-18143D02*
X18608Y-18319D01*
X15620Y-17797D02*
X17086Y-16331D01*
X13708Y-17797D02*
X15620Y-17797D01*
X13462Y-18043D02*
X13708Y-17797D01*
X12009Y-18043D02*
X13462Y-18043D01*
X11798Y-17833D02*
X12009Y-18043D01*
X15860Y-17979D02*
X17633Y-16207D01*
X13751Y-17979D02*
X15860Y-17979D01*
X13528Y-18202D02*
X13751Y-17979D01*
X13198Y-18202D02*
X13528Y-18202D01*
X12819Y-18581D02*
X13198Y-18202D01*
X16744Y-18138D02*
X17633Y-17249D01*
X13856Y-18138D02*
X16744Y-18138D01*
X13270Y-18725D02*
X13856Y-18138D01*
X21554Y-24270D02*
X21554Y-25600D01*
X20659Y-23374D02*
X21554Y-24270D01*
X17905Y-23374D02*
X20659Y-23374D01*
X15031Y-20500D02*
X17905Y-23374D01*
X13099Y-20500D02*
X15031Y-20500D01*
X13019Y-20420D02*
X13099Y-20500D01*
X12144Y-20420D02*
X13019Y-20420D01*
X11602Y-20962D02*
X12144Y-20420D01*
X11602Y-21045D02*
X11602Y-20962D01*
X13203Y-27569D02*
X13946Y-27569D01*
X12526Y-26892D02*
X13203Y-27569D01*
X12526Y-25968D02*
X12526Y-26892D01*
X10263Y-23706D02*
X12526Y-25968D01*
X10263Y-21649D02*
X10263Y-23706D01*
X17794Y-33089D02*
X16754Y-32049D01*
X21610Y-33089D02*
X17794Y-33089D01*
X21961Y-32738D02*
X21610Y-33089D01*
X19246Y-31432D02*
X20610Y-32795D01*
X17404Y-31432D02*
X19246Y-31432D01*
X9796Y-21267D02*
X9900Y-21163D01*
X9796Y-24488D02*
X9796Y-21267D01*
X10648Y-25341D02*
X9796Y-24488D01*
X11519Y-25341D02*
X10648Y-25341D01*
X12129Y-25951D02*
X11519Y-25341D01*
X12129Y-26722D02*
X12129Y-25951D01*
X13286Y-27879D02*
X12129Y-26722D01*
X14051Y-27879D02*
X13286Y-27879D01*
X14473Y-27457D02*
X14051Y-27879D01*
X14473Y-27261D02*
X14473Y-27457D01*
X14473Y-27261D02*
X14473Y-27261D01*
X12759Y-21756D02*
X12759Y-21397D01*
X14415Y-23412D02*
X12759Y-21756D01*
X14518Y-23412D02*
X14415Y-23412D01*
X14810Y-23703D02*
X14518Y-23412D01*
X14810Y-26297D02*
X14810Y-23703D01*
X13967Y-27140D02*
X14810Y-26297D01*
X21357Y-31135D02*
X21961Y-31738D01*
X16855Y-31135D02*
X21357Y-31135D01*
X19464Y-13645D02*
X19464Y-13413D01*
X19055Y-14054D02*
X19464Y-13645D01*
X18683Y-14054D02*
X19055Y-14054D01*
X15331Y-17406D02*
X18683Y-14054D01*
X13002Y-17406D02*
X15331Y-17406D01*
X12790Y-17618D02*
X13002Y-17406D01*
X19904Y-13463D02*
X19904Y-13413D01*
X19154Y-14213D02*
X19904Y-13463D01*
X18771Y-14213D02*
X19154Y-14213D01*
X15419Y-17565D02*
X18771Y-14213D01*
X13403Y-17565D02*
X15419Y-17565D01*
X13219Y-17749D02*
X13403Y-17565D01*
X18561Y-13749D02*
X18943Y-13749D01*
X15200Y-17110D02*
X18561Y-13749D01*
X13958Y-17110D02*
X15200Y-17110D01*
G54D20*
X11781Y-27192D02*
X11781Y-27355D01*
X10549Y-25960D02*
X11781Y-27192D01*
X9687Y-25960D02*
X10549Y-25960D01*
X9429Y-25702D02*
X9687Y-25960D01*
X9429Y-18777D02*
X9429Y-25702D01*
X11676Y-16529D02*
X9429Y-18777D01*
X12317Y-16529D02*
X11676Y-16529D01*
X13064Y-15782D02*
X12317Y-16529D01*
X16658Y-29522D02*
X19455Y-29522D01*
X14700Y-31480D02*
X16658Y-29522D01*
G54D21*
X11003Y-18299D02*
X12594Y-19890D01*
X10615Y-18299D02*
X11003Y-18299D01*
X9376Y-16114D02*
X8347Y-17143D01*
X9376Y-13262D02*
X9376Y-16114D01*
X17665Y-21342D02*
X17665Y-21459D01*
X17665Y-21459D02*
X17734Y-21529D01*
X17862Y-21144D02*
X18801Y-21144D01*
X17862Y-21144D02*
X17665Y-21342D01*
X18897Y-21372D02*
X20306Y-21372D01*
X20306Y-21372D02*
X21784Y-22850D01*
X21784Y-22850D02*
X23328Y-22850D01*
X23328Y-22850D02*
X23458Y-22979D01*
X23458Y-22979D02*
X23458Y-23702D01*
X23458Y-23702D02*
X23153Y-24006D01*
X23153Y-24006D02*
X22873Y-24006D01*
X18897Y-21240D02*
X18897Y-21372D01*
X18801Y-21144D02*
X18897Y-21240D01*
X16505Y-20182D02*
X17665Y-21342D01*
X13313Y-20182D02*
X16505Y-20182D01*
X11029Y-17898D02*
X13313Y-20182D01*
X11001Y-17898D02*
X11029Y-17898D01*
G54D20*
X8461Y-27588D02*
X9461Y-27588D01*
X9534Y-27662D02*
X9534Y-28885D01*
X9461Y-27588D02*
X9534Y-27662D01*
X8461Y-25588D02*
X8461Y-25633D01*
X8011Y-27139D02*
X8461Y-27588D01*
X8011Y-26082D02*
X8011Y-27139D01*
X8461Y-25633D02*
X8011Y-26082D01*
X9534Y-28885D02*
X10162Y-28885D01*
X8461Y-23588D02*
X8461Y-23152D01*
X8406Y-23152D02*
X8461Y-23152D01*
X8025Y-22770D02*
X8406Y-23152D01*
X8025Y-19039D02*
X8025Y-22770D01*
X8727Y-18336D02*
X8025Y-19039D01*
X8727Y-17149D02*
X8727Y-18336D01*
X9702Y-16174D02*
X8727Y-17149D01*
X9702Y-12991D02*
X9702Y-16174D01*
X9275Y-12563D02*
X9702Y-12991D01*
X9275Y-9671D02*
X9275Y-12563D01*
X9370Y-9576D02*
X9275Y-9671D01*
X8461Y-23588D02*
X8461Y-24025D01*
X8461Y-25588D02*
X8461Y-25152D01*
X8406Y-24025D02*
X8461Y-24025D01*
X8025Y-24407D02*
X8406Y-24025D01*
X8025Y-24770D02*
X8025Y-24407D01*
X8406Y-25152D02*
X8025Y-24770D01*
X8461Y-25152D02*
X8406Y-25152D01*
X21539Y-9421D02*
X21694Y-9576D01*
X19606Y-9421D02*
X21539Y-9421D01*
X19356Y-9171D02*
X19606Y-9421D01*
X19311Y-9171D02*
X19356Y-9171D01*
X22125Y-9576D02*
X21694Y-9576D01*
X19311Y-8661D02*
X19311Y-9171D01*
X19606Y-9576D02*
X19606Y-9421D01*
X12185Y-8661D02*
X19311Y-8661D01*
X12185Y-8849D02*
X12185Y-8661D01*
X11889Y-9145D02*
X12185Y-8849D01*
X21961Y-28738D02*
X21961Y-29175D01*
X19606Y-33730D02*
X22125Y-33730D01*
X22401Y-33298D02*
X22961Y-32738D01*
X22125Y-33298D02*
X22401Y-33298D01*
X22125Y-33730D02*
X22125Y-33298D01*
X11889Y-33730D02*
X9370Y-33730D01*
X9370Y-33730D02*
X9370Y-33298D01*
X9370Y-33298D02*
X9534Y-33133D01*
X9534Y-33133D02*
X9534Y-28885D01*
X22016Y-29175D02*
X21961Y-29175D01*
X22518Y-29678D02*
X22016Y-29175D01*
X22518Y-30914D02*
X22518Y-29678D01*
X22906Y-31302D02*
X22518Y-30914D01*
X23142Y-31302D02*
X22906Y-31302D01*
X23397Y-31558D02*
X23142Y-31302D01*
X23397Y-31919D02*
X23397Y-31558D01*
X22961Y-32356D02*
X23397Y-31919D01*
X22961Y-32356D02*
X22961Y-32356D01*
X22961Y-32738D02*
X22961Y-32356D01*
X11889Y-9576D02*
X11889Y-9145D01*
X17628Y-27059D02*
X17593Y-27059D01*
X19744Y-29175D02*
X17628Y-27059D01*
X21961Y-29175D02*
X19744Y-29175D01*
G54D21*
X21451Y-21315D02*
X21451Y-21610D01*
X21852Y-20913D02*
X21451Y-21315D01*
X22602Y-20913D02*
X21852Y-20913D01*
X23039Y-21350D02*
X22602Y-20913D01*
X12070Y-14707D02*
X10702Y-16075D01*
X13280Y-14707D02*
X12070Y-14707D01*
X13297Y-14723D02*
X13280Y-14707D01*
X14793Y-14723D02*
X13297Y-14723D01*
X15294Y-14222D02*
X14793Y-14723D01*
X17254Y-23948D02*
X16709Y-23403D01*
X19881Y-23948D02*
X17254Y-23948D01*
X17918Y-22948D02*
X19881Y-22948D01*
X15897Y-20927D02*
X17918Y-22948D01*
X15897Y-20637D02*
X15897Y-20927D01*
X19848Y-21981D02*
X19881Y-21948D01*
X17771Y-21981D02*
X19848Y-21981D01*
X17441Y-21651D02*
X17771Y-21981D01*
X17441Y-21610D02*
X17441Y-21651D01*
X16172Y-20341D02*
X17441Y-21610D01*
X13197Y-20341D02*
X16172Y-20341D01*
X13115Y-20258D02*
X13197Y-20341D01*
X11953Y-20258D02*
X13115Y-20258D01*
X11149Y-21062D02*
X11953Y-20258D01*
X11149Y-22457D02*
X11149Y-21062D01*
X11149Y-22457D02*
X11149Y-22457D01*
X19821Y-19888D02*
X19881Y-19948D01*
X13846Y-19888D02*
X19821Y-19888D01*
X23395Y-30304D02*
X22961Y-30738D01*
X23395Y-28574D02*
X23395Y-30304D01*
X19603Y-24782D02*
X23395Y-28574D01*
X16965Y-24782D02*
X19603Y-24782D01*
G54D20*
X11114Y-35171D02*
X10118Y-34175D01*
X12626Y-35171D02*
X11114Y-35171D01*
X13567Y-34231D02*
X12626Y-35171D01*
X13567Y-33982D02*
X13567Y-34231D01*
X16811Y-30738D02*
X13567Y-33982D01*
X21961Y-30738D02*
X16811Y-30738D01*
X22160Y-28143D02*
X21416Y-28143D01*
X22397Y-28380D02*
X22160Y-28143D01*
X22397Y-29175D02*
X22397Y-28380D01*
X22961Y-29738D02*
X22397Y-29175D01*
G54D21*
X16839Y-11118D02*
X16839Y-11118D01*
X16839Y-14412D02*
X16839Y-11118D01*
X14659Y-16593D02*
X16839Y-14412D01*
X14272Y-16593D02*
X14659Y-16593D01*
X11816Y-26975D02*
X11816Y-26082D01*
X12498Y-27657D02*
X11816Y-26975D01*
X12498Y-28049D02*
X12498Y-27657D01*
X12498Y-28125D02*
X12498Y-28049D01*
X11238Y-29385D02*
X12498Y-28125D01*
X14105Y-28049D02*
X12498Y-28049D01*
X14981Y-27174D02*
X14105Y-28049D01*
X14981Y-22686D02*
X14981Y-27174D01*
X14112Y-21817D02*
X14981Y-22686D01*
X10927Y-26778D02*
X10483Y-26334D01*
X10927Y-29681D02*
X10927Y-26778D01*
X12698Y-29681D02*
X10927Y-29681D01*
X15304Y-27075D02*
X12698Y-29681D01*
X15304Y-23021D02*
X15304Y-27075D01*
X10301Y-30307D02*
X10301Y-30501D01*
X10927Y-29681D02*
X10301Y-30307D01*
G54D20*
X15677Y-14918D02*
X15718Y-14877D01*
X13242Y-14918D02*
X15677Y-14918D01*
X13207Y-14883D02*
X13242Y-14918D01*
X12474Y-14883D02*
X13207Y-14883D01*
X10308Y-17048D02*
X12474Y-14883D01*
X10308Y-17585D02*
X10308Y-17048D01*
X9235Y-18658D02*
X10308Y-17585D01*
X9235Y-18920D02*
X9235Y-18658D01*
X8661Y-18920D02*
X9235Y-18920D01*
X9983Y-29577D02*
X10067Y-29493D01*
X9983Y-30837D02*
X9983Y-29577D01*
X10182Y-31037D02*
X9983Y-30837D01*
X9235Y-26028D02*
X9235Y-18920D01*
X10473Y-27266D02*
X9235Y-26028D01*
X10473Y-29086D02*
X10473Y-27266D01*
X10067Y-29493D02*
X10473Y-29086D01*
X15041Y-11328D02*
X15082Y-11288D01*
X15041Y-13287D02*
X15041Y-11328D01*
X15465Y-13711D02*
X15041Y-13287D01*
X14656Y-14420D02*
X14017Y-14420D01*
X15364Y-13711D02*
X14656Y-14420D01*
X15465Y-13711D02*
X15364Y-13711D01*
G54D21*
X9605Y-25420D02*
X9764Y-25579D01*
X9605Y-21042D02*
X9605Y-25420D01*
X10054Y-20593D02*
X9605Y-21042D01*
X10054Y-18430D02*
X10054Y-20593D01*
X10880Y-17604D02*
X10054Y-18430D01*
X11148Y-17604D02*
X10880Y-17604D01*
X12563Y-19019D02*
X11148Y-17604D01*
X13807Y-19019D02*
X12563Y-19019D01*
X13958Y-18868D02*
X13807Y-19019D01*
X10575Y-21049D02*
X10575Y-21952D01*
X11832Y-19792D02*
X10575Y-21049D01*
X11832Y-19559D02*
X11832Y-19792D01*
X11057Y-18785D02*
X11832Y-19559D01*
X10348Y-18785D02*
X11057Y-18785D01*
X19115Y-31999D02*
X17698Y-31999D01*
X19788Y-32672D02*
X19115Y-31999D01*
X10575Y-22549D02*
X10575Y-21952D01*
X10575Y-22549D02*
X10575Y-22549D01*
X10860Y-22834D02*
X10575Y-22549D01*
X10860Y-23706D02*
X10860Y-22834D01*
X13651Y-26497D02*
X10860Y-23706D01*
X13836Y-26497D02*
X13651Y-26497D01*
X10193Y-21015D02*
X11532Y-19676D01*
X10193Y-21285D02*
X10193Y-21015D01*
X9954Y-21524D02*
X10193Y-21285D01*
X9954Y-24222D02*
X9954Y-21524D01*
X10531Y-24799D02*
X9954Y-24222D01*
X14781Y-16892D02*
X14895Y-16777D01*
X14156Y-16892D02*
X14781Y-16892D01*
X13978Y-16714D02*
X14156Y-16892D01*
X13978Y-16276D02*
X13978Y-16714D01*
X13055Y-15353D02*
X13978Y-16276D01*
X13013Y-15353D02*
X13055Y-15353D01*
X13981Y-21523D02*
X13474Y-22031D01*
X14237Y-21523D02*
X13981Y-21523D01*
X15601Y-22888D02*
X14237Y-21523D01*
X15601Y-28832D02*
X15601Y-22888D01*
X12494Y-31939D02*
X15601Y-28832D01*
X12404Y-31939D02*
X12494Y-31939D01*
X12288Y-31824D02*
X12404Y-31939D01*
X9928Y-31824D02*
X12288Y-31824D01*
X9862Y-31889D02*
X9928Y-31824D01*
X14503Y-26260D02*
X14503Y-23812D01*
X13944Y-26818D02*
X14503Y-26260D01*
X12868Y-26818D02*
X13944Y-26818D01*
X12820Y-26770D02*
X12868Y-26818D01*
X11683Y-21535D02*
X11683Y-21535D01*
X11683Y-22297D02*
X11683Y-21535D01*
X12974Y-23588D02*
X11683Y-22297D01*
X19051Y-28933D02*
X19061Y-28933D01*
X16905Y-26787D02*
X19051Y-28933D01*
X16905Y-26397D02*
X16905Y-26787D01*
X12740Y-15059D02*
X11752Y-16047D01*
X13134Y-15059D02*
X12740Y-15059D01*
X13246Y-15171D02*
X13134Y-15059D01*
X15840Y-15171D02*
X13246Y-15171D01*
X16030Y-14980D02*
X15840Y-15171D01*
X16030Y-12307D02*
X16030Y-14980D01*
X15355Y-11632D02*
X16030Y-12307D01*
X15281Y-18577D02*
X15244Y-18614D01*
X20701Y-18577D02*
X15281Y-18577D01*
X21266Y-18577D02*
X20701Y-18577D01*
X23039Y-20350D02*
X21266Y-18577D01*
X9718Y-10004D02*
X9597Y-10125D01*
X20543Y-10004D02*
X9718Y-10004D01*
X20701Y-10163D02*
X20543Y-10004D01*
X20701Y-18577D02*
X20701Y-10163D01*
X17895Y-24370D02*
X17792Y-24267D01*
X20326Y-24370D02*
X17895Y-24370D01*
X20326Y-24874D02*
X20463Y-25011D01*
X20326Y-24370D02*
X20326Y-24874D01*
X20515Y-24181D02*
X20326Y-24370D01*
X20515Y-23668D02*
X20515Y-24181D01*
X20083Y-11812D02*
X20083Y-10614D01*
X15309Y-16585D02*
X20083Y-11812D01*
X12741Y-24473D02*
X12741Y-24625D01*
X10853Y-22585D02*
X12741Y-24473D01*
X10853Y-22337D02*
X10853Y-22585D01*
X10925Y-22265D02*
X10853Y-22337D01*
X10925Y-21031D02*
X10925Y-22265D01*
X12063Y-19893D02*
X10925Y-21031D01*
X12125Y-19893D02*
X12063Y-19893D01*
G54D10*
G36*
X18473Y-21623D02*
X18465Y-21623D01*
X18465Y-21630D01*
X18345Y-21630D01*
X18345Y-21623D01*
X18337Y-21623D01*
X18337Y-21502D01*
X18345Y-21502D01*
X18345Y-21495D01*
X18465Y-21495D01*
X18465Y-21502D01*
X18473Y-21502D01*
X18473Y-21623D01*
X18473Y-21623D01*
G37*
G54D21*
X18473Y-21623D02*
X18465Y-21623D01*
X18465Y-21630D01*
X18345Y-21630D01*
X18345Y-21623D01*
X18337Y-21623D01*
X18337Y-21502D01*
X18345Y-21502D01*
X18345Y-21495D01*
X18465Y-21495D01*
X18465Y-21502D01*
X18473Y-21502D01*
X18473Y-21623D01*
G54D10*
G36*
X23444Y-22130D02*
X23427Y-22091D01*
X23299Y-21962D01*
X23130Y-21892D01*
X22948Y-21892D01*
X22780Y-21961D01*
X22651Y-22090D01*
X22581Y-22258D01*
X22581Y-22441D01*
X22650Y-22609D01*
X22693Y-22652D01*
X22385Y-22652D01*
X22427Y-22610D01*
X22497Y-22441D01*
X22497Y-22259D01*
X22427Y-22091D01*
X22299Y-21962D01*
X22130Y-21892D01*
X21948Y-21892D01*
X21780Y-21961D01*
X21651Y-22090D01*
X21581Y-22258D01*
X21581Y-22367D01*
X20446Y-21232D01*
X20382Y-21189D01*
X20306Y-21174D01*
X20284Y-21174D01*
X20339Y-21040D01*
X20340Y-20858D01*
X20270Y-20689D01*
X20141Y-20560D01*
X19973Y-20490D01*
X19791Y-20490D01*
X19622Y-20560D01*
X19493Y-20689D01*
X19423Y-20857D01*
X19423Y-21039D01*
X19479Y-21174D01*
X19082Y-21174D01*
X19080Y-21164D01*
X19037Y-21100D01*
X19037Y-21100D01*
X18941Y-21004D01*
X18877Y-20961D01*
X18801Y-20946D01*
X18665Y-20946D01*
X18654Y-20946D01*
X18729Y-20895D01*
X18828Y-20747D01*
X18863Y-20571D01*
X18863Y-20554D01*
X18828Y-20378D01*
X18729Y-20230D01*
X18580Y-20130D01*
X18405Y-20095D01*
X18230Y-20130D01*
X18081Y-20230D01*
X17982Y-20378D01*
X17947Y-20554D01*
X17947Y-20571D01*
X17982Y-20747D01*
X18081Y-20895D01*
X18156Y-20946D01*
X17862Y-20946D01*
X17862Y-20946D01*
X17787Y-20961D01*
X17722Y-21004D01*
X17722Y-21004D01*
X17665Y-21061D01*
X16689Y-20086D01*
X19443Y-20086D01*
X19493Y-20207D01*
X19622Y-20336D01*
X19790Y-20406D01*
X19972Y-20406D01*
X20141Y-20337D01*
X20269Y-20208D01*
X20339Y-20040D01*
X20340Y-19858D01*
X20270Y-19689D01*
X20141Y-19560D01*
X19973Y-19490D01*
X19791Y-19490D01*
X19622Y-19560D01*
X19493Y-19689D01*
X19493Y-19690D01*
X18010Y-19690D01*
X18048Y-19600D01*
X18048Y-19467D01*
X17997Y-19345D01*
X17904Y-19251D01*
X17781Y-19200D01*
X17649Y-19200D01*
X17526Y-19251D01*
X17432Y-19344D01*
X17411Y-19395D01*
X14166Y-19395D01*
X14911Y-18651D01*
X14911Y-18680D01*
X14961Y-18802D01*
X15055Y-18896D01*
X15177Y-18947D01*
X15310Y-18947D01*
X15432Y-18897D01*
X15526Y-18803D01*
X15538Y-18775D01*
X20701Y-18775D01*
X21184Y-18775D01*
X22219Y-19810D01*
X22159Y-19810D01*
X22099Y-19870D01*
X22099Y-20290D01*
X22519Y-20290D01*
X22579Y-20230D01*
X22579Y-20170D01*
X22606Y-20197D01*
X22581Y-20258D01*
X22581Y-20441D01*
X22650Y-20609D01*
X22779Y-20738D01*
X22947Y-20808D01*
X23130Y-20808D01*
X23298Y-20738D01*
X23427Y-20610D01*
X23444Y-20569D01*
X23444Y-21130D01*
X23427Y-21091D01*
X23299Y-20962D01*
X23130Y-20892D01*
X22948Y-20892D01*
X22886Y-20917D01*
X22742Y-20773D01*
X22678Y-20730D01*
X22602Y-20715D01*
X22571Y-20715D01*
X22579Y-20697D01*
X22579Y-20470D01*
X22519Y-20410D01*
X22099Y-20410D01*
X22099Y-20418D01*
X21979Y-20418D01*
X21979Y-20410D01*
X21979Y-20290D01*
X21979Y-19870D01*
X21919Y-19810D01*
X21786Y-19810D01*
X21691Y-19810D01*
X21603Y-19847D01*
X21535Y-19914D01*
X21499Y-20002D01*
X21499Y-20230D01*
X21559Y-20290D01*
X21979Y-20290D01*
X21979Y-20410D01*
X21559Y-20410D01*
X21499Y-20470D01*
X21499Y-20697D01*
X21535Y-20786D01*
X21603Y-20853D01*
X21624Y-20862D01*
X21311Y-21175D01*
X21268Y-21239D01*
X21253Y-21315D01*
X21253Y-21337D01*
X21168Y-21421D01*
X21118Y-21544D01*
X21117Y-21676D01*
X21168Y-21799D01*
X21262Y-21892D01*
X21384Y-21943D01*
X21517Y-21943D01*
X21639Y-21893D01*
X21733Y-21799D01*
X21764Y-21723D01*
X21779Y-21738D01*
X21947Y-21808D01*
X22130Y-21808D01*
X22298Y-21738D01*
X22427Y-21610D01*
X22497Y-21441D01*
X22497Y-21259D01*
X22436Y-21111D01*
X22520Y-21111D01*
X22606Y-21197D01*
X22581Y-21258D01*
X22581Y-21441D01*
X22650Y-21609D01*
X22779Y-21738D01*
X22947Y-21808D01*
X23130Y-21808D01*
X23298Y-21738D01*
X23427Y-21610D01*
X23444Y-21569D01*
X23444Y-22130D01*
X23444Y-22130D01*
G37*
G54D21*
X23444Y-22130D02*
X23427Y-22091D01*
X23299Y-21962D01*
X23130Y-21892D01*
X22948Y-21892D01*
X22780Y-21961D01*
X22651Y-22090D01*
X22581Y-22258D01*
X22581Y-22441D01*
X22650Y-22609D01*
X22693Y-22652D01*
X22385Y-22652D01*
X22427Y-22610D01*
X22497Y-22441D01*
X22497Y-22259D01*
X22427Y-22091D01*
X22299Y-21962D01*
X22130Y-21892D01*
X21948Y-21892D01*
X21780Y-21961D01*
X21651Y-22090D01*
X21581Y-22258D01*
X21581Y-22367D01*
X20446Y-21232D01*
X20382Y-21189D01*
X20306Y-21174D01*
X20284Y-21174D01*
X20339Y-21040D01*
X20340Y-20858D01*
X20270Y-20689D01*
X20141Y-20560D01*
X19973Y-20490D01*
X19791Y-20490D01*
X19622Y-20560D01*
X19493Y-20689D01*
X19423Y-20857D01*
X19423Y-21039D01*
X19479Y-21174D01*
X19082Y-21174D01*
X19080Y-21164D01*
X19037Y-21100D01*
X19037Y-21100D01*
X18941Y-21004D01*
X18877Y-20961D01*
X18801Y-20946D01*
X18665Y-20946D01*
X18654Y-20946D01*
X18729Y-20895D01*
X18828Y-20747D01*
X18863Y-20571D01*
X18863Y-20554D01*
X18828Y-20378D01*
X18729Y-20230D01*
X18580Y-20130D01*
X18405Y-20095D01*
X18230Y-20130D01*
X18081Y-20230D01*
X17982Y-20378D01*
X17947Y-20554D01*
X17947Y-20571D01*
X17982Y-20747D01*
X18081Y-20895D01*
X18156Y-20946D01*
X17862Y-20946D01*
X17862Y-20946D01*
X17787Y-20961D01*
X17722Y-21004D01*
X17722Y-21004D01*
X17665Y-21061D01*
X16689Y-20086D01*
X19443Y-20086D01*
X19493Y-20207D01*
X19622Y-20336D01*
X19790Y-20406D01*
X19972Y-20406D01*
X20141Y-20337D01*
X20269Y-20208D01*
X20339Y-20040D01*
X20340Y-19858D01*
X20270Y-19689D01*
X20141Y-19560D01*
X19973Y-19490D01*
X19791Y-19490D01*
X19622Y-19560D01*
X19493Y-19689D01*
X19493Y-19690D01*
X18010Y-19690D01*
X18048Y-19600D01*
X18048Y-19467D01*
X17997Y-19345D01*
X17904Y-19251D01*
X17781Y-19200D01*
X17649Y-19200D01*
X17526Y-19251D01*
X17432Y-19344D01*
X17411Y-19395D01*
X14166Y-19395D01*
X14911Y-18651D01*
X14911Y-18680D01*
X14961Y-18802D01*
X15055Y-18896D01*
X15177Y-18947D01*
X15310Y-18947D01*
X15432Y-18897D01*
X15526Y-18803D01*
X15538Y-18775D01*
X20701Y-18775D01*
X21184Y-18775D01*
X22219Y-19810D01*
X22159Y-19810D01*
X22099Y-19870D01*
X22099Y-20290D01*
X22519Y-20290D01*
X22579Y-20230D01*
X22579Y-20170D01*
X22606Y-20197D01*
X22581Y-20258D01*
X22581Y-20441D01*
X22650Y-20609D01*
X22779Y-20738D01*
X22947Y-20808D01*
X23130Y-20808D01*
X23298Y-20738D01*
X23427Y-20610D01*
X23444Y-20569D01*
X23444Y-21130D01*
X23427Y-21091D01*
X23299Y-20962D01*
X23130Y-20892D01*
X22948Y-20892D01*
X22886Y-20917D01*
X22742Y-20773D01*
X22678Y-20730D01*
X22602Y-20715D01*
X22571Y-20715D01*
X22579Y-20697D01*
X22579Y-20470D01*
X22519Y-20410D01*
X22099Y-20410D01*
X22099Y-20418D01*
X21979Y-20418D01*
X21979Y-20410D01*
X21979Y-20290D01*
X21979Y-19870D01*
X21919Y-19810D01*
X21786Y-19810D01*
X21691Y-19810D01*
X21603Y-19847D01*
X21535Y-19914D01*
X21499Y-20002D01*
X21499Y-20230D01*
X21559Y-20290D01*
X21979Y-20290D01*
X21979Y-20410D01*
X21559Y-20410D01*
X21499Y-20470D01*
X21499Y-20697D01*
X21535Y-20786D01*
X21603Y-20853D01*
X21624Y-20862D01*
X21311Y-21175D01*
X21268Y-21239D01*
X21253Y-21315D01*
X21253Y-21337D01*
X21168Y-21421D01*
X21118Y-21544D01*
X21117Y-21676D01*
X21168Y-21799D01*
X21262Y-21892D01*
X21384Y-21943D01*
X21517Y-21943D01*
X21639Y-21893D01*
X21733Y-21799D01*
X21764Y-21723D01*
X21779Y-21738D01*
X21947Y-21808D01*
X22130Y-21808D01*
X22298Y-21738D01*
X22427Y-21610D01*
X22497Y-21441D01*
X22497Y-21259D01*
X22436Y-21111D01*
X22520Y-21111D01*
X22606Y-21197D01*
X22581Y-21258D01*
X22581Y-21441D01*
X22650Y-21609D01*
X22779Y-21738D01*
X22947Y-21808D01*
X23130Y-21808D01*
X23298Y-21738D01*
X23427Y-21610D01*
X23444Y-21569D01*
X23444Y-22130D01*
G54D10*
G36*
X23444Y-34572D02*
X23035Y-34981D01*
X23035Y-34972D01*
X23035Y-34319D01*
X23035Y-34223D01*
X22998Y-34135D01*
X22931Y-34068D01*
X22901Y-34055D01*
X22901Y-33218D01*
X22901Y-32799D01*
X22901Y-32678D01*
X22901Y-32259D01*
X22841Y-32199D01*
X22708Y-32198D01*
X22613Y-32199D01*
X22525Y-32235D01*
X22457Y-32303D01*
X22421Y-32391D01*
X22421Y-32618D01*
X22481Y-32678D01*
X22901Y-32678D01*
X22901Y-32799D01*
X22481Y-32799D01*
X22421Y-32859D01*
X22421Y-33086D01*
X22457Y-33174D01*
X22484Y-33201D01*
X22468Y-33195D01*
X22246Y-33195D01*
X22186Y-33255D01*
X22186Y-33670D01*
X22601Y-33670D01*
X22661Y-33610D01*
X22661Y-33482D01*
X22661Y-33387D01*
X22624Y-33298D01*
X22598Y-33272D01*
X22613Y-33278D01*
X22708Y-33278D01*
X22841Y-33278D01*
X22901Y-33218D01*
X22901Y-34055D01*
X22842Y-34031D01*
X22661Y-34031D01*
X22661Y-33978D01*
X22661Y-33850D01*
X22601Y-33790D01*
X22186Y-33790D01*
X22186Y-33798D01*
X22065Y-33798D01*
X22065Y-33790D01*
X21650Y-33790D01*
X21590Y-33850D01*
X21590Y-33978D01*
X21590Y-34073D01*
X21627Y-34161D01*
X21694Y-34229D01*
X21783Y-34265D01*
X21807Y-34265D01*
X21807Y-34319D01*
X21807Y-34525D01*
X21867Y-34585D01*
X22361Y-34585D01*
X22361Y-34577D01*
X22481Y-34577D01*
X22481Y-34585D01*
X22975Y-34585D01*
X23035Y-34525D01*
X23035Y-34319D01*
X23035Y-34972D01*
X23035Y-34765D01*
X22975Y-34705D01*
X22481Y-34705D01*
X22481Y-34713D01*
X22361Y-34713D01*
X22361Y-34705D01*
X21867Y-34705D01*
X21807Y-34765D01*
X21807Y-34972D01*
X21807Y-35067D01*
X21843Y-35155D01*
X21911Y-35223D01*
X21989Y-35255D01*
X20141Y-35255D01*
X20141Y-33978D01*
X20141Y-33850D01*
X20081Y-33790D01*
X19666Y-33790D01*
X19666Y-33798D01*
X19546Y-33798D01*
X19546Y-33790D01*
X19131Y-33790D01*
X19071Y-33850D01*
X19071Y-33978D01*
X19071Y-34031D01*
X18889Y-34031D01*
X18801Y-34068D01*
X18733Y-34135D01*
X18697Y-34223D01*
X18697Y-34319D01*
X18697Y-34525D01*
X18757Y-34585D01*
X19250Y-34585D01*
X19250Y-34577D01*
X19371Y-34577D01*
X19371Y-34585D01*
X19865Y-34585D01*
X19925Y-34525D01*
X19925Y-34319D01*
X19924Y-34265D01*
X19949Y-34265D01*
X20037Y-34229D01*
X20104Y-34161D01*
X20141Y-34073D01*
X20141Y-33978D01*
X20141Y-35255D01*
X19743Y-35255D01*
X19820Y-35223D01*
X19888Y-35155D01*
X19924Y-35067D01*
X19925Y-34972D01*
X19925Y-34765D01*
X19865Y-34705D01*
X19371Y-34705D01*
X19371Y-34713D01*
X19250Y-34713D01*
X19250Y-34705D01*
X18757Y-34705D01*
X18697Y-34765D01*
X18697Y-34972D01*
X18697Y-35067D01*
X18733Y-35155D01*
X18801Y-35223D01*
X18878Y-35255D01*
X12848Y-35255D01*
X13720Y-34383D01*
X13766Y-34313D01*
X13783Y-34231D01*
X13783Y-34072D01*
X16560Y-31294D01*
X16572Y-31323D01*
X16666Y-31417D01*
X16788Y-31468D01*
X16921Y-31468D01*
X17043Y-31418D01*
X17071Y-31389D01*
X17071Y-31498D01*
X17122Y-31620D01*
X17216Y-31714D01*
X17338Y-31765D01*
X17462Y-31765D01*
X17416Y-31810D01*
X17365Y-31933D01*
X17365Y-32065D01*
X17416Y-32188D01*
X17509Y-32281D01*
X17632Y-32332D01*
X17764Y-32332D01*
X17887Y-32282D01*
X17971Y-32197D01*
X19033Y-32197D01*
X19455Y-32619D01*
X19455Y-32738D01*
X19505Y-32860D01*
X19536Y-32891D01*
X17876Y-32891D01*
X17087Y-32102D01*
X17087Y-31983D01*
X17036Y-31861D01*
X16943Y-31767D01*
X16820Y-31716D01*
X16688Y-31716D01*
X16565Y-31767D01*
X16472Y-31861D01*
X16421Y-31983D01*
X16421Y-32115D01*
X16471Y-32238D01*
X16565Y-32332D01*
X16687Y-32382D01*
X16807Y-32383D01*
X17654Y-33229D01*
X17654Y-33229D01*
X17718Y-33272D01*
X17794Y-33287D01*
X17794Y-33287D01*
X17794Y-33287D01*
X19118Y-33287D01*
X19107Y-33298D01*
X19071Y-33387D01*
X19071Y-33482D01*
X19071Y-33610D01*
X19131Y-33670D01*
X19546Y-33670D01*
X19546Y-33662D01*
X19666Y-33662D01*
X19666Y-33670D01*
X20081Y-33670D01*
X20141Y-33610D01*
X20141Y-33482D01*
X20141Y-33387D01*
X20104Y-33298D01*
X20093Y-33287D01*
X21610Y-33287D01*
X21645Y-33280D01*
X21627Y-33298D01*
X21590Y-33387D01*
X21590Y-33482D01*
X21590Y-33610D01*
X21650Y-33670D01*
X22065Y-33670D01*
X22065Y-33255D01*
X22007Y-33197D01*
X22052Y-33197D01*
X22220Y-33127D01*
X22349Y-32998D01*
X22419Y-32830D01*
X22419Y-32648D01*
X22349Y-32479D01*
X22221Y-32350D01*
X22052Y-32280D01*
X21870Y-32280D01*
X21702Y-32350D01*
X21573Y-32479D01*
X21503Y-32647D01*
X21503Y-32829D01*
X21528Y-32891D01*
X21528Y-32891D01*
X20931Y-32891D01*
X20943Y-32862D01*
X20943Y-32730D01*
X20892Y-32607D01*
X20799Y-32513D01*
X20676Y-32462D01*
X20557Y-32462D01*
X19427Y-31333D01*
X21275Y-31333D01*
X21528Y-31586D01*
X21503Y-31647D01*
X21503Y-31829D01*
X21572Y-31998D01*
X21701Y-32127D01*
X21869Y-32196D01*
X22052Y-32197D01*
X22220Y-32127D01*
X22349Y-31998D01*
X22419Y-31830D01*
X22419Y-31648D01*
X22349Y-31479D01*
X22221Y-31350D01*
X22052Y-31280D01*
X21870Y-31280D01*
X21808Y-31306D01*
X21497Y-30995D01*
X21436Y-30954D01*
X21525Y-30954D01*
X21559Y-30954D01*
X21637Y-31071D01*
X21786Y-31171D01*
X21961Y-31206D01*
X22136Y-31171D01*
X22285Y-31071D01*
X22384Y-30923D01*
X22419Y-30747D01*
X22419Y-30730D01*
X22384Y-30554D01*
X22285Y-30406D01*
X22136Y-30306D01*
X21961Y-30271D01*
X21786Y-30306D01*
X21637Y-30406D01*
X21559Y-30523D01*
X21525Y-30523D01*
X16811Y-30523D01*
X16729Y-30539D01*
X16659Y-30586D01*
X13415Y-33830D01*
X13368Y-33900D01*
X13352Y-33982D01*
X13352Y-34141D01*
X12799Y-34694D01*
X12799Y-34319D01*
X12798Y-34223D01*
X12762Y-34135D01*
X12694Y-34068D01*
X12606Y-34031D01*
X12424Y-34031D01*
X12425Y-33978D01*
X12425Y-33482D01*
X12424Y-33387D01*
X12388Y-33298D01*
X12320Y-33231D01*
X12232Y-33195D01*
X12009Y-33195D01*
X11949Y-33255D01*
X11949Y-33670D01*
X12365Y-33670D01*
X12425Y-33610D01*
X12425Y-33482D01*
X12425Y-33978D01*
X12425Y-33850D01*
X12365Y-33790D01*
X11949Y-33790D01*
X11949Y-33798D01*
X11829Y-33798D01*
X11829Y-33790D01*
X11414Y-33790D01*
X11354Y-33850D01*
X11354Y-33978D01*
X11354Y-34073D01*
X11391Y-34161D01*
X11458Y-34229D01*
X11546Y-34265D01*
X11571Y-34265D01*
X11571Y-34319D01*
X11571Y-34525D01*
X11631Y-34585D01*
X12125Y-34585D01*
X12125Y-34577D01*
X12245Y-34577D01*
X12245Y-34585D01*
X12739Y-34585D01*
X12799Y-34525D01*
X12799Y-34319D01*
X12799Y-34694D01*
X12763Y-34730D01*
X12739Y-34705D01*
X12245Y-34705D01*
X12245Y-34713D01*
X12125Y-34713D01*
X12125Y-34705D01*
X11631Y-34705D01*
X11571Y-34765D01*
X11571Y-34956D01*
X11203Y-34956D01*
X10451Y-34204D01*
X10451Y-34110D01*
X10400Y-33987D01*
X10307Y-33893D01*
X10184Y-33842D01*
X10052Y-33842D01*
X9929Y-33893D01*
X9905Y-33917D01*
X9905Y-33482D01*
X9905Y-33387D01*
X9868Y-33298D01*
X9801Y-33231D01*
X9712Y-33195D01*
X9490Y-33195D01*
X9430Y-33255D01*
X9430Y-33670D01*
X9845Y-33670D01*
X9905Y-33610D01*
X9905Y-33482D01*
X9905Y-33917D01*
X9905Y-33917D01*
X9905Y-33850D01*
X9845Y-33790D01*
X9430Y-33790D01*
X9430Y-33798D01*
X9310Y-33798D01*
X9310Y-33790D01*
X9310Y-33670D01*
X9310Y-33255D01*
X9250Y-33195D01*
X9027Y-33195D01*
X9001Y-33205D01*
X9001Y-27936D01*
X9001Y-27241D01*
X9001Y-25936D01*
X9001Y-25241D01*
X9001Y-23936D01*
X9001Y-23241D01*
X8964Y-23153D01*
X8897Y-23085D01*
X8809Y-23049D01*
X8713Y-23048D01*
X8581Y-23049D01*
X8521Y-23109D01*
X8521Y-23528D01*
X8941Y-23528D01*
X9001Y-23468D01*
X9001Y-23241D01*
X9001Y-23936D01*
X9001Y-23709D01*
X8941Y-23649D01*
X8521Y-23649D01*
X8521Y-24068D01*
X8581Y-24128D01*
X8713Y-24128D01*
X8809Y-24128D01*
X8897Y-24092D01*
X8964Y-24024D01*
X9001Y-23936D01*
X9001Y-25241D01*
X8964Y-25153D01*
X8897Y-25085D01*
X8809Y-25049D01*
X8713Y-25048D01*
X8581Y-25049D01*
X8521Y-25109D01*
X8521Y-25528D01*
X8941Y-25528D01*
X9001Y-25468D01*
X9001Y-25241D01*
X9001Y-25936D01*
X9001Y-25709D01*
X8941Y-25649D01*
X8521Y-25649D01*
X8521Y-26068D01*
X8581Y-26128D01*
X8713Y-26128D01*
X8809Y-26128D01*
X8897Y-26092D01*
X8964Y-26024D01*
X9001Y-25936D01*
X9001Y-27241D01*
X8964Y-27153D01*
X8897Y-27085D01*
X8809Y-27049D01*
X8713Y-27048D01*
X8581Y-27049D01*
X8521Y-27109D01*
X8521Y-27528D01*
X8941Y-27528D01*
X9001Y-27468D01*
X9001Y-27241D01*
X9001Y-27936D01*
X9001Y-27709D01*
X8941Y-27649D01*
X8521Y-27649D01*
X8521Y-28068D01*
X8581Y-28128D01*
X8713Y-28128D01*
X8809Y-28128D01*
X8897Y-28092D01*
X8964Y-28024D01*
X9001Y-27936D01*
X9001Y-33205D01*
X8939Y-33231D01*
X8871Y-33298D01*
X8834Y-33387D01*
X8834Y-33482D01*
X8834Y-33610D01*
X8894Y-33670D01*
X9310Y-33670D01*
X9310Y-33790D01*
X8894Y-33790D01*
X8834Y-33850D01*
X8834Y-33978D01*
X8834Y-34031D01*
X8653Y-34031D01*
X8565Y-34068D01*
X8497Y-34135D01*
X8460Y-34223D01*
X8460Y-34319D01*
X8460Y-34525D01*
X8520Y-34585D01*
X9014Y-34585D01*
X9014Y-34577D01*
X9134Y-34577D01*
X9134Y-34585D01*
X9628Y-34585D01*
X9688Y-34525D01*
X9688Y-34319D01*
X9688Y-34265D01*
X9712Y-34265D01*
X9784Y-34235D01*
X9784Y-34241D01*
X9835Y-34364D01*
X9929Y-34458D01*
X10051Y-34508D01*
X10146Y-34509D01*
X10892Y-35255D01*
X9506Y-35255D01*
X9584Y-35223D01*
X9652Y-35155D01*
X9688Y-35067D01*
X9688Y-34972D01*
X9688Y-34765D01*
X9628Y-34705D01*
X9134Y-34705D01*
X9134Y-34713D01*
X9014Y-34713D01*
X9014Y-34705D01*
X8520Y-34705D01*
X8460Y-34765D01*
X8460Y-34972D01*
X8460Y-35067D01*
X8497Y-35155D01*
X8565Y-35223D01*
X8642Y-35255D01*
X8144Y-35255D01*
X8051Y-35162D01*
X8051Y-28103D01*
X8113Y-28128D01*
X8208Y-28128D01*
X8341Y-28128D01*
X8401Y-28068D01*
X8401Y-27649D01*
X8393Y-27649D01*
X8393Y-27528D01*
X8401Y-27528D01*
X8401Y-27109D01*
X8341Y-27049D01*
X8208Y-27048D01*
X8113Y-27049D01*
X8051Y-27074D01*
X8051Y-26797D01*
X8072Y-26848D01*
X8201Y-26977D01*
X8369Y-27046D01*
X8552Y-27047D01*
X8720Y-26977D01*
X8849Y-26848D01*
X8919Y-26680D01*
X8919Y-26498D01*
X8849Y-26329D01*
X8721Y-26200D01*
X8552Y-26130D01*
X8370Y-26130D01*
X8202Y-26200D01*
X8073Y-26329D01*
X8051Y-26381D01*
X8051Y-26103D01*
X8113Y-26128D01*
X8208Y-26128D01*
X8341Y-26128D01*
X8401Y-26068D01*
X8401Y-25649D01*
X8393Y-25649D01*
X8393Y-25528D01*
X8401Y-25528D01*
X8401Y-25109D01*
X8341Y-25049D01*
X8208Y-25048D01*
X8113Y-25049D01*
X8051Y-25074D01*
X8051Y-24797D01*
X8072Y-24848D01*
X8201Y-24977D01*
X8369Y-25046D01*
X8552Y-25047D01*
X8720Y-24977D01*
X8849Y-24848D01*
X8919Y-24680D01*
X8919Y-24498D01*
X8849Y-24329D01*
X8721Y-24200D01*
X8552Y-24130D01*
X8370Y-24130D01*
X8202Y-24200D01*
X8073Y-24329D01*
X8051Y-24381D01*
X8051Y-24103D01*
X8113Y-24128D01*
X8208Y-24128D01*
X8341Y-24128D01*
X8401Y-24068D01*
X8401Y-23649D01*
X8393Y-23649D01*
X8393Y-23528D01*
X8401Y-23528D01*
X8401Y-23109D01*
X8341Y-23049D01*
X8208Y-23048D01*
X8113Y-23049D01*
X8051Y-23074D01*
X8051Y-22797D01*
X8072Y-22848D01*
X8201Y-22977D01*
X8369Y-23046D01*
X8552Y-23047D01*
X8720Y-22977D01*
X8849Y-22848D01*
X8919Y-22680D01*
X8919Y-22498D01*
X8849Y-22329D01*
X8721Y-22200D01*
X8552Y-22130D01*
X8370Y-22130D01*
X8202Y-22200D01*
X8073Y-22329D01*
X8051Y-22381D01*
X8051Y-17298D01*
X8065Y-17331D01*
X8159Y-17425D01*
X8281Y-17476D01*
X8413Y-17476D01*
X8536Y-17425D01*
X8630Y-17332D01*
X8680Y-17209D01*
X8681Y-17090D01*
X9516Y-16254D01*
X9516Y-16254D01*
X9516Y-16254D01*
X9559Y-16190D01*
X9574Y-16114D01*
X9574Y-16114D01*
X9574Y-16114D01*
X9574Y-13535D01*
X9658Y-13451D01*
X9709Y-13328D01*
X9709Y-13196D01*
X9659Y-13073D01*
X9565Y-12980D01*
X9443Y-12929D01*
X9310Y-12929D01*
X9188Y-12979D01*
X9094Y-13073D01*
X9043Y-13195D01*
X9043Y-13328D01*
X9093Y-13450D01*
X9178Y-13535D01*
X9178Y-16032D01*
X8858Y-16352D01*
X8858Y-15753D01*
X8858Y-15742D01*
X8858Y-14572D01*
X8858Y-14561D01*
X8836Y-14447D01*
X8772Y-14351D01*
X8676Y-14287D01*
X8562Y-14265D01*
X8449Y-14287D01*
X8353Y-14351D01*
X8289Y-14447D01*
X8267Y-14561D01*
X8267Y-14572D01*
X8289Y-14685D01*
X8353Y-14781D01*
X8449Y-14846D01*
X8562Y-14868D01*
X8676Y-14846D01*
X8772Y-14781D01*
X8836Y-14685D01*
X8858Y-14572D01*
X8858Y-15742D01*
X8836Y-15629D01*
X8772Y-15533D01*
X8676Y-15468D01*
X8562Y-15446D01*
X8449Y-15468D01*
X8353Y-15533D01*
X8289Y-15629D01*
X8267Y-15742D01*
X8267Y-15753D01*
X8289Y-15867D01*
X8353Y-15963D01*
X8449Y-16027D01*
X8562Y-16049D01*
X8676Y-16027D01*
X8772Y-15963D01*
X8836Y-15867D01*
X8858Y-15753D01*
X8858Y-16352D01*
X8400Y-16810D01*
X8281Y-16809D01*
X8159Y-16860D01*
X8065Y-16954D01*
X8051Y-16987D01*
X8051Y-8735D01*
X8460Y-8326D01*
X8460Y-8334D01*
X8460Y-8541D01*
X8520Y-8601D01*
X9014Y-8601D01*
X9014Y-8593D01*
X9134Y-8593D01*
X9134Y-8601D01*
X9628Y-8601D01*
X9688Y-8541D01*
X9688Y-8334D01*
X9688Y-8239D01*
X9652Y-8151D01*
X9584Y-8083D01*
X9506Y-8051D01*
X11752Y-8051D01*
X11675Y-8083D01*
X11607Y-8151D01*
X11571Y-8239D01*
X11571Y-8334D01*
X11571Y-8541D01*
X11631Y-8601D01*
X12125Y-8601D01*
X12125Y-8593D01*
X12245Y-8593D01*
X12245Y-8601D01*
X12739Y-8601D01*
X12799Y-8541D01*
X12799Y-8334D01*
X12798Y-8239D01*
X12762Y-8151D01*
X12694Y-8083D01*
X12617Y-8051D01*
X18878Y-8051D01*
X18801Y-8083D01*
X18733Y-8151D01*
X18697Y-8239D01*
X18697Y-8334D01*
X18697Y-8541D01*
X18757Y-8601D01*
X19250Y-8601D01*
X19250Y-8593D01*
X19371Y-8593D01*
X19371Y-8601D01*
X19865Y-8601D01*
X19925Y-8541D01*
X19925Y-8334D01*
X19924Y-8239D01*
X19888Y-8151D01*
X19820Y-8083D01*
X19743Y-8051D01*
X21989Y-8051D01*
X21911Y-8083D01*
X21843Y-8151D01*
X21807Y-8239D01*
X21807Y-8334D01*
X21807Y-8541D01*
X21867Y-8601D01*
X22361Y-8601D01*
X22361Y-8593D01*
X22481Y-8593D01*
X22481Y-8601D01*
X22975Y-8601D01*
X23035Y-8541D01*
X23035Y-8334D01*
X23035Y-8326D01*
X23444Y-8735D01*
X23444Y-20130D01*
X23427Y-20091D01*
X23299Y-19962D01*
X23130Y-19892D01*
X23035Y-19892D01*
X23035Y-8987D01*
X23035Y-8781D01*
X22975Y-8721D01*
X22481Y-8721D01*
X22481Y-8729D01*
X22361Y-8729D01*
X22361Y-8721D01*
X21867Y-8721D01*
X21807Y-8781D01*
X21807Y-8987D01*
X21807Y-9041D01*
X21783Y-9041D01*
X21694Y-9077D01*
X21627Y-9145D01*
X21590Y-9233D01*
X21590Y-9329D01*
X21590Y-9456D01*
X21650Y-9516D01*
X22065Y-9516D01*
X22065Y-9508D01*
X22186Y-9508D01*
X22186Y-9516D01*
X22601Y-9516D01*
X22661Y-9456D01*
X22661Y-9329D01*
X22661Y-9275D01*
X22842Y-9275D01*
X22931Y-9238D01*
X22998Y-9171D01*
X23035Y-9083D01*
X23035Y-8987D01*
X23035Y-19892D01*
X22948Y-19892D01*
X22886Y-19917D01*
X22697Y-19728D01*
X22697Y-18315D01*
X22697Y-15165D01*
X22661Y-15078D01*
X22661Y-9824D01*
X22661Y-9696D01*
X22601Y-9636D01*
X22186Y-9636D01*
X22186Y-10052D01*
X22246Y-10112D01*
X22468Y-10112D01*
X22557Y-10075D01*
X22624Y-10008D01*
X22661Y-9919D01*
X22661Y-9824D01*
X22661Y-15078D01*
X22643Y-15035D01*
X22543Y-14935D01*
X22413Y-14881D01*
X22272Y-14881D01*
X22141Y-14935D01*
X22065Y-15010D01*
X22065Y-10052D01*
X22065Y-9636D01*
X21650Y-9636D01*
X21590Y-9696D01*
X21590Y-9824D01*
X21590Y-9919D01*
X21627Y-10008D01*
X21694Y-10075D01*
X21783Y-10112D01*
X22005Y-10112D01*
X22065Y-10052D01*
X22065Y-15010D01*
X22041Y-15034D01*
X21987Y-15165D01*
X21987Y-15306D01*
X22041Y-15437D01*
X22141Y-15536D01*
X22271Y-15591D01*
X22412Y-15591D01*
X22543Y-15537D01*
X22643Y-15437D01*
X22697Y-15307D01*
X22697Y-15165D01*
X22697Y-18315D01*
X22643Y-18185D01*
X22543Y-18085D01*
X22413Y-18030D01*
X22272Y-18030D01*
X22141Y-18084D01*
X22041Y-18184D01*
X21987Y-18314D01*
X21987Y-18456D01*
X22041Y-18586D01*
X22141Y-18686D01*
X22271Y-18740D01*
X22412Y-18740D01*
X22543Y-18686D01*
X22643Y-18587D01*
X22697Y-18456D01*
X22697Y-18315D01*
X22697Y-19728D01*
X21406Y-18437D01*
X21342Y-18394D01*
X21266Y-18379D01*
X20899Y-18379D01*
X20899Y-10163D01*
X20899Y-10163D01*
X20899Y-10163D01*
X20884Y-10087D01*
X20841Y-10023D01*
X20841Y-10023D01*
X20683Y-9864D01*
X20619Y-9821D01*
X20543Y-9806D01*
X20141Y-9806D01*
X20141Y-9329D01*
X20141Y-9233D01*
X20104Y-9145D01*
X20037Y-9077D01*
X19949Y-9041D01*
X19924Y-9041D01*
X19925Y-8987D01*
X19925Y-8781D01*
X19865Y-8721D01*
X19371Y-8721D01*
X19371Y-8729D01*
X19250Y-8729D01*
X19250Y-8721D01*
X18757Y-8721D01*
X18697Y-8781D01*
X18697Y-8987D01*
X18697Y-9083D01*
X18733Y-9171D01*
X18801Y-9238D01*
X18889Y-9275D01*
X19071Y-9275D01*
X19071Y-9329D01*
X19071Y-9456D01*
X19131Y-9516D01*
X19546Y-9516D01*
X19546Y-9508D01*
X19666Y-9508D01*
X19666Y-9516D01*
X20081Y-9516D01*
X20141Y-9456D01*
X20141Y-9329D01*
X20141Y-9806D01*
X20141Y-9806D01*
X20141Y-9696D01*
X20081Y-9636D01*
X19666Y-9636D01*
X19666Y-9644D01*
X19546Y-9644D01*
X19546Y-9636D01*
X19131Y-9636D01*
X19071Y-9696D01*
X19071Y-9806D01*
X12799Y-9806D01*
X12799Y-8987D01*
X12799Y-8781D01*
X12739Y-8721D01*
X12245Y-8721D01*
X12245Y-8729D01*
X12125Y-8729D01*
X12125Y-8721D01*
X11631Y-8721D01*
X11571Y-8781D01*
X11571Y-8987D01*
X11571Y-9041D01*
X11546Y-9041D01*
X11458Y-9077D01*
X11391Y-9145D01*
X11354Y-9233D01*
X11354Y-9329D01*
X11354Y-9456D01*
X11414Y-9516D01*
X11829Y-9516D01*
X11829Y-9508D01*
X11949Y-9508D01*
X11949Y-9516D01*
X12365Y-9516D01*
X12425Y-9456D01*
X12425Y-9329D01*
X12424Y-9275D01*
X12606Y-9275D01*
X12694Y-9238D01*
X12762Y-9171D01*
X12798Y-9083D01*
X12799Y-8987D01*
X12799Y-9806D01*
X12425Y-9806D01*
X12425Y-9696D01*
X12365Y-9636D01*
X11949Y-9636D01*
X11949Y-9644D01*
X11829Y-9644D01*
X11829Y-9636D01*
X11414Y-9636D01*
X11354Y-9696D01*
X11354Y-9806D01*
X9905Y-9806D01*
X9905Y-9329D01*
X9905Y-9233D01*
X9868Y-9145D01*
X9801Y-9077D01*
X9712Y-9041D01*
X9688Y-9041D01*
X9688Y-8987D01*
X9688Y-8781D01*
X9628Y-8721D01*
X9134Y-8721D01*
X9134Y-8729D01*
X9014Y-8729D01*
X9014Y-8721D01*
X8520Y-8721D01*
X8460Y-8781D01*
X8460Y-8987D01*
X8460Y-9083D01*
X8497Y-9171D01*
X8565Y-9238D01*
X8653Y-9275D01*
X8834Y-9275D01*
X8834Y-9329D01*
X8834Y-9456D01*
X8894Y-9516D01*
X9310Y-9516D01*
X9310Y-9508D01*
X9430Y-9508D01*
X9430Y-9516D01*
X9845Y-9516D01*
X9905Y-9456D01*
X9905Y-9329D01*
X9905Y-9806D01*
X9905Y-9806D01*
X9905Y-9696D01*
X9845Y-9636D01*
X9430Y-9636D01*
X9430Y-9644D01*
X9310Y-9644D01*
X9310Y-9636D01*
X8894Y-9636D01*
X8834Y-9696D01*
X8834Y-9824D01*
X8834Y-9919D01*
X8871Y-10008D01*
X8939Y-10075D01*
X9027Y-10112D01*
X9250Y-10112D01*
X9263Y-10098D01*
X9263Y-10191D01*
X9314Y-10314D01*
X9408Y-10408D01*
X9530Y-10458D01*
X9662Y-10459D01*
X9785Y-10408D01*
X9879Y-10314D01*
X9925Y-10202D01*
X20461Y-10202D01*
X20503Y-10245D01*
X20503Y-18379D01*
X19019Y-18379D01*
X19066Y-18332D01*
X19117Y-18210D01*
X19117Y-18077D01*
X19066Y-17955D01*
X18973Y-17861D01*
X18850Y-17810D01*
X18718Y-17810D01*
X18595Y-17861D01*
X18501Y-17954D01*
X18451Y-18077D01*
X18451Y-18121D01*
X17041Y-18121D01*
X17581Y-17582D01*
X17699Y-17582D01*
X17822Y-17531D01*
X17916Y-17438D01*
X17966Y-17315D01*
X17967Y-17183D01*
X17916Y-17060D01*
X17822Y-16966D01*
X17700Y-16916D01*
X17568Y-16916D01*
X17445Y-16966D01*
X17351Y-17060D01*
X17300Y-17182D01*
X17300Y-17302D01*
X16662Y-17940D01*
X16180Y-17940D01*
X17580Y-16540D01*
X17699Y-16540D01*
X17821Y-16490D01*
X17915Y-16396D01*
X17966Y-16274D01*
X17966Y-16141D01*
X17915Y-16019D01*
X17822Y-15925D01*
X17699Y-15874D01*
X17567Y-15874D01*
X17444Y-15924D01*
X17350Y-16018D01*
X17319Y-16093D01*
X17275Y-16049D01*
X17232Y-16031D01*
X18853Y-14411D01*
X19154Y-14411D01*
X19230Y-14396D01*
X19230Y-14396D01*
X19294Y-14353D01*
X19901Y-13746D01*
X19970Y-13746D01*
X20093Y-13695D01*
X20186Y-13602D01*
X20237Y-13479D01*
X20237Y-13347D01*
X20187Y-13224D01*
X20093Y-13131D01*
X19971Y-13080D01*
X19838Y-13080D01*
X19716Y-13130D01*
X19684Y-13162D01*
X19653Y-13131D01*
X19530Y-13080D01*
X19398Y-13080D01*
X19275Y-13131D01*
X19182Y-13224D01*
X19131Y-13347D01*
X19131Y-13466D01*
X19010Y-13416D01*
X18877Y-13416D01*
X18755Y-13466D01*
X18670Y-13551D01*
X18624Y-13551D01*
X20223Y-11952D01*
X20265Y-11888D01*
X20265Y-11888D01*
X20281Y-11812D01*
X20281Y-10887D01*
X20365Y-10803D01*
X20416Y-10681D01*
X20416Y-10548D01*
X20365Y-10426D01*
X20271Y-10332D01*
X20149Y-10281D01*
X20017Y-10281D01*
X19894Y-10332D01*
X19800Y-10425D01*
X19750Y-10548D01*
X19749Y-10680D01*
X19800Y-10803D01*
X19885Y-10887D01*
X19885Y-11730D01*
X15362Y-16252D01*
X15280Y-16252D01*
X16979Y-14553D01*
X16979Y-14553D01*
X16979Y-14553D01*
X17022Y-14488D01*
X17037Y-14412D01*
X17037Y-11391D01*
X17121Y-11307D01*
X17172Y-11185D01*
X17172Y-11052D01*
X17122Y-10930D01*
X17028Y-10836D01*
X16906Y-10785D01*
X16773Y-10785D01*
X16651Y-10836D01*
X16557Y-10929D01*
X16506Y-11052D01*
X16506Y-11184D01*
X16557Y-11307D01*
X16641Y-11391D01*
X16641Y-14330D01*
X16228Y-14743D01*
X16228Y-12307D01*
X16213Y-12231D01*
X16170Y-12167D01*
X16170Y-12167D01*
X15688Y-11685D01*
X15688Y-11566D01*
X15637Y-11443D01*
X15543Y-11349D01*
X15421Y-11299D01*
X15415Y-11299D01*
X15415Y-11222D01*
X15365Y-11100D01*
X15271Y-11006D01*
X15149Y-10955D01*
X15016Y-10955D01*
X14894Y-11005D01*
X14800Y-11099D01*
X14749Y-11221D01*
X14749Y-11354D01*
X14799Y-11476D01*
X14826Y-11503D01*
X14826Y-13287D01*
X14842Y-13370D01*
X14889Y-13440D01*
X15110Y-13661D01*
X14746Y-14025D01*
X14696Y-13904D01*
X14603Y-13810D01*
X14480Y-13759D01*
X14385Y-13759D01*
X13612Y-12986D01*
X13542Y-12939D01*
X13540Y-12939D01*
X13540Y-12616D01*
X13607Y-12549D01*
X13658Y-12427D01*
X13658Y-12295D01*
X13607Y-12172D01*
X13513Y-12078D01*
X13391Y-12028D01*
X13259Y-12027D01*
X13136Y-12078D01*
X13042Y-12172D01*
X12991Y-12294D01*
X12991Y-12427D01*
X13042Y-12549D01*
X13109Y-12616D01*
X13109Y-12923D01*
X11049Y-12923D01*
X11019Y-12892D01*
X10968Y-12871D01*
X12885Y-10954D01*
X14350Y-10954D01*
X14417Y-11021D01*
X14539Y-11072D01*
X14671Y-11072D01*
X14794Y-11021D01*
X14888Y-10928D01*
X14938Y-10805D01*
X14939Y-10673D01*
X14888Y-10550D01*
X14794Y-10457D01*
X14672Y-10406D01*
X14540Y-10406D01*
X14417Y-10456D01*
X14350Y-10523D01*
X12796Y-10523D01*
X12714Y-10540D01*
X12644Y-10586D01*
X12644Y-10586D01*
X12644Y-10586D01*
X10348Y-12882D01*
X10302Y-12952D01*
X10285Y-13034D01*
X10285Y-13612D01*
X10302Y-13695D01*
X10348Y-13765D01*
X10656Y-14072D01*
X9908Y-14820D01*
X9861Y-14890D01*
X9845Y-14972D01*
X9845Y-17207D01*
X9094Y-17958D01*
X9000Y-17958D01*
X8877Y-18009D01*
X8783Y-18102D01*
X8733Y-18225D01*
X8732Y-18357D01*
X8783Y-18480D01*
X8877Y-18573D01*
X8999Y-18624D01*
X9026Y-18624D01*
X9020Y-18658D01*
X9020Y-18704D01*
X8916Y-18704D01*
X8850Y-18638D01*
X8727Y-18587D01*
X8595Y-18587D01*
X8472Y-18637D01*
X8379Y-18731D01*
X8328Y-18853D01*
X8328Y-18986D01*
X8378Y-19108D01*
X8472Y-19202D01*
X8594Y-19253D01*
X8727Y-19253D01*
X8849Y-19203D01*
X8916Y-19136D01*
X9020Y-19136D01*
X9020Y-26028D01*
X9036Y-26110D01*
X9083Y-26180D01*
X10258Y-27355D01*
X10258Y-28997D01*
X10095Y-29160D01*
X10001Y-29160D01*
X9878Y-29210D01*
X9785Y-29304D01*
X9734Y-29426D01*
X9734Y-29559D01*
X9767Y-29640D01*
X9767Y-30837D01*
X9784Y-30920D01*
X9830Y-30990D01*
X9849Y-31008D01*
X9849Y-31103D01*
X9899Y-31225D01*
X9993Y-31319D01*
X10115Y-31370D01*
X10248Y-31370D01*
X10370Y-31319D01*
X10464Y-31225D01*
X10515Y-31103D01*
X10515Y-30971D01*
X10464Y-30848D01*
X10426Y-30810D01*
X10490Y-30783D01*
X10584Y-30690D01*
X10634Y-30567D01*
X10634Y-30435D01*
X10584Y-30312D01*
X10580Y-30308D01*
X11009Y-29879D01*
X12698Y-29879D01*
X12774Y-29864D01*
X12774Y-29864D01*
X12838Y-29821D01*
X15403Y-27256D01*
X15403Y-28750D01*
X12449Y-31704D01*
X12428Y-31684D01*
X12364Y-31641D01*
X12288Y-31626D01*
X10069Y-31626D01*
X10051Y-31607D01*
X9929Y-31556D01*
X9796Y-31556D01*
X9674Y-31607D01*
X9580Y-31700D01*
X9529Y-31823D01*
X9529Y-31955D01*
X9579Y-32078D01*
X9673Y-32171D01*
X9795Y-32222D01*
X9928Y-32222D01*
X10047Y-32173D01*
X10015Y-32221D01*
X10000Y-32297D01*
X10000Y-32860D01*
X10015Y-32936D01*
X10058Y-33000D01*
X10425Y-33368D01*
X10425Y-33368D01*
X10490Y-33411D01*
X10566Y-33426D01*
X11298Y-33426D01*
X11333Y-33461D01*
X11354Y-33470D01*
X11354Y-33482D01*
X11354Y-33610D01*
X11414Y-33670D01*
X11829Y-33670D01*
X11829Y-33307D01*
X11855Y-33246D01*
X11855Y-33113D01*
X11804Y-32991D01*
X11745Y-32931D01*
X13865Y-32931D01*
X13941Y-32916D01*
X13941Y-32916D01*
X14005Y-32873D01*
X16361Y-30518D01*
X21380Y-30518D01*
X21456Y-30503D01*
X21456Y-30503D01*
X21520Y-30460D01*
X21808Y-30171D01*
X21869Y-30196D01*
X22052Y-30197D01*
X22220Y-30127D01*
X22349Y-29998D01*
X22419Y-29830D01*
X22419Y-29648D01*
X22349Y-29479D01*
X22221Y-29350D01*
X22052Y-29280D01*
X21901Y-29280D01*
X21901Y-29218D01*
X21901Y-28799D01*
X21481Y-28799D01*
X21421Y-28859D01*
X21421Y-29086D01*
X21457Y-29174D01*
X21525Y-29242D01*
X21613Y-29278D01*
X21708Y-29278D01*
X21841Y-29278D01*
X21901Y-29218D01*
X21901Y-29280D01*
X21870Y-29280D01*
X21702Y-29350D01*
X21573Y-29479D01*
X21503Y-29647D01*
X21503Y-29829D01*
X21528Y-29891D01*
X21298Y-30122D01*
X20196Y-30122D01*
X20196Y-28783D01*
X20145Y-28661D01*
X20052Y-28567D01*
X19929Y-28516D01*
X19834Y-28516D01*
X18702Y-27384D01*
X18702Y-27024D01*
X18769Y-26957D01*
X18819Y-26835D01*
X18819Y-26702D01*
X18769Y-26580D01*
X18675Y-26486D01*
X18553Y-26435D01*
X18420Y-26435D01*
X18298Y-26486D01*
X18204Y-26579D01*
X18153Y-26702D01*
X18153Y-26834D01*
X18204Y-26957D01*
X18271Y-27024D01*
X18271Y-27473D01*
X18287Y-27555D01*
X18334Y-27625D01*
X19530Y-28821D01*
X19530Y-28915D01*
X19580Y-29038D01*
X19674Y-29131D01*
X19796Y-29182D01*
X19929Y-29182D01*
X20051Y-29132D01*
X20145Y-29038D01*
X20196Y-28916D01*
X20196Y-28783D01*
X20196Y-30122D01*
X16363Y-30122D01*
X16747Y-29738D01*
X19199Y-29738D01*
X19266Y-29804D01*
X19388Y-29855D01*
X19521Y-29855D01*
X19643Y-29805D01*
X19737Y-29711D01*
X19788Y-29589D01*
X19788Y-29456D01*
X19737Y-29334D01*
X19643Y-29240D01*
X19521Y-29189D01*
X19389Y-29189D01*
X19266Y-29239D01*
X19199Y-29306D01*
X16658Y-29306D01*
X16576Y-29323D01*
X16506Y-29370D01*
X14728Y-31147D01*
X14634Y-31147D01*
X14511Y-31198D01*
X14418Y-31291D01*
X14367Y-31414D01*
X14367Y-31546D01*
X14417Y-31669D01*
X14511Y-31762D01*
X14543Y-31776D01*
X13783Y-32535D01*
X13077Y-32535D01*
X16734Y-28878D01*
X16777Y-28813D01*
X16777Y-28813D01*
X16792Y-28738D01*
X16792Y-26954D01*
X18728Y-28890D01*
X18728Y-28999D01*
X18779Y-29121D01*
X18872Y-29215D01*
X18995Y-29266D01*
X19127Y-29266D01*
X19250Y-29215D01*
X19344Y-29122D01*
X19394Y-29000D01*
X19394Y-28867D01*
X19344Y-28745D01*
X19250Y-28651D01*
X19128Y-28600D01*
X18998Y-28600D01*
X17103Y-26705D01*
X17103Y-26670D01*
X17187Y-26586D01*
X17238Y-26463D01*
X17238Y-26331D01*
X17225Y-26298D01*
X20285Y-26298D01*
X21915Y-27928D01*
X21672Y-27928D01*
X21605Y-27861D01*
X21483Y-27810D01*
X21350Y-27810D01*
X21228Y-27861D01*
X21134Y-27954D01*
X21083Y-28077D01*
X21083Y-28209D01*
X21134Y-28332D01*
X21227Y-28425D01*
X21350Y-28476D01*
X21421Y-28476D01*
X21421Y-28618D01*
X21481Y-28678D01*
X21901Y-28678D01*
X21901Y-28671D01*
X22021Y-28671D01*
X22021Y-28678D01*
X22029Y-28678D01*
X22029Y-28799D01*
X22021Y-28799D01*
X22021Y-29218D01*
X22081Y-29278D01*
X22212Y-29278D01*
X22245Y-29327D01*
X22521Y-29603D01*
X22503Y-29647D01*
X22503Y-29829D01*
X22572Y-29998D01*
X22701Y-30127D01*
X22869Y-30196D01*
X23052Y-30197D01*
X23197Y-30136D01*
X23197Y-30222D01*
X23113Y-30306D01*
X23052Y-30280D01*
X22870Y-30280D01*
X22702Y-30350D01*
X22573Y-30479D01*
X22503Y-30647D01*
X22503Y-30829D01*
X22572Y-30998D01*
X22701Y-31127D01*
X22869Y-31196D01*
X23052Y-31197D01*
X23220Y-31127D01*
X23349Y-30998D01*
X23419Y-30830D01*
X23419Y-30648D01*
X23394Y-30586D01*
X23444Y-30536D01*
X23444Y-32282D01*
X23419Y-32257D01*
X23419Y-31648D01*
X23349Y-31479D01*
X23221Y-31350D01*
X23052Y-31280D01*
X22870Y-31280D01*
X22702Y-31350D01*
X22573Y-31479D01*
X22503Y-31647D01*
X22503Y-31829D01*
X22572Y-31998D01*
X22701Y-32127D01*
X22869Y-32196D01*
X23052Y-32197D01*
X23220Y-32127D01*
X23349Y-31998D01*
X23419Y-31830D01*
X23419Y-31648D01*
X23419Y-32257D01*
X23397Y-32235D01*
X23309Y-32199D01*
X23213Y-32198D01*
X23081Y-32199D01*
X23021Y-32259D01*
X23021Y-32678D01*
X23029Y-32678D01*
X23029Y-32799D01*
X23021Y-32799D01*
X23021Y-33218D01*
X23081Y-33278D01*
X23213Y-33278D01*
X23309Y-33278D01*
X23397Y-33242D01*
X23444Y-33195D01*
X23444Y-34572D01*
X23444Y-34572D01*
G37*
G54D21*
X23444Y-34572D02*
X23035Y-34981D01*
X23035Y-34972D01*
X23035Y-34319D01*
X23035Y-34223D01*
X22998Y-34135D01*
X22931Y-34068D01*
X22901Y-34055D01*
X22901Y-33218D01*
X22901Y-32799D01*
X22901Y-32678D01*
X22901Y-32259D01*
X22841Y-32199D01*
X22708Y-32198D01*
X22613Y-32199D01*
X22525Y-32235D01*
X22457Y-32303D01*
X22421Y-32391D01*
X22421Y-32618D01*
X22481Y-32678D01*
X22901Y-32678D01*
X22901Y-32799D01*
X22481Y-32799D01*
X22421Y-32859D01*
X22421Y-33086D01*
X22457Y-33174D01*
X22484Y-33201D01*
X22468Y-33195D01*
X22246Y-33195D01*
X22186Y-33255D01*
X22186Y-33670D01*
X22601Y-33670D01*
X22661Y-33610D01*
X22661Y-33482D01*
X22661Y-33387D01*
X22624Y-33298D01*
X22598Y-33272D01*
X22613Y-33278D01*
X22708Y-33278D01*
X22841Y-33278D01*
X22901Y-33218D01*
X22901Y-34055D01*
X22842Y-34031D01*
X22661Y-34031D01*
X22661Y-33978D01*
X22661Y-33850D01*
X22601Y-33790D01*
X22186Y-33790D01*
X22186Y-33798D01*
X22065Y-33798D01*
X22065Y-33790D01*
X21650Y-33790D01*
X21590Y-33850D01*
X21590Y-33978D01*
X21590Y-34073D01*
X21627Y-34161D01*
X21694Y-34229D01*
X21783Y-34265D01*
X21807Y-34265D01*
X21807Y-34319D01*
X21807Y-34525D01*
X21867Y-34585D01*
X22361Y-34585D01*
X22361Y-34577D01*
X22481Y-34577D01*
X22481Y-34585D01*
X22975Y-34585D01*
X23035Y-34525D01*
X23035Y-34319D01*
X23035Y-34972D01*
X23035Y-34765D01*
X22975Y-34705D01*
X22481Y-34705D01*
X22481Y-34713D01*
X22361Y-34713D01*
X22361Y-34705D01*
X21867Y-34705D01*
X21807Y-34765D01*
X21807Y-34972D01*
X21807Y-35067D01*
X21843Y-35155D01*
X21911Y-35223D01*
X21989Y-35255D01*
X20141Y-35255D01*
X20141Y-33978D01*
X20141Y-33850D01*
X20081Y-33790D01*
X19666Y-33790D01*
X19666Y-33798D01*
X19546Y-33798D01*
X19546Y-33790D01*
X19131Y-33790D01*
X19071Y-33850D01*
X19071Y-33978D01*
X19071Y-34031D01*
X18889Y-34031D01*
X18801Y-34068D01*
X18733Y-34135D01*
X18697Y-34223D01*
X18697Y-34319D01*
X18697Y-34525D01*
X18757Y-34585D01*
X19250Y-34585D01*
X19250Y-34577D01*
X19371Y-34577D01*
X19371Y-34585D01*
X19865Y-34585D01*
X19925Y-34525D01*
X19925Y-34319D01*
X19924Y-34265D01*
X19949Y-34265D01*
X20037Y-34229D01*
X20104Y-34161D01*
X20141Y-34073D01*
X20141Y-33978D01*
X20141Y-35255D01*
X19743Y-35255D01*
X19820Y-35223D01*
X19888Y-35155D01*
X19924Y-35067D01*
X19925Y-34972D01*
X19925Y-34765D01*
X19865Y-34705D01*
X19371Y-34705D01*
X19371Y-34713D01*
X19250Y-34713D01*
X19250Y-34705D01*
X18757Y-34705D01*
X18697Y-34765D01*
X18697Y-34972D01*
X18697Y-35067D01*
X18733Y-35155D01*
X18801Y-35223D01*
X18878Y-35255D01*
X12848Y-35255D01*
X13720Y-34383D01*
X13766Y-34313D01*
X13783Y-34231D01*
X13783Y-34072D01*
X16560Y-31294D01*
X16572Y-31323D01*
X16666Y-31417D01*
X16788Y-31468D01*
X16921Y-31468D01*
X17043Y-31418D01*
X17071Y-31389D01*
X17071Y-31498D01*
X17122Y-31620D01*
X17216Y-31714D01*
X17338Y-31765D01*
X17462Y-31765D01*
X17416Y-31810D01*
X17365Y-31933D01*
X17365Y-32065D01*
X17416Y-32188D01*
X17509Y-32281D01*
X17632Y-32332D01*
X17764Y-32332D01*
X17887Y-32282D01*
X17971Y-32197D01*
X19033Y-32197D01*
X19455Y-32619D01*
X19455Y-32738D01*
X19505Y-32860D01*
X19536Y-32891D01*
X17876Y-32891D01*
X17087Y-32102D01*
X17087Y-31983D01*
X17036Y-31861D01*
X16943Y-31767D01*
X16820Y-31716D01*
X16688Y-31716D01*
X16565Y-31767D01*
X16472Y-31861D01*
X16421Y-31983D01*
X16421Y-32115D01*
X16471Y-32238D01*
X16565Y-32332D01*
X16687Y-32382D01*
X16807Y-32383D01*
X17654Y-33229D01*
X17654Y-33229D01*
X17718Y-33272D01*
X17794Y-33287D01*
X17794Y-33287D01*
X17794Y-33287D01*
X19118Y-33287D01*
X19107Y-33298D01*
X19071Y-33387D01*
X19071Y-33482D01*
X19071Y-33610D01*
X19131Y-33670D01*
X19546Y-33670D01*
X19546Y-33662D01*
X19666Y-33662D01*
X19666Y-33670D01*
X20081Y-33670D01*
X20141Y-33610D01*
X20141Y-33482D01*
X20141Y-33387D01*
X20104Y-33298D01*
X20093Y-33287D01*
X21610Y-33287D01*
X21645Y-33280D01*
X21627Y-33298D01*
X21590Y-33387D01*
X21590Y-33482D01*
X21590Y-33610D01*
X21650Y-33670D01*
X22065Y-33670D01*
X22065Y-33255D01*
X22007Y-33197D01*
X22052Y-33197D01*
X22220Y-33127D01*
X22349Y-32998D01*
X22419Y-32830D01*
X22419Y-32648D01*
X22349Y-32479D01*
X22221Y-32350D01*
X22052Y-32280D01*
X21870Y-32280D01*
X21702Y-32350D01*
X21573Y-32479D01*
X21503Y-32647D01*
X21503Y-32829D01*
X21528Y-32891D01*
X21528Y-32891D01*
X20931Y-32891D01*
X20943Y-32862D01*
X20943Y-32730D01*
X20892Y-32607D01*
X20799Y-32513D01*
X20676Y-32462D01*
X20557Y-32462D01*
X19427Y-31333D01*
X21275Y-31333D01*
X21528Y-31586D01*
X21503Y-31647D01*
X21503Y-31829D01*
X21572Y-31998D01*
X21701Y-32127D01*
X21869Y-32196D01*
X22052Y-32197D01*
X22220Y-32127D01*
X22349Y-31998D01*
X22419Y-31830D01*
X22419Y-31648D01*
X22349Y-31479D01*
X22221Y-31350D01*
X22052Y-31280D01*
X21870Y-31280D01*
X21808Y-31306D01*
X21497Y-30995D01*
X21436Y-30954D01*
X21525Y-30954D01*
X21559Y-30954D01*
X21637Y-31071D01*
X21786Y-31171D01*
X21961Y-31206D01*
X22136Y-31171D01*
X22285Y-31071D01*
X22384Y-30923D01*
X22419Y-30747D01*
X22419Y-30730D01*
X22384Y-30554D01*
X22285Y-30406D01*
X22136Y-30306D01*
X21961Y-30271D01*
X21786Y-30306D01*
X21637Y-30406D01*
X21559Y-30523D01*
X21525Y-30523D01*
X16811Y-30523D01*
X16729Y-30539D01*
X16659Y-30586D01*
X13415Y-33830D01*
X13368Y-33900D01*
X13352Y-33982D01*
X13352Y-34141D01*
X12799Y-34694D01*
X12799Y-34319D01*
X12798Y-34223D01*
X12762Y-34135D01*
X12694Y-34068D01*
X12606Y-34031D01*
X12424Y-34031D01*
X12425Y-33978D01*
X12425Y-33482D01*
X12424Y-33387D01*
X12388Y-33298D01*
X12320Y-33231D01*
X12232Y-33195D01*
X12009Y-33195D01*
X11949Y-33255D01*
X11949Y-33670D01*
X12365Y-33670D01*
X12425Y-33610D01*
X12425Y-33482D01*
X12425Y-33978D01*
X12425Y-33850D01*
X12365Y-33790D01*
X11949Y-33790D01*
X11949Y-33798D01*
X11829Y-33798D01*
X11829Y-33790D01*
X11414Y-33790D01*
X11354Y-33850D01*
X11354Y-33978D01*
X11354Y-34073D01*
X11391Y-34161D01*
X11458Y-34229D01*
X11546Y-34265D01*
X11571Y-34265D01*
X11571Y-34319D01*
X11571Y-34525D01*
X11631Y-34585D01*
X12125Y-34585D01*
X12125Y-34577D01*
X12245Y-34577D01*
X12245Y-34585D01*
X12739Y-34585D01*
X12799Y-34525D01*
X12799Y-34319D01*
X12799Y-34694D01*
X12763Y-34730D01*
X12739Y-34705D01*
X12245Y-34705D01*
X12245Y-34713D01*
X12125Y-34713D01*
X12125Y-34705D01*
X11631Y-34705D01*
X11571Y-34765D01*
X11571Y-34956D01*
X11203Y-34956D01*
X10451Y-34204D01*
X10451Y-34110D01*
X10400Y-33987D01*
X10307Y-33893D01*
X10184Y-33842D01*
X10052Y-33842D01*
X9929Y-33893D01*
X9905Y-33917D01*
X9905Y-33482D01*
X9905Y-33387D01*
X9868Y-33298D01*
X9801Y-33231D01*
X9712Y-33195D01*
X9490Y-33195D01*
X9430Y-33255D01*
X9430Y-33670D01*
X9845Y-33670D01*
X9905Y-33610D01*
X9905Y-33482D01*
X9905Y-33917D01*
X9905Y-33917D01*
X9905Y-33850D01*
X9845Y-33790D01*
X9430Y-33790D01*
X9430Y-33798D01*
X9310Y-33798D01*
X9310Y-33790D01*
X9310Y-33670D01*
X9310Y-33255D01*
X9250Y-33195D01*
X9027Y-33195D01*
X9001Y-33205D01*
X9001Y-27936D01*
X9001Y-27241D01*
X9001Y-25936D01*
X9001Y-25241D01*
X9001Y-23936D01*
X9001Y-23241D01*
X8964Y-23153D01*
X8897Y-23085D01*
X8809Y-23049D01*
X8713Y-23048D01*
X8581Y-23049D01*
X8521Y-23109D01*
X8521Y-23528D01*
X8941Y-23528D01*
X9001Y-23468D01*
X9001Y-23241D01*
X9001Y-23936D01*
X9001Y-23709D01*
X8941Y-23649D01*
X8521Y-23649D01*
X8521Y-24068D01*
X8581Y-24128D01*
X8713Y-24128D01*
X8809Y-24128D01*
X8897Y-24092D01*
X8964Y-24024D01*
X9001Y-23936D01*
X9001Y-25241D01*
X8964Y-25153D01*
X8897Y-25085D01*
X8809Y-25049D01*
X8713Y-25048D01*
X8581Y-25049D01*
X8521Y-25109D01*
X8521Y-25528D01*
X8941Y-25528D01*
X9001Y-25468D01*
X9001Y-25241D01*
X9001Y-25936D01*
X9001Y-25709D01*
X8941Y-25649D01*
X8521Y-25649D01*
X8521Y-26068D01*
X8581Y-26128D01*
X8713Y-26128D01*
X8809Y-26128D01*
X8897Y-26092D01*
X8964Y-26024D01*
X9001Y-25936D01*
X9001Y-27241D01*
X8964Y-27153D01*
X8897Y-27085D01*
X8809Y-27049D01*
X8713Y-27048D01*
X8581Y-27049D01*
X8521Y-27109D01*
X8521Y-27528D01*
X8941Y-27528D01*
X9001Y-27468D01*
X9001Y-27241D01*
X9001Y-27936D01*
X9001Y-27709D01*
X8941Y-27649D01*
X8521Y-27649D01*
X8521Y-28068D01*
X8581Y-28128D01*
X8713Y-28128D01*
X8809Y-28128D01*
X8897Y-28092D01*
X8964Y-28024D01*
X9001Y-27936D01*
X9001Y-33205D01*
X8939Y-33231D01*
X8871Y-33298D01*
X8834Y-33387D01*
X8834Y-33482D01*
X8834Y-33610D01*
X8894Y-33670D01*
X9310Y-33670D01*
X9310Y-33790D01*
X8894Y-33790D01*
X8834Y-33850D01*
X8834Y-33978D01*
X8834Y-34031D01*
X8653Y-34031D01*
X8565Y-34068D01*
X8497Y-34135D01*
X8460Y-34223D01*
X8460Y-34319D01*
X8460Y-34525D01*
X8520Y-34585D01*
X9014Y-34585D01*
X9014Y-34577D01*
X9134Y-34577D01*
X9134Y-34585D01*
X9628Y-34585D01*
X9688Y-34525D01*
X9688Y-34319D01*
X9688Y-34265D01*
X9712Y-34265D01*
X9784Y-34235D01*
X9784Y-34241D01*
X9835Y-34364D01*
X9929Y-34458D01*
X10051Y-34508D01*
X10146Y-34509D01*
X10892Y-35255D01*
X9506Y-35255D01*
X9584Y-35223D01*
X9652Y-35155D01*
X9688Y-35067D01*
X9688Y-34972D01*
X9688Y-34765D01*
X9628Y-34705D01*
X9134Y-34705D01*
X9134Y-34713D01*
X9014Y-34713D01*
X9014Y-34705D01*
X8520Y-34705D01*
X8460Y-34765D01*
X8460Y-34972D01*
X8460Y-35067D01*
X8497Y-35155D01*
X8565Y-35223D01*
X8642Y-35255D01*
X8144Y-35255D01*
X8051Y-35162D01*
X8051Y-28103D01*
X8113Y-28128D01*
X8208Y-28128D01*
X8341Y-28128D01*
X8401Y-28068D01*
X8401Y-27649D01*
X8393Y-27649D01*
X8393Y-27528D01*
X8401Y-27528D01*
X8401Y-27109D01*
X8341Y-27049D01*
X8208Y-27048D01*
X8113Y-27049D01*
X8051Y-27074D01*
X8051Y-26797D01*
X8072Y-26848D01*
X8201Y-26977D01*
X8369Y-27046D01*
X8552Y-27047D01*
X8720Y-26977D01*
X8849Y-26848D01*
X8919Y-26680D01*
X8919Y-26498D01*
X8849Y-26329D01*
X8721Y-26200D01*
X8552Y-26130D01*
X8370Y-26130D01*
X8202Y-26200D01*
X8073Y-26329D01*
X8051Y-26381D01*
X8051Y-26103D01*
X8113Y-26128D01*
X8208Y-26128D01*
X8341Y-26128D01*
X8401Y-26068D01*
X8401Y-25649D01*
X8393Y-25649D01*
X8393Y-25528D01*
X8401Y-25528D01*
X8401Y-25109D01*
X8341Y-25049D01*
X8208Y-25048D01*
X8113Y-25049D01*
X8051Y-25074D01*
X8051Y-24797D01*
X8072Y-24848D01*
X8201Y-24977D01*
X8369Y-25046D01*
X8552Y-25047D01*
X8720Y-24977D01*
X8849Y-24848D01*
X8919Y-24680D01*
X8919Y-24498D01*
X8849Y-24329D01*
X8721Y-24200D01*
X8552Y-24130D01*
X8370Y-24130D01*
X8202Y-24200D01*
X8073Y-24329D01*
X8051Y-24381D01*
X8051Y-24103D01*
X8113Y-24128D01*
X8208Y-24128D01*
X8341Y-24128D01*
X8401Y-24068D01*
X8401Y-23649D01*
X8393Y-23649D01*
X8393Y-23528D01*
X8401Y-23528D01*
X8401Y-23109D01*
X8341Y-23049D01*
X8208Y-23048D01*
X8113Y-23049D01*
X8051Y-23074D01*
X8051Y-22797D01*
X8072Y-22848D01*
X8201Y-22977D01*
X8369Y-23046D01*
X8552Y-23047D01*
X8720Y-22977D01*
X8849Y-22848D01*
X8919Y-22680D01*
X8919Y-22498D01*
X8849Y-22329D01*
X8721Y-22200D01*
X8552Y-22130D01*
X8370Y-22130D01*
X8202Y-22200D01*
X8073Y-22329D01*
X8051Y-22381D01*
X8051Y-17298D01*
X8065Y-17331D01*
X8159Y-17425D01*
X8281Y-17476D01*
X8413Y-17476D01*
X8536Y-17425D01*
X8630Y-17332D01*
X8680Y-17209D01*
X8681Y-17090D01*
X9516Y-16254D01*
X9516Y-16254D01*
X9516Y-16254D01*
X9559Y-16190D01*
X9574Y-16114D01*
X9574Y-16114D01*
X9574Y-16114D01*
X9574Y-13535D01*
X9658Y-13451D01*
X9709Y-13328D01*
X9709Y-13196D01*
X9659Y-13073D01*
X9565Y-12980D01*
X9443Y-12929D01*
X9310Y-12929D01*
X9188Y-12979D01*
X9094Y-13073D01*
X9043Y-13195D01*
X9043Y-13328D01*
X9093Y-13450D01*
X9178Y-13535D01*
X9178Y-16032D01*
X8858Y-16352D01*
X8858Y-15753D01*
X8858Y-15742D01*
X8858Y-14572D01*
X8858Y-14561D01*
X8836Y-14447D01*
X8772Y-14351D01*
X8676Y-14287D01*
X8562Y-14265D01*
X8449Y-14287D01*
X8353Y-14351D01*
X8289Y-14447D01*
X8267Y-14561D01*
X8267Y-14572D01*
X8289Y-14685D01*
X8353Y-14781D01*
X8449Y-14846D01*
X8562Y-14868D01*
X8676Y-14846D01*
X8772Y-14781D01*
X8836Y-14685D01*
X8858Y-14572D01*
X8858Y-15742D01*
X8836Y-15629D01*
X8772Y-15533D01*
X8676Y-15468D01*
X8562Y-15446D01*
X8449Y-15468D01*
X8353Y-15533D01*
X8289Y-15629D01*
X8267Y-15742D01*
X8267Y-15753D01*
X8289Y-15867D01*
X8353Y-15963D01*
X8449Y-16027D01*
X8562Y-16049D01*
X8676Y-16027D01*
X8772Y-15963D01*
X8836Y-15867D01*
X8858Y-15753D01*
X8858Y-16352D01*
X8400Y-16810D01*
X8281Y-16809D01*
X8159Y-16860D01*
X8065Y-16954D01*
X8051Y-16987D01*
X8051Y-8735D01*
X8460Y-8326D01*
X8460Y-8334D01*
X8460Y-8541D01*
X8520Y-8601D01*
X9014Y-8601D01*
X9014Y-8593D01*
X9134Y-8593D01*
X9134Y-8601D01*
X9628Y-8601D01*
X9688Y-8541D01*
X9688Y-8334D01*
X9688Y-8239D01*
X9652Y-8151D01*
X9584Y-8083D01*
X9506Y-8051D01*
X11752Y-8051D01*
X11675Y-8083D01*
X11607Y-8151D01*
X11571Y-8239D01*
X11571Y-8334D01*
X11571Y-8541D01*
X11631Y-8601D01*
X12125Y-8601D01*
X12125Y-8593D01*
X12245Y-8593D01*
X12245Y-8601D01*
X12739Y-8601D01*
X12799Y-8541D01*
X12799Y-8334D01*
X12798Y-8239D01*
X12762Y-8151D01*
X12694Y-8083D01*
X12617Y-8051D01*
X18878Y-8051D01*
X18801Y-8083D01*
X18733Y-8151D01*
X18697Y-8239D01*
X18697Y-8334D01*
X18697Y-8541D01*
X18757Y-8601D01*
X19250Y-8601D01*
X19250Y-8593D01*
X19371Y-8593D01*
X19371Y-8601D01*
X19865Y-8601D01*
X19925Y-8541D01*
X19925Y-8334D01*
X19924Y-8239D01*
X19888Y-8151D01*
X19820Y-8083D01*
X19743Y-8051D01*
X21989Y-8051D01*
X21911Y-8083D01*
X21843Y-8151D01*
X21807Y-8239D01*
X21807Y-8334D01*
X21807Y-8541D01*
X21867Y-8601D01*
X22361Y-8601D01*
X22361Y-8593D01*
X22481Y-8593D01*
X22481Y-8601D01*
X22975Y-8601D01*
X23035Y-8541D01*
X23035Y-8334D01*
X23035Y-8326D01*
X23444Y-8735D01*
X23444Y-20130D01*
X23427Y-20091D01*
X23299Y-19962D01*
X23130Y-19892D01*
X23035Y-19892D01*
X23035Y-8987D01*
X23035Y-8781D01*
X22975Y-8721D01*
X22481Y-8721D01*
X22481Y-8729D01*
X22361Y-8729D01*
X22361Y-8721D01*
X21867Y-8721D01*
X21807Y-8781D01*
X21807Y-8987D01*
X21807Y-9041D01*
X21783Y-9041D01*
X21694Y-9077D01*
X21627Y-9145D01*
X21590Y-9233D01*
X21590Y-9329D01*
X21590Y-9456D01*
X21650Y-9516D01*
X22065Y-9516D01*
X22065Y-9508D01*
X22186Y-9508D01*
X22186Y-9516D01*
X22601Y-9516D01*
X22661Y-9456D01*
X22661Y-9329D01*
X22661Y-9275D01*
X22842Y-9275D01*
X22931Y-9238D01*
X22998Y-9171D01*
X23035Y-9083D01*
X23035Y-8987D01*
X23035Y-19892D01*
X22948Y-19892D01*
X22886Y-19917D01*
X22697Y-19728D01*
X22697Y-18315D01*
X22697Y-15165D01*
X22661Y-15078D01*
X22661Y-9824D01*
X22661Y-9696D01*
X22601Y-9636D01*
X22186Y-9636D01*
X22186Y-10052D01*
X22246Y-10112D01*
X22468Y-10112D01*
X22557Y-10075D01*
X22624Y-10008D01*
X22661Y-9919D01*
X22661Y-9824D01*
X22661Y-15078D01*
X22643Y-15035D01*
X22543Y-14935D01*
X22413Y-14881D01*
X22272Y-14881D01*
X22141Y-14935D01*
X22065Y-15010D01*
X22065Y-10052D01*
X22065Y-9636D01*
X21650Y-9636D01*
X21590Y-9696D01*
X21590Y-9824D01*
X21590Y-9919D01*
X21627Y-10008D01*
X21694Y-10075D01*
X21783Y-10112D01*
X22005Y-10112D01*
X22065Y-10052D01*
X22065Y-15010D01*
X22041Y-15034D01*
X21987Y-15165D01*
X21987Y-15306D01*
X22041Y-15437D01*
X22141Y-15536D01*
X22271Y-15591D01*
X22412Y-15591D01*
X22543Y-15537D01*
X22643Y-15437D01*
X22697Y-15307D01*
X22697Y-15165D01*
X22697Y-18315D01*
X22643Y-18185D01*
X22543Y-18085D01*
X22413Y-18030D01*
X22272Y-18030D01*
X22141Y-18084D01*
X22041Y-18184D01*
X21987Y-18314D01*
X21987Y-18456D01*
X22041Y-18586D01*
X22141Y-18686D01*
X22271Y-18740D01*
X22412Y-18740D01*
X22543Y-18686D01*
X22643Y-18587D01*
X22697Y-18456D01*
X22697Y-18315D01*
X22697Y-19728D01*
X21406Y-18437D01*
X21342Y-18394D01*
X21266Y-18379D01*
X20899Y-18379D01*
X20899Y-10163D01*
X20899Y-10163D01*
X20899Y-10163D01*
X20884Y-10087D01*
X20841Y-10023D01*
X20841Y-10023D01*
X20683Y-9864D01*
X20619Y-9821D01*
X20543Y-9806D01*
X20141Y-9806D01*
X20141Y-9329D01*
X20141Y-9233D01*
X20104Y-9145D01*
X20037Y-9077D01*
X19949Y-9041D01*
X19924Y-9041D01*
X19925Y-8987D01*
X19925Y-8781D01*
X19865Y-8721D01*
X19371Y-8721D01*
X19371Y-8729D01*
X19250Y-8729D01*
X19250Y-8721D01*
X18757Y-8721D01*
X18697Y-8781D01*
X18697Y-8987D01*
X18697Y-9083D01*
X18733Y-9171D01*
X18801Y-9238D01*
X18889Y-9275D01*
X19071Y-9275D01*
X19071Y-9329D01*
X19071Y-9456D01*
X19131Y-9516D01*
X19546Y-9516D01*
X19546Y-9508D01*
X19666Y-9508D01*
X19666Y-9516D01*
X20081Y-9516D01*
X20141Y-9456D01*
X20141Y-9329D01*
X20141Y-9806D01*
X20141Y-9806D01*
X20141Y-9696D01*
X20081Y-9636D01*
X19666Y-9636D01*
X19666Y-9644D01*
X19546Y-9644D01*
X19546Y-9636D01*
X19131Y-9636D01*
X19071Y-9696D01*
X19071Y-9806D01*
X12799Y-9806D01*
X12799Y-8987D01*
X12799Y-8781D01*
X12739Y-8721D01*
X12245Y-8721D01*
X12245Y-8729D01*
X12125Y-8729D01*
X12125Y-8721D01*
X11631Y-8721D01*
X11571Y-8781D01*
X11571Y-8987D01*
X11571Y-9041D01*
X11546Y-9041D01*
X11458Y-9077D01*
X11391Y-9145D01*
X11354Y-9233D01*
X11354Y-9329D01*
X11354Y-9456D01*
X11414Y-9516D01*
X11829Y-9516D01*
X11829Y-9508D01*
X11949Y-9508D01*
X11949Y-9516D01*
X12365Y-9516D01*
X12425Y-9456D01*
X12425Y-9329D01*
X12424Y-9275D01*
X12606Y-9275D01*
X12694Y-9238D01*
X12762Y-9171D01*
X12798Y-9083D01*
X12799Y-8987D01*
X12799Y-9806D01*
X12425Y-9806D01*
X12425Y-9696D01*
X12365Y-9636D01*
X11949Y-9636D01*
X11949Y-9644D01*
X11829Y-9644D01*
X11829Y-9636D01*
X11414Y-9636D01*
X11354Y-9696D01*
X11354Y-9806D01*
X9905Y-9806D01*
X9905Y-9329D01*
X9905Y-9233D01*
X9868Y-9145D01*
X9801Y-9077D01*
X9712Y-9041D01*
X9688Y-9041D01*
X9688Y-8987D01*
X9688Y-8781D01*
X9628Y-8721D01*
X9134Y-8721D01*
X9134Y-8729D01*
X9014Y-8729D01*
X9014Y-8721D01*
X8520Y-8721D01*
X8460Y-8781D01*
X8460Y-8987D01*
X8460Y-9083D01*
X8497Y-9171D01*
X8565Y-9238D01*
X8653Y-9275D01*
X8834Y-9275D01*
X8834Y-9329D01*
X8834Y-9456D01*
X8894Y-9516D01*
X9310Y-9516D01*
X9310Y-9508D01*
X9430Y-9508D01*
X9430Y-9516D01*
X9845Y-9516D01*
X9905Y-9456D01*
X9905Y-9329D01*
X9905Y-9806D01*
X9905Y-9806D01*
X9905Y-9696D01*
X9845Y-9636D01*
X9430Y-9636D01*
X9430Y-9644D01*
X9310Y-9644D01*
X9310Y-9636D01*
X8894Y-9636D01*
X8834Y-9696D01*
X8834Y-9824D01*
X8834Y-9919D01*
X8871Y-10008D01*
X8939Y-10075D01*
X9027Y-10112D01*
X9250Y-10112D01*
X9263Y-10098D01*
X9263Y-10191D01*
X9314Y-10314D01*
X9408Y-10408D01*
X9530Y-10458D01*
X9662Y-10459D01*
X9785Y-10408D01*
X9879Y-10314D01*
X9925Y-10202D01*
X20461Y-10202D01*
X20503Y-10245D01*
X20503Y-18379D01*
X19019Y-18379D01*
X19066Y-18332D01*
X19117Y-18210D01*
X19117Y-18077D01*
X19066Y-17955D01*
X18973Y-17861D01*
X18850Y-17810D01*
X18718Y-17810D01*
X18595Y-17861D01*
X18501Y-17954D01*
X18451Y-18077D01*
X18451Y-18121D01*
X17041Y-18121D01*
X17581Y-17582D01*
X17699Y-17582D01*
X17822Y-17531D01*
X17916Y-17438D01*
X17966Y-17315D01*
X17967Y-17183D01*
X17916Y-17060D01*
X17822Y-16966D01*
X17700Y-16916D01*
X17568Y-16916D01*
X17445Y-16966D01*
X17351Y-17060D01*
X17300Y-17182D01*
X17300Y-17302D01*
X16662Y-17940D01*
X16180Y-17940D01*
X17580Y-16540D01*
X17699Y-16540D01*
X17821Y-16490D01*
X17915Y-16396D01*
X17966Y-16274D01*
X17966Y-16141D01*
X17915Y-16019D01*
X17822Y-15925D01*
X17699Y-15874D01*
X17567Y-15874D01*
X17444Y-15924D01*
X17350Y-16018D01*
X17319Y-16093D01*
X17275Y-16049D01*
X17232Y-16031D01*
X18853Y-14411D01*
X19154Y-14411D01*
X19230Y-14396D01*
X19230Y-14396D01*
X19294Y-14353D01*
X19901Y-13746D01*
X19970Y-13746D01*
X20093Y-13695D01*
X20186Y-13602D01*
X20237Y-13479D01*
X20237Y-13347D01*
X20187Y-13224D01*
X20093Y-13131D01*
X19971Y-13080D01*
X19838Y-13080D01*
X19716Y-13130D01*
X19684Y-13162D01*
X19653Y-13131D01*
X19530Y-13080D01*
X19398Y-13080D01*
X19275Y-13131D01*
X19182Y-13224D01*
X19131Y-13347D01*
X19131Y-13466D01*
X19010Y-13416D01*
X18877Y-13416D01*
X18755Y-13466D01*
X18670Y-13551D01*
X18624Y-13551D01*
X20223Y-11952D01*
X20265Y-11888D01*
X20265Y-11888D01*
X20281Y-11812D01*
X20281Y-10887D01*
X20365Y-10803D01*
X20416Y-10681D01*
X20416Y-10548D01*
X20365Y-10426D01*
X20271Y-10332D01*
X20149Y-10281D01*
X20017Y-10281D01*
X19894Y-10332D01*
X19800Y-10425D01*
X19750Y-10548D01*
X19749Y-10680D01*
X19800Y-10803D01*
X19885Y-10887D01*
X19885Y-11730D01*
X15362Y-16252D01*
X15280Y-16252D01*
X16979Y-14553D01*
X16979Y-14553D01*
X16979Y-14553D01*
X17022Y-14488D01*
X17037Y-14412D01*
X17037Y-11391D01*
X17121Y-11307D01*
X17172Y-11185D01*
X17172Y-11052D01*
X17122Y-10930D01*
X17028Y-10836D01*
X16906Y-10785D01*
X16773Y-10785D01*
X16651Y-10836D01*
X16557Y-10929D01*
X16506Y-11052D01*
X16506Y-11184D01*
X16557Y-11307D01*
X16641Y-11391D01*
X16641Y-14330D01*
X16228Y-14743D01*
X16228Y-12307D01*
X16213Y-12231D01*
X16170Y-12167D01*
X16170Y-12167D01*
X15688Y-11685D01*
X15688Y-11566D01*
X15637Y-11443D01*
X15543Y-11349D01*
X15421Y-11299D01*
X15415Y-11299D01*
X15415Y-11222D01*
X15365Y-11100D01*
X15271Y-11006D01*
X15149Y-10955D01*
X15016Y-10955D01*
X14894Y-11005D01*
X14800Y-11099D01*
X14749Y-11221D01*
X14749Y-11354D01*
X14799Y-11476D01*
X14826Y-11503D01*
X14826Y-13287D01*
X14842Y-13370D01*
X14889Y-13440D01*
X15110Y-13661D01*
X14746Y-14025D01*
X14696Y-13904D01*
X14603Y-13810D01*
X14480Y-13759D01*
X14385Y-13759D01*
X13612Y-12986D01*
X13542Y-12939D01*
X13540Y-12939D01*
X13540Y-12616D01*
X13607Y-12549D01*
X13658Y-12427D01*
X13658Y-12295D01*
X13607Y-12172D01*
X13513Y-12078D01*
X13391Y-12028D01*
X13259Y-12027D01*
X13136Y-12078D01*
X13042Y-12172D01*
X12991Y-12294D01*
X12991Y-12427D01*
X13042Y-12549D01*
X13109Y-12616D01*
X13109Y-12923D01*
X11049Y-12923D01*
X11019Y-12892D01*
X10968Y-12871D01*
X12885Y-10954D01*
X14350Y-10954D01*
X14417Y-11021D01*
X14539Y-11072D01*
X14671Y-11072D01*
X14794Y-11021D01*
X14888Y-10928D01*
X14938Y-10805D01*
X14939Y-10673D01*
X14888Y-10550D01*
X14794Y-10457D01*
X14672Y-10406D01*
X14540Y-10406D01*
X14417Y-10456D01*
X14350Y-10523D01*
X12796Y-10523D01*
X12714Y-10540D01*
X12644Y-10586D01*
X12644Y-10586D01*
X12644Y-10586D01*
X10348Y-12882D01*
X10302Y-12952D01*
X10285Y-13034D01*
X10285Y-13612D01*
X10302Y-13695D01*
X10348Y-13765D01*
X10656Y-14072D01*
X9908Y-14820D01*
X9861Y-14890D01*
X9845Y-14972D01*
X9845Y-17207D01*
X9094Y-17958D01*
X9000Y-17958D01*
X8877Y-18009D01*
X8783Y-18102D01*
X8733Y-18225D01*
X8732Y-18357D01*
X8783Y-18480D01*
X8877Y-18573D01*
X8999Y-18624D01*
X9026Y-18624D01*
X9020Y-18658D01*
X9020Y-18704D01*
X8916Y-18704D01*
X8850Y-18638D01*
X8727Y-18587D01*
X8595Y-18587D01*
X8472Y-18637D01*
X8379Y-18731D01*
X8328Y-18853D01*
X8328Y-18986D01*
X8378Y-19108D01*
X8472Y-19202D01*
X8594Y-19253D01*
X8727Y-19253D01*
X8849Y-19203D01*
X8916Y-19136D01*
X9020Y-19136D01*
X9020Y-26028D01*
X9036Y-26110D01*
X9083Y-26180D01*
X10258Y-27355D01*
X10258Y-28997D01*
X10095Y-29160D01*
X10001Y-29160D01*
X9878Y-29210D01*
X9785Y-29304D01*
X9734Y-29426D01*
X9734Y-29559D01*
X9767Y-29640D01*
X9767Y-30837D01*
X9784Y-30920D01*
X9830Y-30990D01*
X9849Y-31008D01*
X9849Y-31103D01*
X9899Y-31225D01*
X9993Y-31319D01*
X10115Y-31370D01*
X10248Y-31370D01*
X10370Y-31319D01*
X10464Y-31225D01*
X10515Y-31103D01*
X10515Y-30971D01*
X10464Y-30848D01*
X10426Y-30810D01*
X10490Y-30783D01*
X10584Y-30690D01*
X10634Y-30567D01*
X10634Y-30435D01*
X10584Y-30312D01*
X10580Y-30308D01*
X11009Y-29879D01*
X12698Y-29879D01*
X12774Y-29864D01*
X12774Y-29864D01*
X12838Y-29821D01*
X15403Y-27256D01*
X15403Y-28750D01*
X12449Y-31704D01*
X12428Y-31684D01*
X12364Y-31641D01*
X12288Y-31626D01*
X10069Y-31626D01*
X10051Y-31607D01*
X9929Y-31556D01*
X9796Y-31556D01*
X9674Y-31607D01*
X9580Y-31700D01*
X9529Y-31823D01*
X9529Y-31955D01*
X9579Y-32078D01*
X9673Y-32171D01*
X9795Y-32222D01*
X9928Y-32222D01*
X10047Y-32173D01*
X10015Y-32221D01*
X10000Y-32297D01*
X10000Y-32860D01*
X10015Y-32936D01*
X10058Y-33000D01*
X10425Y-33368D01*
X10425Y-33368D01*
X10490Y-33411D01*
X10566Y-33426D01*
X11298Y-33426D01*
X11333Y-33461D01*
X11354Y-33470D01*
X11354Y-33482D01*
X11354Y-33610D01*
X11414Y-33670D01*
X11829Y-33670D01*
X11829Y-33307D01*
X11855Y-33246D01*
X11855Y-33113D01*
X11804Y-32991D01*
X11745Y-32931D01*
X13865Y-32931D01*
X13941Y-32916D01*
X13941Y-32916D01*
X14005Y-32873D01*
X16361Y-30518D01*
X21380Y-30518D01*
X21456Y-30503D01*
X21456Y-30503D01*
X21520Y-30460D01*
X21808Y-30171D01*
X21869Y-30196D01*
X22052Y-30197D01*
X22220Y-30127D01*
X22349Y-29998D01*
X22419Y-29830D01*
X22419Y-29648D01*
X22349Y-29479D01*
X22221Y-29350D01*
X22052Y-29280D01*
X21901Y-29280D01*
X21901Y-29218D01*
X21901Y-28799D01*
X21481Y-28799D01*
X21421Y-28859D01*
X21421Y-29086D01*
X21457Y-29174D01*
X21525Y-29242D01*
X21613Y-29278D01*
X21708Y-29278D01*
X21841Y-29278D01*
X21901Y-29218D01*
X21901Y-29280D01*
X21870Y-29280D01*
X21702Y-29350D01*
X21573Y-29479D01*
X21503Y-29647D01*
X21503Y-29829D01*
X21528Y-29891D01*
X21298Y-30122D01*
X20196Y-30122D01*
X20196Y-28783D01*
X20145Y-28661D01*
X20052Y-28567D01*
X19929Y-28516D01*
X19834Y-28516D01*
X18702Y-27384D01*
X18702Y-27024D01*
X18769Y-26957D01*
X18819Y-26835D01*
X18819Y-26702D01*
X18769Y-26580D01*
X18675Y-26486D01*
X18553Y-26435D01*
X18420Y-26435D01*
X18298Y-26486D01*
X18204Y-26579D01*
X18153Y-26702D01*
X18153Y-26834D01*
X18204Y-26957D01*
X18271Y-27024D01*
X18271Y-27473D01*
X18287Y-27555D01*
X18334Y-27625D01*
X19530Y-28821D01*
X19530Y-28915D01*
X19580Y-29038D01*
X19674Y-29131D01*
X19796Y-29182D01*
X19929Y-29182D01*
X20051Y-29132D01*
X20145Y-29038D01*
X20196Y-28916D01*
X20196Y-28783D01*
X20196Y-30122D01*
X16363Y-30122D01*
X16747Y-29738D01*
X19199Y-29738D01*
X19266Y-29804D01*
X19388Y-29855D01*
X19521Y-29855D01*
X19643Y-29805D01*
X19737Y-29711D01*
X19788Y-29589D01*
X19788Y-29456D01*
X19737Y-29334D01*
X19643Y-29240D01*
X19521Y-29189D01*
X19389Y-29189D01*
X19266Y-29239D01*
X19199Y-29306D01*
X16658Y-29306D01*
X16576Y-29323D01*
X16506Y-29370D01*
X14728Y-31147D01*
X14634Y-31147D01*
X14511Y-31198D01*
X14418Y-31291D01*
X14367Y-31414D01*
X14367Y-31546D01*
X14417Y-31669D01*
X14511Y-31762D01*
X14543Y-31776D01*
X13783Y-32535D01*
X13077Y-32535D01*
X16734Y-28878D01*
X16777Y-28813D01*
X16777Y-28813D01*
X16792Y-28738D01*
X16792Y-26954D01*
X18728Y-28890D01*
X18728Y-28999D01*
X18779Y-29121D01*
X18872Y-29215D01*
X18995Y-29266D01*
X19127Y-29266D01*
X19250Y-29215D01*
X19344Y-29122D01*
X19394Y-29000D01*
X19394Y-28867D01*
X19344Y-28745D01*
X19250Y-28651D01*
X19128Y-28600D01*
X18998Y-28600D01*
X17103Y-26705D01*
X17103Y-26670D01*
X17187Y-26586D01*
X17238Y-26463D01*
X17238Y-26331D01*
X17225Y-26298D01*
X20285Y-26298D01*
X21915Y-27928D01*
X21672Y-27928D01*
X21605Y-27861D01*
X21483Y-27810D01*
X21350Y-27810D01*
X21228Y-27861D01*
X21134Y-27954D01*
X21083Y-28077D01*
X21083Y-28209D01*
X21134Y-28332D01*
X21227Y-28425D01*
X21350Y-28476D01*
X21421Y-28476D01*
X21421Y-28618D01*
X21481Y-28678D01*
X21901Y-28678D01*
X21901Y-28671D01*
X22021Y-28671D01*
X22021Y-28678D01*
X22029Y-28678D01*
X22029Y-28799D01*
X22021Y-28799D01*
X22021Y-29218D01*
X22081Y-29278D01*
X22212Y-29278D01*
X22245Y-29327D01*
X22521Y-29603D01*
X22503Y-29647D01*
X22503Y-29829D01*
X22572Y-29998D01*
X22701Y-30127D01*
X22869Y-30196D01*
X23052Y-30197D01*
X23197Y-30136D01*
X23197Y-30222D01*
X23113Y-30306D01*
X23052Y-30280D01*
X22870Y-30280D01*
X22702Y-30350D01*
X22573Y-30479D01*
X22503Y-30647D01*
X22503Y-30829D01*
X22572Y-30998D01*
X22701Y-31127D01*
X22869Y-31196D01*
X23052Y-31197D01*
X23220Y-31127D01*
X23349Y-30998D01*
X23419Y-30830D01*
X23419Y-30648D01*
X23394Y-30586D01*
X23444Y-30536D01*
X23444Y-32282D01*
X23419Y-32257D01*
X23419Y-31648D01*
X23349Y-31479D01*
X23221Y-31350D01*
X23052Y-31280D01*
X22870Y-31280D01*
X22702Y-31350D01*
X22573Y-31479D01*
X22503Y-31647D01*
X22503Y-31829D01*
X22572Y-31998D01*
X22701Y-32127D01*
X22869Y-32196D01*
X23052Y-32197D01*
X23220Y-32127D01*
X23349Y-31998D01*
X23419Y-31830D01*
X23419Y-31648D01*
X23419Y-32257D01*
X23397Y-32235D01*
X23309Y-32199D01*
X23213Y-32198D01*
X23081Y-32199D01*
X23021Y-32259D01*
X23021Y-32678D01*
X23029Y-32678D01*
X23029Y-32799D01*
X23021Y-32799D01*
X23021Y-33218D01*
X23081Y-33278D01*
X23213Y-33278D01*
X23309Y-33278D01*
X23397Y-33242D01*
X23444Y-33195D01*
X23444Y-34572D01*
M02*
